<?xml version="1.0" encoding="UTF-8"?>
<svg version="1.1" xmlns="http://www.w3.org/2000/svg" width="256" height="256">
<path d="M0 0 C16.25666844 4.57840866 27.78317487 2.61973296 43.66333008 -1.90429688 C51.07433382 -3.73715169 58.38352083 -3.71582717 65.9765625 -3.7734375 C67.22373047 -3.80244141 68.47089844 -3.83144531 69.75585938 -3.86132812 C83.5094106 -3.95430585 94.60163508 -0.75569116 104.9140625 8.5390625 C107.24622421 11.04613634 109.13722235 13.61624728 110.9140625 16.5390625 C111.46126953 17.40724609 111.46126953 17.40724609 112.01953125 18.29296875 C118.24102515 29.32956521 119.56205493 42.13079571 119.9140625 54.5390625 C120.73390625 54.49265625 121.55375 54.44625 122.3984375 54.3984375 C123.47609375 54.36234375 124.55375 54.32625 125.6640625 54.2890625 C126.73140625 54.24265625 127.79875 54.19625 128.8984375 54.1484375 C131.9140625 54.5390625 131.9140625 54.5390625 134.30859375 56.359375 C135.9140625 58.5390625 135.9140625 58.5390625 135.8515625 61.6640625 C134.9140625 64.5390625 134.9140625 64.5390625 131.9140625 66.5390625 C128.77734375 66.734375 128.77734375 66.734375 125.2265625 66.6640625 C124.04707031 66.64601563 122.86757812 66.62796875 121.65234375 66.609375 C120.74871094 66.58617188 119.84507812 66.56296875 118.9140625 66.5390625 C118.88828125 67.12171875 118.8625 67.704375 118.8359375 68.3046875 C118.33805092 75.50141163 116.40601724 81.79339897 113.9140625 88.5390625 C115.17347656 88.796875 116.43289062 89.0546875 117.73046875 89.3203125 C123.22649612 90.54332662 128.51818663 92.24752795 133.8515625 94.0390625 C134.79580078 94.34714844 135.74003906 94.65523438 136.71289062 94.97265625 C137.61330078 95.27300781 138.51371094 95.57335937 139.44140625 95.8828125 C140.25343506 96.15287109 141.06546387 96.42292969 141.90209961 96.70117188 C143.9140625 97.5390625 143.9140625 97.5390625 145.9140625 99.5390625 C146.18398156 102.22745635 146.00143607 104.83048186 145.9140625 107.5390625 C143.9340625 108.5290625 143.9340625 108.5290625 141.9140625 109.5390625 C141.4190625 174.8790625 141.4190625 174.8790625 140.9140625 241.5390625 C142.2340625 241.8690625 143.5540625 242.1990625 144.9140625 242.5390625 C145.9140625 243.5390625 145.9140625 243.5390625 146.1015625 246.9765625 C145.9140625 250.5390625 145.9140625 250.5390625 143.9140625 252.5390625 C142.05213547 252.78976083 142.05213547 252.78976083 139.73797607 252.79074478 C138.85741169 252.79596028 137.97684731 252.80117577 137.06959915 252.80654931 C136.0962701 252.80208787 135.12294106 252.79762642 134.12011719 252.79302979 C132.57608782 252.79770976 132.57608782 252.79770976 131.00086594 252.80248427 C127.52916599 252.81050311 124.05763895 252.80412552 120.5859375 252.79785156 C118.10615943 252.8005597 115.62638217 252.80411963 113.14660645 252.80847168 C107.09689721 252.81666774 101.04725661 252.81543623 94.99755001 252.8096464 C90.08246897 252.80513649 85.16740185 252.80451409 80.25231934 252.80669403 C79.55377673 252.8070005 78.85523412 252.80730696 78.13552356 252.80762272 C76.71661408 252.80826214 75.29770461 252.80891057 73.87879515 252.8095679 C60.5619548 252.81527611 47.24514194 252.80870562 33.9283061 252.79796717 C22.49255487 252.78903121 11.05684424 252.79058311 -0.37890625 252.79980469 C-13.64687647 252.81049867 -26.91482256 252.81472674 -40.18279648 252.80858016 C-41.59659576 252.80794304 -43.01039505 252.8073143 -44.42419434 252.80669403 C-45.11987872 252.80638548 -45.81556311 252.80607693 -46.53232884 252.80575903 C-51.44363689 252.80402946 -56.35492967 252.8069528 -61.26623535 252.81165314 C-67.87189475 252.81783585 -74.47748909 252.81345767 -81.08314514 252.80186462 C-83.51404187 252.79920987 -85.94494503 252.79999691 -88.37583923 252.80438995 C-91.6813124 252.80981478 -94.98653519 252.80304867 -98.29199219 252.79302979 C-99.26532124 252.79749123 -100.23865028 252.80195267 -101.24147415 252.80654931 C-102.12203854 252.80133382 -103.00260292 252.79611832 -103.90985107 252.79074478 C-104.67352367 252.79042008 -105.43719627 252.79009537 -106.22401047 252.78976083 C-108.0859375 252.5390625 -108.0859375 252.5390625 -110.0859375 250.5390625 C-110.3359375 247.0390625 -110.3359375 247.0390625 -110.0859375 243.5390625 C-109.0959375 242.5490625 -109.0959375 242.5490625 -108.0859375 241.5390625 C-107.0959375 241.5390625 -106.1059375 241.5390625 -105.0859375 241.5390625 C-105.0859375 197.6490625 -105.0859375 153.7590625 -105.0859375 108.5390625 C-106.4059375 108.2090625 -107.7259375 107.8790625 -109.0859375 107.5390625 C-110.0859375 106.5390625 -110.0859375 106.5390625 -110.4609375 103.1640625 C-110.3371875 101.9678125 -110.2134375 100.7715625 -110.0859375 99.5390625 C-106.78855643 97.11107187 -103.31694531 95.78154832 -99.453125 94.49609375 C-97.87337891 93.96918945 -97.87337891 93.96918945 -96.26171875 93.43164062 C-95.17246094 93.07521484 -94.08320312 92.71878906 -92.9609375 92.3515625 C-91.86394531 91.98353516 -90.76695313 91.61550781 -89.63671875 91.23632812 C-81.47986723 88.5390625 -81.47986723 88.5390625 -78.0859375 88.5390625 C-78.36308594 87.70503906 -78.64023438 86.87101562 -78.92578125 86.01171875 C-81.03484374 79.45936447 -82.62011469 73.40994895 -83.0859375 66.5390625 C-83.97796875 66.58546875 -84.87 66.631875 -85.7890625 66.6796875 C-86.95953125 66.71578125 -88.13 66.751875 -89.3359375 66.7890625 C-90.49609375 66.83546875 -91.65625 66.881875 -92.8515625 66.9296875 C-96.0859375 66.5390625 -96.0859375 66.5390625 -98.51171875 64.71875 C-100.0859375 62.5390625 -100.0859375 62.5390625 -100.0234375 59.4140625 C-99.0859375 56.5390625 -99.0859375 56.5390625 -96.0859375 54.5390625 C-93.16796875 54.34375 -93.16796875 54.34375 -89.8984375 54.4140625 C-88.81175781 54.43210938 -87.72507812 54.45015625 -86.60546875 54.46875 C-85.77402344 54.49195313 -84.94257812 54.51515625 -84.0859375 54.5390625 C-84.04855469 53.60707031 -84.01117188 52.67507812 -83.97265625 51.71484375 C-83.0475584 33.7752012 -79.30325869 17.57310803 -65.47265625 5.08203125 C-48.23490032 -8.53538453 -19.72094873 -5.5784357 0 0 Z " fill="#040404" transform="translate(110.0859375,3.4609375)"/>
<path d="M0 0 C1.81274766 3.47485146 3.60818937 6.95809454 5.3894043 10.44921875 C6.28941093 12.20495769 7.20216364 13.95414444 8.11523438 15.703125 C14.63246035 28.51912245 16.52245334 40.66889368 17.625 54.8125 C17.74652005 56.26895354 17.86891268 57.72533455 17.9921875 59.18164062 C18.56418252 66.03874441 19.05451889 72.8917361 19.44921875 79.76171875 C19.89973149 86.61886774 20.86560111 93.26041394 22.1875 100 C22.46303711 101.59908203 22.46303711 101.59908203 22.74414062 103.23046875 C24.03909891 109.89143631 25.79113855 114.49667932 31 119 C35.04365272 121.44747401 39.37668511 121.5636041 44 121 C49.00333408 119.38875682 52.93447305 117.319902 56 113 C57.7195956 109.15586569 59.00237229 105.1866189 60.3125 101.1875 C63.82453115 90.97509605 67.72200531 81.41802338 73 72 C73.89525391 70.39705078 73.89525391 70.39705078 74.80859375 68.76171875 C78.17283674 63.10469547 81.12405066 59.09822783 87 56 C90.76632218 55.30822654 92.47970678 55.75645849 95.9375 57.375 C108.41940695 66.77695588 114.40247072 86.38765221 119.359375 100.52734375 C123.28768561 111.96527801 123.28768561 111.96527801 131.859375 120.1015625 C135.83031089 121.76819618 139.78697433 121.62532165 144 121 C149.60854849 118.63404089 153.54559601 115.31053414 156.00585938 109.71044922 C159.20408907 100.99071787 159.49525146 91.08255753 160.3175354 81.90408325 C160.50504735 79.81887132 160.7006463 77.73452254 160.8972168 75.65014648 C161.51450746 69.01373984 162.06198286 62.3865977 162.42578125 55.73046875 C163.53404178 35.93562511 168.84208351 21.38766576 178 4 C178.66 2.68 179.32 1.36 180 0 C191.22025479 2.49338995 202.09587234 6.36529078 213 10 C213 53.89 213 97.78 213 143 C214.32 143.33 215.64 143.66 217 144 C218 145 218 145 218.1875 148.4375 C218 152 218 152 216 154 C214.13807297 154.25069833 214.13807297 154.25069833 211.82391357 154.25168228 C210.94334919 154.25689778 210.06278481 154.26211327 209.15553665 154.26748681 C208.1822076 154.26302537 207.20887856 154.25856392 206.20605469 154.25396729 C204.66202532 154.25864726 204.66202532 154.25864726 203.08680344 154.26342177 C199.61510349 154.27144061 196.14357645 154.26506302 192.671875 154.25878906 C190.19209693 154.2614972 187.71231967 154.26505713 185.23254395 154.26940918 C179.18283471 154.27760524 173.13319411 154.27637373 167.08348751 154.2705839 C162.16840647 154.26607399 157.25333935 154.26545159 152.33825684 154.26763153 C151.63971423 154.267938 150.94117162 154.26824446 150.22146106 154.26856022 C148.80255158 154.26919964 147.38364211 154.26984807 145.96473265 154.2705054 C132.6478923 154.27621361 119.33107944 154.26964312 106.0142436 154.25890467 C94.57849237 154.24996871 83.14278174 154.25152061 71.70703125 154.26074219 C58.43906103 154.27143617 45.17111494 154.27566424 31.90314102 154.26951766 C30.48934174 154.26888054 29.07554245 154.2682518 27.66174316 154.26763153 C26.96605878 154.26732298 26.27037439 154.26701443 25.55360866 154.26669653 C20.64230061 154.26496696 15.73100783 154.2678903 10.81970215 154.27259064 C4.21404275 154.27877335 -2.39155159 154.27439517 -8.99720764 154.26280212 C-11.42810437 154.26014737 -13.85900753 154.26093441 -16.28990173 154.26532745 C-19.5953749 154.27075228 -22.90059769 154.26398617 -26.20605469 154.25396729 C-27.17938374 154.25842873 -28.15271278 154.26289017 -29.15553665 154.26748681 C-30.03610104 154.26227132 -30.91666542 154.25705582 -31.82391357 154.25168228 C-32.58758617 154.25135758 -33.35125877 154.25103287 -34.13807297 154.25069833 C-36 154 -36 154 -38 152 C-38.25 148.5 -38.25 148.5 -38 145 C-37.01 144.01 -37.01 144.01 -36 143 C-35.01 143 -34.02 143 -33 143 C-33 99.11 -33 55.22 -33 10 C-4 0 -4 0 0 0 Z " fill="#F06573" transform="translate(38,102)"/>
<path d="M0 0 C13.86 0 27.72 0 42 0 C42.495 7.425 42.495 7.425 43 15 C45.80569424 20.61138848 47.52707905 23.26353952 53 26 C55.52907616 26.19521171 58.05560792 26.31754437 60.58984375 26.42578125 C63.68469982 27.16312945 64.22195337 28.46352106 66 31 C69.12586875 31.33397787 69.12586875 31.33397787 72 31 C72.66 29.68 73.32 28.36 74 27 C84.56 27 95.12 27 106 27 C106.99 28.98 106.99 28.98 108 31 C110.87413125 31.33397787 110.87413125 31.33397787 114 31 C114.66128906 30.03126953 114.66128906 30.03126953 115.3359375 29.04296875 C117 27 117 27 119.70703125 26.34765625 C120.73183594 26.25355469 121.75664062 26.15945312 122.8125 26.0625 C128.51650222 25.27621674 131.18350433 24.31866615 135 20 C137.87083505 13.56919537 137.87083505 13.56919537 138 0 C151.86 0 165.72 0 180 0 C178.87389459 10.13494871 178.87389459 10.13494871 177.43359375 13.69140625 C177.11688721 14.48297119 176.80018066 15.27453613 176.47387695 16.09008789 C176.13187256 16.90598389 175.78986816 17.72187988 175.4375 18.5625 C174.90612427 19.86078735 174.90612427 19.86078735 174.36401367 21.18530273 C170.97420195 29.33177367 167.03696194 37.16048035 163 45 C154.46813592 61.63374032 153.14125165 78.58266222 151.9375 96.9375 C149.17844026 137.92274051 149.17844026 137.92274051 143 144 C139.5 144.5625 139.5 144.5625 136 144 C131.46490183 140.69060404 130.4746349 136.1863536 128.875 131.0625 C122.66013283 112.35590482 114.4243678 90.09642204 96.5625 79.5625 C90.95296444 78.33113853 86.05647933 78.01524802 80.9375 80.9375 C62.95135189 93.75930855 54.54711826 119.25844187 48.0703125 139.48046875 C47 142 47 142 44 144 C40.5625 144.4375 40.5625 144.4375 37 144 C33.18958863 140.29889651 32.11208427 136.59825283 31.34375 131.49609375 C31.22366577 130.75886581 31.10358154 130.02163788 30.9798584 129.2620697 C29.55004547 119.91799411 29.04743582 110.49084553 28.5 101.0625 C27.89661667 90.69126163 27.24506368 80.39820659 25.5625 70.13671875 C25.44628296 69.42016617 25.33006592 68.70361359 25.21032715 67.96534729 C23.0065614 55.44584754 16.75057345 44.42253416 11.05126953 33.21313477 C5.52814271 22.25338794 1.37056325 12.33506921 0 0 Z " fill="#EBE9F0" transform="translate(38,69)"/>
<path d="M0 0 C1.58264648 0.00193359 1.58264648 0.00193359 3.19726562 0.00390625 C12.55126953 0.10751983 21.25205716 1.52319728 30.16381836 4.33105469 C44.43148524 8.77298257 55.09744509 7.92968046 69.3125 3.875 C78.98758755 1.1362039 87.99407979 -0.3125 98.0625 -0.3125 C99.15272461 -0.31894531 100.24294922 -0.32539063 101.36621094 -0.33203125 C111.80985535 -0.10002187 122.06683545 2.74754354 129.5625 10.375 C134.92484196 17.2303374 137.42974883 25.02992748 139.5625 33.375 C139.76230469 34.12136719 139.96210938 34.86773437 140.16796875 35.63671875 C140.77378306 39.84142993 140.5625 44.12687016 140.5625 48.375 C126.3725 48.375 112.1825 48.375 97.5625 48.375 C97.2325 43.095 96.9025 37.815 96.5625 32.375 C92.39521321 25.53726456 92.39521321 25.53726456 85.65234375 22.78515625 C83.54849019 22.55313275 81.44431897 22.32397188 79.33984375 22.09765625 C75.99432421 21.22716242 75.45130139 20.1470938 73.5625 17.375 C70.43663125 17.04102213 70.43663125 17.04102213 67.5625 17.375 C66.9025 18.695 66.2425 20.015 65.5625 21.375 C55.0025 21.375 44.4425 21.375 33.5625 21.375 C32.5725 19.395 32.5725 19.395 31.5625 17.375 C28.9225 17.375 26.2825 17.375 23.5625 17.375 C23.2325 18.695 22.9025 20.015 22.5625 21.375 C21.91023438 21.40078125 21.25796875 21.4265625 20.5859375 21.453125 C14.84167137 21.82590923 11.0304872 22.43891604 6.5625 26.375 C1.1553826 33.39862024 1.1553826 33.39862024 1.5625 48.375 C-12.6275 48.375 -26.8175 48.375 -41.4375 48.375 C-40.53234605 33.89253681 -39.39765841 19.33515841 -28.625 8.5625 C-19.92880301 1.54943791 -10.94675047 -0.25318108 0 0 Z " fill="#EAE8EF" transform="translate(78.4375,10.625)"/>
<path d="M0 0 C0.88056438 -0.00521549 1.76112877 -0.01043099 2.66837692 -0.01580453 C3.64170597 -0.01134309 4.61503502 -0.00688164 5.61785889 -0.002285 C6.6472118 -0.00540498 7.67656471 -0.00852497 8.73711014 -0.01173949 C12.20881009 -0.01975833 15.68033712 -0.01338074 19.15203857 -0.00710678 C21.63181664 -0.00981492 24.1115939 -0.01337485 26.59136963 -0.0177269 C32.64107886 -0.02592296 38.69071947 -0.02469145 44.74042606 -0.01890162 C49.6555071 -0.01439171 54.57057423 -0.0137693 59.48565674 -0.01594925 C60.53347065 -0.01640895 60.53347065 -0.01640895 61.60245252 -0.01687793 C63.02136199 -0.01751736 64.44027146 -0.01816579 65.85918093 -0.01882312 C79.17602128 -0.02453133 92.49283413 -0.01796083 105.80966997 -0.00722238 C117.2454212 0.00171358 128.68113183 0.00016167 140.11688232 -0.00905991 C153.38485254 -0.01975388 166.65279863 -0.02398196 179.92077255 -0.01783538 C181.33457183 -0.01719826 182.74837112 -0.01656951 184.16217041 -0.01594925 C184.8578548 -0.0156407 185.55353919 -0.01533215 186.27030492 -0.01501425 C191.18161296 -0.01328468 196.09290575 -0.01620802 201.00421143 -0.02090836 C207.60987083 -0.02709107 214.21546516 -0.02271289 220.82112122 -0.01111984 C223.25201794 -0.00846509 225.6829211 -0.00925213 228.11381531 -0.01364517 C231.41928848 -0.01907 234.72451126 -0.01230388 238.02996826 -0.002285 C239.00329731 -0.00674645 239.97662636 -0.01120789 240.97945023 -0.01580453 C241.86001461 -0.01058903 242.74057899 -0.00537354 243.64782715 0 C244.79333605 0.00048706 244.79333605 0.00048706 245.96198654 0.00098395 C247.82391357 0.25168228 247.82391357 0.25168228 249.82391357 2.25168228 C250.07391357 5.75168228 250.07391357 5.75168228 249.82391357 9.25168228 C247.42478705 11.65080881 246.91686911 11.5019746 243.64782715 11.50336456 C242.76726276 11.50858006 241.88669838 11.51379555 240.97945023 11.51916909 C240.00612118 11.51470765 239.03279213 11.51024621 238.02996826 11.50564957 C237.00061535 11.50876955 235.97126244 11.51188953 234.91071701 11.51510406 C231.43901706 11.52312289 227.96749003 11.5167453 224.49578857 11.51047134 C222.01601051 11.51317948 219.53623325 11.51673941 217.05645752 11.52109146 C211.00674829 11.52928752 204.95710768 11.52805601 198.90740108 11.52226618 C193.99232005 11.51775628 189.07725292 11.51713387 184.16217041 11.51931381 C183.4636278 11.51962028 182.7650852 11.51992674 182.04537463 11.5202425 C180.62646516 11.52088192 179.20755569 11.52153035 177.78864622 11.52218768 C164.47180587 11.52789589 151.15499302 11.5213254 137.83815718 11.51058695 C126.40240595 11.50165099 114.96669532 11.50320289 103.53094482 11.51242447 C90.26297461 11.52311845 76.99502852 11.52734652 63.7270546 11.52119994 C62.31325531 11.52056282 60.89945603 11.51993408 59.48565674 11.51931381 C58.78997235 11.51900526 58.09428796 11.51869671 57.37752223 11.51837881 C52.46621419 11.51664925 47.5549214 11.51957258 42.64361572 11.52427292 C36.03795632 11.53045563 29.43236198 11.52607746 22.82670593 11.51448441 C20.39580921 11.51182965 17.96490605 11.51261669 15.53401184 11.51700974 C12.22853867 11.52243456 8.92331589 11.51566845 5.61785889 11.50564957 C4.64452984 11.51011101 3.67120079 11.51457245 2.66837692 11.51916909 C1.78781254 11.5139536 0.90724815 11.5087381 0 11.50336456 C-0.7636726 11.50303986 -1.5273452 11.50271515 -2.31415939 11.50238061 C-4.17608643 11.25168228 -4.17608643 11.25168228 -6.17608643 9.25168228 C-6.42608643 5.75168228 -6.42608643 5.75168228 -6.17608643 2.25168228 C-3.7769599 -0.14744424 -3.26904196 0.00138996 0 0 Z " fill="#060203" transform="translate(6.17608642578125,244.74831771850586)"/>
<path d="M0 0 C0.00238835 0.60776339 0.00477671 1.21552677 0.00723743 1.84170723 C0.06641127 16.63996511 0.1419766 31.43807136 0.23571491 46.23614693 C0.28065244 53.39244233 0.32007174 60.5486882 0.34643555 67.70507812 C0.36943227 73.94366175 0.40284882 80.18208833 0.44870156 86.42054737 C0.47261155 89.72283493 0.48980051 93.02493428 0.49761391 96.32730484 C0.50722771 100.0167786 0.53525609 103.70568505 0.56762695 107.39501953 C0.56619186 108.48618576 0.56475677 109.57735199 0.5632782 110.70158386 C0.63152476 116.19658295 0.82429641 120.2957133 4 125 C9.31525551 129.796694 12.76921993 130.15033792 19.74441528 130.15821838 C20.66083986 130.16315636 21.57726444 130.16809434 22.52145946 130.17318195 C25.61082133 130.18861401 28.70016233 130.19693298 31.78955078 130.20532227 C33.99671616 130.21489631 36.20387969 130.2249061 38.41104126 130.23532104 C44.41898388 130.26242754 50.4269344 130.28340594 56.43490458 130.30332303 C62.70766558 130.32514723 68.98040206 130.35255332 75.25314331 130.37937927 C85.78675265 130.4236701 96.32037105 130.46449717 106.85400391 130.50268555 C117.70492535 130.54203367 128.55583558 130.58345825 139.40673828 130.62768555 C140.40958062 130.63177196 140.40958062 130.63177196 141.43268241 130.63594092 C144.78657324 130.64962028 148.14046391 130.66334058 151.49435449 130.67708123 C179.32954673 130.7909754 207.16476255 130.89779819 235 131 C235 132.65 235 134.3 235 136 C153.82 136 72.64 136 -11 136 C-11 92.11 -11 48.22 -11 3 C-3 0 -3 0 0 0 Z " fill="#DA5568" transform="translate(16,109)"/>
<path d="M0 0 C13.86 0 27.72 0 42 0 C42 0.33 42 0.66 42 1 C30.12 1 18.24 1 6 1 C9.74617228 11.89795572 13.877883 22.11484711 19.125 32.375 C30.11118982 53.97808178 32.89654141 73.49374026 34.6890564 97.39596558 C35.78089785 111.97551156 35.78089785 111.97551156 37.4375 126.5 C37.58445312 127.7063208 37.58445312 127.7063208 37.734375 128.93701172 C38.45536188 133.87208002 40.05480054 137.01841822 43 141 C43.33 141.99 43.66 142.98 44 144 C40.75 144.3125 40.75 144.3125 37 144 C33.17407892 140.31829616 32.11115636 136.59209105 31.34375 131.49609375 C31.22366577 130.75886581 31.10358154 130.02163788 30.9798584 129.2620697 C29.55004547 119.91799411 29.04743582 110.49084553 28.5 101.0625 C27.89661667 90.69126163 27.24506368 80.39820659 25.5625 70.13671875 C25.44628296 69.42016617 25.33006592 68.70361359 25.21032715 67.96534729 C23.0065614 55.44584754 16.75057345 44.42253416 11.05126953 33.21313477 C5.52814271 22.25338794 1.37056325 12.33506921 0 0 Z " fill="#D1CFDC" transform="translate(38,69)"/>
<path d="M0 0 C10.56 0 21.12 0 32 0 C32 5.28 32 10.56 32 16 C21.44 16 10.88 16 0 16 C0 10.72 0 5.44 0 0 Z " fill="#A7DCF3" transform="translate(112,69)"/>
<path d="M0 0 C10.56 0 21.12 0 32 0 C32 5.28 32 10.56 32 16 C21.44 16 10.88 16 0 16 C0 10.72 0 5.44 0 0 Z " fill="#ADE0F5" transform="translate(112,43)"/>
<path d="M0 0 C2.64 0 5.28 0 8 0 C10.60305892 2.60305892 10.24824978 4.42278539 10.27789307 7.96899414 C10.2738446 8.78360107 10.26979614 9.59820801 10.265625 10.4375 C10.26753845 11.27337646 10.2694519 12.10925293 10.27142334 12.97045898 C10.27278536 14.73909811 10.26908776 16.50774723 10.26074219 18.27636719 C10.25004275 20.98915994 10.26063676 23.70129044 10.2734375 26.4140625 C10.27211591 28.1302098 10.26955352 29.84635669 10.265625 31.5625 C10.26967346 32.37710693 10.27372192 33.19171387 10.27789307 34.03100586 C10.22991928 39.77008072 10.22991928 39.77008072 8 42 C5.36 42 2.72 42 0 42 C0 28.14 0 14.28 0 0 Z " fill="#B1E4FA" transform="translate(155,43)"/>
<path d="M0 0 C2.64 0 5.28 0 8 0 C8 13.86 8 27.72 8 42 C5.36 42 2.72 42 0 42 C-2.60305892 39.39694108 -2.24824978 37.57721461 -2.27789307 34.03100586 C-2.2738446 33.21639893 -2.26979614 32.40179199 -2.265625 31.5625 C-2.26753845 30.72662354 -2.2694519 29.89074707 -2.27142334 29.02954102 C-2.27278536 27.26090189 -2.26908776 25.49225277 -2.26074219 23.72363281 C-2.25004275 21.01084006 -2.26063676 18.29870956 -2.2734375 15.5859375 C-2.27211591 13.8697902 -2.26955352 12.15364331 -2.265625 10.4375 C-2.26967346 9.62289307 -2.27372192 8.80828613 -2.27789307 7.96899414 C-2.22991928 2.22991928 -2.22991928 2.22991928 0 0 Z " fill="#9ED9F1" transform="translate(93,43)"/>
<path d="M0 0 C1.38572562 2.77145125 0.56948998 3.9238866 -0.3125 6.875 C-2.68683376 15.78419734 -3.19449401 24.82962416 -4 34 C8.54 34 21.08 34 34 34 C34 34.33 34 34.66 34 35 C19.81 35 5.62 35 -9 35 C-8.14218199 21.27491186 -7.18257043 11.28689639 0 0 Z " fill="#BABBC7" transform="translate(46,24)"/>
<path d="M0 0 C1.65 0 3.3 0 5 0 C5 11.55 5 23.1 5 35 C0 30 0 30 -0.56762695 26.6784668 C-0.54144287 25.44781494 -0.51525879 24.21716309 -0.48828125 22.94921875 C-0.48120651 22.29041214 -0.47413177 21.63160553 -0.46684265 20.95283508 C-0.43900979 18.86319966 -0.37630819 16.77631524 -0.3125 14.6875 C-0.28740205 13.26501286 -0.26459148 11.84248341 -0.24414062 10.41992188 C-0.18922446 6.94573139 -0.10303685 3.4731345 0 0 Z " fill="#B1E4FA" transform="translate(96,43)"/>
<path d="M0 0 C3.3 0 6.6 0 10 0 C9 4 9 4 8 5 C5.32941149 5.14115161 2.67567762 5.04247107 0 5 C0 3.35 0 1.7 0 0 Z " fill="#9CD7EE" transform="translate(155,80)"/>
<path d="M0 0 C1.17949219 0.01804688 2.35898437 0.03609375 3.57421875 0.0546875 C4.92966797 0.08949219 4.92966797 0.08949219 6.3125 0.125 C6.3125 0.455 6.3125 0.785 6.3125 1.125 C5.06533203 1.18107422 5.06533203 1.18107422 3.79296875 1.23828125 C2.70628906 1.30402344 1.61960937 1.36976562 0.5 1.4375 C-1.11841797 1.52451172 -1.11841797 1.52451172 -2.76953125 1.61328125 C-5.93815475 2.16895686 -6.79500667 2.61162558 -8.6875 5.125 C-9.3475 6.115 -10.0075 7.105 -10.6875 8.125 C-10.375 5.25 -10.375 5.25 -9.6875 2.125 C-6.05554504 -0.29630331 -4.30400652 -0.08522785 0 0 Z " fill="#2C4249" transform="translate(20.6875,57.875)"/>
</svg>
