<?xml version="1.0" encoding="UTF-8"?>
<svg version="1.1" xmlns="http://www.w3.org/2000/svg" width="256" height="256">
<path d="M0 0 C1.23906601 -0.01260864 2.47813202 -0.02521729 3.75474548 -0.03820801 C5.1067664 -0.03104103 6.45878215 -0.02283527 7.81079102 -0.01367188 C9.20882944 -0.01637002 10.60686603 -0.02025512 12.00489807 -0.02526855 C14.93964448 -0.03116611 17.87390402 -0.02260496 20.80859375 -0.00390625 C24.53381443 0.01869469 28.25787019 0.0058845 31.98304653 -0.01819611 C34.875416 -0.03281113 37.76752026 -0.02797418 40.65989876 -0.01768494 C42.03074347 -0.01505072 43.40161374 -0.01816842 44.77242851 -0.02760315 C56.51000923 -0.0905744 67.20378964 1.73012825 77.18969727 8.14257812 C82.95565528 11.43441597 87.72975739 12.31690105 94.19873047 12.88793945 C101.78649177 13.58495366 106.93003651 16.18080406 113.12719727 20.39257812 C115.97572653 22.30440612 115.97572653 22.30440612 119.31469727 22.14257812 C120.16032227 21.60632813 121.00594727 21.07007812 121.87719727 20.51757812 C129.66089846 15.97581142 136.36036636 12.53812515 145.50219727 12.33007812 C151.68168472 11.97583999 156.00474713 9.74128753 161.1862793 6.57543945 C171.12889666 0.63445623 181.45596937 0.05138574 192.81079102 0.08398438 C194.22038522 0.07941213 195.62997721 0.07410349 197.03956604 0.06809998 C199.97015545 0.05923503 202.90047127 0.06152122 205.83105469 0.0715332 C209.58269188 0.0831038 213.33339903 0.06265654 217.08491421 0.03361607 C219.98545787 0.01527821 222.88577654 0.01554006 225.7863636 0.02125359 C227.17024111 0.02140663 228.55413402 0.01537648 229.93795586 0.00296211 C231.86613666 -0.01192331 233.79447268 0.00134655 235.72265625 0.01586914 C236.81754868 0.01603531 237.9124411 0.01620148 239.04051208 0.01637268 C242.63283689 0.65108984 243.7920173 1.54194408 245.87719727 4.51757812 C246.38513184 7.34080505 246.38513184 7.34080505 246.39477539 10.64038086 C246.40738403 11.87944687 246.41999268 13.11851288 246.4329834 14.39512634 C246.42581642 15.74714726 246.41761066 17.09916301 246.40844727 18.45117188 C246.41114541 19.8492103 246.41503051 21.24724689 246.42004395 22.64527893 C246.4259415 25.58002534 246.41738035 28.51428488 246.39868164 31.44897461 C246.3760807 35.17419529 246.38889089 38.89825105 246.4129715 42.62342739 C246.42758652 45.51579686 246.42274958 48.40790112 246.41246033 51.30027962 C246.40982611 52.67112432 246.41294381 54.0419946 246.42237854 55.41280937 C246.50009347 69.89855122 243.04766293 86.14216767 232.54125977 96.91210938 C231.78586914 97.62753906 231.03047852 98.34296875 230.25219727 99.08007812 C228.16404961 101.14029678 228.16404961 101.14029678 226.87719727 103.51757812 C227.07345358 106.56889659 227.93230721 109.05602922 228.90844727 111.95117188 C232.10689178 123.72609057 230.83510902 136.8919107 224.87719727 147.51757812 C218.52527485 157.50319451 209.79259059 164.39584744 198.44360352 167.87304688 C191.64373279 169.10193917 184.76870165 168.83189032 177.88500977 168.58105469 C175.88329393 168.51777087 173.87991321 168.51757812 171.87719727 168.51757812 C170.20807953 170.29903906 170.20807953 170.29903906 168.75219727 172.64257812 C164.41580926 178.59337897 158.84126522 182.19622214 151.87719727 184.51757812 C148.23611929 184.79819698 144.59039751 184.79499773 140.93969727 184.83007812 C139.93745117 184.85908203 138.93520508 184.88808594 137.90258789 184.91796875 C136.93643555 184.92634766 135.9702832 184.93472656 134.97485352 184.94335938 C134.09321533 184.95794189 133.21157715 184.97252441 132.30322266 184.98754883 C129.87719727 184.51757812 129.87719727 184.51757812 127.59228516 183.10595703 C124.95540977 179.1264335 125.31266662 175.35251232 125.33813477 170.67773438 C125.32634186 169.71862656 125.31454895 168.75951874 125.30239868 167.77134705 C125.26710691 164.7074259 125.25796726 161.64418597 125.25219727 158.58007812 C125.23584086 155.51974589 125.21375693 152.45971805 125.18057251 149.39952087 C125.16098875 147.49641242 125.15160262 145.59316478 125.15365601 143.68995667 C125.12794287 137.36599906 125.12794287 137.36599906 122.87719727 131.51757812 C120.078497 130.11822799 117.97220934 130.26492408 114.87719727 130.51757812 C112.3177018 132.37100587 111.89800929 133.45514206 110.87719727 136.51757812 C110.78309536 137.95399647 110.74191656 139.39425778 110.73535156 140.83374023 C110.72831711 141.70151596 110.72128265 142.56929169 110.71403503 143.46336365 C110.70778862 144.86498497 110.70778862 144.86498497 110.70141602 146.29492188 C110.67822389 148.27214613 110.65410681 150.24935972 110.62915039 152.2265625 C110.59398971 155.34504404 110.56466268 158.46313114 110.55126953 161.58178711 C110.53581666 164.5908169 110.49563171 167.59869542 110.45141602 170.60742188 C110.45332443 171.53981186 110.45523285 172.47220184 110.4571991 173.43284607 C110.33596132 179.8357187 110.33596132 179.8357187 108.14013672 183.09936523 C104.10181619 185.63023199 100.02559369 185.19480295 95.37719727 185.14257812 C94.38848633 185.13492432 93.39977539 185.12727051 92.38110352 185.11938477 C83.26645769 184.84316069 76.776868 182.94155267 69.86547852 176.70117188 C67.14148405 173.76128974 65.66437275 171.47940639 64.87719727 167.51757812 C64.24813477 167.67484375 63.61907227 167.83210937 62.97094727 167.99414062 C49.28916821 170.30898708 35.96507561 169.30660797 24.11157227 161.75585938 C15.07042821 155.08327851 8.04248477 145.67911967 5.87719727 134.51757812 C5.07006268 125.69620628 4.74525837 116.709492 7.87719727 108.33007812 C8.79613664 105.88226861 8.79613664 105.88226861 8.87719727 103.51757812 C7.31407418 100.95931362 5.44934099 99.15735757 3.28344727 97.08789062 C0.40549926 94.01371889 -1.47150269 90.84363968 -3.43530273 87.14257812 C-3.75990479 86.55444336 -4.08450684 85.96630859 -4.41894531 85.36035156 C-9.74901743 75.15600515 -10.58898955 64.93686844 -10.55639648 53.58398438 C-10.56096873 52.17439017 -10.56627737 50.76479819 -10.57228088 49.35520935 C-10.58114583 46.42461994 -10.57885964 43.49430412 -10.56884766 40.5637207 C-10.55727706 36.81208351 -10.57772432 33.06137636 -10.60676479 29.30986118 C-10.62510265 26.40931752 -10.6248408 23.50899885 -10.61912727 20.60841179 C-10.61897423 19.22453428 -10.62500438 17.84064137 -10.63741875 16.45681953 C-10.65230417 14.52863873 -10.63903431 12.60030272 -10.62451172 10.67211914 C-10.62434555 9.57722672 -10.62417938 8.48233429 -10.62400818 7.35426331 C-9.52355713 1.12601259 -5.82061 0.01701169 0 0 Z " fill="#E0EAF8" transform="translate(10.122802734375,71.482421875)"/>
<path d="M0 0 C0.15855469 1.258125 0.31710938 2.51625 0.48046875 3.8125 C3.19761381 24.21713729 8.35046981 41.97663847 22 58 C22.59296875 58.73734375 23.1859375 59.4746875 23.796875 60.234375 C37.95021007 77.19498314 59.46527462 86.84212173 81 90 C84.71297598 90.28892563 88.41358683 90.36876465 92.13671875 90.4140625 C93.14217239 90.43342865 94.14762604 90.4527948 95.18354797 90.4727478 C98.35144944 90.53186753 101.51938859 90.57865506 104.6875 90.625 C106.85353026 90.66324217 109.01954633 90.70229739 111.18554688 90.7421875 C116.45690396 90.83751209 121.72834867 90.92275088 127 91 C126.72502686 91.94391602 126.45005371 92.88783203 126.16674805 93.86035156 C125.80621338 95.1078418 125.44567871 96.35533203 125.07421875 97.640625 C124.71674561 98.87329102 124.35927246 100.10595703 123.9909668 101.37597656 C121.73502598 109.62608386 120.92386848 117.6797045 120.5625 126.1875 C120.09552106 136.29634315 118.48057805 144.61254118 111 152 C102.91272413 157.79462134 96.83651782 159.21857927 87.0625 159.3125 C86.06025391 159.34150391 85.05800781 159.37050781 84.02539062 159.40039062 C83.05923828 159.40876953 82.09308594 159.41714844 81.09765625 159.42578125 C79.77519897 159.44765503 79.77519897 159.44765503 78.42602539 159.4699707 C76 159 76 159 73.71508789 157.58837891 C71.07821251 153.60885538 71.43546935 149.8349342 71.4609375 145.16015625 C71.44914459 144.20104843 71.43735168 143.24194061 71.42520142 142.25376892 C71.38990964 139.18984778 71.38077 136.12660784 71.375 133.0625 C71.35864359 130.00216777 71.33655966 126.94213993 71.30337524 123.88194275 C71.28379148 121.97883429 71.27440535 120.07558665 71.27645874 118.17237854 C71.25074561 111.84842093 71.25074561 111.84842093 69 106 C66.20129973 104.60064987 64.09501208 104.74734595 61 105 C58.44050454 106.85342775 58.02081202 107.93756393 57 111 C56.90589809 112.43641835 56.86471929 113.87667965 56.8581543 115.31616211 C56.85111984 116.18393784 56.84408539 117.05171356 56.83683777 117.94578552 C56.83059135 119.34740685 56.83059135 119.34740685 56.82421875 120.77734375 C56.80102663 122.75456801 56.77690954 124.7317816 56.75195312 126.70898438 C56.71679245 129.82746592 56.68746542 132.94555302 56.67407227 136.06420898 C56.6586194 139.07323878 56.61843445 142.08111729 56.57421875 145.08984375 C56.57612717 146.02223373 56.57803558 146.95462372 56.58000183 147.91526794 C56.45876405 154.31814057 56.45876405 154.31814057 54.26293945 157.58178711 C50.22461892 160.11265386 46.14839642 159.67722483 41.5 159.625 C40.01693359 159.61351929 40.01693359 159.61351929 38.50390625 159.60180664 C28.77403176 159.30693774 21.49774893 156.913157 14.5 149.8125 C8.66096913 141.85488271 7.70929799 133.51102856 7.34887695 123.96533203 C6.57505173 104.76889643 -0.03977331 87.86785536 -8.28637695 70.7199707 C-15.72275249 55.23104704 -19.36254766 36.38682854 -14.04296875 19.62890625 C-6.25557207 0 -6.25557207 0 0 0 Z " fill="#CDE1FE" transform="translate(64,97)"/>
<path d="M0 0 C1.23906601 -0.01260864 2.47813202 -0.02521729 3.75474548 -0.03820801 C5.1067664 -0.03104103 6.45878215 -0.02283527 7.81079102 -0.01367188 C9.20882944 -0.01637002 10.60686603 -0.02025512 12.00489807 -0.02526855 C14.93964448 -0.03116611 17.87390402 -0.02260496 20.80859375 -0.00390625 C24.53381443 0.01869469 28.25787019 0.0058845 31.98304653 -0.01819611 C34.875416 -0.03281113 37.76752026 -0.02797418 40.65989876 -0.01768494 C42.03074347 -0.01505072 43.40161374 -0.01816842 44.77242851 -0.02760315 C56.94404662 -0.09290298 67.58847388 2.20973619 78.18969727 8.26757812 C79.27895508 8.88117188 80.36821289 9.49476562 81.49047852 10.12695312 C82.2780957 10.58585937 83.06571289 11.04476562 83.87719727 11.51757812 C80.66091193 13.66176835 78.6355004 14.06289629 74.87719727 14.76757812 C62.4294279 17.56141081 52.81240791 23.9024443 45.83422852 34.66992188 C37.09946605 50.1043372 37.24087831 66.42681594 41.28198242 83.40332031 C42.86491309 89.0260355 45.40478084 94.26848368 47.92456055 99.52050781 C56.40488443 117.29832671 61.69972813 134.31997295 62.53613281 154.11206055 C62.73128271 158.64565859 63.16076056 163.03540798 63.87719727 167.51757812 C53.13041284 170.51618718 39.77119975 169.73012157 29.70532227 165.12304688 C18.77927143 158.92055117 10.52188724 149.96885986 6.53344727 137.90039062 C4.67850725 128.3386165 4.44650085 117.50880928 7.87719727 108.33007812 C8.79613664 105.88226861 8.79613664 105.88226861 8.87719727 103.51757812 C7.31407418 100.95931362 5.44934099 99.15735757 3.28344727 97.08789062 C0.40549926 94.01371889 -1.47150269 90.84363968 -3.43530273 87.14257812 C-3.75990479 86.55444336 -4.08450684 85.96630859 -4.41894531 85.36035156 C-9.74901743 75.15600515 -10.58898955 64.93686844 -10.55639648 53.58398438 C-10.56096873 52.17439017 -10.56627737 50.76479819 -10.57228088 49.35520935 C-10.58114583 46.42461994 -10.57885964 43.49430412 -10.56884766 40.5637207 C-10.55727706 36.81208351 -10.57772432 33.06137636 -10.60676479 29.30986118 C-10.62510265 26.40931752 -10.6248408 23.50899885 -10.61912727 20.60841179 C-10.61897423 19.22453428 -10.62500438 17.84064137 -10.63741875 16.45681953 C-10.65230417 14.52863873 -10.63903431 12.60030272 -10.62451172 10.67211914 C-10.62434555 9.57722672 -10.62417938 8.48233429 -10.62400818 7.35426331 C-9.52355713 1.12601259 -5.82061 0.01701169 0 0 Z " fill="#E6387F" transform="translate(10.122802734375,71.482421875)"/>
<path d="M0 0 C1.41388073 -0.00643697 2.82776016 -0.01316598 4.24163818 -0.02017212 C7.19009494 -0.03208704 10.13843496 -0.03585836 13.08691406 -0.03466797 C16.86213487 -0.03446375 20.63661161 -0.06189636 24.41165543 -0.09621239 C27.32504723 -0.11844445 30.23825782 -0.12250686 33.15172577 -0.12144852 C34.54398949 -0.12380503 35.93625817 -0.13263153 37.32843781 -0.14811325 C39.27126857 -0.16771803 41.21432023 -0.15942685 43.15722656 -0.14990234 C44.81313812 -0.1541774 44.81313812 -0.1541774 46.50250244 -0.15853882 C49.359375 0.3359375 49.359375 0.3359375 51.71466064 1.98362732 C53.82126423 4.99654262 53.86625079 6.7968987 53.87695312 10.45874023 C53.88956177 11.69780624 53.90217041 12.93687225 53.91516113 14.21348572 C53.90799415 15.56550664 53.8997884 16.91752239 53.890625 18.26953125 C53.89332314 19.66756968 53.89720824 21.06560627 53.90222168 22.46363831 C53.90811923 25.39838472 53.89955808 28.33264426 53.88085938 31.26733398 C53.85825843 34.99255467 53.87106863 38.71661043 53.89514923 42.44178677 C53.90976425 45.33415624 53.90492731 48.2262605 53.89463806 51.11863899 C53.89200384 52.4894837 53.89512154 53.86035398 53.90455627 55.23116875 C53.98227121 69.71691059 50.52984066 85.96052704 40.0234375 96.73046875 C39.26804687 97.44589844 38.51265625 98.16132813 37.734375 98.8984375 C35.64622734 100.95865615 35.64622734 100.95865615 34.359375 103.3359375 C34.55563132 106.38725596 35.41448495 108.87438859 36.390625 111.76953125 C39.58906951 123.54444995 38.31728675 136.71027007 32.359375 147.3359375 C26.01456718 157.3103693 17.27640962 164.23548891 5.92578125 167.68359375 C-2.20722053 169.17122934 -13.21565052 170.50832366 -20.640625 166.3359375 C-20.48335937 165.51867187 -20.32609375 164.70140625 -20.1640625 163.859375 C-19.68476364 160.63304983 -19.47005072 157.47997449 -19.35107422 154.22290039 C-18.55814121 133.23283098 -12.82340191 115.12724685 -3.2109375 96.52734375 C4.14608323 81.57538868 7.664602 61.2563326 2.796875 44.9609375 C-1.79463031 32.99371622 -10.57506074 23.63134635 -21.640625 17.3359375 C-27.83926218 14.91323071 -34.06867355 13.33943907 -40.640625 12.3359375 C-37.07165574 9.27682099 -33.59876411 7.16469096 -29.328125 5.2109375 C-28.25949219 4.71335937 -27.19085938 4.21578125 -26.08984375 3.703125 C-17.34156798 0.23551852 -9.32885973 0.01001494 0 0 Z " fill="#ED5FA0" transform="translate(202.640625,71.6640625)"/>
<path d="M0 0 C3.84877946 2.97946055 5.70911846 6.94049906 7.75 11.25 C8.22373047 12.22453125 8.22373047 12.22453125 8.70703125 13.21875 C9.47873965 14.80893701 10.24040275 16.40399229 11 18 C15.15495986 16.55677811 18.2731671 14.46339811 21.8125 11.875 C28.398868 7.41927749 28.398868 7.41927749 32.5 7.25 C36.50962969 8.10920636 37.57116978 8.76265659 40 12 C40.43676758 15.28857422 40.43676758 15.28857422 40.33203125 19.1796875 C40.31614456 19.8805246 40.30025787 20.58136169 40.28388977 21.30343628 C40.07750921 28.54338089 39.54915817 35.76582776 38.88305664 42.9765625 C38.68450876 45.15786253 38.50699187 47.34028795 38.33007812 49.5234375 C38.20438155 50.93500829 38.07747441 52.34647193 37.94921875 53.7578125 C37.78425903 55.63170654 37.78425903 55.63170654 37.6159668 57.54345703 C36.96457798 61.1987733 35.90502534 63.82446267 34 67 C31.07881347 68.46059326 28.4893976 68.15156549 25.22705078 68.17700195 C24.53092682 68.18357315 23.83480286 68.19014435 23.11758423 68.19691467 C20.81015927 68.21665198 18.50279936 68.22831041 16.1953125 68.23828125 C15.40779476 68.24235678 14.62027702 68.2464323 13.80889511 68.25063133 C9.64164237 68.27149273 5.47442258 68.2857948 1.30712891 68.29516602 C-2.99954542 68.30623794 -7.3057041 68.34064613 -11.61219597 68.38033772 C-14.92189503 68.40646576 -18.23147045 68.41485436 -21.54126358 68.41844749 C-23.12891248 68.42332244 -24.71655553 68.43496228 -26.30410385 68.45348549 C-28.52590737 68.47780005 -30.74636626 68.47692702 -32.96826172 68.4699707 C-34.23241913 68.47583694 -35.49657654 68.48170319 -36.79904175 68.48774719 C-40.58335644 67.91111085 -41.72747854 67.02177457 -44 64 C-45.75915047 58.72254859 -45.855666 53.07492391 -46.35717773 47.5534668 C-46.55769948 45.36489477 -46.76966378 43.17764576 -46.98242188 40.99023438 C-47.66665062 33.7275865 -48.17865151 26.46221909 -48.33984375 19.16796875 C-48.37327881 17.88559326 -48.40671387 16.60321777 -48.44116211 15.28198242 C-48 12 -48 12 -46.21362305 9.5871582 C-43.53480665 7.66645837 -41.40993205 7.37686607 -38.13574219 7.546875 C-34.20601932 8.38061593 -31.29851556 10.63265976 -28.125 13 C-23.9319789 16.5137908 -23.9319789 16.5137908 -19 18 C-18.73783691 17.49025635 -18.47567383 16.9805127 -18.20556641 16.45532227 C-17.01802925 14.15456751 -15.82165039 11.85852705 -14.625 9.5625 C-14.00625 8.35883789 -14.00625 8.35883789 -13.375 7.13085938 C-12.97539063 6.36708984 -12.57578125 5.60332031 -12.1640625 4.81640625 C-11.79748535 4.10943604 -11.4309082 3.40246582 -11.05322266 2.67407227 C-8.71449114 -1.04328564 -3.94196934 -0.8107069 0 0 Z " fill="#FEE300" transform="translate(132,0)"/>
<path d="M0 0 C3.38250419 0.62594384 6.5996272 1.45355501 9.875 2.5 C17.31910627 4.74748422 25.22272801 6.0004454 33 5 C34.34237404 4.01216919 35.67709863 3.0137602 37 2 C40 3 40 3 40.94921875 4.6171875 C44.84900594 16.54352082 44.80587517 30.67251749 39.60546875 42.13671875 C33.2338842 53.500153 24.13255393 61.53029978 11.56640625 65.34765625 C3.43340447 66.83529184 -7.57502552 68.17238616 -15 64 C-14.76410156 62.77410156 -14.76410156 62.77410156 -14.5234375 61.5234375 C-14.04413864 58.29711233 -13.82942572 55.14403699 -13.71044922 51.88696289 C-13.04298132 34.21813412 -9.90805522 15.07353523 0 0 Z " fill="#E6387F" transform="translate(197,174)"/>
<path d="M0 0 C0.48726562 0.35191406 0.97453125 0.70382813 1.4765625 1.06640625 C15.81367022 11.05024672 29.56440151 16.19613298 47 17 C47.64881448 19.54093855 48.29412899 22.08268273 48.9375 24.625 C49.21110352 25.69427734 49.21110352 25.69427734 49.49023438 26.78515625 C51.27432576 33.85664573 52.17389178 40.66045551 52.5 47.9375 C52.74405401 53.35640286 53.14366735 58.64078485 54 64 C43.25321558 66.99860905 29.89400248 66.21254344 19.828125 61.60546875 C8.90945648 55.40716383 0.631696 46.45216708 -3.33984375 34.3828125 C-5.57155454 22.94694535 -5.39441558 10.49984461 0 0 Z " fill="#C6237C" transform="translate(20,175)"/>
<path d="M0 0 C0.08636719 0.79921875 0.17273438 1.5984375 0.26171875 2.421875 C2.09876579 16.78117848 7.04174893 28.4931716 18.375 37.8125 C26.95794439 44.11833669 36.47492414 47.24026418 47.12109375 47.4140625 C48.23823509 47.44311172 48.23823509 47.44311172 49.37794495 47.4727478 C51.73101749 47.53200156 54.08414043 47.57870914 56.4375 47.625 C58.04363983 47.66322985 59.64976025 47.70228442 61.25585938 47.7421875 C65.17041325 47.8376575 69.08506291 47.92188543 73 48 C72.51423955 55.28640682 72.51423955 55.28640682 70.390625 58.23327637 C67.14669075 60.63061401 65.01414155 60.50742453 61 60.51757812 C59.95537598 60.52809204 59.95537598 60.52809204 58.88964844 60.53881836 C56.59269068 60.55639196 54.29696979 60.54477919 52 60.53125 C50.40103927 60.53394513 48.80208013 60.53782773 47.203125 60.54284668 C43.85400774 60.54874082 40.50531757 60.54018192 37.15625 60.52148438 C32.86521409 60.49869435 28.57517889 60.51181796 24.28417969 60.53577423 C20.98299634 60.5502348 17.68204989 60.54562515 14.38085938 60.53526306 C12.79882692 60.53259646 11.21677289 60.53586322 9.63476562 60.54518127 C7.42259837 60.55535179 5.212047 60.5398419 3 60.51757812 C1.741875 60.51439575 0.48375 60.51121338 -0.8125 60.50793457 C-4.57732486 59.90800212 -5.73248897 59.00727969 -8 56 C-9.75915047 50.72254859 -9.855666 45.07492391 -10.35717773 39.5534668 C-10.55769948 37.36489477 -10.76966378 35.17764576 -10.98242188 32.99023438 C-11.66665062 25.7275865 -12.17865151 18.46221909 -12.33984375 11.16796875 C-12.37327881 9.88559326 -12.40671387 8.60321777 -12.44116211 7.28198242 C-12 4 -12 4 -10.11254883 1.57641602 C-6.69085174 -0.97690631 -4.16068187 -0.27737879 0 0 Z " fill="#FDCA00" transform="translate(96,8)"/>
<path d="M0 0 C7.26692328 -0.0462955 14.53381488 -0.08185493 21.80085564 -0.10362434 C25.17506994 -0.11407142 28.54918352 -0.12824725 31.92333984 -0.15087891 C35.80048318 -0.17504885 39.67748277 -0.18646511 43.5546875 -0.1953125 C44.76929657 -0.20563507 45.98390564 -0.21595764 47.23532104 -0.22659302 C48.35633209 -0.22674408 49.47734314 -0.22689514 50.63232422 -0.22705078 C51.62271698 -0.231492 52.61310974 -0.23593323 53.6335144 -0.24050903 C56 0 56 0 58 2 C57.26136719 2.38929687 56.52273437 2.77859375 55.76171875 3.1796875 C42.83341122 10.30914807 33.9419496 18.82345586 27 32 C26.57976563 32.77472656 26.15953125 33.54945312 25.7265625 34.34765625 C21.73192661 42.86253802 21.16680561 52.76502934 20 62 C9.45509206 49.32343325 4.53592623 33.82500315 1 18 C0.81985352 17.24195068 0.63970703 16.48390137 0.45410156 15.70288086 C-0.0855509 12.49078818 -0.09538418 9.44303378 -0.0625 6.1875 C-0.05347656 5.02605469 -0.04445313 3.86460938 -0.03515625 2.66796875 C-0.02355469 1.78753906 -0.01195312 0.90710938 0 0 Z " fill="#EC5E9F" transform="translate(12,72)"/>
<path d="M0 0 C15.30547479 3.12356628 26.45087547 12.12554644 35 25 C36.59106477 28.2585771 37.89129056 31.54869481 39 35 C39.19078125 35.59296875 39.3815625 36.1859375 39.578125 36.796875 C40.22282811 40.16365792 40.30649363 43.52152343 40.375 46.9375 C40.43107422 47.99227539 40.43107422 47.99227539 40.48828125 49.06835938 C40.55566461 53.06269493 40.16328895 54.79274863 37.6640625 57.96484375 C35 60 35 60 32 60.625 C27.9176251 59.77450523 26.60499356 58.22625024 24 55 C23.44294637 52.29887015 23.13692952 50.02575675 23 47.3125 C22.26413135 38.93925014 20.0960302 32.76544214 14.6875 26.1875 C7.96929986 20.71919756 2.07788462 18.05917533 -6.3984375 16.58203125 C-12.49599699 15.42763892 -12.49599699 15.42763892 -15.0625 13.25 C-16.34129749 10.18088602 -16.53845078 8.29801106 -16 5 C-12.00183355 -1.34191919 -6.76824834 -0.90470911 0 0 Z " fill="#FEFDFE" transform="translate(168,84)"/>
<path d="M0 0 C3.38250419 0.62594384 6.5996272 1.45355501 9.875 2.5 C17.31910627 4.74748422 25.22272801 6.0004454 33 5 C34.34237404 4.01216919 35.67709863 3.0137602 37 2 C37.99 2.33 38.98 2.66 40 3 C40.94921875 5.109375 40.94921875 5.109375 41.6875 7.75 C41.93886719 8.61109375 42.19023437 9.4721875 42.44921875 10.359375 C43.02157216 13.10342399 43.39622737 15.21729971 43 18 C33.34138678 28.30400443 15.53792918 33.37051353 1.87890625 34.11572266 C-2.4196452 34.23523482 -6.70246833 34.16458632 -11 34 C-10.61283439 26.87331977 -9.2127457 20.82260828 -6.625 14.1875 C-6.32078125 13.36830078 -6.0165625 12.54910156 -5.703125 11.70507812 C-4.12753188 7.54726294 -2.46543521 3.72840355 0 0 Z " fill="#C6237C" transform="translate(197,174)"/>
<path d="M0 0 C2.69010265 0.42197689 4.47709862 0.97029479 6.9375 2 C14.03262841 4.84346749 20.47316719 4.07762822 27.37890625 1.1875 C30.19372896 0.1175026 32.22891677 -0.02597035 35.1875 0.5 C38.51024404 2.95594125 39.96368008 4.4256644 40.8125 8.5 C40.17988554 11.53654941 39.4739873 13.27482465 37.1171875 15.33203125 C27.9592219 20.87501043 17.01303012 21.93897873 6.72265625 19.76953125 C-4.48133117 16.68181818 -4.48133117 16.68181818 -7.8125 11.5 C-8.4375 8.5 -8.4375 8.5 -7.8125 5.5 C-5.42538705 2.2703766 -4.00059839 0.71121749 0 0 Z " fill="#CDE2FE" transform="translate(111.8125,107.5)"/>
<path d="M0 0 C0.98613281 0.17208984 0.98613281 0.17208984 1.9921875 0.34765625 C2.65476563 0.43917969 3.31734375 0.53070313 4 0.625 C6.61924678 1.72639875 7.41234201 2.97112089 8.8671875 5.41015625 C9.25537109 8.44702148 9.25537109 8.44702148 9.265625 11.96875 C9.27142578 13.87817383 9.27142578 13.87817383 9.27734375 15.82617188 C9.27105957 16.48657471 9.26477539 17.14697754 9.25830078 17.82739258 C9.24226375 19.83809592 9.25815027 21.84678141 9.27734375 23.85742188 C9.27347656 25.13166016 9.26960938 26.40589844 9.265625 27.71875 C9.26224121 28.88204834 9.25885742 30.04534668 9.25537109 31.24389648 C8.82905569 34.72118231 7.95180833 36.62118965 5.8671875 39.41015625 C3.23840589 40.53292129 0.70622559 40.61621547 -2.1328125 40.41015625 C-5.39993076 38.73471099 -5.9606235 37.92672324 -7.1328125 34.41015625 C-7.40405638 30.29892308 -7.44595067 26.18784353 -7.48291016 22.06835938 C-7.49947001 20.71629626 -7.52676174 19.36432071 -7.56494141 18.01269531 C-7.61989121 16.05457086 -7.6384785 14.09553345 -7.65625 12.13671875 C-7.67606934 10.96705566 -7.69588867 9.79739258 -7.71630859 8.59228516 C-6.92052571 4.25243827 -4.53285868 0.87170359 0 0 Z " fill="#F6B0D4" transform="translate(231.1328125,87.58984375)"/>
<path d="M0 0 C1.03640625 0.49371094 2.0728125 0.98742187 3.140625 1.49609375 C4.5103271 2.14341872 5.88012375 2.79054366 7.25 3.4375 C7.93191406 3.76298828 8.61382812 4.08847656 9.31640625 4.42382812 C9.98027344 4.73642578 10.64414063 5.04902344 11.328125 5.37109375 C12.23933105 5.8031311 12.23933105 5.8031311 13.16894531 6.24389648 C22.68225309 10.17225837 34.27277038 8.22336677 44 6 C41.42581052 12.31091615 35.18931426 15.39363467 29.33984375 18.33984375 C20.66510684 21.76825594 10.24115082 22.33718014 1 21 C-1.2578125 19.97900391 -1.2578125 19.97900391 -3 19 C-2.69127671 16.39533457 -2.37818277 13.79132309 -2.0625 11.1875 C-1.97548828 10.44951172 -1.88847656 9.71152344 -1.79882812 8.95117188 C-1.41783454 5.83266879 -0.99630626 2.98891878 0 0 Z " fill="#C6237B" transform="translate(185,219)"/>
<path d="M0 0 C3.20262002 0.58789354 6.17783168 1.37108186 9.25 2.4375 C16.63120681 4.72589846 24.34176386 5.2448375 32 6 C21.07954286 15.13594194 7.04643289 18.34570236 -7 18 C-6.44380331 13.3110507 -5.11817327 9.80075733 -2.9375 5.625 C-2.38964844 4.56539062 -1.84179688 3.50578125 -1.27734375 2.4140625 C-0.85582031 1.61742187 -0.43429688 0.82078125 0 0 Z " fill="#E63980" transform="translate(197,174)"/>
<path d="M0 0 C3.53362878 2.53499456 4.81411284 4.01479807 5.625 8.3125 C4.83222842 12.98985234 2.96187606 16.32009338 0 20 C-3.11549872 21.55774936 -6.6044388 21.56480622 -10 21 C-12.09202146 19.47723608 -12.87055704 18.54689649 -13.46875 16.01953125 C-13.55592131 9.86305775 -11.98359051 5.73202267 -8 1 C-5.11138291 -0.44430855 -3.20352299 -0.37688506 0 0 Z " fill="#FDFDFE" transform="translate(196,156)"/>
<path d="M0 0 C1.8046875 0.62890625 1.8046875 0.62890625 3.8046875 2.12890625 C5.74533818 6.98053295 5.43952009 11.72440849 3.8046875 16.62890625 C1.2235819 19.21001185 -0.6795658 19.53273551 -4.2578125 19.76953125 C-7.04012054 19.56758954 -8.35519412 18.68983884 -10.1953125 16.62890625 C-11.55369146 12.55376937 -11.83525823 8.88528946 -11.1953125 4.62890625 C-8.0919486 -0.22009984 -5.40651246 -1.13230733 0 0 Z " fill="#FFF340" transform="translate(155.1953125,28.37109375)"/>
</svg>
