<?xml version="1.0" encoding="UTF-8"?>
<svg version="1.1" xmlns="http://www.w3.org/2000/svg" width="512" height="512">
<path d="M0 0 C4.99753407 3.28144348 9.46328858 3.81923819 15.24609375 2.79296875 C18.46570271 1.46091223 21.29344767 -0.37057125 24.24609375 -2.20703125 C26.25358349 -3.29453231 28.27524989 -4.35617372 30.30859375 -5.39453125 C31.24832031 -5.88308594 32.18804687 -6.37164062 33.15625 -6.875 C40.06876527 -9.85498446 46.49153365 -10.59638154 53.93359375 -10.58203125 C55.2469873 -10.57961426 55.2469873 -10.57961426 56.58691406 -10.57714844 C63.98593532 -10.43836577 70.39752496 -9.07804699 77.24609375 -6.20703125 C78.34244141 -5.77390625 78.34244141 -5.77390625 79.4609375 -5.33203125 C93.37543001 0.83994166 102.64547029 13.01204072 108.24609375 26.79296875 C113.42927355 42.92707729 112.06439676 58.58775089 104.35253906 73.67260742 C103.26695756 75.7308601 102.17404318 77.78526017 101.07421875 79.8359375 C100.23431396 81.42263245 100.23431396 81.42263245 99.37744141 83.04138184 C98.00668867 85.62871416 96.62948102 88.21237644 95.24609375 90.79296875 C96.41667328 90.77964508 96.41667328 90.77964508 97.61090088 90.76605225 C104.96769195 90.685882 112.32427104 90.62499244 119.68138504 90.58572006 C123.4637237 90.5648508 127.24570122 90.53654627 131.02783203 90.49121094 C134.67829687 90.44772801 138.32841451 90.42382666 141.97911835 90.41345978 C143.37141129 90.40607265 144.76368537 90.391647 146.15583038 90.37004852 C148.10662786 90.34098834 150.05777521 90.33933463 152.00878906 90.33886719 C153.67424774 90.32554352 153.67424774 90.32554352 155.37335205 90.31195068 C158.94492563 90.90998267 160.07219932 91.94450161 162.24609375 94.79296875 C164.56351346 102.11631796 164.68111514 109.6114503 165.02185059 117.23468018 C166.05993534 139.41815555 169.8256691 159.00490002 184.24609375 176.79296875 C184.81972656 177.50710938 185.39335937 178.22125 185.984375 178.95703125 C188.25012179 181.68942068 190.27799934 183.81423914 193.24609375 185.79296875 C195.57808763 185.87201939 197.91441997 185.88095644 200.24609375 185.79296875 C201.20542775 182.91496675 201.39555208 180.98496766 201.45703125 177.98828125 C201.48321533 177.02269287 201.50939941 176.05710449 201.53637695 175.06225586 C201.5643335 174.02464111 201.59229004 172.98702637 201.62109375 171.91796875 C202.38844578 150.08540674 203.62229749 121.0576779 220.53515625 105.09765625 C225.00592816 101.68843749 228.8193195 101.23022617 234.36328125 101.36328125 C240.27759797 102.24481897 244.26897874 105.3339601 247.9609375 109.92578125 C259.08626247 127.0808625 261.71935446 149.27216956 262.484375 169.31640625 C262.51966309 170.2295459 262.55495117 171.14268555 262.59130859 172.08349609 C262.65188573 173.86202812 262.69825225 175.64111252 262.72900391 177.42041016 C262.79521036 179.55054931 263.00867028 181.67506738 263.24609375 183.79296875 C266.01890959 186.01377699 266.01890959 186.01377699 268.93359375 185.91796875 C278.74650782 182.58528095 284.29342818 171.35134399 288.875 162.7265625 C294.82378175 150.57554213 298.06366001 137.76459888 298.53686523 124.23266602 C299.4162282 99.41423949 299.4162282 99.41423949 304.24609375 91.79296875 C307.45321663 90.18940731 310.9477545 90.58740767 314.47265625 90.5546875 C315.70512589 90.54257988 315.70512589 90.54257988 316.9624939 90.53022766 C318.70593149 90.516382 320.44939624 90.505662 322.19287109 90.49780273 C324.84005467 90.48066964 327.48596299 90.43679934 330.1328125 90.39257812 C331.82941793 90.38244384 333.52603395 90.37393004 335.22265625 90.3671875 C336.00629547 90.34967941 336.78993469 90.33217133 337.59732056 90.31413269 C343.26521973 90.33613241 347.48364484 91.68803489 352.24609375 94.79296875 C355.39705919 98.04240186 355.4260201 100.94256288 355.49609375 105.29296875 C355.45065397 107.98906264 355.31728983 110.45959029 354.75390625 113.09765625 C354.19277375 116.07597492 354.06222739 118.99653717 353.95629883 122.02124023 C352.54776451 161.6418173 338.63012083 197.35875957 310.0703125 225.28125 C303.04070516 231.5330308 295.16169319 235.8652389 286.24609375 238.79296875 C285.25996094 239.13134766 285.25996094 239.13134766 284.25390625 239.4765625 C268.19080777 244.00798133 250.62683942 240.5159618 236.24609375 232.79296875 C232.36371267 231.64077824 230.29314667 231.82865899 226.62109375 233.48046875 C222.91868847 235.07432932 219.21845349 236.59115451 215.43359375 237.98046875 C214.56089844 238.30402344 213.68820312 238.62757813 212.7890625 238.9609375 C197.91173539 243.82863439 180.58089105 241.31474003 166.87109375 234.41796875 C151.61984432 226.15444429 139.19372107 211.8126902 130.58203125 196.9140625 C128.4388697 193.51132355 126.04198309 192.85083955 122.24609375 191.79296875 C118.57135915 191.90962699 117.24901894 191.96008927 114.24609375 193.79296875 C111.19551535 197.20628649 108.77894173 200.98876906 106.24609375 204.79296875 C103.64893731 208.183973 100.94942169 211.48637184 98.24609375 214.79296875 C97.76785156 215.40785156 97.28960937 216.02273438 96.796875 216.65625 C87.07588731 228.77266732 71.81578568 238.66459953 56.24609375 240.79296875 C42.1266593 241.8509557 30.07798488 240.49823412 17.41015625 233.8828125 C13.69582718 232.01223883 11.09867367 231.20066966 7.046875 232.49609375 C4.41841294 233.53592489 1.83754268 234.66431477 -0.75390625 235.79296875 C-2.68515164 236.53854338 -4.6227193 237.26795817 -6.56640625 237.98046875 C-7.43910156 238.30402344 -8.31179687 238.62757813 -9.2109375 238.9609375 C-23.82003812 243.74087365 -40.1030069 241.00740656 -53.75390625 234.79296875 C-61.24040846 230.8844527 -66.82331067 225.73224748 -72.75390625 219.79296875 C-73.81158203 218.84164062 -73.81158203 218.84164062 -74.890625 217.87109375 C-96.72929144 197.84862472 -109.25415747 164.05737803 -110.90966797 135.06518555 C-111.08205903 131.02070335 -111.22231488 126.97549927 -111.359375 122.9296875 C-111.39675781 121.94097656 -111.43414062 120.95226562 -111.47265625 119.93359375 C-111.50294922 119.04188477 -111.53324219 118.15017578 -111.56445312 117.23144531 C-111.74069621 114.96299692 -112.16230033 112.98223013 -112.75390625 110.79296875 C-113.23779894 105.54154321 -113.36327345 101.15795129 -111.19140625 96.29296875 C-104.68133291 89.61597046 -96.60434149 90.26675755 -87.81640625 90.10546875 C-85.93211914 90.05422852 -85.93211914 90.05422852 -84.00976562 90.00195312 C-80.92456839 89.91983761 -77.83964241 89.85056576 -74.75390625 89.79296875 C-75.10171143 89.1788916 -75.4495166 88.56481445 -75.80786133 87.93212891 C-77.40436322 85.09975423 -78.98540803 82.25902437 -80.56640625 79.41796875 C-81.11361328 78.45246094 -81.66082031 77.48695313 -82.22460938 76.4921875 C-90.24335898 62.00983973 -92.81301873 47.06960792 -88.75390625 30.79296875 C-86.21646086 23.06616136 -82.62853379 16.28831645 -77.75390625 9.79296875 C-76.82964844 8.55353516 -76.82964844 8.55353516 -75.88671875 7.2890625 C-57.00447904 -14.80938288 -22.81573136 -15.70169486 0 0 Z " fill="#42537F" transform="translate(134.75390625,265.20703125)"/>
<path d="M0 0 C4.15730939 2.3626689 7.40299091 3.28104333 12.1796875 2.5 C16.67763493 0.94540987 20.47191124 -1.7830253 24.4375 -4.37109375 C36.9967225 -12.04700381 52.73653496 -13.4467039 66.97265625 -10.25390625 C82.18031046 -5.77381352 94.24526695 3.10953194 102.32421875 16.84375 C109.33241979 30.76227218 111.49186385 47.25120358 107.28515625 62.43359375 C105.23366364 68.11352701 102.21147453 73.14561149 99.15820312 78.32714844 C90.97510551 92.53598156 88.08891157 107.91158306 87.44213867 124.16064453 C86.34291417 150.60452087 77.04192557 174.12625982 57.72265625 192.62109375 C52.20644631 196.6198333 48.57323148 198.0703118 41.72265625 197.62109375 C35.53649227 196.23595646 32.2261323 193.87630782 28.72265625 188.62109375 C27.12496464 184.55628044 26.46855539 181.11687622 26.4140625 176.76171875 C26.39118164 175.65473633 26.36830078 174.54775391 26.34472656 173.40722656 C26.32506836 172.24030273 26.30541016 171.07337891 26.28515625 169.87109375 C25.78541728 152.06610811 24.48817845 131.23785495 14.125 115.94140625 C11.64941331 113.61063104 8.97783473 113.62109375 5.72265625 113.62109375 C-9.07598544 129.82912989 -9.66565904 156.56346122 -9.72387695 177.27172852 C-9.82399684 183.39876992 -10.23546676 186.9270565 -14.27734375 191.62109375 C-15.20546875 192.73484375 -15.20546875 192.73484375 -16.15234375 193.87109375 C-19.71101532 196.80176446 -23.13235764 197.49387307 -27.65234375 197.99609375 C-36.83963084 197.04568474 -43.4161976 191.00224218 -49.15234375 184.18359375 C-64.28159085 164.63683748 -70.07012541 143.34507702 -70.71484375 118.99609375 C-71.16198457 103.54783947 -74.66118706 91.73964474 -82.28564453 78.3671875 C-91.52171661 62.10515217 -94.92566205 46.82527823 -90.19091797 28.46435547 C-88.28905274 21.88097582 -85.15895228 16.25654833 -81.27734375 10.62109375 C-80.55546875 9.56921875 -79.83359375 8.51734375 -79.08984375 7.43359375 C-56.06856943 -15.58768057 -27.07416128 -16.3931028 0 0 Z " fill="#FEFEFE" transform="translate(358.27734375,169.37890625)"/>
<path d="M0 0 C1.34888732 0.00015905 2.69778075 0.00584927 4.04663086 0.01586914 C5.10991859 0.01799156 5.10991859 0.01799156 6.19468689 0.02015686 C8.46699173 0.02577096 10.73919936 0.03832576 13.01147461 0.05102539 C14.54858257 0.05603858 16.08569206 0.0606018 17.62280273 0.06469727 C21.39823103 0.07574497 25.17358632 0.09301898 28.94897461 0.11352539 C29.76088623 3.69790754 30.09282331 7.05507968 30.15991211 10.72680664 C30.88487996 40.67942564 36.49616488 66.17601573 57.17553711 88.62524414 C61.25215424 92.28271613 65.31940969 95.24134543 70.94897461 95.55102539 C75.7000436 95.26614504 79.96314453 94.03777935 83.46069336 90.64868164 C86.74183412 86.80344791 88.05877967 84.47394216 88.12475586 79.51196289 C88.45186083 64.73480845 90.06227373 50.60663718 92.94897461 36.11352539 C93.19776367 34.85282227 93.44655273 33.59211914 93.70288086 32.29321289 C95.25982218 25.3359094 97.40467784 17.22439731 102.92944336 12.37524414 C105.91598263 10.50937918 107.49131747 10.42199396 110.94897461 11.11352539 C121.79105132 19.43035892 124.81374776 36.87083629 126.55444336 49.55102539 C127.32643831 57.07575774 127.33914758 64.69387216 127.43188477 72.25195312 C127.62117064 82.28306587 127.62117064 82.28306587 132.41381836 90.85571289 C136.3055853 93.89488995 136.3055853 93.89488995 140.94897461 95.11352539 C142.02147461 95.21665039 143.09397461 95.31977539 144.19897461 95.42602539 C152.91795177 94.69944396 158.41393975 89.53192945 163.94897461 83.11352539 C177.80932823 66.11555325 184.97802106 44.9091466 185.44897461 23.17602539 C185.49313623 21.14588969 185.54518121 19.1159097 185.60522461 17.08618164 C185.62391602 16.20196533 185.64260742 15.31774902 185.66186523 14.40673828 C186.0809307 9.59995764 187.08584994 4.86071106 187.94897461 0.11352539 C208.40897461 0.11352539 228.86897461 0.11352539 249.94897461 0.11352539 C252.19126723 11.32498847 252.19126723 11.32498847 252.22241211 15.45336914 C252.24875732 16.81546509 252.24875732 16.81546509 252.27563477 18.20507812 C252.29158691 19.14424072 252.30753906 20.08340332 252.32397461 21.05102539 C253.20732878 47.99767923 261.79089778 71.97954833 281.74975586 90.81274414 C286.17349424 94.64372354 289.82768567 95.54241446 295.53491211 95.44946289 C299.71819613 94.86732304 303.01280911 93.13142569 305.94897461 90.11352539 C310.79428305 83.508146 310.49298159 76.51955664 310.51147461 68.61352539 C310.71523774 58.05123544 311.41043402 48.36968269 313.94897461 38.11352539 C314.24168481 36.79995541 314.53332596 35.48614681 314.82397461 34.17211914 C316.8117184 25.60498562 319.28402979 16.2234886 326.94897461 11.11352539 C329.76147461 10.55102539 329.76147461 10.55102539 332.94897461 11.11352539 C342.68439636 18.31675411 344.95942316 33.03960694 346.94897461 44.11352539 C347.14362305 45.0584082 347.33827148 46.00329102 347.53881836 46.97680664 C348.56240819 52.49821454 349.00446068 57.82047242 349.15209961 63.42993164 C349.18287598 64.576875 349.21365234 65.72381836 349.24536133 66.90551758 C349.29686123 69.21181757 349.33040893 71.51860453 349.34399414 73.82543945 C349.48227743 80.69863118 350.21177569 85.28430751 353.94897461 91.11352539 C358.23187796 94.91754149 362.73140133 95.88378262 368.40209961 95.61743164 C378.00040697 93.71838003 384.79941149 84.67980649 390.05053711 77.06665039 C394.54543638 70.02969199 397.98845795 62.90614969 400.94897461 55.11352539 C401.23385742 54.46512695 401.51874023 53.81672852 401.81225586 53.14868164 C406.87395309 41.28613992 407.328593 28.1455086 407.57055664 15.45141602 C407.59359863 14.47237305 407.61664063 13.49333008 407.64038086 12.48461914 C407.65270752 11.61764404 407.66503418 10.75066895 407.67773438 9.85742188 C408.0139085 6.45664693 408.93936679 3.37106259 409.94897461 0.11352539 C414.34553634 0.08887036 418.74206181 0.07068697 423.13867188 0.05859375 C424.63542379 0.05355418 426.13217077 0.04672252 427.62890625 0.03808594 C429.77597268 0.0260038 431.92297423 0.02029348 434.07006836 0.01586914 C435.36356201 0.01063232 436.65705566 0.00539551 437.98974609 0 C440.94897461 0.11352539 440.94897461 0.11352539 441.94897461 1.11352539 C442.18778058 8.63591345 442.18778058 8.63591345 440.94897461 11.11352539 C440.83192508 12.56885331 440.7702184 14.02885271 440.73803711 15.48852539 C440.71193359 16.3823291 440.68583008 17.27613281 440.65893555 18.19702148 C440.63089844 19.15946777 440.60286133 20.12191406 440.57397461 21.11352539 C439.31454043 53.61010214 429.01758221 85.45573921 405.94897461 109.11352539 C405.10334961 110.00040039 404.25772461 110.88727539 403.38647461 111.80102539 C402.58209961 112.56415039 401.77772461 113.32727539 400.94897461 114.11352539 C400.1465332 114.92563477 400.1465332 114.92563477 399.32788086 115.75415039 C388.17554828 126.4195828 375.22487526 128.62075387 360.44506836 128.39868164 C354.02128973 128.13197354 348.51530034 126.22902121 342.99975586 122.95727539 C336.61170763 119.20747769 330.20612454 119.06243658 322.94897461 120.11352539 C319.48203599 121.37843737 316.3263229 122.85213872 313.08178711 124.60571289 C302.89503881 129.50856182 290.12440298 129.72555998 279.21069336 127.27368164 C262.29414135 121.25665655 250.6466788 107.98766874 240.58959961 93.72680664 C234.40254947 84.75047748 234.40254947 84.75047748 224.94897461 80.11352539 C216.28758919 79.11628955 210.02256136 79.83055644 202.94897461 85.11352539 C200.65559817 87.60872434 198.87571515 90.31280174 197.07397461 93.17602539 C188.28587471 106.32780325 177.96106626 118.94886418 162.94897461 125.11352539 C162.27092773 125.41258789 161.59288086 125.71165039 160.89428711 126.01977539 C148.96126424 130.47917494 135.07195319 129.50364908 123.58959961 124.42602539 C121.53295304 123.40378686 119.48841896 122.35716622 117.44897461 121.30102539 C109.23915152 118.5155497 101.90153096 119.29989816 94.13647461 122.98852539 C93.1400293 123.52219727 92.14358398 124.05586914 91.11694336 124.60571289 C80.46037969 129.67776415 66.66580124 129.93641478 55.44897461 126.55102539 C49.62862163 124.25815906 44.7964013 121.03205711 39.94897461 117.11352539 C39.1381543 116.46641602 38.32733398 115.81930664 37.49194336 115.15258789 C14.30721994 95.50946789 0.15659165 63.65357225 -2.33911133 33.65014648 C-2.72672498 26.77788632 -2.8602566 19.91050357 -2.95141602 13.02905273 C-3.04528818 10.28145128 -3.29129133 7.6101388 -3.62915039 4.88305664 C-3.76836914 3.63911133 -3.90758789 2.39516602 -4.05102539 1.11352539 C-3.05102539 0.11352539 -3.05102539 0.11352539 0 0 Z " fill="#FBC040" transform="translate(37.051025390625,366.886474609375)"/>
<path d="M0 0 C0.86367187 0.59039062 1.72734375 1.18078125 2.6171875 1.7890625 C9.25125236 5.98443685 15.43182174 6.10043357 23.125 5.375 C28.99218825 3.87371393 33.69889083 1.19349525 38.47265625 -2.45703125 C47.74023006 -9.00786947 60.28412123 -8.64539715 71.125 -7.625 C83.1818973 -4.87583017 92.92798141 2.43198678 100.125 12.375 C106.41955586 22.69339661 109.26584274 34.63065508 106.6262207 46.64526367 C104.83267785 53.19757923 101.970557 58.89244943 98.6875 64.8125 C90.09969183 80.35399899 86.12954854 95.05753349 85.6875 112.75 C85.41112963 122.89759902 84.37070571 131.73120986 81.125 141.375 C80.91214355 142.01083008 80.69928711 142.64666016 80.47998047 143.30175781 C76.0083809 156.32955991 68.79007134 170.42234201 57.125 178.375 C53.56640625 178.890625 53.56640625 178.890625 50.125 178.375 C47.33469686 176.2542447 46.25306918 175.0690425 45.61083984 171.58862305 C45.60262207 170.53199463 45.5944043 169.47536621 45.5859375 168.38671875 C45.5643457 167.21278564 45.54275391 166.03885254 45.52050781 164.8293457 C45.51374023 163.58628662 45.50697266 162.34322754 45.5 161.0625 C45.44492927 158.50770393 45.38508036 155.95300612 45.3203125 153.3984375 C45.27632324 151.56490723 45.27632324 151.56490723 45.23144531 149.69433594 C44.71210407 133.49946537 40.95831343 117.10746206 32.125 103.375 C31.50625 102.405625 30.8875 101.43625 30.25 100.4375 C26.28580741 96.58990131 22.05640077 94.68540369 16.625 93.8125 C11.0129191 94.71444157 7.0962227 97.03219049 3.42578125 101.39453125 C1.84899744 103.66239914 0.45974427 105.9572746 -0.875 108.375 C-1.24367188 109.04144531 -1.61234375 109.70789063 -1.9921875 110.39453125 C-10.15916494 126.9500708 -11.19066893 146.63129573 -11.265625 164.70507812 C-11.28882813 165.89681641 -11.31203125 167.08855469 -11.3359375 168.31640625 C-11.34826416 169.92044312 -11.34826416 169.92044312 -11.36083984 171.55688477 C-11.99933038 175.05645562 -13.08962281 176.22426174 -15.875 178.375 C-19.0625 179.1875 -19.0625 179.1875 -22.875 178.375 C-38.43801635 166.61321596 -47.398 145.58378002 -50.4609375 126.77734375 C-50.99231128 122.15461278 -50.99758864 117.53197635 -51.06298828 112.88354492 C-51.38753213 94.52126269 -55.21479165 81.64736601 -63.875 65.375 C-65.16067661 62.90324604 -66.42636231 60.42184142 -67.6875 57.9375 C-68.25082031 56.84566406 -68.81414062 55.75382812 -69.39453125 54.62890625 C-74.39302403 43.64277304 -74.09192299 32.80643936 -70.1953125 21.51171875 C-64.30997921 7.52969913 -54.72580487 -0.83211634 -40.875 -6.625 C-26.77747292 -10.75872477 -12.05939391 -7.65092673 0 0 Z " fill="#FDFEFE" transform="translate(127.875,273.625)"/>
<path d="M0 0 C4.15730939 2.3626689 7.40299091 3.28104333 12.1796875 2.5 C16.67763493 0.94540987 20.47191124 -1.7830253 24.4375 -4.37109375 C36.9967225 -12.04700381 52.73653496 -13.4467039 66.97265625 -10.25390625 C82.18031046 -5.77381352 94.24526695 3.10953194 102.32421875 16.84375 C109.33241979 30.76227218 111.49186385 47.25120358 107.28515625 62.43359375 C105.23366364 68.11352701 102.21147453 73.14561149 99.15820312 78.32714844 C90.97510551 92.53598156 88.08891157 107.91158306 87.44213867 124.16064453 C86.34291417 150.60452087 77.04192557 174.12625982 57.72265625 192.62109375 C52.20644631 196.6198333 48.57323148 198.0703118 41.72265625 197.62109375 C35.53649227 196.23595646 32.2261323 193.87630782 28.72265625 188.62109375 C27.12496464 184.55628044 26.46855539 181.11687622 26.4140625 176.76171875 C26.39118164 175.65473633 26.36830078 174.54775391 26.34472656 173.40722656 C26.32506836 172.24030273 26.30541016 171.07337891 26.28515625 169.87109375 C25.78541728 152.06610811 24.48817845 131.23785495 14.125 115.94140625 C11.64941331 113.61063104 8.97783473 113.62109375 5.72265625 113.62109375 C-9.07598544 129.82912989 -9.66565904 156.56346122 -9.72387695 177.27172852 C-9.82399684 183.39876992 -10.23546676 186.9270565 -14.27734375 191.62109375 C-15.20546875 192.73484375 -15.20546875 192.73484375 -16.15234375 193.87109375 C-19.71101532 196.80176446 -23.13235764 197.49387307 -27.65234375 197.99609375 C-36.83963084 197.04568474 -43.4161976 191.00224218 -49.15234375 184.18359375 C-64.28159085 164.63683748 -70.07012541 143.34507702 -70.71484375 118.99609375 C-71.16198457 103.54783947 -74.66118706 91.73964474 -82.28564453 78.3671875 C-91.52171661 62.10515217 -94.92566205 46.82527823 -90.19091797 28.46435547 C-88.28905274 21.88097582 -85.15895228 16.25654833 -81.27734375 10.62109375 C-80.55546875 9.56921875 -79.83359375 8.51734375 -79.08984375 7.43359375 C-56.06856943 -15.58768057 -27.07416128 -16.3931028 0 0 Z M-71.27734375 15.62109375 C-79.99167276 27.31152173 -82.20377105 38.61781836 -81.09765625 52.94921875 C-79.83300779 61.03063086 -75.03256929 68.45467199 -71.27734375 75.62109375 C-64.08696496 89.38583147 -60.44680723 100.8997262 -59.98730469 116.42211914 C-59.19697792 142.11001004 -52.67050809 165.86294729 -33.71484375 184.30859375 C-30.91264148 186.58377632 -30.34494575 186.61998552 -26.46484375 186.68359375 C-23.01788075 185.89700159 -23.01788075 185.89700159 -21.27734375 182.62109375 C-20.9425246 180.27077433 -20.9425246 180.27077433 -20.93359375 177.640625 C-20.90563721 176.64973877 -20.87768066 175.65885254 -20.84887695 174.63793945 C-20.825271 173.58050537 -20.80166504 172.52307129 -20.77734375 171.43359375 C-20.03545891 149.70650658 -18.34884713 122.21103272 -2.27734375 105.62109375 C1.76252746 102.0709039 5.91252126 102.10827086 11.07421875 102.28125 C16.5546453 102.98449057 19.45381396 106.08671573 22.78515625 110.18359375 C32.46363385 124.02079219 36.74168115 143.00325342 36.8984375 159.7265625 C36.92228516 161.03947266 36.94613281 162.35238281 36.97070312 163.70507812 C37.00593728 165.76566033 37.03526632 167.82562612 37.04858398 169.88647461 C37.06405748 171.89588667 37.10590283 173.90504108 37.1484375 175.9140625 C37.16302002 177.10539795 37.17760254 178.2967334 37.19262695 179.52416992 C37.82299902 183.20738951 38.76933293 184.39820557 41.72265625 186.62109375 C44.66080408 187.35577719 44.66080408 187.35577719 47.72265625 186.62109375 C63.35080721 175.12784475 72.63795715 154.33031657 75.91015625 135.68359375 C76.71874868 129.87706362 76.94302759 124.09656274 77.16015625 118.24609375 C77.9156139 99.25004374 82.95369897 83.14591206 92.890625 67.03515625 C96.80656036 59.73765624 98.2850718 53.06345 98.22265625 44.80859375 C98.21766113 43.93493164 98.21266602 43.06126953 98.20751953 42.16113281 C97.91450806 31.24493992 93.86502168 22.77116915 86.72265625 14.62109375 C86.2225 14.01652344 85.72234375 13.41195312 85.20703125 12.7890625 C78.52979436 5.35010198 67.61732167 -0.17036409 57.5859375 -0.71484375 C44.21149664 -0.98253736 35.52095997 1.58248252 24.27734375 9.00390625 C17.70409402 13.16495424 11.493859 14.67061886 3.72265625 13.62109375 C-1.64167084 12.16259007 -6.09314669 9.85412047 -10.58984375 6.62109375 C-30.0702071 -6.8679452 -55.95641202 -1.16609903 -71.27734375 15.62109375 Z " fill="#425481" transform="translate(358.27734375,169.37890625)"/>
<path d="M0 0 C5.28104122 3.6866285 8.6767581 8.28681564 12.375 13.5 C13.60114663 15.19785656 14.8290823 16.89442225 16.05859375 18.58984375 C16.69780762 19.47269043 17.33702148 20.35553711 17.99560547 21.26513672 C22.04090911 26.784685 26.22940143 32.19651842 30.40576172 37.6171875 C44.24399062 55.65624391 44.24399062 55.65624391 44 62 C42.81688058 65.41790054 41.76994439 67.37192636 38.96484375 69.66015625 C34.81779957 71.53424868 31.17745729 71.32570705 26.6875 71.1875 C25.43356445 71.16719727 25.43356445 71.16719727 24.15429688 71.14648438 C22.10258502 71.11131217 20.05120725 71.05751048 18 71 C18.00999275 71.94174324 18.00999275 71.94174324 18.02018738 72.9025116 C18.08658382 79.43991981 18.13181863 85.97723214 18.16479492 92.51489258 C18.17987654 94.95438528 18.20034469 97.3938509 18.22631836 99.83325195 C18.26272812 103.34072559 18.27973289 106.84784054 18.29296875 110.35546875 C18.30845261 111.44522507 18.32393646 112.53498138 18.33988953 113.65776062 C18.34203867 123.33850522 18.34203867 123.33850522 15 127 C10.2884469 130.45557368 3.71913456 129.33336523 -1.84448242 129.31567383 C-3.92745363 129.31251523 -6.0090012 129.33598519 -8.09179688 129.36132812 C-9.41115234 129.36197266 -10.73050781 129.36261719 -12.08984375 129.36328125 C-13.29503662 129.36626221 -14.50022949 129.36924316 -15.74194336 129.37231445 C-20.323342 128.84877508 -22.71813783 127.4098914 -25.79418945 124.02661133 C-27.68655544 119.27673055 -27.36637669 114.63697947 -27.29296875 109.57421875 C-27.28872391 108.47149124 -27.28447906 107.36876373 -27.28010559 106.23262024 C-27.26333905 102.71732977 -27.22568951 99.20261664 -27.1875 95.6875 C-27.17245059 93.30144058 -27.15876264 90.91537216 -27.14648438 88.52929688 C-27.11344212 82.68600158 -27.06326236 76.84304204 -27 71 C-28.75376953 71.05220703 -28.75376953 71.05220703 -30.54296875 71.10546875 C-32.09113141 71.13361716 -33.63930968 71.16091619 -35.1875 71.1875 C-35.95642578 71.21263672 -36.72535156 71.23777344 -37.51757812 71.26367188 C-43.2502465 71.33748306 -46.52413158 70.30511887 -50.8125 66.3125 C-52.54583522 62.93705774 -52.50295641 59.68503148 -52 56 C-50.375 52.89453125 -50.375 52.89453125 -48 49.8125 C-47.56139648 49.23137451 -47.12279297 48.65024902 -46.67089844 48.05151367 C-45.68177875 46.74652792 -44.68348752 45.44845981 -43.67773438 44.15625 C-41.85614362 41.81511357 -40.05943215 39.45623607 -38.265625 37.09375 C-36.24732667 34.43647293 -34.2262925 31.78161831 -32.19433594 29.13476562 C-28.73818991 24.6298693 -25.32641052 20.10175369 -22 15.5 C-21.36803711 14.62754639 -20.73607422 13.75509277 -20.08496094 12.85620117 C-18.88836593 11.1974301 -17.6985633 9.53373158 -16.51660156 7.86450195 C-15.9800293 7.12159912 -15.44345703 6.37869629 -14.890625 5.61328125 C-14.42688477 4.96141846 -13.96314453 4.30955566 -13.48535156 3.63793945 C-9.99511078 -0.21084842 -4.98460736 -1.26832536 0 0 Z " fill="#42537F" transform="translate(371,6)"/>
<path d="M0 0 C4.26959229 4.05492005 7.85071217 8.46222644 11.4375 13.125 C12.04005615 13.90399658 12.6426123 14.68299316 13.26342773 15.4855957 C21.7352576 26.48767291 29.95195469 37.68477801 38 49 C36.68644531 49.01417969 35.37289062 49.02835938 34.01953125 49.04296875 C32.28381949 49.08987988 30.54814348 49.13812721 28.8125 49.1875 C27.94818359 49.19330078 27.08386719 49.19910156 26.19335938 49.20507812 C21.65305757 49.36164026 19.60690254 49.51743089 15.94921875 52.42578125 C13.32974937 55.88516065 12.86969672 57.55152918 12.79467773 61.81689453 C12.77473251 62.81778107 12.75478729 63.8186676 12.73423767 64.84988403 C12.70916893 66.47493362 12.70916893 66.47493362 12.68359375 68.1328125 C12.66281265 69.23978485 12.64203156 70.3467572 12.62062073 71.48727417 C12.55509009 75.03311799 12.49622386 78.57903754 12.4375 82.125 C12.39431813 84.5247475 12.35070395 86.92448727 12.30664062 89.32421875 C12.19858939 95.21606925 12.09954176 101.10797492 12 107 C4.41 107 -3.18 107 -11 107 C-11.02578125 103.29265625 -11.0515625 99.5853125 -11.078125 95.765625 C-11.11652912 92.17798238 -11.16169483 88.59048428 -11.20751953 85.00292969 C-11.23575799 82.50820811 -11.25695812 80.01339658 -11.27099609 77.51855469 C-11.29238499 73.93377534 -11.33901708 70.35008082 -11.390625 66.765625 C-11.39185364 65.64883362 -11.39308228 64.53204224 -11.39434814 63.38140869 C-11.41406677 62.34063171 -11.4337854 61.29985474 -11.45410156 60.22753906 C-11.46298401 59.31264709 -11.47186646 58.39775513 -11.48101807 57.45513916 C-12.16227615 54.23232293 -13.46595827 53.0426182 -16 51 C-18.59257669 50.13580777 -20.34037707 49.82419068 -23.01171875 49.68359375 C-24.14770508 49.62075195 -24.14770508 49.62075195 -25.30664062 49.55664062 C-26.09232422 49.51732422 -26.87800781 49.47800781 -27.6875 49.4375 C-28.88342773 49.37272461 -28.88342773 49.37272461 -30.10351562 49.30664062 C-32.06881447 49.20072632 -34.03438496 49.09987449 -36 49 C-31.78063799 42.47648919 -27.24817101 36.27143754 -22.5 30.125 C-14.86631344 20.17994322 -7.39788911 10.1213071 0 0 Z " fill="#FBC040" transform="translate(366,17)"/>
<path d="M0 0 C0.66 0.66 1.32 1.32 2 2 C1.625 5.625 1.625 5.625 1 9 C0.154375 9.20753906 -0.69125 9.41507812 -1.5625 9.62890625 C-9.91566295 11.89754937 -16.57513761 14.4398839 -21.265625 22.0546875 C-22.25507913 24.01144379 -23.1451614 25.98139597 -24 28 C-26.31216931 32.72486772 -26.31216931 32.72486772 -29.5 34 C-32 34 -32 34 -33.65234375 32.75390625 C-35.33276594 30.56692201 -35.34337585 29.65263324 -35.0625 26.9375 C-33.77883735 18.53906885 -28.71105368 11.76652025 -22.1953125 6.5390625 C-15.24958487 1.66963779 -8.66983341 -1.58391187 0 0 Z " fill="#455683" transform="translate(106,281)"/>
<path d="M0 0 C2.0625 1.125 2.0625 1.125 3 3 C2.71572147 5.00755992 2.38570537 7.00943664 2 9 C1.20335937 9.24234375 0.40671875 9.4846875 -0.4140625 9.734375 C-8.94989033 12.43427188 -15.9358397 15.20767254 -21 23 C-22.13046959 25.31961407 -23.14791493 27.65095311 -24.10546875 30.046875 C-25 32 -25 32 -27 34 C-29.5 34.25 -29.5 34.25 -32 34 C-34 32 -34 32 -34.5 28.5625 C-34.25647458 20.66941148 -29.35097033 13.90447711 -23.8125 8.625 C-16.88695668 2.95864638 -9.10535463 -1.30076495 0 0 Z " fill="#445683" transform="translate(327,184)"/>
</svg>
