<?xml version="1.0" encoding="UTF-8"?>
<svg version="1.1" xmlns="http://www.w3.org/2000/svg" width="256" height="256">
<path d="M0 0 C1.42665348 -0.00457843 2.85330477 -0.00988883 4.279953 -0.0158844 C7.25256373 -0.02475264 10.22490494 -0.02246629 13.19750977 -0.01245117 C16.96261146 -0.00098736 20.72677152 -0.02116465 24.49174976 -0.05036831 C27.43391093 -0.06892738 30.37585476 -0.06839897 33.31805992 -0.06273079 C34.70401006 -0.06257987 36.0899772 -0.06842893 37.47587013 -0.08102226 C57.41864901 -0.23673627 74.97905099 6.0047471 89.91796875 19.43359375 C90.83449219 20.21089844 90.83449219 20.21089844 91.76953125 21.00390625 C105.25296991 33.25598065 112.30048469 51.6580828 113.91796875 69.43359375 C114.00155821 71.49278154 114.06419936 73.55289276 114.109375 75.61328125 C114.13354492 76.6796582 114.15771484 77.74603516 114.18261719 78.84472656 C114.2138944 80.9454061 114.21703517 83.04674269 114.18847656 85.14746094 C114.24108722 90.2744545 114.43792395 93.51190114 117.8984375 97.45703125 C118.43750732 97.96927246 118.97657715 98.48151367 119.53198242 99.00927734 C121.90914606 101.45218251 121.94844728 103.79324043 122.23046875 107.12109375 C122.16021751 111.88939655 120.60770124 115.53304921 117.91796875 119.43359375 C112.99250657 124.0072372 109.82944001 124.57448317 103.29296875 124.49609375 C102.5865625 124.49158203 101.88015625 124.48707031 101.15234375 124.48242188 C99.407516 124.4706325 97.66273175 124.45269699 95.91796875 124.43359375 C95.78841797 125.41585937 95.78841797 125.41585937 95.65625 126.41796875 C93.58629758 139.86316426 87.39881257 151.21232803 79.91796875 162.43359375 C80.51222656 161.98628906 81.10648438 161.53898438 81.71875 161.078125 C95.57938123 150.96827112 109.77319345 146.29480308 126.9921875 148.8984375 C142.14998741 152.24702336 154.12965143 160.49526415 163.3828125 172.8984375 C171.42491026 186.17915365 173.02390098 202.03749193 170.234375 217.1328125 C165.49356214 232.18145085 155.7895823 244.02642147 141.91796875 251.43359375 C127.90193956 257.90101816 111.40610983 259.0459674 96.73828125 253.72265625 C92.22333691 251.65903903 88.02564936 249.21531877 83.91796875 246.43359375 C84.24796875 247.09359375 84.57796875 247.75359375 84.91796875 248.43359375 C84.91796875 251.07359375 84.91796875 253.71359375 84.91796875 256.43359375 C40.69796875 256.43359375 -3.52203125 256.43359375 -49.08203125 256.43359375 C-45.53942766 217.46495429 -45.53942766 217.46495429 -29.46484375 202.3984375 C-23.26438916 197.28560363 -16.59127837 193.97887475 -9.015625 191.390625 C-8.05849609 190.91689453 -8.05849609 190.91689453 -7.08203125 190.43359375 C-6.75203125 189.44359375 -6.42203125 188.45359375 -6.08203125 187.43359375 C-7.20738281 186.99660156 -7.20738281 186.99660156 -8.35546875 186.55078125 C-20.08621078 181.85257475 -28.94921398 176.16462887 -38.08203125 167.43359375 C-38.70980469 166.88058594 -39.33757813 166.32757813 -39.984375 165.7578125 C-51.26738066 155.44703862 -57.33216774 140.18286166 -60.08203125 125.43359375 C-60.99984375 125.41941406 -61.91765625 125.40523438 -62.86328125 125.390625 C-70.3734801 125.09873702 -76.47766608 124.81731463 -82.08203125 119.43359375 C-85.63882579 114.87645075 -85.63704533 109.9533892 -85.51171875 104.35546875 C-84.84967668 99.8535827 -83.16188967 97.73344206 -80.08203125 94.43359375 C-79.09203125 93.93859375 -79.09203125 93.93859375 -78.08203125 93.43359375 C-78.07268555 92.63888672 -78.06333984 91.84417969 -78.05371094 91.02539062 C-77.65120375 63.76539372 -74.52286462 39.31807379 -54.08203125 19.43359375 C-38.57761737 5.48388071 -20.59056506 -0.05886737 0 0 Z M75.91796875 165.43359375 C75.34691406 165.99046875 74.77585938 166.54734375 74.1875 167.12109375 C64.63365981 176.11294334 53.99598426 182.39907025 41.91796875 187.43359375 C41.91796875 188.42359375 41.91796875 189.41359375 41.91796875 190.43359375 C42.84738281 190.8203125 43.77679688 191.20703125 44.734375 191.60546875 C45.98317098 192.13127758 47.23186336 192.65733251 48.48046875 193.18359375 C49.08955078 193.43625 49.69863281 193.68890625 50.32617188 193.94921875 C54.72963802 195.81311976 58.80272559 197.99728506 62.91796875 200.43359375 C63.12550781 199.35722656 63.33304688 198.28085938 63.546875 197.171875 C65.73451149 186.55457844 68.47930367 174.9745285 76.91796875 167.43359375 C76.42296875 166.44359375 76.42296875 166.44359375 75.91796875 165.43359375 Z " fill="#030302" transform="translate(85.08203125,-0.43359375)"/>
<path d="M0 0 C0.99501022 0.30837296 1.99002045 0.61674591 3.0151825 0.9344635 C6.16416569 1.91317039 9.30669955 2.91091092 12.44921875 3.91015625 C15.61074674 4.90172968 18.77347762 5.88934741 21.93681335 6.87513733 C23.89697653 7.48745844 25.85587398 8.10385029 27.81330872 8.72483826 C28.70160873 9.00505325 29.58990875 9.28526825 30.50512695 9.57397461 C31.28104691 9.82046249 32.05696686 10.06695038 32.85639954 10.32090759 C37.92997199 11.77100897 42.81265596 12.21187543 48.07421875 12.28515625 C48.76451172 12.31416016 49.45480469 12.34316406 50.16601562 12.37304688 C55.34213537 12.43682845 58.13997209 11.18315766 62.13671875 7.97265625 C62.79671875 7.31265625 63.45671875 6.65265625 64.13671875 5.97265625 C67.39426738 6.34984609 69.6860172 7.86005479 72.44921875 9.53515625 C79.9425505 13.39873146 88.3899733 12.79294636 96.52734375 11.38671875 C97.3884375 11.25007813 98.24953125 11.1134375 99.13671875 10.97265625 C101.23200677 13.06794427 100.34970079 17.61905472 100.375 20.51171875 C100.38307175 21.38476654 100.39114349 22.25781433 100.39945984 23.15731812 C100.41333422 25.01859539 100.42404126 26.87989848 100.43188477 28.74121094 C100.44885453 31.53763678 100.49267556 34.33280289 100.53710938 37.12890625 C100.71137241 57.04949511 96.49305247 75.1503504 82.24462891 89.91772461 C80.88678396 91.28087905 79.51221968 92.62731981 78.13671875 93.97265625 C77.18539062 94.97232422 77.18539062 94.97232422 76.21484375 95.9921875 C64.53051763 107.44386111 46.2295099 113.21918005 30.13671875 113.47265625 C9.49187306 112.84644273 -8.33277637 104.18267822 -22.55078125 89.22265625 C-30.90811647 79.53875989 -35.33710844 69.09569664 -38.86328125 56.97265625 C-39.04213867 56.41336426 -39.22099609 55.85407227 -39.40527344 55.27783203 C-40.55576028 49.48737531 -40.17155703 43.303343 -40.21337891 37.41210938 C-40.22987751 35.71307621 -40.25708665 34.0141107 -40.29541016 32.31542969 C-40.7429783 12.33443078 -40.7429783 12.33443078 -33.12133789 4.08789062 C-23.13283999 -5.40932072 -12.12827298 -3.91526896 0 0 Z " fill="#EACBB0" transform="translate(72.86328125,69.02734375)"/>
<path d="M0 0 C3.82022737 0.02141956 7.63857036 0.00013116 11.45874023 -0.02539062 C33.33945115 -0.05131226 53.70489064 2.17680351 70.15991211 18.22851562 C70.89725586 18.98519531 71.63459961 19.741875 72.39428711 20.52148438 C73.09038086 21.18535156 73.78647461 21.84921875 74.50366211 22.53320312 C87.85056754 36.11290342 91.61261227 53.46347251 91.58178711 71.83398438 C91.54438102 75.73054351 91.48308486 79.62576753 91.39428711 83.52148438 C88.75428711 83.52148438 86.11428711 83.52148438 83.39428711 83.52148438 C83.35561523 82.57789062 83.35561523 82.57789062 83.31616211 81.61523438 C83.00423709 76.90800222 82.59138811 73.44735158 80.08178711 69.39648438 C78.98413086 67.44726563 78.98413086 67.44726563 78.39428711 65.52148438 C79.1037337 63.31382761 80.1522184 61.57082565 81.34741211 59.58789062 C83.52846435 55.28275393 83.07367919 50.88237187 81.76928711 46.34960938 C79.0788624 39.95985068 74.35872119 37.50370142 68.39428711 34.52148438 C61.91117292 33.70100727 56.75398445 34.73461018 51.39428711 38.52148438 C48.93470971 41.08958266 48.93470971 41.08958266 47.39428711 43.52148438 C49.14672958 45.16984768 49.14672958 45.16984768 51.39428711 46.52148438 C53.49659951 46.51679231 53.49659951 46.51679231 55.39428711 45.52148438 C55.82870117 45.01746094 56.26311523 44.5134375 56.71069336 43.99414062 C59.51424538 41.5418457 62.370548 42.05905585 65.94506836 42.15820312 C69.34874194 42.66305423 71.1028538 44.00829945 73.39428711 46.52148438 C75.13265563 49.99822142 74.8486503 53.72019236 74.39428711 57.52148438 C72.62461247 61.19696246 71.07457678 63.03556318 67.76928711 65.39648438 C61.54532302 67.47113907 57.04023701 67.67591798 50.92944336 65.00976562 C42.39212616 60.43876083 42.39212616 60.43876083 40.30053711 56.41992188 C39.90897159 54.4696244 39.64884985 52.49434564 39.39428711 50.52148438 C37.20300178 46.85311041 34.45797513 44.02655401 30.39428711 42.52148438 C29.58505168 46.50761379 29.58505168 46.50761379 29.39428711 50.52148438 C30.68532354 51.89581348 32.019958 53.23044794 33.39428711 54.52148438 C34.08611208 58.74930364 33.84258182 60.76898968 31.64428711 64.45898438 C26.09334426 67.98169811 20.64270685 67.40782371 14.32299805 66.08935547 C5.11040455 63.87775698 -3.85588868 60.80737779 -12.82836914 57.79101562 C-14.07489258 57.37207031 -15.32141602 56.953125 -16.60571289 56.52148438 C-17.2848877 56.28864746 -17.9640625 56.05581055 -18.66381836 55.81591797 C-29.8948256 52.01032741 -41.96280272 48.45493359 -53.54321289 53.14648438 C-54.92423564 53.89031207 -56.28009889 54.68288377 -57.60571289 55.52148438 C-58.3134082 55.9571875 -59.02110352 56.39289062 -59.75024414 56.84179688 C-66.5268932 61.44338047 -70.61559602 67.56101691 -72.60571289 75.52148438 C-73.02256927 78.18742636 -73.32783841 80.83536438 -73.60571289 83.52148438 C-76.24571289 83.52148438 -78.88571289 83.52148438 -81.60571289 83.52148438 C-81.69406175 79.10494746 -81.74655277 74.6886429 -81.79321289 70.27148438 C-81.81834961 69.0365625 -81.84348633 67.80164063 -81.86938477 66.52929688 C-82.01071052 48.62803408 -76.13926076 33.50644662 -63.81689453 20.53295898 C-59.48525788 16.19088286 -54.8686678 12.64899112 -49.60571289 9.52148438 C-48.4571582 8.833125 -48.4571582 8.833125 -47.28540039 8.13085938 C-32.20203021 -0.13263716 -16.78684299 -0.11196253 0 0 Z " fill="#646B76" transform="translate(98.605712890625,7.478515625)"/>
<path d="M0 0 C8.75716675 7.88766083 13.6446195 19.36290125 14.5078125 30.9296875 C15.03523332 44.46682182 9.81033239 56.48318232 0.8125 66.5 C-8.2748818 75.13213724 -21.10910948 79.82165436 -33.50390625 79.55859375 C-43.11657413 78.81552863 -50.84769145 75.85773044 -58.6875 70.3125 C-59.64269531 69.65121094 -59.64269531 69.65121094 -60.6171875 68.9765625 C-69.35421843 62.2587565 -75.17842096 51.09913452 -76.6875 40.3125 C-77.65208357 27.39340529 -75.63891138 16.04589237 -67.6640625 5.59375 C-49.12139361 -15.80727496 -21.9579137 -16.95856728 0 0 Z " fill="#060605" transform="translate(233.6875,168.6875)"/>
<path d="M0 0 C35.64 0 71.28 0 108 0 C106.37685712 19.47771455 101.5614043 34.27445108 86.3828125 47.21484375 C76.73870958 54.44001594 65.49061412 57.57598175 53.5625 57.4375 C52.64235107 57.42992676 51.72220215 57.42235352 50.77416992 57.41455078 C43.87542359 57.24725664 38.13851795 56.30928422 32 53 C31.13246094 52.54109375 30.26492187 52.0821875 29.37109375 51.609375 C15.84538615 43.94951078 8.04859768 33.72507656 3 19 C2.01 12.73 1.02 6.46 0 0 Z " fill="#030303" transform="translate(49,116)"/>
<path d="M0 0 C1.32421875 1.79296875 1.32421875 1.79296875 2.6875 4.1875 C6.011997 9.45197779 9.99999138 12.79844702 16.015625 14.60546875 C23.31961628 16.05764025 29.6118074 14.75592431 36 11 C38.64344156 8.53971825 40.79489967 5.84849831 43 3 C43.9839664 1.98421945 44.97889105 0.97843574 46 0 C55.82151016 3.17631818 63.94248351 8.52451435 70 17 C70.96776521 19.0085693 71.86439053 21.05294524 72.6875 23.125 C73.10386719 24.15882813 73.52023438 25.19265625 73.94921875 26.2578125 C74.67647735 28.15571413 75.35727645 30.07182934 76 32 C70.72 32 65.44 32 60 32 C60 27 60 22 60 17 C58.07977297 15.22590192 58.07977297 15.22590192 56 14 C49.73116787 23.71153108 49.73116787 23.71153108 51 49 C31.86 49 12.72 49 -7 49 C-7.3125 34.8125 -7.3125 34.8125 -7.38793945 30.36254883 C-7.42105225 29.19747803 -7.45416504 28.03240723 -7.48828125 26.83203125 C-7.51446533 25.64327393 -7.54064941 24.4545166 -7.56762695 23.22973633 C-8.03313126 19.75251639 -9.07430299 17.88326129 -11 15 C-11 14.34 -11 13.68 -11 13 C-12.98 14.65 -14.96 16.3 -17 18 C-16.67257813 18.55171875 -16.34515625 19.1034375 -16.0078125 19.671875 C-14.27099899 23.68404884 -14.88621204 27.6760576 -15 32 C-20.94 32 -26.88 32 -33 32 C-28.2559562 18.86264794 -20.43569293 8.70218398 -8 2 C-4.93559774 0.56994561 -3.38480801 0 0 0 Z " fill="#B1D97C" transform="translate(81,199)"/>
<path d="M0 0 C8.75716675 7.88766083 13.6446195 19.36290125 14.5078125 30.9296875 C15.03523332 44.46682182 9.81033239 56.48318232 0.8125 66.5 C-8.2748818 75.13213724 -21.10910948 79.82165436 -33.50390625 79.55859375 C-43.11657413 78.81552863 -50.84769145 75.85773044 -58.6875 70.3125 C-59.64269531 69.65121094 -59.64269531 69.65121094 -60.6171875 68.9765625 C-69.35421843 62.2587565 -75.17842096 51.09913452 -76.6875 40.3125 C-77.65208357 27.39340529 -75.63891138 16.04589237 -67.6640625 5.59375 C-49.12139361 -15.80727496 -21.9579137 -16.95856728 0 0 Z M-57.6875 2.3125 C-58.27660156 2.69535156 -58.86570313 3.07820312 -59.47265625 3.47265625 C-64.17836042 6.83043493 -67.02596845 11.87208696 -68.6875 17.3125 C-69.42146986 23.77314164 -68.12335324 28.89314163 -65.8125 34.875 C-63.14097363 42.22054267 -61.83820944 48.97714861 -61.3046875 56.76171875 C-60.42166338 61.8419018 -58.43421731 65.7199048 -54.5625 69.25 C-50.18513297 70.8677226 -46.28392946 71.16448615 -41.6875 70.3125 C-38.57596951 68.85931269 -36.5989277 67.16570986 -34.6875 64.3125 C-33.58945355 61.00358873 -33.02303788 57.7774422 -32.6875 54.3125 C-30.6875 55.3125 -30.6875 55.3125 -30.01171875 57.203125 C-29.80160156 57.98171875 -29.59148437 58.7603125 -29.375 59.5625 C-28.01571414 63.91776287 -26.26986554 66.37312315 -22.6875 69.3125 C-18.95833603 71.17708199 -14.74788696 70.87298286 -10.6875 70.3125 C-6.78510889 68.32957769 -4.27949242 65.35629509 -2.6875 61.3125 C-2.19528548 58.51854242 -1.76399699 55.74532429 -1.375 52.9375 C-0.48773691 46.96153979 0.74868187 41.67171637 3 36.0625 C5.86187377 28.56421675 7.16950176 20.71468695 4.49609375 12.9375 C0.77001617 6.29028146 -5.62918799 1.09188153 -12.125 -2.6875 C-18.38095203 -4.44355671 -23.8806584 -4.68851478 -29.6875 -1.6875 C-32.54168219 -2.035571 -34.95629341 -2.7770978 -37.6875 -3.6875 C-45.97899343 -4.8893862 -51.04445167 -2.48845521 -57.6875 2.3125 Z " fill="#F4E0A0" transform="translate(233.6875,168.6875)"/>
<path d="M0 0 C4.95 0 9.9 0 15 0 C15.99 1.98 16.98 3.96 18 6 C20.04225211 8.04225211 24.07915477 7.23055064 26.875 7.25 C27.97521484 7.2809375 27.97521484 7.2809375 29.09765625 7.3125 C33.21741736 7.3841579 33.21741736 7.3841579 36.8828125 5.734375 C38.06096083 3.90536151 39.02703301 1.94593398 40 0 C44.62 0 49.24 0 54 0 C53.731875 1.19625 53.46375 2.3925 53.1875 3.625 C52.27106896 7.74568994 51.38205162 11.87181933 50.5 16 C49.35915369 21.3393924 48.19414145 26.67229197 47 32 C43.535 32.495 43.535 32.495 40 33 C36.99266616 29.70625341 36.01659864 26.22614514 34.84375 22.0234375 C34.07274126 19.64804211 34.07274126 19.64804211 31 18 C27.98791687 17.6653241 25.89979621 17.44821692 23 18 C18.7130915 21.59173415 17.49979536 26.78480249 16 32 C12.625 32.625 12.625 32.625 9 33 C6.40259534 30.40259534 6.55747481 28.86866677 6.125 25.25 C5.10720168 17.92999451 3.12678777 11.06167196 1 4 C0.67 2.68 0.34 1.36 0 0 Z " fill="#DFE2E6" transform="translate(175,198)"/>
<path d="M0 0 C26.07 0 52.14 0 79 0 C77.17315099 4.56712253 75.8499814 6.62144877 72.625 10.125 C71.46871094 11.39730469 71.46871094 11.39730469 70.2890625 12.6953125 C68.29150783 14.70650236 66.31828562 16.3803758 64 18 C61.83899818 16.92200605 59.68119281 15.83833 57.52734375 14.74609375 C56.67269531 14.31425781 55.81804687 13.88242188 54.9375 13.4375 C54.08027344 13.00308594 53.22304687 12.56867188 52.33984375 12.12109375 C45.33176992 8.76330212 35.66645446 8.76287677 28.15625 10.75390625 C25.97970715 11.70428027 24.00955519 12.73709482 22 14 C21.38253906 14.3815625 20.76507813 14.763125 20.12890625 15.15625 C18.725595 16.063703 17.35751751 17.02537205 16 18 C9.18285423 14.89576398 3.57486362 9.55391663 0 3 C0 2.01 0 1.02 0 0 Z " fill="#E0B794" transform="translate(64,140)"/>
<path d="M0 0 C4.97141539 2.90324416 9.78577329 6.53824079 12 12 C12 13.32 12 14.64 12 16 C6.39 16 0.78 16 -5 16 C-5.66 14.02 -6.32 12.04 -7 10 C-10.00287088 8.49856456 -13.083109 8.73425982 -16.375 8.6875 C-17.04789063 8.65849609 -17.72078125 8.62949219 -18.4140625 8.59960938 C-21.83393159 8.55585121 -23.65704953 8.739735 -26.4140625 10.83203125 C-28.16960599 13.00066375 -28.16960599 13.00066375 -29 16 C-34.28 16 -39.56 16 -45 16 C-45 10.2767066 -44.33320118 9.51837271 -40.69140625 5.6484375 C-36.44790608 1.51273988 -33.43928551 -0.25085541 -27.5 -0.5 C-22.44019696 -0.33433114 -19.79809692 0.71515942 -16 4 C-15.21625 3.360625 -14.4325 2.72125 -13.625 2.0625 C-8.98197112 -1.58559412 -5.62956084 -1.57104023 0 0 Z " fill="#DDE0E4" transform="translate(219,174)"/>
<path d="M0 0 C9.9 0 19.8 0 30 0 C31.17689104 7.06134624 31.17689104 7.06134624 28.34765625 11.38671875 C25.20601962 15.14757651 22.03967668 16.65454666 17.34765625 17.44921875 C12.38284909 17.75568833 8.92520449 17.53083503 5 14.3125 C2.51303696 11.75977592 0.3352742 9.3381855 -1 6 C-0.67 4.02 -0.34 2.04 0 0 Z " fill="#ECCCB1" transform="translate(88,189)"/>
<path d="M0 0 C3.8026029 2.0050088 5.61790841 3.42686262 8 7 C8.1953125 9.26171875 8.1953125 9.26171875 8.125 11.6875 C8.10695313 12.49574219 8.08890625 13.30398437 8.0703125 14.13671875 C8.04710938 14.75160156 8.02390625 15.36648437 8 16 C5.36 16 2.72 16 0 16 C-0.66 13.69 -1.32 11.38 -2 9 C-3.65 9.33 -5.3 9.66 -7 10 C-7.33 11.98 -7.66 13.96 -8 16 C-10.64 16 -13.28 16 -16 16 C-16.76140684 8.38593156 -16.76140684 8.38593156 -14.95703125 5.1015625 C-10.50498422 -0.25133862 -6.66945514 -0.82947845 0 0 Z " fill="#050504" transform="translate(66,83)"/>
<path d="M0 0 C3.3792573 2.03005291 6.22397384 4.44794768 8 8 C8.13415472 10.6723621 8.04318541 13.32250488 8 16 C5.36 16 2.72 16 0 16 C-0.66 13.69 -1.32 11.38 -2 9 C-3.65 9 -5.3 9 -7 9 C-7.66 11.31 -8.32 13.62 -9 16 C-11.64 16 -14.28 16 -17 16 C-17.71920089 9.16759156 -17.71920089 9.16759156 -15.734375 5.9453125 C-11.06090343 0.4778045 -7.2783592 -1.29419438 0 0 Z " fill="#050404" transform="translate(149,83)"/>
<path d="M0 0 C0 5.61 0 11.22 0 17 C-10.03296703 17.48351648 -10.03296703 17.48351648 -14.125 15.4375 C-16.62945239 12.18171189 -17.07188342 10.09735503 -17 6 C-12.42754854 -1.25285404 -7.98155932 -0.09280883 0 0 Z " fill="#E3C5AA" transform="translate(25,99)"/>
<path d="M0 0 C10.9030837 -0.43612335 10.9030837 -0.43612335 15 3 C16.54586876 6.09173752 16.29359521 8.59429552 16 12 C14.37109375 14.2109375 14.37109375 14.2109375 12 16 C7.93404512 16.52667809 4.11858117 16.17906875 0 16 C0 10.72 0 5.44 0 0 Z " fill="#ECCDB1" transform="translate(182,99)"/>
<path d="M0 0 C6.6 0 13.2 0 20 0 C20.33 2.97 20.66 5.94 21 9 C14.07 9 7.14 9 0 9 C0 6.03 0 3.06 0 0 Z " fill="#D6BAA0" transform="translate(140,239)"/>
<path d="M0 0 C6.6 0 13.2 0 20 0 C20 2.97 20 5.94 20 9 C13.4 9 6.8 9 0 9 C0 6.03 0 3.06 0 0 Z " fill="#DABDA4" transform="translate(46,239)"/>
<path d="M0 0 C1.43034568 0.80962963 2.85277608 1.63446306 4.25 2.5 C-0.95181065 5.96787377 -6.65367713 5.68177037 -12.75 5.6875 C-13.43578125 5.69974609 -14.1215625 5.71199219 -14.828125 5.72460938 C-19.18934895 5.73709379 -22.69883288 5.101477 -26.75 3.5 C-26.75 2.84 -26.75 2.18 -26.75 1.5 C-17.92247197 -3.49334919 -9.26067519 -4.59759122 0 0 Z " fill="#D2A883" transform="translate(114.75,159.5)"/>
<path d="M0 0 C2.97 0 5.94 0 9 0 C9 2.64 9 5.28 9 8 C6.03 8 3.06 8 0 8 C0 5.36 0 2.72 0 0 Z " fill="#D3D5D9" transform="translate(107,124)"/>
<path d="M0 0 C2.97 0 5.94 0 9 0 C9 2.64 9 5.28 9 8 C6.03 8 3.06 8 0 8 C0 5.36 0 2.72 0 0 Z " fill="#D2D5D9" transform="translate(74,124)"/>
<path d="M0 0 C2.64 0 5.28 0 8 0 C8 2.64 8 5.28 8 8 C5.36 8 2.72 8 0 8 C0 5.36 0 2.72 0 0 Z " fill="#F87E6B" transform="translate(198,190)"/>
<path d="M0 0 C2.64 0 5.28 0 8 0 C8 2.64 8 5.28 8 8 C5.36 8 2.72 8 0 8 C0 5.36 0 2.72 0 0 Z " fill="#E6E9ED" transform="translate(124,124)"/>
<path d="M0 0 C2.64 0 5.28 0 8 0 C8 2.64 8 5.28 8 8 C5.36 8 2.72 8 0 8 C0 5.36 0 2.72 0 0 Z " fill="#E6E9ED" transform="translate(91,124)"/>
<path d="M0 0 C2.64 0 5.28 0 8 0 C7.67 2.64 7.34 5.28 7 8 C4.69 8 2.38 8 0 8 C0 5.36 0 2.72 0 0 Z " fill="#D3D6D9" transform="translate(140,124)"/>
<path d="M0 0 C2.31 0 4.62 0 7 0 C7 2.64 7 5.28 7 8 C5.02 8 3.04 8 1 8 C-0.35439668 5.29120665 -0.06501451 2.99066732 0 0 Z " fill="#E1E4E7" transform="translate(59,124)"/>
</svg>
