<?xml version="1.0" encoding="UTF-8"?>
<svg version="1.1" xmlns="http://www.w3.org/2000/svg" width="256" height="256">
<path d="M0 0 C3.17852316 1.64448689 5.37801764 3.75603527 7 7 C7.43736501 9.9913607 7.69907449 12.99074485 8 16 C11.3 16.99 14.6 17.98 18 19 C18.598125 18.360625 19.19625 17.72125 19.8125 17.0625 C23.24157872 13.82936864 26.39298108 13.70454178 31.0078125 13.7890625 C35.43551268 14.25787781 37.53972261 16.4526431 40.3125 19.75 C42.31035287 23.59771664 42.53544952 25.71640386 42 30 C40.75980713 32.87499255 39.36526582 35.42601085 37.6875 38.0625 C36.68878187 40.87706929 37.78332667 42.36387446 39 45 C39 45.99 39 46.98 39 48 C40.546875 47.9071875 40.546875 47.9071875 42.125 47.8125 C46.38338417 48.01855085 48.47047545 48.64698363 52 51 C55.08847593 54.41357866 56.26431338 57.03705837 56.4375 61.5625 C56.24147357 65.45035754 55.58495431 67.96936391 53 71 C48.67028895 74.69298884 44.3976315 74.31750774 39 74 C38.855625 74.886875 38.71125 75.77375 38.5625 76.6875 C38 80 38 80 37.1875 82.5625 C36.72497632 85.21038572 36.72497632 85.21038572 38.875 87.6875 C39.57625 88.450625 40.2775 89.21375 41 90 C42.53597454 93.07194908 42.2265038 95.60244293 42 99 C40.4189921 103.11062053 38.88666235 105.81375243 35 108 C34.01 108 33.02 108 32 108 C31.67 109.258125 31.34 110.51625 31 111.8125 C28.71390441 118.7032905 24.1551494 124.23849493 19.53271484 129.74926758 C15.29713777 134.99037993 13.19948261 140.1511734 11.25 146.5625 C10.81494141 147.9227832 10.81494141 147.9227832 10.37109375 149.31054688 C8.82385506 154.181876 7.37730548 159.07815837 6 164 C7.093125 163.95875 8.18625 163.9175 9.3125 163.875 C20.31568877 163.95262391 29.00413978 166.58405027 37.26171875 174.04296875 C45.16655817 182.29848497 47.32048358 189.79358853 47.4375 201 C47.45296875 202.27496338 47.45296875 202.27496338 47.46875 203.57568359 C47.45134766 204.77572021 47.45134766 204.77572021 47.43359375 206 C47.42384521 206.721875 47.41409668 207.44375 47.40405273 208.1875 C47 210 47 210 44 212 C43.42006301 214.19454681 43.42006301 214.19454681 43.3125 216.625 C43.21388672 217.85089844 43.21388672 217.85089844 43.11328125 219.1015625 C43.05720703 220.04128906 43.05720703 220.04128906 43 221 C44.32 221.33 45.64 221.66 47 222 C47.14685185 225.33285926 47.23457648 228.66487345 47.3125 232 C47.3753418 233.40185547 47.3753418 233.40185547 47.43945312 234.83203125 C47.55662555 241.53429391 46.32896908 245.82338958 42 251 C36.80703292 255.82204086 32.6642098 256.14792294 25.8210907 256.14044189 C24.55565287 256.14489858 24.55565287 256.14489858 23.26465064 256.1494453 C20.42731899 256.15814257 17.59002948 256.15964141 14.75268555 256.16113281 C12.72259429 256.16576025 10.69250391 256.1707848 8.66241455 256.17617798 C3.13963852 256.18931089 -2.38312534 256.19574864 -7.90591455 256.20018864 C-11.35483671 256.20311783 -14.80375553 256.20722234 -18.25267601 256.21169281 C-29.03925254 256.22536987 -39.82582147 256.2350356 -50.61240608 256.2388947 C-63.07198552 256.2433766 -75.53145533 256.26092979 -87.99100143 256.2898953 C-97.61655602 256.31149719 -107.24207973 256.32159818 -116.86765832 256.32293582 C-122.61906819 256.32398488 -128.37037502 256.32991435 -134.12175941 256.34775543 C-139.53160626 256.36421034 -144.94127233 256.36640413 -150.35113525 256.35761642 C-152.33690563 256.35684468 -154.32268562 256.36120685 -156.30843163 256.37107468 C-159.01921722 256.38375563 -161.72935883 256.37793834 -164.44013977 256.36749268 C-165.22604266 256.37554908 -166.01194555 256.38360548 -166.82166368 256.39190602 C-172.50475032 256.34068508 -176.64912981 255.16851758 -180.86328125 251.28125 C-181.34152344 250.6934375 -181.81976563 250.105625 -182.3125 249.5 C-182.80363281 248.9121875 -183.29476562 248.324375 -183.80078125 247.71875 C-185.99665995 244.57156229 -186.1357738 241.75928188 -186.17700195 238.04467773 C-186.18983719 237.03610214 -186.20267242 236.02752655 -186.21589661 234.98838806 C-186.22328354 233.89780594 -186.23067047 232.80722382 -186.23828125 231.68359375 C-186.246353 230.55736099 -186.25442474 229.43112823 -186.26274109 228.27076721 C-186.27658231 225.88259418 -186.28730429 223.49440137 -186.29516602 221.10620117 C-186.31231805 217.47601036 -186.35619824 213.84674469 -186.40039062 210.21679688 C-186.41052317 207.89323585 -186.41903751 205.56966709 -186.42578125 203.24609375 C-186.44328934 202.16968124 -186.46079742 201.09326874 -186.47883606 199.98423767 C-186.44734002 188.88857985 -183.09080073 181.17245524 -175.41796875 173.19921875 C-166.55718127 165.1400534 -156.58638559 163.86398053 -145 164 C-146.04696654 160.37033447 -147.11545046 156.74732889 -148.1875 153.125 C-148.47947266 152.11179688 -148.77144531 151.09859375 -149.07226562 150.0546875 C-151.95064699 140.39818229 -155.42411307 132.49292829 -162.234375 125.03125 C-170.46953148 115.55717618 -174.95543652 102.08490772 -174.3203125 89.48828125 C-173.07022435 79.77723063 -170.91722456 67.66180788 -163 61 C-162.030625 60.690625 -161.06125 60.38125 -160.0625 60.0625 C-156.63035819 58.87175692 -155.21709842 57.85055511 -153 55 C-152.61714844 53.54400391 -152.61714844 53.54400391 -152.2265625 52.05859375 C-150.29280294 47.23651178 -146.88712965 46.38428525 -142.33984375 44.32421875 C-128.38377208 38.79075876 -113.28124416 37.90552109 -99 43 C-95.02160934 44.84945221 -91.21070411 46.97359651 -87.41015625 49.16015625 C-82.023082 52.06658463 -77.55835706 53.30273486 -71.4375 53.375 C-70.34308594 53.40335938 -69.24867187 53.43171875 -68.12109375 53.4609375 C-64.33900948 52.90238188 -62.81281701 51.50989825 -60 49 C-56.52674819 47.8422494 -53.63932552 47.93133348 -50 48 C-49.7834375 46.9171875 -49.7834375 46.9171875 -49.5625 45.8125 C-49 43 -49 43 -48.1875 40.5 C-47.71692677 37.80386832 -47.71692677 37.80386832 -49.875 35.375 C-50.57625 34.59125 -51.2775 33.8075 -52 33 C-53.20643566 29.38069302 -53.32268559 26.80768995 -53 23 C-50.74794145 18.66270205 -48.5613976 15.86602629 -44 14 C-38.76570359 13.2340054 -35.35290737 13.85623357 -31 17 C-30.401875 17.45375 -29.80375 17.9075 -29.1875 18.375 C-25.50938638 19.42588961 -22.37408288 17.52325101 -19 16 C-18.98582031 15.41992188 -18.97164062 14.83984375 -18.95703125 14.2421875 C-18.58452025 8.1410614 -17.38435075 5.27741536 -13 1 C-9.03716439 -0.98141781 -4.30789762 -0.55820645 0 0 Z " fill="#040403" transform="translate(193,0)"/>
<path d="M0 0 C4.62726633 2.36781661 7.64691355 2.72879837 12.7734375 2.76953125 C18.84883791 3.16648432 18.84883791 3.16648432 20.90234375 5.4453125 C21.8359375 7.58203125 21.8359375 7.58203125 22.6015625 9.765625 C23.24888035 11.94416063 23.24888035 11.94416063 25.5859375 13.64453125 C28.20997317 14.65836321 29.66111746 14.76601054 32.3984375 14.83203125 C34.45703125 15.0078125 34.45703125 15.0078125 36.3359375 15.70703125 C38.45330465 18.46466327 39.74812097 21.2781015 40.3359375 24.70703125 C39.43103044 27.1433195 38.51229796 28.5238877 36.7109375 30.39453125 C34.55425067 34.02168638 34.78502018 37.59351527 35.3359375 41.70703125 C36.95993934 45.34170204 37.99706794 46.48111821 41.3359375 48.70703125 C45.33655491 49.36117695 49.62926835 49.79576847 53.1484375 47.55078125 C53.6434375 47.08671875 54.1384375 46.62265625 54.6484375 46.14453125 C57.3359375 43.70703125 57.3359375 43.70703125 59.8359375 43.76953125 C60.6609375 44.07890625 61.4859375 44.38828125 62.3359375 44.70703125 C63.4290625 45.05765625 64.5221875 45.40828125 65.6484375 45.76953125 C66.5353125 46.07890625 67.4221875 46.38828125 68.3359375 46.70703125 C68.42230469 47.44308594 68.50867188 48.17914063 68.59765625 48.9375 C69.25333368 53.49114965 69.86868076 56.96234082 72.3359375 60.89453125 C76.59577523 63.46818321 80.4707028 63.45857157 85.3359375 62.70703125 C88.40971166 61.50259137 89.18821677 60.93681905 91.0234375 58.08203125 C92.54644056 54.16573767 92.97605901 50.88162171 93.3359375 46.70703125 C94.58014397 46.17250565 95.83164686 45.65494514 97.0859375 45.14453125 C97.78203125 44.85449219 98.478125 44.56445312 99.1953125 44.265625 C101.70979888 43.60947253 102.93093115 43.76079924 105.3359375 44.70703125 C108.0859375 47.26953125 108.0859375 47.26953125 110.3359375 49.70703125 C107.62290957 55.11321146 105.02511036 60.23143824 100.8359375 64.64453125 C82.58625804 84.65901487 78.26902974 125.29195592 74.61474609 151.37402344 C73.70367322 157.63013279 72.60000215 163.42068925 67.3359375 167.51953125 C62.92396648 170.73659345 59.72968399 171.16412841 54.3359375 170.70703125 C47.99007617 167.290029 45.41617678 163.44456128 42.99609375 156.8046875 C42.57263672 155.66708984 42.14917969 154.52949219 41.71289062 153.35742188 C40.83831216 150.97019953 39.96590698 148.58217985 39.09570312 146.19335938 C38.67095703 145.05447266 38.24621094 143.91558594 37.80859375 142.7421875 C37.42968994 141.70457275 37.05078613 140.66695801 36.66040039 139.59790039 C33.80733515 133.37059246 30.04504776 130.46104989 23.98046875 127.6640625 C17.77177068 125.41719245 13.06008813 126.10944347 7.0859375 128.76953125 C-1.01867543 132.70265223 -3.43889142 140.30637787 -6.26757812 148.27148438 C-7.07353337 150.60341626 -7.86782481 152.93941207 -8.65039062 155.27929688 C-10.9576395 161.70636934 -12.93954893 165.94369288 -18.69970703 169.78833008 C-22.80544936 171.70852749 -26.23968355 171.50692817 -30.58203125 170.07421875 C-35.74567549 167.63002041 -37.70550529 163.90449353 -39.6640625 158.70703125 C-40.52660867 155.09070036 -41.03531485 151.45088038 -41.5390625 147.76953125 C-43.34015093 135.92897481 -45.93320675 124.40005472 -48.88183594 112.79736328 C-49.66137452 109.7176506 -50.41792935 106.63294066 -51.171875 103.546875 C-56.57393618 81.55879966 -56.57393618 81.55879966 -68.6640625 62.70703125 C-76.82249492 53.39447912 -80.57608526 42.42736839 -80.08984375 30.03515625 C-79.234331 23.34802906 -76.91419775 17.57985162 -73.3515625 11.89453125 C-71.30012513 8.83559885 -71.30012513 8.83559885 -72.2890625 5.64453125 C-72.6640625 2.70703125 -72.6640625 2.70703125 -71.62109375 0.96484375 C-68.79763675 -2.18523424 -68.79763675 -2.18523424 -66.6640625 -3.29296875 C-65.25640625 -3.03773437 -65.25640625 -3.03773437 -63.8203125 -2.77734375 C-59.80555863 -2.16121816 -58.22813462 -3.14072329 -54.7265625 -5.10546875 C-35.79337284 -15.60727751 -17.80968687 -9.32295297 0 0 Z " fill="#FDE8B6" transform="translate(106.6640625,58.29296875)"/>
<path d="M0 0 C1.65322266 0.01740234 1.65322266 0.01740234 3.33984375 0.03515625 C4.44457031 0.04417969 5.54929687 0.05320313 6.6875 0.0625 C7.54214844 0.07410156 8.39679688 0.08570313 9.27734375 0.09765625 C9.50808594 0.64035156 9.73882812 1.18304688 9.9765625 1.7421875 C12.02894995 6.24446037 13.44796064 9.23175823 18.27734375 11.09765625 C19.63117807 11.14899927 20.98543009 11.1899895 22.33984375 11.22265625 C24.3984375 11.3984375 24.3984375 11.3984375 26.27734375 12.09765625 C28.3947109 14.85528827 29.68952722 17.6687265 30.27734375 21.09765625 C29.37243669 23.5339445 28.45370421 24.9145127 26.65234375 26.78515625 C24.49565692 30.41231138 24.72642643 33.98414027 25.27734375 38.09765625 C26.90134559 41.73232704 27.93847419 42.87174321 31.27734375 45.09765625 C35.27796116 45.75180195 39.5706746 46.18639347 43.08984375 43.94140625 C43.58484375 43.47734375 44.07984375 43.01328125 44.58984375 42.53515625 C47.27734375 40.09765625 47.27734375 40.09765625 49.77734375 40.16015625 C50.60234375 40.46953125 51.42734375 40.77890625 52.27734375 41.09765625 C53.91703125 41.62359375 53.91703125 41.62359375 55.58984375 42.16015625 C56.47671875 42.46953125 57.36359375 42.77890625 58.27734375 43.09765625 C58.36371094 43.83371094 58.45007813 44.56976563 58.5390625 45.328125 C59.19473993 49.88177465 59.81008701 53.35296582 62.27734375 57.28515625 C66.53718148 59.85880821 70.41210905 59.84919657 75.27734375 59.09765625 C78.35111791 57.89321637 79.12962302 57.32744405 80.96484375 54.47265625 C82.48784681 50.55636267 82.91746526 47.27224671 83.27734375 43.09765625 C84.52155022 42.56313065 85.77305311 42.04557014 87.02734375 41.53515625 C88.07148438 41.10009766 88.07148438 41.10009766 89.13671875 40.65625 C91.65120513 40.00009753 92.8723374 40.15142424 95.27734375 41.09765625 C98.02734375 43.66015625 98.02734375 43.66015625 100.27734375 46.09765625 C97.56431582 51.50383646 94.96651661 56.62206324 90.77734375 61.03515625 C72.52766429 81.04963987 68.21043599 121.68258092 64.55615234 147.76464844 C63.64507947 154.02075779 62.5414084 159.81131425 57.27734375 163.91015625 C52.86537273 167.12721845 49.67109024 167.55475341 44.27734375 167.09765625 C37.93148242 163.680654 35.35758303 159.83518628 32.9375 153.1953125 C32.51404297 152.05771484 32.09058594 150.92011719 31.65429688 149.74804688 C30.77971841 147.36082453 29.90731323 144.97280485 29.03710938 142.58398438 C28.61236328 141.44509766 28.18761719 140.30621094 27.75 139.1328125 C27.37109619 138.09519775 26.99219238 137.05758301 26.60180664 135.98852539 C24.24086618 130.83536483 21.46091426 127.78525983 16.33984375 125.41015625 C15.50582031 125.01441406 14.67179687 124.61867188 13.8125 124.2109375 C11.31089516 123.05608558 11.31089516 123.05608558 8.73046875 122.3046875 C-1.40903359 117.31566485 -8.64533283 98.12561264 -12.26171875 87.91015625 C-13.56441822 84.00803562 -14.6709445 80.07457438 -15.72265625 76.09765625 C-15.96886719 75.20304687 -16.21507813 74.3084375 -16.46875 73.38671875 C-19.35758514 60.75553616 -18.94167491 45.60372873 -15.72265625 33.09765625 C-15.35527344 31.41929688 -15.35527344 31.41929688 -14.98046875 29.70703125 C-8.02572906 0.2878669 -8.02572906 0.2878669 0 0 Z " fill="#FDF6E4" transform="translate(116.72265625,61.90234375)"/>
<path d="M0 0 C1.07765625 0.00902344 2.1553125 0.01804688 3.265625 0.02734375 C4.08546875 0.03894531 4.9053125 0.05054688 5.75 0.0625 C9.29076954 13.3031332 12.43053581 26.44655838 14.28027344 40.04101562 C15.34914388 47.33951451 16.99787739 53.94607803 22.75 58.9375 C29.30975997 63.58399664 34.75774018 63.89867317 42.75 63.0625 C45.48303931 62.01133103 47.34047886 60.77593725 49.75 59.0625 C50.41 59.0625 51.07 59.0625 51.75 59.0625 C54.96330939 52.69404067 57.98734927 46.27435084 60.38671875 39.55078125 C60.67458252 38.75945801 60.96244629 37.96813477 61.2590332 37.15283203 C61.82372694 35.58595417 62.37133515 34.01278129 62.89916992 32.43310547 C64.93033969 26.84357061 67.63171564 23.20852925 72.75 20.0625 C77.57312236 18.74517143 81.67567076 19.54523036 86.125 21.6875 C93.13101743 28.02627768 95.19803262 36.45574455 98.04296875 45.20898438 C100.8409327 53.1896538 104.38230592 58.05333817 111.8125 62.21875 C116.94278316 64.45290557 124.08307318 64.07568099 129.23828125 62.1171875 C134.99958481 58.66691531 138.48112928 54.37749447 140.75 48.0625 C141.09993122 46.40592658 141.39639961 44.73734866 141.64453125 43.0625 C141.79301514 42.10239014 141.94149902 41.14228027 142.09448242 40.15307617 C142.24892822 39.13318604 142.40337402 38.1132959 142.5625 37.0625 C144.52930092 24.64094966 146.76346151 12.02211548 150.75 0.0625 C161.44485036 -0.43365285 170.44223666 0.38946288 178.9921875 7.3125 C185.98446651 14.27370221 186.96044398 21.50795215 187.1796875 30.99023438 C187.26381195 33.02148943 187.4975832 35.04523458 187.75 37.0625 C188.74 37.7225 189.73 38.3825 190.75 39.0625 C191.1484375 41.375 191.1484375 41.375 191.125 44.0625 C191.13273438 44.949375 191.14046875 45.83625 191.1484375 46.75 C191.01695312 47.513125 190.88546875 48.27625 190.75 49.0625 C189.76 49.7225 188.77 50.3825 187.75 51.0625 C187.44324084 54.05045224 187.28295751 56.88292933 187.25 59.875 C187.13338936 70.31165237 187.13338936 70.31165237 183.75 74.0625 C178.55805241 76.75807785 174.25030658 77.49712219 168.39378357 77.45018005 C167.57940907 77.45556559 166.76503457 77.46095113 165.92598206 77.46649987 C163.21148496 77.48074743 160.49747771 77.47368377 157.78295898 77.46655273 C155.8310914 77.47225788 153.87922716 77.4792227 151.92736816 77.48735046 C146.63617805 77.50527837 141.3451538 77.50411447 136.05394244 77.49840808 C131.63523098 77.49531654 127.21655139 77.50140811 122.79784447 77.50744683 C112.37504964 77.52148845 101.95233679 77.51993299 91.52954102 77.50854492 C80.77704357 77.49705626 70.02479532 77.51115285 59.2723307 77.5379414 C50.03733483 77.56008781 40.80241725 77.56673838 31.5673967 77.56086498 C26.05300779 77.55749263 20.53877873 77.55992943 15.02441216 77.57711601 C9.84097312 77.59256676 4.657904 77.58865028 -0.52552032 77.56981087 C-2.42743547 77.56612021 -4.32937791 77.5692473 -6.23126793 77.57969666 C-8.82819547 77.59287536 -11.42389267 77.58138738 -14.02076721 77.56370544 C-15.14883745 77.57811295 -15.14883745 77.57811295 -16.29969698 77.59281152 C-21.40852452 77.52126797 -24.30683272 76.26956669 -28.25 73.0625 C-30.26967581 70.15716895 -30.51166833 67.76427405 -30.55639648 64.26904297 C-30.57238388 63.32060516 -30.58837128 62.37216736 -30.60484314 61.39498901 C-30.61020584 60.37518951 -30.61556854 59.35539001 -30.62109375 58.3046875 C-30.63012222 57.24645782 -30.6391507 56.18822815 -30.64845276 55.09793091 C-30.66295858 52.8569827 -30.67184281 50.61599211 -30.67553711 48.375 C-30.68738477 44.97061193 -30.736528 41.5680655 -30.78710938 38.1640625 C-30.79657978 35.98177963 -30.80381186 33.79948568 -30.80859375 31.6171875 C-30.82812607 30.60953339 -30.84765839 29.60187927 -30.86778259 28.56369019 C-30.81840544 20.70466348 -28.86626947 14.10490898 -23.53855896 8.14938354 C-17.09686272 2.01618296 -8.69117397 -0.09446928 0 0 Z " fill="#F86B40" transform="translate(45.25,171.9375)"/>
<path d="M0 0 C2.5 0.25 2.5 0.25 4.5 2.25 C4.84164088 4.49012624 4.94132627 6.6988099 5.05859375 8.9609375 C5.60989788 11.81991288 6.49213923 13.14885366 8.5 15.25 C11.69000686 16.97952179 15.06609652 18.09280682 18.5 19.25 C19.551875 19.62125 20.60375 19.9925 21.6875 20.375 C25.60473865 20.2009005 27.00859304 18.25994213 29.76171875 15.62890625 C31.5 14.25 31.5 14.25 34.8125 13.75 C37.5 14.25 37.5 14.25 39.5 16.25 C40 18.4375 40 18.4375 39.5 21.25 C38.52122435 22.41177619 37.49437786 23.533792 36.4375 24.625 C33.78998267 27.53612954 33.78998267 27.53612954 33.3125 31.5 C35.80880059 39.97354921 35.80880059 39.97354921 40.5 47.25 C43.01606449 47.49349011 45.53086024 47.63363366 48.0546875 47.7734375 C50.86956333 48.32202352 51.81102458 48.96685733 53.5 51.25 C53.8125 53.8125 53.8125 53.8125 53.5 56.25 C50.60296933 59.14703067 47.87457047 58.62759693 43.91015625 58.80859375 C41.0224306 59.33746409 40.22791008 59.90681036 38.5 62.25 C37.32295997 64.70622675 37.32295997 64.70622675 36.375 67.375 C34.58333333 72.16666667 34.58333333 72.16666667 33.5 73.25 C32.9136018 76.03723657 32.9136018 76.03723657 33.5 79.25 C34.93992469 80.9208164 36.51653281 82.32743034 38.15234375 83.8046875 C39.5 85.25 39.5 85.25 40.0625 87.9375 C39.3937653 90.68674264 38.91536675 91.75080685 36.5 93.25 C32.72502733 93.25 31.43506317 92.19335298 28.5625 89.6875 C24.94712389 86.80995575 23.98087514 86.83330026 19.5 87.25 C14.74237712 88.59680694 10.51487563 90.34050382 6.5 93.25 C5.43217189 96.02199461 5.34353621 97.93587492 5.5546875 100.8828125 C5.48438525 103.92589543 4.59314557 105.09312868 2.5 107.25 C-0.0625 107.625 -0.0625 107.625 -2.5 107.25 C-5.39703067 104.35296933 -4.87759693 101.62457047 -5.05859375 97.66015625 C-5.59177255 94.74890561 -6.1427025 94.00156795 -8.5 92.25 C-13.64585747 89.51156123 -18.57504864 87.31110957 -24.4375 87.125 C-27.69627168 88.07884432 -27.69627168 88.07884432 -30.125 90.875 C-30.90875 91.65875 -31.6925 92.4425 -32.5 93.25 C-35.94616056 93.16985673 -37.0556104 92.6943896 -39.5 90.25 C-40 88 -40 88 -39.5 85.25 C-38.15625 83.80078125 -38.15625 83.80078125 -36.5 82.3125 C-34.22446878 80.1879519 -33.57192894 79.57368023 -32.875 76.4375 C-33.73958011 72.02814146 -35.50473352 68.25509694 -37.5 64.25 C-37.83257812 63.52039063 -38.16515625 62.79078125 -38.5078125 62.0390625 C-39.37578111 60.07656944 -39.37578111 60.07656944 -41.5 59.25 C-44.05985218 58.9775833 -46.61929936 58.80435019 -49.1875 58.62890625 C-51.5 58.25 -51.5 58.25 -53.5 56.25 C-53.25 52.6875 -53.25 52.6875 -52.5 49.25 C-49.43146462 47.71573231 -46.20412079 47.86060127 -42.8125 47.62890625 C-40.31096367 47.44994102 -40.31096367 47.44994102 -38.5 45.25 C-35.95259492 39.99177139 -33.27811125 34.13005198 -33.5 28.25 C-34.89643512 26.28480407 -36.44490759 24.6173518 -38.12109375 22.88671875 C-39.5 21.25 -39.5 21.25 -40 18.4375 C-39.5 16.25 -39.5 16.25 -37.5 14.25 C-34.75 13.75 -34.75 13.75 -31.5 14.25 C-29.94921875 15.59375 -29.94921875 15.59375 -28.4375 17.25 C-26.21354259 19.73197377 -26.21354259 19.73197377 -23.125 20.875 C-19.24545895 19.95129975 -15.99032456 18.13832012 -12.5 16.25 C-11.365625 15.71375 -10.23125 15.1775 -9.0625 14.625 C-6.38836775 13.50730483 -6.38836775 13.50730483 -5.5 11.25 C-5.22975292 8.95075503 -5.05502159 6.65198513 -4.87890625 4.34375 C-4.29504428 1.11746116 -3.21627749 0.32162775 0 0 Z " fill="#89DC9C" transform="translate(187.5,7.75)"/>
<path d="M0 0 C10.69485036 -0.49615285 19.69223666 0.32696288 28.2421875 7.25 C35.23446651 14.21120221 36.21044398 21.44545215 36.4296875 30.92773438 C36.51381195 32.95898943 36.7475832 34.98273458 37 37 C38.485 37.99 38.485 37.99 40 39 C40.3984375 41.3125 40.3984375 41.3125 40.375 44 C40.38273437 44.886875 40.39046875 45.77375 40.3984375 46.6875 C40.26695312 47.450625 40.13546875 48.21375 40 49 C39.01 49.66 38.02 50.32 37 51 C36.69324084 53.98795224 36.53295751 56.82042933 36.5 59.8125 C36.38662978 69.95913492 36.38662978 69.95913492 33 74 C29.19139655 76.67316283 24.89911365 76.34610669 20.42700195 76.40161133 C19.56305313 76.4195726 18.69910431 76.43753387 17.80897522 76.45603943 C14.95212186 76.51072681 12.09546073 76.54871659 9.23828125 76.58203125 C8.26025229 76.59392675 7.28222332 76.60582226 6.27455711 76.61807823 C1.09657584 76.67735372 -4.08131643 76.72119073 -9.25952148 76.75512695 C-13.53692833 76.78626582 -17.81207344 76.84890507 -22.08862305 76.93969727 C-27.26122876 77.04942989 -32.43176151 77.10474628 -37.60547829 77.12152672 C-39.57157666 77.13676186 -41.53762637 77.17072458 -43.50305748 77.22416115 C-58.78551747 77.6166593 -58.78551747 77.6166593 -64.15982056 73.69320679 C-69.31894521 67.59920068 -72.41599568 60.50229826 -75 53 C-75.433125 51.865625 -75.86625 50.73125 -76.3125 49.5625 C-78.19750707 39.79473607 -77.12685582 30.3967688 -74 21 C-73.67 20.67 -73.34 20.34 -73 20 C-68.17795984 20.18909961 -65.11442039 21.1112592 -61.46069336 24.31005859 C-58.59816246 27.62184848 -57.33847684 31.67876401 -55.875 35.75 C-55.22827451 37.47460131 -54.57984545 39.19856477 -53.9296875 40.921875 C-53.61290039 41.76484131 -53.29611328 42.60780762 -52.96972656 43.47631836 C-52.00879655 45.97710727 -51.01974236 48.45814382 -49.9765625 50.92578125 C-49.68088379 51.62872314 -49.38520508 52.33166504 -49.08056641 53.0559082 C-46.52596889 57.65199044 -41.83365116 61.07001698 -37 63 C-29.80070852 63.90467287 -23.52709906 63.86893719 -17.58203125 59.42578125 C-12.38457571 54.74165465 -10.11937113 49.84367808 -9.10546875 43 C-8.95698486 42.03989014 -8.80850098 41.07978027 -8.65551758 40.09057617 C-8.50107178 39.07068604 -8.34662598 38.0507959 -8.1875 37 C-6.22069908 24.57844966 -3.98653849 11.95961548 0 0 Z " fill="#FD8E70" transform="translate(196,172)"/>
<path d="M0 0 C2.93453261 0.36681658 3.86437246 0.86437246 6 3 C6.1971417 7.13997567 6.30765478 10.07703567 5 14 C5.495 14.53625 5.99 15.0725 6.5 15.625 C8.54661659 18.86547626 8.26022517 21.08896989 7.71484375 24.80859375 C6.47829955 28.59931121 4.31425804 29.87887486 1 32 C-4.13559585 33.71186528 -10.15891818 34.25711585 -15.20703125 32.0234375 C-18.28184977 29.913141 -21.11911315 27.74376913 -22 24 C-21.91984106 19.59125825 -21.4952783 17.58651377 -18.625 14.1875 C-14.54713408 10.7892784 -12.57471367 9.75118321 -7.3125 9.875 C-5.82169922 9.90207031 -5.82169922 9.90207031 -4.30078125 9.9296875 C-3.54152344 9.95289063 -2.78226563 9.97609375 -2 10 C-2.04125 8.72125 -2.0825 7.4425 -2.125 6.125 C-2.1953125 3.9453125 -2.1953125 3.9453125 -2 2 C-1.34 1.34 -0.68 0.68 0 0 Z " fill="#FEA2AC" transform="translate(90,133)"/>
<path d="M0 0 C2.4375 0.1875 2.4375 0.1875 3.4375 1.1875 C3.57865161 3.85808851 3.47997107 6.51182238 3.4375 9.1875 C4.15035156 9.12949219 4.86320313 9.07148438 5.59765625 9.01171875 C11.55196233 8.73123327 15.50710715 8.86806202 20.12890625 12.8359375 C21.86164674 14.62557395 22.8589174 15.72852397 23.4375 18.1875 C23.24532148 23.47240928 22.18417267 26.44082733 18.4375 30.1875 C13.54803347 33.26365444 8.00521599 32.79122824 2.4375 32.1875 C-2.03412637 30.06936119 -4.60525148 27.7544132 -6.5625 23.1875 C-7.15804703 18.42312376 -6.0955331 16.15224746 -3.5625 12.1875 C-3.8925 11.5275 -4.2225 10.8675 -4.5625 10.1875 C-4.73046875 8.3125 -4.73046875 8.3125 -4.75 6.1875 C-4.76417969 5.48625 -4.77835938 4.785 -4.79296875 4.0625 C-4.39839739 0.85242789 -3.07988827 0.22535768 0 0 Z " fill="#FEA2AC" transform="translate(155.5625,133.8125)"/>
<path d="M0 0 C2.77772117 1.93807875 4.53403266 3.94306036 6 7 C6.67253236 11.80614592 5.66324955 15.03527338 2.9375 19 C-1.02870053 21.70039185 -3.19159866 22 -8 22 C-12.56535709 20.23611203 -14.83343068 17.33313863 -17 13 C-17 7.70383185 -15.73049765 4.73049765 -12 1 C-8.39223034 -1.83467616 -4.16560389 -1.47349277 0 0 Z " fill="#070806" transform="translate(196,68)"/>
<path d="M0 0 C2.93423195 1.79646854 4.47205355 2.9441071 6 6 C6.54399285 10.539219 6.62289461 13.9544269 4.25 17.9375 C1.14683856 20.78206465 -0.68973926 21.82909642 -4.875 22.375 C-8.90106566 21.89187212 -10.91157177 20.59708738 -14 18 C-16.11052721 14.35454391 -16.43413048 11.16765265 -16 7 C-12.49416718 -0.34555447 -7.53452156 -1.00940959 0 0 Z " fill="#050604" transform="translate(178,36)"/>
<path d="M0 0 C1.40958984 -0.00193359 1.40958984 -0.00193359 2.84765625 -0.00390625 C3.83636719 -0.00003906 4.82507813 0.00382813 5.84375 0.0078125 C7.32681641 0.00201172 7.32681641 0.00201172 8.83984375 -0.00390625 C9.77957031 -0.00261719 10.71929687 -0.00132812 11.6875 0 C12.55568359 0.00112793 13.42386719 0.00225586 14.31835938 0.00341797 C16.34375 0.1328125 16.34375 0.1328125 17.34375 1.1328125 C17.46875 3.6328125 17.46875 3.6328125 17.34375 6.1328125 C14.98419489 8.49236761 9.07622174 7.31823655 5.90625 7.3203125 C4.92591797 7.33255859 3.94558594 7.34480469 2.93554688 7.35742188 C1.99904297 7.35935547 1.06253906 7.36128906 0.09765625 7.36328125 C-0.76529053 7.36739014 -1.6282373 7.37149902 -2.51733398 7.37573242 C-4.65625 7.1328125 -4.65625 7.1328125 -6.65625 5.1328125 C-5.91285149 0.22638232 -4.73429112 0.00615071 0 0 Z " fill="#040404" transform="translate(117.65625,141.8671875)"/>
<path d="M0 0 C2.93453261 0.36681658 3.86437246 0.86437246 6 3 C6.46376812 10.30434783 6.46376812 10.30434783 4 14 C-0.875 13.125 -0.875 13.125 -2 12 C-2.1245486 10.35769636 -2.17568524 8.70947724 -2.1875 7.0625 C-2.20167969 6.16660156 -2.21585937 5.27070313 -2.23046875 4.34765625 C-2 2 -2 2 0 0 Z " fill="#181411" transform="translate(90,133)"/>
<path d="M0 0 C2.4375 0.1875 2.4375 0.1875 3.4375 1.1875 C3.5620486 2.82980364 3.61318524 4.47802276 3.625 6.125 C3.63917969 7.02089844 3.65335938 7.91679687 3.66796875 8.83984375 C3.4375 11.1875 3.4375 11.1875 1.4375 13.1875 C-1.125 12.9375 -1.125 12.9375 -3.5625 12.1875 C-4.67695498 9.95859005 -4.72730286 8.65694894 -4.75 6.1875 C-4.76417969 5.48625 -4.77835938 4.785 -4.79296875 4.0625 C-4.39839739 0.85242789 -3.07988827 0.22535768 0 0 Z " fill="#131110" transform="translate(155.5625,133.8125)"/>
<path d="M0 0 C2.625 0.375 2.625 0.375 5 1 C5.625 2.875 5.625 2.875 6 5 C5.34 5.66 4.68 6.32 4 7 C1.375 6.625 1.375 6.625 -1 6 C-1.625 4.125 -1.625 4.125 -2 2 C-1.34 1.34 -0.68 0.68 0 0 Z " fill="#0A100B" transform="translate(208,60)"/>
<path d="M0 0 C1.66611905 -0.042721 3.33382885 -0.04063832 5 0 C6 1 6 1 6.0625 3.5625 C6.041875 4.366875 6.02125 5.17125 6 6 C3.625 6.625 3.625 6.625 1 7 C0.34 6.34 -0.32 5.68 -1 5 C-0.625 2.375 -0.625 2.375 0 0 Z " fill="#070C09" transform="translate(199,42)"/>
<path d="M0 0 C2.625 0.375 2.625 0.375 5 1 C5.042721 2.66611905 5.04063832 4.33382885 5 6 C4 7 4 7 1.4375 7.0625 C0.2309375 7.0315625 0.2309375 7.0315625 -1 7 C-1.625 4.625 -1.625 4.625 -2 2 C-1.34 1.34 -0.68 0.68 0 0 Z " fill="#F3886C" transform="translate(189,75)"/>
<path d="M0 0 C2.625 0.375 2.625 0.375 5 1 C5.042721 2.66611905 5.04063832 4.33382885 5 6 C4 7 4 7 1.4375 7.0625 C0.2309375 7.0315625 0.2309375 7.0315625 -1 7 C-1.625 4.625 -1.625 4.625 -2 2 C-1.34 1.34 -0.68 0.68 0 0 Z " fill="#060907" transform="translate(164,68)"/>
<path d="M0 0 C1.67542976 0.28604898 3.34385343 0.61781233 5 1 C6.125 4.75 6.125 4.75 5 7 C3.33388095 7.042721 1.66617115 7.04063832 0 7 C-1 6 -1 6 -1.125 3.5 C-1 1 -1 1 0 0 Z " fill="#F3886B" transform="translate(171,43)"/>
</svg>
