<?xml version="1.0" encoding="UTF-8"?>
<svg version="1.1" xmlns="http://www.w3.org/2000/svg" width="512" height="512">
<path d="M0 0 C2.65731812 1.92906189 2.65731812 1.92906189 5.18505859 4.48803711 C5.65264587 4.95314194 6.12023315 5.41824677 6.60198975 5.89744568 C8.13226042 7.42680363 9.6401283 8.97634809 11.1484375 10.52734375 C12.21096401 11.59853155 13.27475603 12.66846542 14.3397522 13.73719788 C17.13127784 16.54590823 19.90390003 19.37259819 22.67333984 22.20306396 C24.9416728 24.51508755 27.22307552 26.81396603 29.50528526 29.11228085 C32.22397323 31.85055138 34.93713131 34.59426572 37.6484375 37.33984375 C38.16666454 37.86449659 38.68489159 38.38914944 39.21882248 38.92970085 C40.67928893 40.41110856 42.13599344 41.89610178 43.59130859 43.38256836 C44.42068939 44.22782578 45.25007019 45.07308319 46.10458374 45.94395447 C48.40676199 48.44123352 48.9482938 49.41830528 49.25 52.8125 C48.96929042 56.39154719 48.12271416 58.14250017 46 61 C43.59940183 62.20029908 42.10639351 62.11459743 39.4296875 62.09765625 C38.53378906 62.09443359 37.63789063 62.09121094 36.71484375 62.08789062 C35.30912109 62.07532227 35.30912109 62.07532227 33.875 62.0625 C32.93011719 62.05798828 31.98523438 62.05347656 31.01171875 62.04882812 C28.67441613 62.03702357 26.33723939 62.02055759 24 62 C24.03609375 62.93070312 24.0721875 63.86140625 24.109375 64.8203125 C23.97069007 68.85208153 22.89890677 70.26214361 20 73 C18.68 73 17.36 73 16 73 C16 79.27 16 85.54 16 92 C17.98 92.66 19.96 93.32 22 94 C24.42215225 97.10891126 24.24291494 100.21458426 24.22705078 104.05371094 C24.22689972 105.27467468 24.22674866 106.49563843 24.22659302 107.75360107 C24.21627045 109.06725647 24.20594788 110.38091187 24.1953125 111.734375 C24.19158042 113.09629102 24.18873437 114.45820973 24.18673706 115.82012939 C24.17911594 119.39747586 24.15948069 122.97465885 24.1373291 126.55194092 C24.11683778 130.2051777 24.10772833 133.85844101 24.09765625 137.51171875 C24.07623322 144.67455353 24.04211582 151.83725383 24 159 C24.99 158.67 25.98 158.34 27 158 C40.11885018 156.8840777 51.90691092 158.28835276 64 163.5625 C77.07659479 169.20805197 91.09521835 168.75771506 105 167 C104.46890625 166.14019531 103.9378125 165.28039062 103.390625 164.39453125 C94.41354207 149.53737415 90.68757476 135.45037877 93.66015625 118.16015625 C97.35038624 103.7027617 105.22661484 91.67663001 117.9375 83.6875 C127.9571775 78.10555004 139.33630576 73.83363058 151 75 C153.87305972 76.40460697 155.74510999 77.74510999 158 80 C158.26006222 82.91831684 158.26006222 82.91831684 158.27415466 86.73664856 C158.27939134 87.43720059 158.28462802 88.13775261 158.29002339 88.85953349 C158.30508476 91.21866847 158.30572987 93.57758773 158.30639648 95.93676758 C158.31401394 97.62351348 158.32244072 99.31025589 158.33161926 100.99699402 C158.35361396 105.58798062 158.36236999 110.1789006 158.36744571 114.76993394 C158.37108388 117.63675307 158.37732115 120.50355461 158.3844471 123.37036705 C158.40896032 133.36776881 158.42199722 143.36511855 158.42553711 153.36254883 C158.4291723 162.68753353 158.45906166 172.01218906 158.50094169 181.33707315 C158.53561445 189.33713692 158.55108504 197.33709148 158.55178314 205.33722991 C158.55257709 210.11788458 158.5613692 214.89820432 158.58978081 219.67878151 C158.61590943 224.17604527 158.61819601 228.67269522 158.60212517 233.17000008 C158.60030642 234.82078639 158.60703982 236.47160756 158.62294388 238.12231827 C158.64333724 240.37640886 158.63289565 242.62833827 158.61473083 244.88240051 C158.61774783 246.77417133 158.61774783 246.77417133 158.62082577 248.70415974 C157.81171675 252.99955827 156.37758754 254.2788906 153 257 C149.77506495 257.62559515 149.77506495 257.62559515 146.04245758 257.62641239 C145.35101825 257.63338 144.65957892 257.64034761 143.94718689 257.64752635 C141.6245885 257.66480526 139.3036507 257.64638885 136.9810791 257.62818909 C135.30152583 257.63323303 133.62197792 257.64046068 131.94244242 257.64968723 C127.32277147 257.66865821 122.70362815 257.65634857 118.08397031 257.6389643 C113.10365552 257.62561911 108.12341939 257.64101713 103.14311218 257.65278625 C93.38498315 257.67118851 83.62705403 257.66263327 73.86893117 257.64469803 C65.94001627 257.63068608 58.01115572 257.6267762 50.08222961 257.6301403 C48.95477865 257.63061775 47.82732769 257.63109519 46.66571155 257.6315871 C44.37548886 257.6326134 42.08526619 257.63366876 39.79504353 257.63475286 C19.53275588 257.64332516 -0.72943509 257.62662773 -20.99169922 257.59692383 C-40.66394105 257.56808517 -60.33604361 257.56100221 -80.00830078 257.57641602 C-101.41772082 257.5931679 -122.8270747 257.59722271 -144.23649645 257.57970566 C-146.5184075 257.57786122 -148.80031855 257.57602649 -151.08222961 257.57420158 C-152.20504399 257.57328949 -153.32785837 257.5723774 -154.48469743 257.57143768 C-162.40628809 257.56582598 -170.32784651 257.56914535 -178.24943542 257.57574654 C-187.90006663 257.5834691 -197.55056062 257.57676602 -207.20116413 257.5515715 C-212.12733505 257.53905144 -217.05329207 257.53296025 -221.97947121 257.54411316 C-226.48608977 257.55412371 -230.99228094 257.54576422 -235.49884731 257.52253198 C-237.1320124 257.5173551 -238.76521552 257.51896602 -240.39836425 257.52792663 C-242.61357774 257.53907283 -244.82733377 257.52574289 -247.04245758 257.50615788 C-248.89009823 257.50437065 -248.89009823 257.50437065 -250.77506495 257.50254732 C-254.64462106 256.89954756 -256.34386634 255.85318937 -259 253 C-259 251.68 -259 250.36 -259 249 C-265.27 249 -271.54 249 -278 249 C-278.99 251.97 -278.99 251.97 -280 255 C-283.54969813 257.36646542 -285.10727084 257.267447 -289.31982422 257.30639648 C-291.27733109 257.33037758 -291.27733109 257.33037758 -293.27438354 257.35484314 C-294.70114756 257.36121981 -296.12791627 257.36661256 -297.5546875 257.37109375 C-299.0181589 257.38006111 -300.48162936 257.38918297 -301.94509888 257.39845276 C-305.01338936 257.41494274 -308.08157072 257.42264281 -311.14990234 257.42553711 C-315.07663658 257.43092009 -319.00234165 257.46859465 -322.92878532 257.51428127 C-325.95203368 257.54406368 -328.9750346 257.5512609 -331.9984169 257.55226326 C-333.4456974 257.55646356 -334.89297877 257.56889054 -336.34011459 257.58978081 C-338.36702893 257.61671048 -340.39431527 257.60876042 -342.42138672 257.59936523 C-343.57371796 257.60443588 -344.72604919 257.60950653 -345.91329956 257.61473083 C-350.05309721 256.79027076 -351.3667633 255.26086221 -354 252 C-354.62641239 248.70974636 -354.62641239 248.70974636 -354.62818909 244.89585876 C-354.63528347 244.1920379 -354.64237786 243.48821703 -354.64968723 242.76306826 C-354.66725558 240.41041494 -354.64917062 238.0594164 -354.63110352 235.70678711 C-354.63624278 234.01797229 -354.64352412 232.32916284 -354.65278625 230.6403656 C-354.67130625 226.05769273 -354.65835861 221.47560138 -354.63869596 216.89295268 C-354.62231573 212.09818893 -354.63112135 207.30346219 -354.63621521 202.50868225 C-354.64073643 194.45776066 -354.62486348 186.40707139 -354.59692383 178.35620117 C-354.56486091 169.0453485 -354.56489176 159.7349146 -354.5821386 150.42403215 C-354.59799527 141.46934181 -354.59127637 132.51480515 -354.57420158 123.56012154 C-354.56732506 119.74797035 -354.56836966 115.93594213 -354.57574654 112.12379265 C-354.5834007 107.63634619 -354.57131192 103.14937711 -354.54389763 98.6620121 C-354.53700395 97.01405632 -354.53692635 95.36605603 -354.54411316 93.7181015 C-354.5527862 91.47058533 -354.53689094 89.22454978 -354.5146637 86.97715759 C-354.51185678 85.71895171 -354.50904985 84.46074583 -354.50615788 83.1644125 C-353.90648831 79.41538093 -352.99450587 78.25967216 -350 76 C-339.86737913 72.62245971 -327.93938491 76.93218057 -318.60546875 81.05859375 C-304.77410818 88.0590547 -296.18720746 99.76921416 -290.9453125 114.01953125 C-286.84258353 126.95499491 -287.84050022 142.32474698 -293.6875 154.51953125 C-295.91776829 158.81486277 -298.31465406 162.97198109 -301 167 C-289.72116774 168.24333584 -279.08826712 168.74753521 -268 166 C-268.68835938 165.01773438 -268.68835938 165.01773438 -269.390625 164.015625 C-278.37527328 150.65190445 -282.04994817 136.01148932 -279.3125 120 C-275.55258592 103.7331495 -265.83418906 91.15991003 -252 82 C-236.87712653 74.04169228 -222.20911317 73.72408604 -206 78 C-203.15769703 78.99874374 -200.37183419 80.05660899 -197.59765625 81.23046875 C-190.90985239 83.21166779 -185.71956083 81.42541944 -179.5 79.0625 C-164.77747983 73.84531094 -149.95819469 73.47206056 -135.43359375 79.81640625 C-120.96496124 86.85331741 -110.87436303 97.17237145 -105.1237793 112.3059082 C-103.12242006 118.36341882 -102.48743607 123.95334416 -102.5625 130.3125 C-102.57079834 131.22894287 -102.57909668 132.14538574 -102.58764648 133.08959961 C-102.90295699 145.81984031 -107.1799097 155.36755586 -114 166 C-111.02401965 168.97598035 -102.2691764 168.11231122 -98.1875 168.1875 C-87.40722129 168.03777391 -78.52688536 165.7166712 -68.73828125 161.4375 C-61.30847226 158.40681518 -54.08974062 157.69315452 -46.125 157.8125 C-44.86429687 157.8134668 -44.86429687 157.8134668 -43.578125 157.81445312 C-40.06071446 157.83973803 -37.3673674 157.8775442 -34 159 C-34 126.99 -34 94.98 -34 62 C-40.6 62 -47.2 62 -54 62 C-58.24894725 57.75105275 -58.89907061 56.75297522 -59 51 C-57.05754847 47.12066409 -54.5346704 44.28193717 -51.484375 41.22558594 C-50.57333008 40.30823669 -49.66228516 39.39088745 -48.72363281 38.44573975 C-47.73267656 37.45836249 -46.74145936 36.47124706 -45.75 35.484375 C-44.72985075 34.46287746 -43.70999846 33.44108327 -42.69042969 32.41900635 C-40.55857352 30.28420933 -38.42316115 28.15305254 -36.28515625 26.02441406 C-33.54447588 23.2951566 -30.81291098 20.55697933 -28.08392334 17.81603622 C-25.98232443 15.70721537 -23.87599166 13.60317492 -21.76818848 11.50055695 C-20.75880093 10.49250346 -19.7508967 9.48296244 -18.74450684 8.4719162 C-17.33971704 7.06205277 -15.92783156 5.6592702 -14.515625 4.25683594 C-13.71415039 3.45695251 -12.91267578 2.65706909 -12.08691406 1.83294678 C-8.11878712 -1.65227842 -4.93268877 -1.14346004 0 0 Z " fill="#020102" transform="translate(354,221)"/>
<path d="M0 0 C10.1541502 0 10.1541502 0 15.25 1.6875 C16.89935547 2.22890625 16.89935547 2.22890625 18.58203125 2.78125 C23.10850892 4.39526261 27.57850395 6.1325623 32.02734375 7.94921875 C39.55955109 10.61172043 47.36164878 10.21841501 55.25 10.25 C56.52230469 10.270625 57.79460937 10.29125 59.10546875 10.3125 C66.6327766 10.34357248 72.97358382 9.72834245 80 7 C81.04414063 6.60748047 81.04414063 6.60748047 82.109375 6.20703125 C84.0442845 5.45791259 85.96075536 4.67528295 87.875 3.875 C98.32434067 -0.46126485 108.05800466 -1.53660921 119 2 C129.79967789 5.54076883 129.79967789 5.54076883 141 7 C142.25554687 7.06316406 143.51109375 7.12632812 144.8046875 7.19140625 C156.651686 7.60476882 166.52053481 5.46969677 177.625 1.25 C189.38970553 -2.81983197 201.21797261 1.10296875 212.1875 5.5625 C213.74190186 6.1927323 215.29785536 6.81915357 216.85546875 7.44140625 C217.87096802 7.85434937 217.87096802 7.85434937 218.90698242 8.27563477 C225.52769002 10.56697262 232.26695395 10.18378527 239.1875 10.1875 C240.95963867 10.20586914 240.95963867 10.20586914 242.76757812 10.22460938 C253.55777348 10.24254322 262.43309514 8.54467535 272.375 4.4375 C273.92362576 3.8090907 275.47307778 3.18271292 277.0234375 2.55859375 C278.02769775 2.14565063 278.02769775 2.14565063 279.05224609 1.72436523 C289.95949419 -2.33201545 300.31580841 0.40339966 310.9375 3.75390625 C329.38286141 9.54160894 346.22336465 7.36346698 364.125 1.25 C375.12503115 -2.03167596 384.49133009 -0.02714331 394.72265625 4.296875 C405.60496101 8.74277609 415.22115516 10.64423075 427 10.5 C428.26328125 10.51546875 429.5265625 10.5309375 430.828125 10.546875 C441.29389765 10.50380598 450.27629677 8.2664112 459.75 3.875 C467.37467125 0.34093705 473.47553479 0 482 0 C482 22.44 482 44.88 482 68 C474.57497734 68.00546844 474.57497734 68.00546844 466.99995422 68.01104736 C421.63698256 68.04630293 376.27406895 68.10130468 330.91114761 68.17792095 C324.96916702 68.18793875 319.02718614 68.19778282 313.08520508 68.20751953 C311.90223318 68.2094609 310.71926128 68.21140228 309.50044175 68.21340248 C290.33057145 68.24444755 271.16071312 68.26141012 251.99082241 68.27319422 C232.32967826 68.2855928 212.66859711 68.3130649 193.00749272 68.35461307 C180.86956507 68.37978553 168.73174188 68.39311455 156.59378775 68.39142957 C148.2772323 68.39139988 139.96078348 68.4059741 131.64426956 68.43216428 C126.84167657 68.44685311 122.03930225 68.45497662 117.23669052 68.44580269 C112.84273944 68.43755112 108.44922883 68.44757262 104.05534329 68.47233662 C102.46308079 68.47804777 100.87077691 68.47696252 99.27852658 68.46851245 C97.1183914 68.45802794 94.95975236 68.472 92.7997179 68.49219131 C90.9981348 68.49446964 90.9981348 68.49446964 89.16015607 68.49679399 C85.35081717 69.10337233 83.69438076 70.28262193 81 73 C80.505 74.485 80.505 74.485 80 76 C73.4 76 66.8 76 60 76 C59.34 74.35 58.68 72.7 58 71 C54.98330996 68.81773003 52.24345589 68.7323849 48.58886719 68.68115234 C47.49300293 68.66109131 46.39713867 68.64103027 45.26806641 68.62036133 C43.54982666 68.60332153 43.54982666 68.60332153 41.796875 68.5859375 C40.21060303 68.55947144 40.21060303 68.55947144 38.59228516 68.5324707 C34.64501096 68.4694432 30.69748275 68.42322923 26.75 68.375 C13.50875 68.189375 13.50875 68.189375 0 68 C0 45.56 0 23.12 0 0 Z " fill="#FD5593" transform="translate(15,394)"/>
<path d="M0 0 C8.59525703 3.78191309 14.63614946 1.19482578 23.125 -1.625 C38.08560124 -6.33082477 52.90661314 -6.04036549 67.25 0.5625 C81.28927995 8.12211228 90.64241574 19.47824145 96.125 34.375 C100.23403593 48.79613571 98.83186489 63.83130777 91.8125 77.0625 C89.62292449 80.90693363 87.32613103 84.67481777 85 88.4375 C77.38714212 101.01703522 74.84777128 113.36702304 74.81640625 127.921875 C74.79127152 130.08724257 74.76587318 132.25260709 74.74023438 134.41796875 C74.7114248 137.78401046 74.68736141 141.14999976 74.66870117 144.51611328 C74.64702251 147.79745315 74.60761616 151.07823072 74.56640625 154.359375 C74.56629044 155.36055359 74.56617462 156.36173218 74.5660553 157.39324951 C74.45749417 165.08424607 73.06618973 171.06437871 67.765625 177.01953125 C62.94253218 181.0043246 56.42375227 183.0648559 50.1953125 182.69921875 C39.68993169 181.05403647 33.10016622 176.70515993 25.95703125 168.984375 C21.31140233 162.36757304 20.08476545 154.2480936 18.49609375 146.47265625 C18.0137653 144.17901681 17.53134066 141.8853976 17.04882812 139.59179688 C16.30017551 135.99525093 15.55436415 132.39813664 14.81079102 128.80053711 C14.08799646 125.31471435 13.35504988 121.83114306 12.62109375 118.34765625 C12.40021591 117.26235123 12.17933807 116.1770462 11.95176697 115.05885315 C11.74137283 114.06369186 11.5309787 113.06853058 11.31420898 112.04321289 C11.132285 111.16355362 10.95036102 110.28389435 10.76292419 109.37757874 C10.55240921 108.71672775 10.34189423 108.05587677 10.125 107.375 C9.465 107.045 8.805 106.715 8.125 106.375 C8.00495605 107.01598633 7.88491211 107.65697266 7.76123047 108.31738281 C5.30174986 121.39913572 2.76059807 134.46525773 0.0625 147.5 C-0.17033691 148.66563477 -0.40317383 149.83126953 -0.64306641 151.03222656 C-2.5800418 160.24326268 -5.45086087 169.09529338 -12.875 175.375 C-21.54542659 180.53541475 -29.89649162 184.18441172 -40.0625 181.87890625 C-47.17446898 179.49478029 -51.08507264 174.73666379 -54.875 168.375 C-55.84053379 165.35606657 -56.00887534 162.58936486 -56.03271484 159.4296875 C-56.04297699 158.44766357 -56.05323914 157.46563965 -56.06381226 156.45385742 C-56.07111359 155.39658447 -56.07841492 154.33931152 -56.0859375 153.25 C-56.11402598 150.99348258 -56.14269056 148.73697226 -56.171875 146.48046875 C-56.21295852 142.9370153 -56.24986018 139.39369173 -56.27636719 135.85009766 C-56.30422178 132.42062132 -56.35011149 128.99174126 -56.3984375 125.5625 C-56.40169037 124.5214209 -56.40494324 123.4803418 -56.40829468 122.40771484 C-56.57883442 112.03889867 -58.75505735 102.48597424 -63.625 93.3125 C-63.97208008 92.63405029 -64.31916016 91.95560059 -64.67675781 91.2565918 C-66.77249388 87.23150089 -69.08027905 83.4497383 -71.625 79.6875 C-79.40990446 67.62713314 -81.18592168 52.32163973 -78.46484375 38.25463867 C-77.72497887 35.47763613 -77.06921575 33.59002458 -75.125 31.4375 C-72.25433889 30.08191003 -70.01066218 30.16120485 -66.875 30.375 C-66.66875 29.715 -66.4625 29.055 -66.25 28.375 C-64.67773485 24.94460331 -62.64624771 22.28620024 -60.3125 19.33984375 C-58.03914991 16.23252012 -56.81328459 14.34187483 -57.0625 10.4375 C-56.875 7.375 -56.875 7.375 -55.0625 4.8125 C-40.75943207 -7.71278548 -16.45122613 -7.43785947 0 0 Z " fill="#FDF1BC" transform="translate(339.875,38.625)"/>
<path d="M0 0 C8.59525703 3.78191309 14.63614946 1.19482578 23.125 -1.625 C38.08560124 -6.33082477 52.90661314 -6.04036549 67.25 0.5625 C81.28927995 8.12211228 90.64241574 19.47824145 96.125 34.375 C100.23403593 48.79613571 98.83186489 63.83130777 91.8125 77.0625 C89.62292449 80.90693363 87.32613103 84.67481777 85 88.4375 C77.38714212 101.01703522 74.84777128 113.36702304 74.81640625 127.921875 C74.79127152 130.08724257 74.76587318 132.25260709 74.74023438 134.41796875 C74.7114248 137.78401046 74.68736141 141.14999976 74.66870117 144.51611328 C74.64702251 147.79745315 74.60761616 151.07823072 74.56640625 154.359375 C74.56629044 155.36055359 74.56617462 156.36173218 74.5660553 157.39324951 C74.45749417 165.08424607 73.06618973 171.06437871 67.765625 177.01953125 C62.94253218 181.0043246 56.42375227 183.0648559 50.1953125 182.69921875 C39.68993169 181.05403647 33.10016622 176.70515993 25.95703125 168.984375 C21.31140233 162.36757304 20.08476545 154.2480936 18.49609375 146.47265625 C18.0137653 144.17901681 17.53134066 141.8853976 17.04882812 139.59179688 C16.30017551 135.99525093 15.55436415 132.39813664 14.81079102 128.80053711 C14.08799646 125.31471435 13.35504988 121.83114306 12.62109375 118.34765625 C12.40021591 117.26235123 12.17933807 116.1770462 11.95176697 115.05885315 C11.74137283 114.06369186 11.5309787 113.06853058 11.31420898 112.04321289 C11.132285 111.16355362 10.95036102 110.28389435 10.76292419 109.37757874 C10.55240921 108.71672775 10.34189423 108.05587677 10.125 107.375 C9.465 107.045 8.805 106.715 8.125 106.375 C8.00495605 107.01598633 7.88491211 107.65697266 7.76123047 108.31738281 C5.30174986 121.39913572 2.76059807 134.46525773 0.0625 147.5 C-0.17033691 148.66563477 -0.40317383 149.83126953 -0.64306641 151.03222656 C-2.5800418 160.24326268 -5.45086087 169.09529338 -12.875 175.375 C-21.54542659 180.53541475 -29.89649162 184.18441172 -40.0625 181.87890625 C-47.17446898 179.49478029 -51.08507264 174.73666379 -54.875 168.375 C-55.84053379 165.35606657 -56.00887534 162.58936486 -56.03271484 159.4296875 C-56.04297699 158.44766357 -56.05323914 157.46563965 -56.06381226 156.45385742 C-56.07111359 155.39658447 -56.07841492 154.33931152 -56.0859375 153.25 C-56.11402598 150.99348258 -56.14269056 148.73697226 -56.171875 146.48046875 C-56.21295852 142.9370153 -56.24986018 139.39369173 -56.27636719 135.85009766 C-56.30422178 132.42062132 -56.35011149 128.99174126 -56.3984375 125.5625 C-56.40169037 124.5214209 -56.40494324 123.4803418 -56.40829468 122.40771484 C-56.57883442 112.03889867 -58.75505735 102.48597424 -63.625 93.3125 C-63.97208008 92.63405029 -64.31916016 91.95560059 -64.67675781 91.2565918 C-66.77249388 87.23150089 -69.08027905 83.4497383 -71.625 79.6875 C-79.40990446 67.62713314 -81.18592168 52.32163973 -78.46484375 38.25463867 C-77.72497887 35.47763613 -77.06921575 33.59002458 -75.125 31.4375 C-72.02362519 29.9729619 -70.26701872 29.75197615 -66.875 30.375 C-64.45168501 32.48895563 -63.20639754 33.59399673 -61.875 36.375 C-62.0625 39.375 -62.0625 39.375 -62.46484375 41.13671875 C-63.02013947 44.1670468 -63.07495261 47.10791714 -63.125 50.1875 C-63.15078125 51.30769531 -63.1765625 52.42789063 -63.203125 53.58203125 C-62.41065449 62.74261303 -58.82009165 69.78354695 -53.9375 77.4375 C-41.22054111 97.61299428 -39.29051864 115.78298847 -39.25 139.3125 C-39.23364312 142.74431742 -39.21171467 146.17586364 -39.17837524 149.6075592 C-39.15875999 151.72535643 -39.14940876 153.84327931 -39.15145874 155.96116638 C-39.14449982 156.90718216 -39.13754089 157.85319794 -39.13037109 158.82788086 C-39.12911224 159.66040878 -39.12785339 160.49293671 -39.1265564 161.35069275 C-39.05726857 163.60240443 -39.05726857 163.60240443 -36.875 165.375 C-32.40769992 166.14337561 -28.70759475 165.7363147 -24.5625 163.9375 C-17.57617872 157.2761239 -16.60475748 147.22290259 -14.9375 138.125 C-14.42673618 135.45192335 -13.90664057 132.78068348 -13.38671875 130.109375 C-13.25920227 129.44965698 -13.13168579 128.78993896 -13.00030518 128.11022949 C-11.84906875 122.17490885 -10.60441876 116.26712233 -9.25 110.375 C-9.06832275 109.5406543 -8.88664551 108.70630859 -8.69946289 107.84667969 C-7.26892586 101.75437934 -4.98605318 97.38050052 -0.375 93 C4.78629468 90.60368461 9.52877818 90.61397533 15.125 91.375 C18.625 93.0625 18.625 93.0625 21.125 95.375 C21.846875 96.035 22.56875 96.695 23.3125 97.375 C25.08735327 100.31268818 25.75704711 102.42643589 26.55078125 105.73046875 C26.80899658 106.80216309 27.06721191 107.87385742 27.33325195 108.97802734 C28.62980803 114.54086459 29.89236493 120.11015507 31.125 125.6875 C31.38772705 126.86723389 31.6504541 128.04696777 31.92114258 129.26245117 C33.55379549 136.63753845 35.08010099 144.01730974 36.38671875 151.45703125 C37.87517482 157.33997668 40.14062462 160.92427858 45.125 164.375 C48.24049872 165.93274936 51.7294388 165.93980622 55.125 165.375 C57.31459338 163.7206902 58.04985016 162.83555529 58.49681091 160.09635925 C58.49584915 159.20370865 58.49488739 158.31105804 58.49389648 157.39135742 C58.50077988 156.37567184 58.50766327 155.35998627 58.51475525 154.31352234 C58.50551781 152.66366081 58.50551781 152.66366081 58.49609375 150.98046875 C58.51349777 148.63867057 58.53108187 146.29687373 58.54882812 143.95507812 C58.55883841 140.2734913 58.5625138 136.59200016 58.56079102 132.91040039 C58.58775348 106.32001533 58.58775348 106.32001533 63.125 95.375 C63.43816162 94.60824951 63.75132324 93.84149902 64.07397461 93.05151367 C64.93562606 91.10985181 65.87194425 89.24686027 66.875 87.375 C67.21354004 86.71838379 67.55208008 86.06176758 67.90087891 85.38525391 C70.8978022 79.63574423 74.1412405 74.02903486 77.4609375 68.4609375 C82.36870935 59.35967045 82.61068996 48.05336995 80.125 38.0625 C76.12170471 27.00223302 68.20672962 19.77032663 58.12109375 14.28515625 C46.5310831 9.36337091 33.3847347 11.77026265 22.18530273 16.22021484 C11.64298017 20.30374365 1.62272538 19.04433751 -8.6237793 14.61987305 C-13.83568836 12.4631542 -18.43813107 11.7992716 -24.0625 11.8125 C-25.30326294 11.80851196 -25.30326294 11.80851196 -26.5690918 11.80444336 C-33.44248583 11.97579483 -38.15876793 13.65422785 -44.11328125 17.16015625 C-47.53049223 18.66334241 -49.32426743 18.37814403 -52.875 17.375 C-55.89297955 15.23064611 -56.73855315 14.08755579 -57.4375 10.4375 C-56.85542418 7.26842052 -56.10660493 5.72682918 -53.6796875 3.6015625 C-38.21085179 -6.91188861 -16.85314515 -7.61957342 0 0 Z " fill="#020201" transform="translate(339.875,38.625)"/>
<path d="M0 0 C8.89828799 3.41679641 19.96350638 2.27456234 28.625 -1.125 C29.62015625 -1.57746094 30.6153125 -2.02992188 31.640625 -2.49609375 C39.53355096 -5.93515435 50.0107244 -6.05253841 58.1875 -3.5 C59.60023241 -2.93647965 60.99698149 -2.33126474 62.375 -1.6875 C63.13425781 -1.33558594 63.89351563 -0.98367188 64.67578125 -0.62109375 C75.3836164 4.83180381 81.18784668 13.16513537 85.51953125 24.23828125 C88.64405261 35.46658403 85.98393026 46.40251031 80.7265625 56.46875 C76.28348813 63.99675373 76.28348813 63.99675373 72.90234375 65.171875 C70.40653797 65.31074518 68.75196227 65.08530318 66.375 64.375 C54.45686749 61.52799965 43.83826963 64.09726428 32.375 67.3125 C17.76887261 71.39061267 5.90319959 71.77483486 -8.23828125 66.55859375 C-19.71230908 62.33689262 -31.89038324 61.89879331 -43.625 65.3125 C-46.08203125 65.74609375 -46.08203125 65.74609375 -48.625 65.3125 C-57.89422973 54.32863254 -60.73144547 42.33167663 -59.83642578 28.27441406 C-58.68148334 17.55718836 -51.08891983 8.85552146 -43.16015625 2.14453125 C-29.94009406 -7.40894975 -14.35912686 -6.68442112 0 0 Z " fill="#F2F5F6" transform="translate(149.625,316.6875)"/>
<path d="M0 0 C0 22.44 0 44.88 0 68 C-7.42502266 68.00546844 -7.42502266 68.00546844 -15.00004578 68.01104736 C-60.36301744 68.04630293 -105.72593105 68.10130468 -151.08885239 68.17792095 C-157.03083298 68.18793875 -162.97281386 68.19778282 -168.91479492 68.20751953 C-170.09776682 68.2094609 -171.28073872 68.21140228 -172.49955825 68.21340248 C-191.66942855 68.24444755 -210.83928688 68.26141012 -230.00917759 68.27319422 C-249.67032174 68.2855928 -269.33140289 68.3130649 -288.99250728 68.35461307 C-301.13043493 68.37978553 -313.26825812 68.39311455 -325.40621225 68.39142957 C-333.7227677 68.39139988 -342.03921652 68.4059741 -350.35573044 68.43216428 C-355.15832343 68.44685311 -359.96069775 68.45497662 -364.76330948 68.44580269 C-369.15726056 68.43755112 -373.55077117 68.44757262 -377.94465671 68.47233662 C-379.53691921 68.47804777 -381.12922309 68.47696252 -382.72147342 68.46851245 C-384.8816086 68.45802794 -387.04024764 68.472 -389.2002821 68.49219131 C-391.0018652 68.49446964 -391.0018652 68.49446964 -392.83984393 68.49679399 C-396.64918283 69.10337233 -398.30561924 70.28262193 -401 73 C-401.495 74.485 -401.495 74.485 -402 76 C-408.6 76 -415.2 76 -422 76 C-422.66 74.35 -423.32 72.7 -424 71 C-427.01669004 68.81773003 -429.75654411 68.7323849 -433.41113281 68.68115234 C-434.49195129 68.66128265 -435.57276978 68.64141296 -436.68634033 68.62094116 C-437.84687927 68.60938995 -439.00741821 68.59783875 -440.203125 68.5859375 C-441.39605164 68.56657135 -442.58897827 68.5472052 -443.8180542 68.5272522 C-447.62863004 68.46746733 -451.4392361 68.42107473 -455.25 68.375 C-457.83334652 68.33681928 -460.41668032 68.2977675 -463 68.2578125 C-469.33323007 68.16176642 -475.66651973 68.0777308 -482 68 C-482 64.04 -482 60.08 -482 56 C-481.1221973 55.99978263 -480.24439459 55.99956526 -479.33999181 55.99934131 C-427.307546 55.98582376 -375.27517511 55.94633425 -323.24277724 55.87314438 C-316.99437128 55.86437769 -310.74596504 55.85582787 -304.49755859 55.84741211 C-303.25361996 55.84573305 -302.00968132 55.84405398 -300.72804758 55.84232404 C-280.58968699 55.81565848 -260.45135485 55.80655928 -240.31297842 55.80395857 C-219.64721389 55.8008985 -198.98153162 55.77894544 -178.31580424 55.73947543 C-165.5652207 55.71571758 -152.81480139 55.70667407 -140.06419876 55.71648689 C-131.31914071 55.72180499 -122.57422976 55.70876184 -113.82921359 55.6813371 C-108.78470666 55.66605775 -103.74052898 55.65881949 -98.6960125 55.67340279 C-94.07279195 55.68658906 -89.45020839 55.6765915 -84.82705936 55.64856227 C-83.15930206 55.64247032 -81.49148783 55.64470842 -79.82376018 55.65637074 C-65.30605647 55.74990587 -54.19073798 52.47032384 -43.35546875 42.484375 C-34.03313067 32.76082237 -33.16610953 20.74513088 -33 8 C-21.65680732 3.43747576 -12.32525062 0 0 0 Z " fill="#FC3480" transform="translate(497,394)"/>
<path d="M0 0 C4.18417403 1.63873844 6.98397805 4.71294346 10.078125 7.84765625 C10.64956238 8.41955185 11.22099976 8.99144745 11.80975342 9.58067322 C13.01226448 10.78619786 14.21235172 11.99414454 15.41015625 13.2043457 C17.25205899 15.06457948 19.10191366 16.91661217 20.953125 18.76757812 C22.12026614 19.93963188 23.28694913 21.11214207 24.453125 22.28515625 C25.00929504 22.84243912 25.56546509 23.39972198 26.13848877 23.97389221 C30 27.88393472 30 27.88393472 30 29 C29.33613281 29.01417969 28.67226563 29.02835937 27.98828125 29.04296875 C23.74546048 29.27214301 20.64849128 29.64981471 16.875 31.6875 C13.80201754 37.11643569 14.49149517 42.90520635 15 49 C15.04898438 49.76183594 15.09796875 50.52367187 15.1484375 51.30859375 C16.17459528 53.84169525 16.17459528 53.84169525 22 55 C22 61.6 22 68.2 22 75 C20.02 75.99 18.04 76.98 16 78 C14.58869497 80.82261007 14.83605673 83.22081484 14.79467773 86.37744141 C14.78477814 87.03122269 14.77487854 87.68500397 14.76467896 88.3585968 C14.73305289 90.52288167 14.70830228 92.6871885 14.68359375 94.8515625 C14.66302517 96.35086645 14.64202872 97.85016459 14.62062073 99.34945679 C14.56539012 103.29825131 14.51598524 107.24709826 14.46777344 111.19598389 C14.41756561 115.22445346 14.3618758 119.25284678 14.30664062 123.28125 C14.19904697 131.18743556 14.09760471 139.09368485 14 147 C9.85534837 148.16177152 5.83794638 148.14690664 1.5625 148.125 C0.81162109 148.12886719 0.06074219 148.13273438 -0.71289062 148.13671875 C-1.81213867 148.13478516 -1.81213867 148.13478516 -2.93359375 148.1328125 C-3.9244397 148.13112061 -3.9244397 148.13112061 -4.93530273 148.12939453 C-7.35181983 147.97795146 -9.63152287 147.49139845 -12 147 C-12.00054477 146.42739095 -12.00108953 145.85478189 -12.00165081 145.26482105 C-12.01662373 131.32641398 -12.0594072 117.38833063 -12.13209057 103.4501009 C-12.16673126 96.70961711 -12.19209484 89.96933763 -12.19555664 83.22875977 C-12.19892282 76.72523939 -12.22822425 70.22213699 -12.27343178 63.71877098 C-12.28643392 61.23607563 -12.29070492 58.75331887 -12.28615379 56.27059364 C-12.28126746 52.79612183 -12.3072559 49.32316297 -12.34057617 45.84887695 C-12.32763771 44.30491745 -12.32763771 44.30491745 -12.31443787 42.72976685 C-12.39078017 37.98937747 -12.44235096 35.73614721 -15.37397766 31.86613464 C-18.24819871 29.82362214 -19.82456149 29.32701754 -23.3125 29.1875 C-24.19550781 29.13980469 -25.07851563 29.09210938 -25.98828125 29.04296875 C-26.65214844 29.02878906 -27.31601562 29.01460938 -28 29 C-22.61359076 22.44622903 -16.64114873 16.52753365 -10.625 10.5625 C-9.59221405 9.53474017 -8.55966009 8.50674715 -7.52734375 7.47851562 C-5.02089713 4.98298402 -2.5113292 2.49061918 0 0 Z " fill="#00BFF9" transform="translate(348,239)"/>
<path d="M0 0 C0 22.11 0 44.22 0 67 C-11.385 68.485 -11.385 68.485 -23 70 C-25.39514614 66.36122028 -27.722505 62.7112927 -30 59 C-30.44730469 58.31808594 -30.89460938 57.63617188 -31.35546875 56.93359375 C-34.3026808 51.66691518 -34.37896169 46.40157071 -34.4375 40.5 C-34.44773193 39.70464844 -34.45796387 38.90929687 -34.46850586 38.08984375 C-34.31277017 27.51288535 -30.38194491 18.76388938 -23.18359375 11.0546875 C-16.94694372 5.23381414 -8.80226425 0 0 0 Z " fill="#F3F6F7" transform="translate(497,312)"/>
<path d="M0 0 C12.83493422 2.8522076 21.20951593 7.22937234 29 18 C34.56710403 27.88507946 35.51023179 38.84975315 34 50 C31.85450828 57.39058403 27.26304887 63.69031041 23 70 C15.28714554 69.2021185 7.69391765 68.09913109 0 67 C0 44.89 0 22.78 0 0 Z " fill="#F3F6F7" transform="translate(15,312)"/>
<path d="M0 0 C1.69590237 0.4798599 3.37312789 1.02622586 5.0390625 1.6015625 C18.15339823 6.09100995 29.46621018 5.31594736 42.56640625 1.6015625 C46.15228245 0.64762749 49.5214477 -0.088113 53.22265625 -0.37109375 C56.22265625 1.62890625 56.22265625 1.62890625 58.22265625 4.62890625 C58.53515625 8.12890625 58.53515625 8.12890625 57.22265625 11.62890625 C50.37056176 18.88053977 37.44578976 20.72841548 27.86523438 21.05273438 C15.59908202 21.13100517 2.62397227 19.63245904 -7.77734375 12.62890625 C-9.32321251 9.53716873 -9.07093896 7.03461073 -8.77734375 3.62890625 C-6.37972242 -0.20728787 -4.40461199 -0.88840369 0 0 Z " fill="#050504" transform="translate(324.77734375,67.37109375)"/>
<path d="M0 0 C1.7353486 0.65040529 3.46381762 1.31927917 5.1875 2 C17.16937106 6.21472851 30.50397712 5.15891058 42.2890625 0.90234375 C46.64044209 -0.54602611 50.75362989 -1.12318506 55 1 C56.58495415 4.16990831 56.71140218 7.54063253 56 11 C53.59881128 14.58412728 49.54840677 15.39798862 45.625 16.625 C44.965 16.8415625 44.305 17.058125 43.625 17.28125 C28.22648847 22.25049077 9.65109086 22.34487405 -5 15 C-9.78816199 11.69781931 -9.78816199 11.69781931 -11.0625 7.5 C-11 4 -11 4 -9.5 1.5625 C-6.17970827 -0.51268233 -3.75282078 -0.7135162 0 0 Z " fill="#040404" transform="translate(140,330)"/>
</svg>
