<?xml version="1.0" encoding="UTF-8"?>
<svg version="1.1" xmlns="http://www.w3.org/2000/svg" width="256" height="256">
<path d="M0 0 C4.2262059 2.50441831 6.46965267 3 11.375 3 C14.68680732 1.2371888 14.68680732 1.2371888 17.375 -1 C23.6587762 -3.09459207 31.68440943 -3.1958848 37.8125 -0.5 C42.90870539 2.51237564 46.52091667 7.43775001 48.375 13 C49.44814453 12.96519531 49.44814453 12.96519531 50.54296875 12.9296875 C62.58360739 12.71161643 72.80137379 13.1387297 82.375 21 C82.92671875 21.43828125 83.4784375 21.8765625 84.046875 22.328125 C85.51385642 23.52288307 86.94527273 24.76090304 88.375 26 C89.18130859 26.61681641 89.18130859 26.61681641 90.00390625 27.24609375 C93.42206489 29.89001887 95.43040058 31.74930262 96.375 36 C97.30725791 44.68165182 97.30725791 44.68165182 94.48681641 48.67016602 C92.1271595 52.39078573 91.12663465 55.63857805 90.125 59.875 C89.86589844 60.90753906 89.86589844 60.90753906 89.6015625 61.9609375 C89.18228358 63.63805318 88.77714456 65.31869349 88.375 67 C89.00706549 66.99815641 89.63913097 66.99631283 90.29034996 66.99441338 C105.65455854 66.95028624 121.01874514 66.91716877 136.38300133 66.89637566 C143.81297452 66.88605356 151.24290548 66.87197547 158.67285156 66.84912109 C165.14715783 66.8292157 171.62143351 66.81629036 178.09576952 66.81182301 C181.52536531 66.80921077 184.95487358 66.80305168 188.38444138 66.78853989 C192.20862241 66.7724889 196.03271703 66.77201848 199.85693359 66.77294922 C200.99988388 66.76575867 202.14283417 66.75856812 203.32041931 66.75115967 C204.35810959 66.753909 205.39579987 66.75665833 206.4649353 66.75949097 C207.37013601 66.75764738 208.27533672 66.75580379 209.20796776 66.75390434 C211.375 67 211.375 67 213.375 69 C213.625 72.5 213.625 72.5 213.375 76 C212.715 76.66 212.055 77.32 211.375 78 C210.385 78 209.395 78 208.375 78 C208.375 106.05 208.375 134.1 208.375 163 C209.695 163.33 211.015 163.66 212.375 164 C213.375 165 213.375 165 213.5625 168.4375 C213.375 172 213.375 172 211.375 174 C209.51307297 174.25069833 209.51307297 174.25069833 207.19891357 174.25168228 C206.31834919 174.25689778 205.43778481 174.26211327 204.53053665 174.26748681 C203.5572076 174.26302537 202.58387856 174.25856392 201.58105469 174.25396729 C200.03702532 174.25864726 200.03702532 174.25864726 198.46180344 174.26342177 C194.99010349 174.27144061 191.51857645 174.26506302 188.046875 174.25878906 C185.56709693 174.2614972 183.08731967 174.26505713 180.60754395 174.26940918 C174.55783471 174.27760524 168.50819411 174.27637373 162.45848751 174.2705839 C157.54340647 174.26607399 152.62833935 174.26545159 147.71325684 174.26763153 C147.01471423 174.267938 146.31617162 174.26824446 145.59646106 174.26856022 C144.17755158 174.26919964 142.75864211 174.26984807 141.33973265 174.2705054 C128.0228923 174.27621361 114.70607944 174.26964312 101.3892436 174.25890467 C89.95349237 174.24996871 78.51778174 174.25152061 67.08203125 174.26074219 C53.81406103 174.27143617 40.54611494 174.27566424 27.27814102 174.26951766 C25.86434174 174.26888054 24.45054245 174.2682518 23.03674316 174.26763153 C22.34105878 174.26732298 21.64537439 174.26701443 20.92860866 174.26669653 C16.01730061 174.26496696 11.10600783 174.2678903 6.19470215 174.27259064 C-0.41095725 174.27877335 -7.01655159 174.27439517 -13.62220764 174.26280212 C-16.05310437 174.26014737 -18.48400753 174.26093441 -20.91490173 174.26532745 C-24.2203749 174.27075228 -27.52559769 174.26398617 -30.83105469 174.25396729 C-31.80438374 174.25842873 -32.77771278 174.26289017 -33.78053665 174.26748681 C-34.66110104 174.26227132 -35.54166542 174.25705582 -36.44891357 174.25168228 C-37.21258617 174.25135758 -37.97625877 174.25103287 -38.76307297 174.25069833 C-40.625 174 -40.625 174 -42.625 172 C-42.875 168.5 -42.875 168.5 -42.625 165 C-41.635 164.01 -41.635 164.01 -40.625 163 C-39.635 163 -38.645 163 -37.625 163 C-37.625 142.21 -37.625 121.42 -37.625 100 C-38.945 99.67 -40.265 99.34 -41.625 99 C-43.26222272 95.72555456 -43.08833755 93.64878324 -42.625 90 C-38.89966363 83.4835809 -31.69597035 74.60595274 -24.35546875 72.28125 C-23.78441406 72.1884375 -23.21335937 72.095625 -22.625 72 C-23.18233298 68.72030979 -23.97638048 65.90353886 -25.625 63 C-28.0348677 61.44442402 -30.46726273 60.42501184 -33.109375 59.31640625 C-38.02543974 56.74386927 -40.90314533 52.16556401 -42.625 47 C-43.56664111 33.43674636 -43.56664111 33.43674636 -39.625 28 C-37 25.1875 -37 25.1875 -34.625 23 C-32.99199117 21.36699117 -33.2277257 19.24690864 -32.9375 17 C-31.76179844 10.35209928 -29.22889641 4.86565331 -23.8515625 0.58984375 C-16.68045186 -3.77858391 -7.29962299 -4.60412001 0 0 Z " fill="#F16573" transform="translate(42.625,82)"/>
<path d="M0 0 C4.2262059 2.50441831 6.46965267 3 11.375 3 C14.68680732 1.2371888 14.68680732 1.2371888 17.375 -1 C23.6587762 -3.09459207 31.68440943 -3.1958848 37.8125 -0.5 C42.90870539 2.51237564 46.52091667 7.43775001 48.375 13 C49.44814453 12.96519531 49.44814453 12.96519531 50.54296875 12.9296875 C62.58360739 12.71161643 72.80137379 13.1387297 82.375 21 C82.92671875 21.43828125 83.4784375 21.8765625 84.046875 22.328125 C85.51385642 23.52288307 86.94527273 24.76090304 88.375 26 C89.18130859 26.61681641 89.18130859 26.61681641 90.00390625 27.24609375 C93.42206489 29.89001887 95.43040058 31.74930262 96.375 36 C97.30725791 44.68165182 97.30725791 44.68165182 94.48681641 48.67016602 C92.1271595 52.39078573 91.12663465 55.63857805 90.125 59.875 C89.86589844 60.90753906 89.86589844 60.90753906 89.6015625 61.9609375 C89.18228358 63.63805318 88.77714456 65.31869349 88.375 67 C89.00706549 66.99815641 89.63913097 66.99631283 90.29034996 66.99441338 C105.65455854 66.95028624 121.01874514 66.91716877 136.38300133 66.89637566 C143.81297452 66.88605356 151.24290548 66.87197547 158.67285156 66.84912109 C165.14715783 66.8292157 171.62143351 66.81629036 178.09576952 66.81182301 C181.52536531 66.80921077 184.95487358 66.80305168 188.38444138 66.78853989 C192.20862241 66.7724889 196.03271703 66.77201848 199.85693359 66.77294922 C200.99988388 66.76575867 202.14283417 66.75856812 203.32041931 66.75115967 C204.35810959 66.753909 205.39579987 66.75665833 206.4649353 66.75949097 C207.37013601 66.75764738 208.27533672 66.75580379 209.20796776 66.75390434 C211.375 67 211.375 67 213.375 69 C213.625 72.5 213.625 72.5 213.375 76 C211.375 78 211.375 78 209.09864616 78.24609566 C208.14182505 78.24425207 207.18500393 78.24240849 206.19918823 78.24050903 C205.10259888 78.24325836 204.00600952 78.24600769 202.87619019 78.24884033 C201.063582 78.2380545 201.063582 78.2380545 199.21435547 78.22705078 C197.31197113 78.22748886 197.31197113 78.22748886 195.37115479 78.22793579 C191.88785692 78.22851097 188.40469606 78.21673007 184.92143011 78.20278788 C181.28324924 78.19030796 177.64506543 78.18911219 174.00686646 78.18673706 C167.11495545 78.18051421 160.22310768 78.16409256 153.33122456 78.14403808 C145.48611264 78.12170406 137.64099774 78.11069195 129.79586196 78.10064721 C113.65553758 78.079727 97.51527685 78.04453545 81.375 78 C81.17164787 78.61933253 80.96829575 79.23866507 80.75878143 79.87676525 C80.49061867 80.68846833 80.2224559 81.50017141 79.94616699 82.33647156 C79.68093987 83.14142909 79.41571274 83.94638662 79.14244843 84.77573681 C78.375 87 78.375 87 77.23632812 89.61645508 C76.08985241 92.78908616 75.86901658 95.77703825 75.59375 99.13671875 C75.53473511 99.81620071 75.47572021 100.49568268 75.41491699 101.195755 C75.22761593 103.35912258 75.05035209 105.52313355 74.875 107.6875 C72.72735404 133.87043988 72.72735404 133.87043988 68.375 139 C63.9921637 141.88868756 60.58135305 142.56796579 55.375 142 C50.6666296 140.24804822 49.46188455 137.51159351 47.39868164 133.24658203 C45.45977221 128.99143188 43.77771447 124.63391947 42.10742188 120.26757812 C40.11715681 115.26231199 37.65341787 111.27937564 34.375 107 C31.56294534 107.33194574 29.85412556 107.5361782 27.78515625 109.5390625 C23.90162179 115.55009845 21.27710567 121.78049267 18.76953125 128.44921875 C14.89416611 138.31674512 14.89416611 138.31674512 10.375 141 C5.93479712 142.48006763 2.10941952 142.6453654 -2.3125 141 C-8.02096591 136.0629484 -9.26555025 129.27752233 -9.87451172 122.03076172 C-9.93396973 121.00740723 -9.99342773 119.98405273 -10.0546875 118.9296875 C-10.12816406 117.785 -10.20164063 116.6403125 -10.27734375 115.4609375 C-10.42430209 113.09413474 -10.56505687 110.72693759 -10.69921875 108.359375 C-11.14910821 101.54240593 -12.0927636 95.21573461 -13.91064453 88.62548828 C-14.59866077 86.09680521 -15.14013606 83.57449366 -15.625 81 C-23.03661308 85.00419616 -27.8457977 90.15816153 -32.75 96.9375 C-34.625 99 -34.625 99 -37.1875 100 C-39.625 100 -39.625 100 -41.4375 99 C-43.39767653 95.69865005 -43.23738606 93.79679355 -42.625 90 C-38.86990658 83.48415255 -31.7144719 74.6118121 -24.35546875 72.28125 C-23.78441406 72.1884375 -23.21335937 72.095625 -22.625 72 C-23.18233298 68.72030979 -23.97638048 65.90353886 -25.625 63 C-28.0348677 61.44442402 -30.46726273 60.42501184 -33.109375 59.31640625 C-38.02543974 56.74386927 -40.90314533 52.16556401 -42.625 47 C-43.56664111 33.43674636 -43.56664111 33.43674636 -39.625 28 C-37 25.1875 -37 25.1875 -34.625 23 C-32.99199117 21.36699117 -33.2277257 19.24690864 -32.9375 17 C-31.76179844 10.35209928 -29.22889641 4.86565331 -23.8515625 0.58984375 C-16.68045186 -3.77858391 -7.29962299 -4.60412001 0 0 Z " fill="#030202" transform="translate(42.625,82)"/>
<path d="M0 0 C0.73539914 -0.02231123 1.47079828 -0.04462246 2.22848225 -0.06760979 C12.01284603 -0.34773634 21.79947706 -0.50104378 31.5871582 -0.60180664 C33.01903158 -0.61725651 33.01903158 -0.61725651 34.4798317 -0.63301849 C58.28577393 -0.85943468 79.68800604 -0.61069545 102.11248779 8.20327759 C125.95351926 17.37791126 151.49159396 16.03043032 176.67382812 16.15942383 C177.54089638 16.16402304 178.40796463 16.16862225 179.30130768 16.17336082 C183.42649194 16.19177339 187.5504523 16.19336136 191.67556763 16.16159058 C192.42112821 16.15922457 193.16668879 16.15685856 193.93484211 16.15442085 C195.93603287 16.14768366 197.93718297 16.1309462 199.93830872 16.11346436 C202.8996582 16.33569336 202.8996582 16.33569336 204.8996582 18.33569336 C205.1496582 21.83569336 205.1496582 21.83569336 204.8996582 25.33569336 C204.2396582 25.99569336 203.5796582 26.65569336 202.8996582 27.33569336 C201.9096582 27.33569336 200.9196582 27.33569336 199.8996582 27.33569336 C199.8996582 34.26569336 199.8996582 41.19569336 199.8996582 48.33569336 C201.2196582 48.66569336 202.5396582 48.99569336 203.8996582 49.33569336 C204.8996582 50.33569336 204.8996582 50.33569336 205.0871582 53.77319336 C204.8996582 57.33569336 204.8996582 57.33569336 202.8996582 59.33569336 C200.29232331 59.58143531 197.78718814 59.70251319 195.17480469 59.73730469 C194.37586288 59.75526596 193.57692108 59.77322723 192.75376892 59.79173279 C190.09281135 59.84669731 187.43206706 59.88453628 184.77075195 59.91772461 C183.85498949 59.92962011 182.93922703 59.94151562 181.99571419 59.95377159 C177.12349291 60.01323942 172.25136817 60.05697039 167.37890625 60.09082031 C163.39110075 60.12163002 159.40580626 60.18365608 155.41894531 60.27539062 C113.96359355 61.20768215 113.96359355 61.20768215 94.43710327 49.76818848 C89.99403267 47.25988711 85.31140279 45.27339425 80.6496582 43.21069336 C79.06034839 42.48059233 77.47166603 41.74912141 75.8840332 41.01538086 C72.9132236 39.69855223 70.14549996 38.76414447 66.8996582 38.33569336 C66.94606445 39.61444336 66.9924707 40.89319336 67.0402832 42.21069336 C67.07782847 43.91900315 67.11422566 45.62733844 67.1496582 47.33569336 C67.18317383 48.17487305 67.21668945 49.01405273 67.2512207 49.87866211 C67.34351862 55.83187772 66.39975168 60.42030963 62.8996582 65.33569336 C57.96102959 69.26643858 54.27205261 70.45673531 48.0546875 70.49682617 C46.85301437 70.50643372 45.65134125 70.51604126 44.41325378 70.52593994 C42.46326225 70.53231476 42.46326225 70.53231476 40.47387695 70.53881836 C39.12490335 70.54457329 37.77592976 70.55033098 36.42695618 70.55609131 C33.59827291 70.56659217 30.76961798 70.57244058 27.94091797 70.57592773 C24.3261956 70.58140582 20.71185116 70.60542251 17.09724712 70.63389969 C14.30989 70.65257715 11.52262291 70.6577344 8.73520851 70.65926361 C6.75772867 70.6637417 4.78029712 70.6823643 2.80290222 70.70123291 C1.59177261 70.69823181 0.38064301 70.69523071 -0.8671875 70.69213867 C-2.45911674 70.69760712 -2.45911674 70.69760712 -4.08320618 70.70318604 C-8.27321503 70.19283524 -11.64783573 68.6915957 -14.74487305 65.80053711 C-17.75269549 61.86723084 -19.21782794 59.80105703 -19.27734375 54.8894043 C-19.29017899 53.96794617 -19.30301422 53.04648804 -19.3162384 52.09710693 C-19.32362534 51.0981842 -19.33101227 50.09926147 -19.33862305 49.07006836 C-19.34669479 48.04391418 -19.35476654 47.01776001 -19.36308289 45.96051025 C-19.37693069 43.78497002 -19.38764972 41.609408 -19.39550781 39.43383789 C-19.41270073 36.11294094 -19.45657901 32.79304451 -19.50073242 29.47241211 C-19.51086099 27.35913818 -19.51937658 25.24585579 -19.52612305 23.13256836 C-19.54363113 22.14174255 -19.56113922 21.15091675 -19.57917786 20.13006592 C-19.55737711 13.16958534 -18.43085712 9.69011191 -13.4675293 4.69116211 C-8.67674133 0.94130451 -5.96255637 0.15749916 0 0 Z " fill="#010202" transform="translate(51.100341796875,-0.335693359375)"/>
<path d="M0 0 C0.87205078 -0.020625 1.74410156 -0.04125 2.64257812 -0.0625 C3.48111328 -0.06765625 4.31964844 -0.0728125 5.18359375 -0.078125 C6.33492798 -0.09214355 6.33492798 -0.09214355 7.50952148 -0.10644531 C10.06119928 0.33658591 10.93760988 1.28965078 12.5625 3.25 C11.325 4.673125 11.325 4.673125 10.0625 6.125 C6.81357754 10.67533742 6.74765178 14.83260248 7.5625 20.25 C9.21775306 24.95440343 11.33630437 27.59634228 15.5625 30.25 C18.75012109 31.04690838 18.75012109 31.04690838 21.5625 31.25 C20.94636571 35.07738297 19.80482289 38.18284644 18.12890625 41.671875 C17.4028418 43.21101563 17.4028418 43.21101563 16.66210938 44.78125 C15.64417029 46.91284289 14.62337396 49.04307386 13.59960938 51.171875 C7.94138995 63.19465201 6.94099083 74.61929821 5.88525391 87.6953125 C5.71124061 89.8235189 5.52787374 91.95077311 5.34375 94.078125 C5.1900293 95.9638623 5.1900293 95.9638623 5.03320312 97.88769531 C4.59708048 101.00298633 3.87896955 103.41026435 2.5625 106.25 C1.0775 105.755 1.0775 105.755 -0.4375 105.25 C-1.4813869 102.81126422 -2.35723417 100.44802487 -3.1875 97.9375 C-6.85074021 87.58189089 -11.06718359 76.43515821 -21.4375 71.25 C-26.14983711 70.57818005 -29.64568241 70.88882005 -34 72.875 C-43.45643857 80.68969577 -47.59209384 95.03423203 -51.4375 106.25 C-52.7575 105.92 -54.0775 105.59 -55.4375 105.25 C-56.59755576 101.42752117 -56.78366126 97.5506591 -57.05078125 93.58984375 C-57.16527295 92.05788702 -57.28053277 90.52598755 -57.39648438 88.99414062 C-57.57478784 86.60106907 -57.74862282 84.20806888 -57.90893555 81.8137207 C-58.54942396 72.36921389 -59.42289145 63.96333281 -63.4375 55.25 C-63.79175049 54.46359131 -64.14600098 53.67718262 -64.51098633 52.86694336 C-65.88814193 49.89303083 -67.33791331 46.95785107 -68.7890625 44.01953125 C-71.4375 38.55339521 -71.4375 38.55339521 -71.4375 35.25 C-68.32157363 32.91305522 -65.07748214 30.67999298 -61.4375 29.25 C-60.7775 29.58 -60.1175 29.91 -59.4375 30.25 C-57.35604396 30.34774794 -55.27124453 30.37975741 -53.1875 30.375 C-51.50914063 30.37886719 -51.50914063 30.37886719 -49.796875 30.3828125 C-46.43242847 30.32348215 -46.43242847 30.32348215 -43.140625 29.6796875 C-40.4375 29.25 -40.4375 29.25 -38.4375 30.25 C-30.74000454 30.91508105 -23.79095425 31.0622698 -17.4375 26.25 C-13.00577157 21.81827157 -10.28274711 16.44702701 -10.1875 10.125 C-10.38641288 7.04185037 -10.69035173 4.23859308 -11.4375 1.25 C-7.91191767 -0.51279117 -3.88354409 0.02286119 0 0 Z " fill="#EBE9EF" transform="translate(100.4375,106.75)"/>
<path d="M0 0 C0.72269577 -0.00861557 1.44539154 -0.01723114 2.18998718 -0.02610779 C4.58193789 -0.04881874 6.97271913 -0.04200907 9.36474609 -0.03295898 C11.04227034 -0.03820007 12.71979164 -0.04447832 14.39730835 -0.05174255 C17.9230529 -0.06216202 21.44839449 -0.05757495 24.97412109 -0.04296875 C29.44103466 -0.02595903 33.90664025 -0.04904333 38.37340736 -0.08445835 C41.84673211 -0.10670801 45.31975868 -0.10492241 48.79313278 -0.09669304 C50.43617543 -0.09588494 52.07924264 -0.1025243 53.72221756 -0.11746407 C65.83163126 -0.21053104 76.2574353 1.79109027 87.76318359 5.53344727 C89.23063774 6.0014978 89.23063774 6.0014978 90.72773743 6.47900391 C92.81356219 7.15546731 94.88333358 7.86519212 96.95068359 8.59594727 C99.8731648 9.62792134 102.80710211 10.60178259 105.76318359 11.53344727 C106.8443042 11.87907715 107.9254248 12.22470703 109.03930664 12.58081055 C118.84225798 15.47889369 128.0159968 16.18654683 138.20068359 16.28344727 C139.7222003 16.3117047 141.24368671 16.34164512 142.76513672 16.37329102 C146.43143217 16.44904916 150.0957774 16.49062875 153.76318359 16.53344727 C153.76318359 23.46344727 153.76318359 30.39344727 153.76318359 37.53344727 C129.71146496 39.03347449 112.47278955 38.37917036 91.19393921 26.41911316 C77.73980838 19.02424203 67.36785743 16.49861455 52.04443359 16.63110352 C50.20640306 16.62169324 48.36838593 16.60922008 46.53039551 16.59385681 C41.7495871 16.56194619 36.96974849 16.57095715 32.18890381 16.5892334 C27.28777902 16.60048037 22.38689078 16.57200243 17.48583984 16.54711914 C7.91144868 16.50423664 -1.66239062 16.5046925 -11.23681641 16.53344727 C-11.34523592 14.61803588 -11.42259719 12.70084953 -11.48681641 10.78344727 C-11.53322266 9.71610352 -11.57962891 8.64875977 -11.62744141 7.54907227 C-11.23681641 4.53344727 -11.23681641 4.53344727 -9.67349243 2.17616272 C-6.33565973 -0.07407872 -4.01299703 0.01906526 0 0 Z " fill="#81BBF3" transform="translate(54.23681640625,10.466552734375)"/>
<path d="M0 0 C0.88056438 -0.00521549 1.76112877 -0.01043099 2.66837692 -0.01580453 C3.64170597 -0.01134309 4.61503502 -0.00688164 5.61785889 -0.002285 C6.6472118 -0.00540498 7.67656471 -0.00852497 8.73711014 -0.01173949 C12.20881009 -0.01975833 15.68033712 -0.01338074 19.15203857 -0.00710678 C21.63181664 -0.00981492 24.1115939 -0.01337485 26.59136963 -0.0177269 C32.64107886 -0.02592296 38.69071947 -0.02469145 44.74042606 -0.01890162 C49.6555071 -0.01439171 54.57057423 -0.0137693 59.48565674 -0.01594925 C60.53347065 -0.01640895 60.53347065 -0.01640895 61.60245252 -0.01687793 C63.02136199 -0.01751736 64.44027146 -0.01816579 65.85918093 -0.01882312 C79.17602128 -0.02453133 92.49283413 -0.01796083 105.80966997 -0.00722238 C117.2454212 0.00171358 128.68113183 0.00016167 140.11688232 -0.00905991 C153.38485254 -0.01975388 166.65279863 -0.02398196 179.92077255 -0.01783538 C181.33457183 -0.01719826 182.74837112 -0.01656951 184.16217041 -0.01594925 C184.8578548 -0.0156407 185.55353919 -0.01533215 186.27030492 -0.01501425 C191.18161296 -0.01328468 196.09290575 -0.01620802 201.00421143 -0.02090836 C207.60987083 -0.02709107 214.21546516 -0.02271289 220.82112122 -0.01111984 C223.25201794 -0.00846509 225.6829211 -0.00925213 228.11381531 -0.01364517 C231.41928848 -0.01907 234.72451126 -0.01230388 238.02996826 -0.002285 C239.00329731 -0.00674645 239.97662636 -0.01120789 240.97945023 -0.01580453 C241.86001461 -0.01058903 242.74057899 -0.00537354 243.64782715 0 C244.79333605 0.00048706 244.79333605 0.00048706 245.96198654 0.00098395 C247.82391357 0.25168228 247.82391357 0.25168228 249.82391357 2.25168228 C250.07391357 5.75168228 250.07391357 5.75168228 249.82391357 9.25168228 C247.42478705 11.65080881 246.91686911 11.5019746 243.64782715 11.50336456 C242.76726276 11.50858006 241.88669838 11.51379555 240.97945023 11.51916909 C240.00612118 11.51470765 239.03279213 11.51024621 238.02996826 11.50564957 C237.00061535 11.50876955 235.97126244 11.51188953 234.91071701 11.51510406 C231.43901706 11.52312289 227.96749003 11.5167453 224.49578857 11.51047134 C222.01601051 11.51317948 219.53623325 11.51673941 217.05645752 11.52109146 C211.00674829 11.52928752 204.95710768 11.52805601 198.90740108 11.52226618 C193.99232005 11.51775628 189.07725292 11.51713387 184.16217041 11.51931381 C183.4636278 11.51962028 182.7650852 11.51992674 182.04537463 11.5202425 C180.62646516 11.52088192 179.20755569 11.52153035 177.78864622 11.52218768 C164.47180587 11.52789589 151.15499302 11.5213254 137.83815718 11.51058695 C126.40240595 11.50165099 114.96669532 11.50320289 103.53094482 11.51242447 C90.26297461 11.52311845 76.99502852 11.52734652 63.7270546 11.52119994 C62.31325531 11.52056282 60.89945603 11.51993408 59.48565674 11.51931381 C58.78997235 11.51900526 58.09428796 11.51869671 57.37752223 11.51837881 C52.46621419 11.51664925 47.5549214 11.51957258 42.64361572 11.52427292 C36.03795632 11.53045563 29.43236198 11.52607746 22.82670593 11.51448441 C20.39580921 11.51182965 17.96490605 11.51261669 15.53401184 11.51700974 C12.22853867 11.52243456 8.92331589 11.51566845 5.61785889 11.50564957 C4.64452984 11.51011101 3.67120079 11.51457245 2.66837692 11.51916909 C1.78781254 11.5139536 0.90724815 11.5087381 0 11.50336456 C-0.7636726 11.50303986 -1.5273452 11.50271515 -2.31415939 11.50238061 C-4.17608643 11.25168228 -4.17608643 11.25168228 -6.17608643 9.25168228 C-6.42608643 5.75168228 -6.42608643 5.75168228 -6.17608643 2.25168228 C-3.7769599 -0.14744424 -3.26904196 0.00138996 0 0 Z " fill="#060203" transform="translate(6.17608642578125,244.74831771850586)"/>
<path d="M0 0 C0.78375 0.639375 1.5675 1.27875 2.375 1.9375 C5.77232005 4.60682289 8.28336335 4.60012529 12.5078125 4.83203125 C15 5 15 5 18.75 5.875 C22.21427396 6.37469066 22.21427396 6.37469066 24.875 3.5625 C25.35582031 3.10101563 25.83664063 2.63953125 26.33203125 2.1640625 C29.0679416 0.25469181 31.63067801 0.38564481 34.87890625 0.56640625 C38.04410413 1.21343565 39.81744488 2.68103518 42 5 C43.91544852 8.83089703 43.00649572 13.60376116 42.9375 17.8125 C42.76967812 20.8973506 42.76967812 20.8973506 44 23 C44.50533836 27.37959914 44.27875307 29.51443013 42.0625 33.375 C39.16902029 36.44983741 36.26042433 36.96923249 32.140625 37.1875 C29.19819024 36.92976849 27.39607477 35.66394081 25 34 C22.45741537 33.49985047 22.45741537 33.49985047 20 34 C19.38125 34.495 18.7625 34.99 18.125 35.5 C14.96298765 37.73200872 12.78608758 37.4569416 9 37 C7 35.66666667 5 34.33333333 3 33 C-0.75129837 32.66475124 -0.75129837 32.66475124 -4 33 C-4.226875 33.7425 -4.45375 34.485 -4.6875 35.25 C-6.33245584 38.69657413 -7.70163617 40.06400384 -11 42 C-13.80849003 42.61400187 -16.20007534 42.67876961 -19 42 C-21.9375 39.5625 -21.9375 39.5625 -24 37 C-24.33 36.67 -24.66 36.34 -25 36 C-25.57441422 32.89946872 -25.63982779 30.09164786 -25 27 C-23.00995451 24.46042452 -20.68751398 22.75522861 -18 21 C-17.01 20.34 -16.02 19.68 -15 19 C-14.74906137 16.49816909 -14.74906137 16.49816909 -15 13.6875 C-15.14931316 7.9762715 -14.20265212 5.36581154 -10.3125 1.1875 C-6.925802 -0.55161519 -3.68186156 -0.69918179 0 0 Z " fill="#B0E2F8" transform="translate(36,91)"/>
<path d="M0 0 C0.33 0 0.66 0 1 0 C1.00586624 0.70077667 1.01173248 1.40155334 1.01777649 2.12356567 C1.07580263 8.74417765 1.14793559 15.3644704 1.23571491 21.98475838 C1.28034577 25.38792657 1.3196173 28.79097707 1.34643555 32.19433594 C1.37754229 36.11158567 1.43232892 40.02833576 1.48828125 43.9453125 C1.49467117 45.16115021 1.5010611 46.37698792 1.50764465 47.62966919 C1.5869774 55.75201101 1.5869774 55.75201101 5 63 C10.31525551 67.796694 13.76921993 68.15033792 20.74441528 68.15821838 C21.66083986 68.16315636 22.57726444 68.16809434 23.52145946 68.17318195 C26.61082133 68.18861401 29.70016233 68.19693298 32.78955078 68.20532227 C34.99671616 68.21489631 37.20387969 68.2249061 39.41104126 68.23532104 C45.41898388 68.26242754 51.4269344 68.28340594 57.43490458 68.30332303 C63.70766558 68.32514723 69.98040206 68.35255332 76.25314331 68.37937927 C86.78675265 68.4236701 97.32037105 68.46449717 107.85400391 68.50268555 C118.70492535 68.54203367 129.55583558 68.58345825 140.40673828 68.62768555 C141.07529984 68.63040982 141.74386141 68.63313409 142.43268241 68.63594092 C145.78657324 68.64962028 149.14046391 68.66334058 152.49435449 68.67708123 C180.32954673 68.7909754 208.16476255 68.89779819 236 69 C236 70.65 236 72.3 236 74 C154.82 74 73.64 74 -10 74 C-10 52.88 -10 31.76 -10 10 C-8.35 9.01 -6.7 8.02 -5 7 C-3.43028456 5.22872495 -3.43028456 5.22872495 -2.25 3.3125 C-1.51922148 2.1955189 -0.77442578 1.08717466 0 0 Z " fill="#DA5568" transform="translate(15,171)"/>
<path d="M0 0 C21.12 0 42.24 0 64 0 C64 5.94 64 11.88 64 18 C59.49914938 22.50085062 59.49914938 22.50085062 54.36108398 22.50170898 C52.66428749 22.51578041 52.66428749 22.51578041 50.93321228 22.53013611 C49.71646317 22.51890213 48.49971405 22.50766815 47.24609375 22.49609375 C45.993694 22.49754898 44.74129425 22.49900421 43.45094299 22.50050354 C40.80340693 22.49884337 38.15730736 22.48935408 35.51000977 22.46655273 C32.11798795 22.43813821 28.72686558 22.44091453 25.33477688 22.45364285 C22.09682444 22.46227039 18.85901798 22.44715627 15.62109375 22.43359375 C14.4023204 22.43652939 13.18354706 22.43946503 11.92784119 22.44248962 C10.79979568 22.42980545 9.67175018 22.41712128 8.50952148 22.40405273 C7.51564926 22.39864975 6.52177704 22.39324677 5.49778748 22.38768005 C3 22 3 22 0 19 C0 12.73 0 6.46 0 0 Z " fill="#ECEAF1" transform="translate(43,37)"/>
<path d="M0 0 C4.0144599 1.3381533 5.35766442 3.76313892 8 7 C11.48822992 9.32548661 12.77143776 9.22928125 16.88232422 9.17602539 C18.09564423 9.16684586 19.30896423 9.15766632 20.55905151 9.14820862 C22.53689133 9.1231852 22.53689133 9.1231852 24.5546875 9.09765625 C26.64446649 9.09137591 28.73418916 9.09166313 30.82397652 9.09185696 C35.96206138 9.09171432 41.09921797 9.07787315 46.23681641 9.00366211 C64.58779253 8.75596292 79.58833173 9.89861569 96 19 C98.28170782 20.17701515 100.57838755 21.3207896 102.875 22.46875 C103.88208008 22.97696289 104.88916016 23.48517578 105.92675781 24.00878906 C123.89529398 32.72755447 141.36953688 32.65586397 161 32 C161 33.65 161 35.3 161 37 C137.08471918 38.62082229 119.59537031 37.78151545 98.43075562 25.88566589 C84.97662478 18.49079477 74.60467383 15.96516728 59.28125 16.09765625 C57.44321946 16.08824597 55.60520233 16.07577281 53.76721191 16.06040955 C48.98640351 16.02849893 44.20656489 16.03750989 39.42572021 16.05578613 C34.52459543 16.06703311 29.62370719 16.03855517 24.72265625 16.01367188 C15.14826509 15.97078937 5.57442579 15.97124523 -4 16 C-4.10841951 14.08458862 -4.18578079 12.16740227 -4.25 10.25 C-4.29640625 9.18265625 -4.3428125 8.1153125 -4.390625 7.015625 C-3.91735478 3.36197888 -2.80844958 2.27771895 0 0 Z " fill="#6BA5DD" transform="translate(47,11)"/>
<path d="M0 0 C4.1796989 2.8497947 7.11864324 5.98092971 8.75 10.875 C9.31430864 16.57234689 9.03586378 21.00285716 5.75 25.875 C1.64970714 29.75948797 -1.95957035 31.61570608 -7.5625 32.25 C-12.1512016 31.78335238 -15.49101824 30.54714573 -19.25 27.875 C-23.41914657 22.63684149 -24.79727424 18.55174578 -24.25 11.875 C-22.44007388 6.60260653 -20.01547618 2.92979243 -15.25 -0.125 C-10.0828841 -1.84737197 -5.14400242 -1.78061622 0 0 Z " fill="#000000" transform="translate(146.25,70.125)"/>
<path d="M0 0 C10.56 0 21.12 0 32 0 C32 6.93 32 13.86 32 21 C21.44 21 10.88 21 0 21 C0 14.07 0 7.14 0 0 Z " fill="#FFCC66" transform="translate(219,27)"/>
<path d="M0 0 C21.12 0 42.24 0 64 0 C64 5.94 64 11.88 64 18 C59.49914938 22.50085062 59.49914938 22.50085062 54.36108398 22.50170898 C52.66428749 22.51578041 52.66428749 22.51578041 50.93321228 22.53013611 C49.71646317 22.51890213 48.49971405 22.50766815 47.24609375 22.49609375 C45.993694 22.49754898 44.74129425 22.49900421 43.45094299 22.50050354 C40.80340693 22.49884337 38.15730736 22.48935408 35.51000977 22.46655273 C32.11798795 22.43813821 28.72686558 22.44091453 25.33477688 22.45364285 C22.09682444 22.46227039 18.85901798 22.44715627 15.62109375 22.43359375 C14.4023204 22.43652939 13.18354706 22.43946503 11.92784119 22.44248962 C10.79979568 22.42980545 9.67175018 22.41712128 8.50952148 22.40405273 C7.51564926 22.39864975 6.52177704 22.39324677 5.49778748 22.38768005 C3 22 3 22 0 19 C0 12.73 0 6.46 0 0 Z M5 1 C4.91735577 8.17794468 4.91735577 8.17794468 8 14 C11.08252461 15.98868653 13.5079966 16.24500992 17.13574219 16.22705078 C18.15649841 16.22689972 19.17725464 16.22674866 20.22894287 16.22659302 C21.32386047 16.21627045 22.41877808 16.20594788 23.546875 16.1953125 C24.6732135 16.1924826 25.799552 16.18965271 26.96002197 16.18673706 C30.55678946 16.17554374 34.15330779 16.15044037 37.75 16.125 C40.18879849 16.11496912 42.62760088 16.10584346 45.06640625 16.09765625 C51.04436681 16.07560712 57.02214116 16.04108277 63 16 C63 11.05 63 6.1 63 1 C43.86 1 24.72 1 5 1 Z " fill="#C9C6D2" transform="translate(43,37)"/>
<path d="M0 0 C0.66 0.33 1.32 0.66 2 1 C1.484375 1.391875 0.96875 1.78375 0.4375 2.1875 C-1.25079733 3.89349164 -1.25079733 3.89349164 -0.83203125 6.12109375 C0.06347189 9.2196187 1.32164816 11.85383286 2.78076172 14.71923828 C10.43166933 29.79231151 11.52111209 44.90464038 12.7746582 61.52124023 C12.97234619 63.69580807 13.25971664 65.81917799 13.61328125 67.97265625 C14.06660428 71.52139717 13.35703251 73.72715688 12 77 C10.68 76.67 9.36 76.34 8 76 C6.83994424 72.17752117 6.65383874 68.3006591 6.38671875 64.33984375 C6.27222705 62.80788702 6.15696723 61.27598755 6.04101562 59.74414062 C5.86271216 57.35106907 5.68887718 54.95806888 5.52856445 52.5637207 C4.88807604 43.11921389 4.01460855 34.71333281 0 26 C-0.35425049 25.21359131 -0.70850098 24.42718262 -1.07348633 23.61694336 C-2.45064193 20.64303083 -3.90041331 17.70785107 -5.3515625 14.76953125 C-8 9.30339521 -8 9.30339521 -8 6 C-6.04690112 4.59886384 -4.04291182 3.26660533 -2 2 C-1.34 1.34 -0.68 0.68 0 0 Z " fill="#D5D2E0" transform="translate(37,136)"/>
<path d="M0 0 C8.58 0 17.16 0 26 0 C26 6.93 26 13.86 26 21 C25.67 21 25.34 21 25 21 C25 19.35 25 17.7 25 16 C23.2675 16.0928125 23.2675 16.0928125 21.5 16.1875 C14.71633711 16.17549352 8.82146017 13.82146017 4 9 C0 3.15081967 0 3.15081967 0 0 Z " fill="#FDDC76" transform="translate(225,27)"/>
<path d="M0 0 C-0.40992187 0.45890625 -0.81984375 0.9178125 -1.2421875 1.390625 C-1.78101562 2.00421875 -2.31984375 2.6178125 -2.875 3.25 C-3.40867187 3.85328125 -3.94234375 4.4565625 -4.4921875 5.078125 C-7.5821549 9.01663267 -8.24445595 11.73284995 -8.125 16.75 C-8.09792969 18.22726563 -8.09792969 18.22726563 -8.0703125 19.734375 C-8.04710938 20.48203125 -8.02390625 21.2296875 -8 22 C-9.36125 22.5878125 -9.36125 22.5878125 -10.75 23.1875 C-14.35659426 25.19886988 -15.89099301 26.45988113 -18 30 C-18.89202273 33.30453876 -19.50054262 36.61551907 -20 40 C-23 39 -23 39 -25 36 C-25.67021051 32.88619012 -25.71088081 30.10877725 -25 27 C-23.00187581 24.467618 -20.68732464 22.75510496 -18 21 C-17.01 20.34 -16.02 19.68 -15 19 C-14.74906137 16.49816909 -14.74906137 16.49816909 -15 13.6875 C-15.14931316 7.9762715 -14.20265212 5.36581154 -10.3125 1.1875 C-6.82364143 -0.60407602 -3.89238853 -0.19461943 0 0 Z " fill="#99D3EA" transform="translate(36,91)"/>
<path d="M0 0 C2.4375 0.75 2.4375 0.75 4.4375 2.75 C4.80237512 5.59602594 4.83949375 7.1364306 3.25 9.5625 C0.78842224 11.17525784 -0.67315736 11.1834014 -3.5625 10.75 C-5.4375 9.625 -5.4375 9.625 -6.5625 7.75 C-6.4375 4.6875 -6.4375 4.6875 -5.5625 1.75 C-2.5625 -0.25 -2.5625 -0.25 0 0 Z " fill="#A8D9EE" transform="translate(123.5625,117.25)"/>
<path d="M0 0 C2.5625 0.3125 2.5625 0.3125 4.375 1.5 C5.98775784 3.96157776 5.9959014 5.42315736 5.5625 8.3125 C4.4375 10.1875 4.4375 10.1875 2.5625 11.3125 C-0.5 11.1875 -0.5 11.1875 -3.4375 10.3125 C-5.4375 7.3125 -5.4375 7.3125 -5.1875 4.75 C-4.19253762 1.51637226 -3.41216263 0.43745675 0 0 Z " fill="#A1D3E7" transform="translate(138.4375,79.6875)"/>
<path d="M0 0 C0.33 0.99 0.66 1.98 1 3 C2.88316159 4.10836423 2.88316159 4.10836423 5 5 C5.99 5.66 6.98 6.32 8 7 C3.52599758 7.36275695 3.52599758 7.36275695 1.1875 5.75 C0 4 0 4 0 0 Z " fill="#82B3C7" transform="translate(117,121)"/>
</svg>
