<?xml version="1.0" encoding="UTF-8"?>
<svg version="1.1" xmlns="http://www.w3.org/2000/svg" width="256" height="256">
<path d="M0 0 C1.04656769 -0.00701431 2.09313538 -0.01402863 3.17141724 -0.02125549 C6.529687 -0.03866238 9.88778054 -0.04510748 13.24609375 -0.046875 C14.96525497 -0.04788712 14.96525497 -0.04788712 16.71914673 -0.04891968 C33.23485359 -0.03344565 49.38746008 0.26339656 65.68359375 3.203125 C66.68165039 3.37473145 67.67970703 3.54633789 68.70800781 3.72314453 C93.92782577 8.15622281 121.42010392 14.46877119 137.10546875 36.34765625 C141.46021933 44.22716782 142.15778629 51.47982851 142.05859375 60.390625 C142.07019531 61.44443359 142.08179688 62.49824219 142.09375 63.58398438 C142.05121116 74.83550759 142.05121116 74.83550759 137.68359375 79.203125 C137.7784886 81.03979956 137.93764557 82.87317275 138.12109375 84.703125 C138.31674496 87.20250029 138.5033971 89.70258797 138.68359375 92.203125 C138.73789551 92.91291504 138.79219727 93.62270508 138.84814453 94.35400391 C139.85012724 108.95202213 139.85012724 108.95202213 135.62109375 113.890625 C134.34557052 115.0373075 133.03236197 116.14356634 131.68359375 117.203125 C131.07386719 117.77417969 130.46414062 118.34523438 129.8359375 118.93359375 C126.1186286 122.37312572 122.8933029 125.04851473 117.65625 125.30078125 C111.22032678 125.0257418 107.40626962 122.4110678 102.68359375 118.203125 C101.84828125 118.63625 101.84828125 118.63625 100.99609375 119.078125 C96.33035611 121.34794331 92.82230765 122.45410869 87.578125 122.43359375 C85.85625977 122.43069336 85.85625977 122.43069336 84.09960938 122.42773438 C82.91044922 122.41548828 81.72128906 122.40324219 80.49609375 122.390625 C79.29533203 122.38998047 78.09457031 122.38933594 76.85742188 122.38867188 C67.96450582 122.34358103 67.96450582 122.34358103 65.68359375 121.203125 C65.31234375 122.37875 65.31234375 122.37875 64.93359375 123.578125 C63.68359375 126.203125 63.68359375 126.203125 62.14524841 127.35002136 C58.48861054 128.61725479 54.8719655 128.48934843 51.04711914 128.4777832 C50.17674515 128.48289413 49.30637115 128.48800507 48.40962219 128.49327087 C45.53342812 128.50716721 42.65747365 128.5062101 39.78125 128.50390625 C37.78112194 128.5077931 35.7809947 128.51212774 33.78086853 128.51689148 C29.58866704 128.52435374 25.39654976 128.52406231 21.2043457 128.51879883 C15.83297339 128.51300359 10.46194584 128.52993656 5.09063053 128.5531435 C0.95993536 128.56787731 -3.17067671 128.56875303 -7.30139351 128.56563377 C-9.28173061 128.56614714 -11.26207234 128.5713878 -13.24238396 128.58144569 C-16.01199608 128.59378612 -18.7809357 128.58703283 -21.55053711 128.57543945 C-22.36784302 128.58308319 -23.18514893 128.59072693 -24.02722168 128.59860229 C-28.59570691 128.55634729 -31.61486909 128.18490081 -35.31640625 125.203125 C-36.12890625 123.015625 -36.12890625 123.015625 -36.31640625 121.203125 C-37.30640625 121.698125 -37.30640625 121.698125 -38.31640625 122.203125 C-42.56087916 122.4746791 -46.81423687 122.43479668 -51.06640625 122.453125 C-52.83757813 122.4840625 -52.83757813 122.4840625 -54.64453125 122.515625 C-60.72354945 122.54300796 -65.00380725 122.45923407 -70.31640625 119.203125 C-74.57850968 119.18623602 -74.57850968 119.18623602 -77.50390625 121.640625 C-81.58537294 124.69300393 -85.2364591 125.60881522 -90.31640625 125.203125 C-97.9236231 123.33103648 -103.28832522 116.82908701 -108.31640625 111.203125 C-109.8722464 108.09144469 -109.46102378 104.80296399 -109.44140625 101.390625 C-109.44164795 100.63177002 -109.44188965 99.87291504 -109.44213867 99.09106445 C-109.41108161 93.29070059 -108.97202835 87.59747713 -108.2421875 81.83984375 C-108.33275321 78.62237767 -109.25168248 77.5941261 -111.31640625 75.203125 C-112.89671795 70.4621899 -112.58403157 65.66925592 -112.62890625 60.703125 C-112.65791016 59.66414063 -112.68691406 58.62515625 -112.71679688 57.5546875 C-112.80501413 46.67003503 -109.88480448 37.89529219 -102.7578125 29.61328125 C-77.81905895 4.99374375 -33.19363427 0.1494561 0 0 Z " fill="#0A0909" transform="translate(113.31640625,-0.203125)"/>
<path d="M0 0 C1.13308594 0.00515625 2.26617188 0.0103125 3.43359375 0.015625 C4.61308594 0.03625 5.79257812 0.056875 7.0078125 0.078125 C8.76544922 0.08585938 8.76544922 0.08585938 10.55859375 0.09375 C19.25234703 0.17269441 19.25234703 0.17269441 23.39111328 0.90332031 C26.08751078 1.59198025 26.08751078 1.59198025 28.1328125 0.328125 C36.20166232 -0.84552588 40.69104352 2.80587304 47.1328125 7.328125 C47.7928125 7.658125 48.4528125 7.988125 49.1328125 8.328125 C50.1228125 7.998125 51.1128125 7.668125 52.1328125 7.328125 C53.83525029 7.23465229 55.54109313 7.19742657 57.24609375 7.1953125 C58.24705078 7.19402344 59.24800781 7.19273437 60.27929688 7.19140625 C61.32408203 7.19527344 62.36886719 7.19914063 63.4453125 7.203125 C64.99508789 7.19732422 64.99508789 7.19732422 66.57617188 7.19140625 C71.57199337 7.19781526 76.20351837 7.46608628 81.1328125 8.328125 C82.1228125 7.998125 83.1128125 7.668125 84.1328125 7.328125 C85.83525029 7.23465229 87.54109313 7.19742657 89.24609375 7.1953125 C90.24705078 7.19402344 91.24800781 7.19273437 92.27929688 7.19140625 C93.32408203 7.19527344 94.36886719 7.19914063 95.4453125 7.203125 C96.99508789 7.19732422 96.99508789 7.19732422 98.57617188 7.19140625 C103.57199337 7.19781526 108.20351837 7.46608628 113.1328125 8.328125 C114.1228125 7.998125 115.1128125 7.668125 116.1328125 7.328125 C117.84698185 7.23463768 119.56453454 7.19742631 121.28125 7.1953125 C122.28671875 7.19402344 123.2921875 7.19273437 124.328125 7.19140625 C125.37742188 7.19527344 126.42671875 7.19914063 127.5078125 7.203125 C128.549375 7.19925781 129.5909375 7.19539062 130.6640625 7.19140625 C131.67210937 7.19269531 132.68015625 7.19398438 133.71875 7.1953125 C135.09619385 7.19700439 135.09619385 7.19700439 136.50146484 7.19873047 C139.1328125 7.328125 139.1328125 7.328125 141.78369141 7.89892578 C144.27369903 8.54871066 144.27369903 8.54871066 147.1328125 7.328125 C148.93169146 7.2342766 150.73383213 7.19741949 152.53515625 7.1953125 C153.59025391 7.19402344 154.64535156 7.19273437 155.73242188 7.19140625 C156.83392578 7.19527344 157.93542969 7.19914063 159.0703125 7.203125 C160.71676758 7.19732422 160.71676758 7.19732422 162.39648438 7.19140625 C163.45287109 7.19269531 164.50925781 7.19398438 165.59765625 7.1953125 C167.04579712 7.19700439 167.04579712 7.19700439 168.52319336 7.19873047 C171.1328125 7.328125 171.1328125 7.328125 173.33789062 7.92382812 C175.30352075 8.58693804 175.30352075 8.58693804 177.38671875 6.9296875 C178.14855469 6.27742187 178.91039062 5.62515625 179.6953125 4.953125 C184.61741993 0.7863494 187.66090727 0.11239483 194.1328125 0.328125 C195.3909375 0.51375 196.6490625 0.699375 197.9453125 0.890625 C201.02240955 1.61861144 201.02240955 1.61861144 203.1328125 0.328125 C207.39765261 0.03027228 211.6712992 0.05003735 215.9453125 0.015625 C217.13447266 -0.01337891 218.32363281 -0.04238281 219.54882812 -0.07226562 C220.69673828 -0.08064453 221.84464844 -0.08902344 223.02734375 -0.09765625 C224.07768799 -0.11223877 225.12803223 -0.12682129 226.21020508 -0.1418457 C229.92938431 0.45621795 231.50937056 1.6550064 234.1328125 4.328125 C236.00042095 7.79758562 236.35099395 10.51720843 236.1875 14.41796875 C236.16300781 15.36736328 236.13851562 16.31675781 236.11328125 17.29492188 C236.04309686 19.27178226 235.9649995 21.24837791 235.87890625 23.22460938 C235.73650917 29.4021298 236.18929896 32.53743079 240.1328125 37.328125 C241.87026607 42.54048572 241.35987681 48.05979678 241.3828125 53.515625 C241.41375 55.32643555 241.41375 55.32643555 241.4453125 57.17382812 C241.49397778 68.29992807 239.48241833 74.7653551 231.70703125 82.94140625 C220.68602872 93.15966504 204.80339637 99.52174682 190.1328125 102.328125 C187.84375 101.96484375 187.84375 101.96484375 186.1328125 101.328125 C182.00319143 99.85326033 178.38805845 100.68983811 174.1328125 101.328125 C173.8028125 102.648125 173.4728125 103.968125 173.1328125 105.328125 C122.81882591 117.16065763 51.38891175 116.69846815 4.81640625 92.0234375 C-3.45634389 86.79727511 -11.84720863 79.37032292 -14.47460938 69.62060547 C-15.37358174 64.3710094 -15.15122035 59.01224969 -15.1171875 53.703125 C-15.12492188 52.48882812 -15.13265625 51.27453125 -15.140625 50.0234375 C-15.13804688 48.85296875 -15.13546875 47.6825 -15.1328125 46.4765625 C-15.12942871 44.88593994 -15.12942871 44.88593994 -15.12597656 43.26318359 C-14.8671875 40.328125 -14.8671875 40.328125 -13.85620117 37.81665039 C-12.6649241 34.81919614 -12.68455946 32.57938199 -12.77734375 29.36328125 C-12.79732422 28.23341797 -12.81730469 27.10355469 -12.83789062 25.93945312 C-12.89899027 23.57736698 -12.96408173 21.21538064 -13.03320312 18.85351562 C-13.21463492 7.87376389 -13.21463492 7.87376389 -9.8671875 3.328125 C-6.61840173 0.29328477 -4.39236552 -0.0398494 0 0 Z " fill="#0B0A0A" transform="translate(14.8671875,145.671875)"/>
<path d="M0 0 C1.11153442 -0.00045319 2.22306885 -0.00090637 3.36828613 -0.00137329 C19.31448352 0.01767233 34.65843386 0.61896471 50.3125 3.87548828 C52.49598321 4.32294488 54.67168836 4.69455189 56.875 5.02734375 C76.93517964 8.3346794 99.87395621 15.61655426 112.34765625 32.54296875 C116.8846378 40.08775423 116.22398728 47.88536121 115.75 56.375 C115.46769531 55.77945313 115.18539062 55.18390625 114.89453125 54.5703125 C112.85812156 50.66429802 110.31390908 47.35802856 106.5625 45 C100.854248 43.73149956 95.12095218 43.27866202 89.8125 46.0625 C84.17564262 50.31890251 83.32134834 54.54422402 82.27734375 61.265625 C82.10332031 61.96171875 81.92929688 62.6578125 81.75 63.375 C80.76 63.87 80.76 63.87 79.75 64.375 C79.59144531 63.42238281 79.43289062 62.46976563 79.26953125 61.48828125 C79.03621094 60.23402344 78.80289063 58.97976562 78.5625 57.6875 C78.23185547 55.82544922 78.23185547 55.82544922 77.89453125 53.92578125 C76.57786848 49.84098106 75.02696512 48.08834707 71.75 45.375 C66.80977429 43.11967957 61.85913144 42.26213745 56.6328125 44.1328125 C52.65498831 45.98330214 50.07919615 47.5527294 47.75 51.375 C46.75202599 54.40433983 46.75202599 54.40433983 46.0625 57.625 C45.68544922 59.24148437 45.68544922 59.24148437 45.30078125 60.890625 C45.02814453 62.12039062 45.02814453 62.12039062 44.75 63.375 C42.50646013 61.13146013 41.94832922 59.52080823 40.875 56.5625 C38.22977442 49.80355965 35.08217093 46.06876638 28.75 42.375 C22.44084927 40.33935521 14.50547135 40.20882491 8.375 42.8125 C3.19052819 45.81061835 0.3609775 51.153045 -2.25 56.375 C-2.91 56.375 -3.57 56.375 -4.25 56.375 C-5.22918066 54.82954619 -6.13372583 53.23645626 -7 51.625 C-9.93562029 46.56284501 -12.39358972 43.57512768 -18.1328125 41.7890625 C-20.47408225 41.3311758 -22.61638181 41.27744679 -25 41.3125 C-26.19882813 41.32603516 -26.19882813 41.32603516 -27.421875 41.33984375 C-28.02515625 41.35144531 -28.6284375 41.36304688 -29.25 41.375 C-29.25 43.025 -29.25 44.675 -29.25 46.375 C-28.59773438 46.46136719 -27.94546875 46.54773437 -27.2734375 46.63671875 C-21.09403668 47.63016225 -17.54890474 48.76154126 -13.25 53.375 C-9.35268703 58.94258996 -9.05589459 65.78864327 -8.25 72.375 C-8.06824219 73.66664062 -7.88648437 74.95828125 -7.69921875 76.2890625 C-6.93037568 83.30735292 -7.14484935 90.38726663 -7.1875 97.4375 C-7.19252586 98.88997241 -7.19708684 100.34244651 -7.20117188 101.79492188 C-7.21208958 105.32165015 -7.22929414 108.84831402 -7.25 112.375 C-12.78588533 112.39964775 -18.321739 112.41783496 -23.85766602 112.42993164 C-25.7424373 112.43497244 -27.62720465 112.44180498 -29.51196289 112.45043945 C-32.21501636 112.46251617 -34.91801831 112.46823068 -37.62109375 112.47265625 C-38.89296791 112.48039818 -38.89296791 112.48039818 -40.1905365 112.48829651 C-42.21071068 112.48849195 -44.23077934 112.43706211 -46.25 112.375 C-48.55946583 110.06553417 -47.42172176 104.37427967 -47.43554688 101.30664062 C-47.43546631 100.62835205 -47.43538574 99.95006348 -47.43530273 99.2512207 C-47.43744303 97.24100662 -47.45580464 95.23083039 -47.47460938 93.22070312 C-47.49082957 82.28288584 -47.47845602 70.75094205 -42.5625 60.75 C-40.63611169 57.04789958 -40.63611169 57.04789958 -40.60546875 53.0390625 C-40.81816406 52.48992188 -41.03085938 51.94078125 -41.25 51.375 C-43.67267086 51.32332473 -43.67267086 51.32332473 -46.25 52.375 C-48.34231587 56.26072947 -49.58984854 60.01800033 -50.25 64.375 C-50.91 64.045 -51.57 63.715 -52.25 63.375 C-52.61785682 61.47148695 -52.89493512 59.55003265 -53.125 57.625 C-53.86038356 52.82505457 -54.42151516 49.65655844 -58.25 46.375 C-62.15734816 44.45211938 -65.4153477 44.07769154 -69.75 44.0625 C-70.8534375 44.04574219 -71.956875 44.02898438 -73.09375 44.01171875 C-76.61314952 44.41679815 -78.44942123 45.23601444 -81.25 47.375 C-83.80164971 52.19478279 -85.04108154 57.07435754 -86.25 62.375 C-86.91 62.375 -87.57 62.375 -88.25 62.375 C-88.39695313 61.56675781 -88.54390625 60.75851563 -88.6953125 59.92578125 C-89.99367698 52.77781498 -89.99367698 52.77781498 -94.25 47.1875 C-99.551393 43.98457507 -104.20082557 43.86539716 -110.25 44.375 C-115.51346323 46.12948774 -117.49236542 48.64762644 -120.25 53.375 C-120.91 54.365 -121.57 55.355 -122.25 56.375 C-122.87911846 45.10678931 -122.62117586 37.27748302 -115.44140625 28.05078125 C-105.77619723 17.28932924 -91.81123318 12.28171287 -78.25 8.375 C-77.26773438 8.09011719 -76.28546875 7.80523437 -75.2734375 7.51171875 C-50.79149482 0.93599034 -25.20798676 -0.04037774 0 0 Z " fill="#F99CAC" transform="translate(131.25,7.625)"/>
<path d="M0 0 C0.33 0 0.66 0 1 0 C1.11719175 3.83307169 1.18758077 7.66567608 1.25 11.5 C1.28351563 12.57765625 1.31703125 13.6553125 1.3515625 14.765625 C1.44764099 22.64406118 0.25922869 27.80495317 -4.578125 34.03125 C-14.60782777 42.84239075 -27.24041474 47.54159906 -39.96801758 50.92211914 C-42.56537512 51.61043308 -42.56537512 51.61043308 -46 53 C-46.78546408 55.02727121 -46.78546408 55.02727121 -47 57 C-51.26616316 58.13764351 -54.56486311 59 -59 59 C-59.33 58.34 -59.66 57.68 -60 57 C-66.41086504 56.74470006 -72.35382189 57.24138986 -78.65234375 58.46484375 C-87.53580953 59.88495438 -96.4360599 60.17574905 -105.41796875 60.23828125 C-107.16331657 60.25297203 -107.16331657 60.25297203 -108.94392395 60.26795959 C-158.25749191 60.59767831 -158.25749191 60.59767831 -182 56 C-183.14210937 55.78037598 -184.28421875 55.56075195 -185.4609375 55.33447266 C-204.19307884 51.58326578 -222.75670311 46.74096405 -235.7734375 31.90625 C-239.31539301 26.40155481 -239.25568433 20.92800562 -239.125 14.625 C-239.11597656 13.79355469 -239.10695312 12.96210938 -239.09765625 12.10546875 C-239.0742622 10.07018663 -239.03839725 8.03505436 -239 6 C-238.50371094 6.3609375 -238.00742188 6.721875 -237.49609375 7.09375 C-232.8508136 10.2669964 -229.78413782 11.91328492 -224 11 C-220.9033626 9.84372354 -217.9460133 8.49638771 -215 7 C-214.81824219 7.61488281 -214.63648438 8.22976562 -214.44921875 8.86328125 C-214.19785156 9.67152344 -213.94648438 10.47976562 -213.6875 11.3125 C-213.32205078 12.51326172 -213.32205078 12.51326172 -212.94921875 13.73828125 C-211.61944903 16.9067449 -210.00916165 18.37607848 -207.1171875 20.1640625 C-203.17249649 21.72156043 -199.15979158 21.54457839 -195 21 C-190.0719659 18.44798234 -187.73578505 16.08472432 -185.875 10.8125 C-185.441875 9.4203125 -185.441875 9.4203125 -185 8 C-184.67 8 -184.34 8 -184 8 C-183.91363281 8.79664063 -183.82726562 9.59328125 -183.73828125 10.4140625 C-182.84766052 17.13048671 -182.15824439 21.44155147 -177 26 C-173.04741337 28.28833963 -169.51094661 28.39569707 -165 28 C-159.81945496 26.17157234 -157.67003518 23.7467292 -155 19 C-154.505 17.515 -154.505 17.515 -154 16 C-153.34 16 -152.68 16 -152 16 C-151.82984375 16.81984375 -151.6596875 17.6396875 -151.484375 18.484375 C-151.24203125 19.56203125 -150.9996875 20.6396875 -150.75 21.75 C-150.51796875 22.81734375 -150.2859375 23.8846875 -150.046875 24.984375 C-148.66992704 28.95080717 -146.58687439 30.90560387 -143.1875 33.25 C-138.55749649 34.83742978 -134.8020641 34.28072243 -130.25 32.6875 C-126.1738955 30.57106113 -124.4893473 29.50428985 -123.05078125 25.08203125 C-122.80714844 24.00308594 -122.56351562 22.92414063 -122.3125 21.8125 C-122.06113281 20.72582031 -121.80976562 19.63914063 -121.55078125 18.51953125 C-121.36902344 17.68808594 -121.18726562 16.85664063 -121 16 C-120.67 16 -120.34 16 -120 16 C-119.83564453 16.99580078 -119.83564453 16.99580078 -119.66796875 18.01171875 C-118.51947207 24.99777442 -118.51947207 24.99777442 -115 31 C-110.5963287 33.90241972 -107.22466049 34.54996426 -102 34 C-97.91914457 32.75499326 -95.59021231 31.63806736 -92.6875 28.5 C-90.42133261 23.79980097 -89.69528662 19.14146158 -89 14 C-87.81922484 16.33632009 -86.69783916 18.6729946 -85.625 21.0625 C-83.37998123 25.12080316 -81.34870635 26.55043122 -77 28 C-71.08589707 28.57981401 -66.77318705 27.45570103 -62 24 C-58.62444085 19.2742172 -57.94619416 13.63263817 -57 8 C-55 11 -55 11 -53.75 14.5 C-52.28209516 18.11248654 -52.28209516 18.11248654 -49.3125 19.9375 C-43.71842195 21.73182692 -39.68049965 21.52343432 -34.1875 19.8125 C-28.86511874 16.78604791 -27.71482259 12.6721055 -26 7 C-25.29037109 7.45052734 -25.29037109 7.45052734 -24.56640625 7.91015625 C-19.09008839 11.0593059 -15.11960609 11.60610351 -9 10 C-3.92560558 7.97024223 -2.38714778 4.68588267 0 0 Z " fill="#F99DAD" transform="translate(247,188)"/>
<path d="M0 0 C0.55945313 0.31324219 1.11890625 0.62648437 1.6953125 0.94921875 C4.14763905 2.0673134 6.21479606 2.43543059 8.875 2.8125 C15.07035364 3.98952595 18.08991678 6.27130969 21.75 11.5 C23.66716965 16.86807502 24.30977222 22.3589566 25 28 C25.18175781 29.29164062 25.36351562 30.58328125 25.55078125 31.9140625 C26.31962432 38.93235292 26.10515065 46.01226663 26.0625 53.0625 C26.05747414 54.51497241 26.05291316 55.96744651 26.04882812 57.41992188 C26.03791042 60.94665015 26.02070586 64.47331402 26 68 C20.46411467 68.02464775 14.928261 68.04283496 9.39233398 68.05493164 C7.5075627 68.05997244 5.62279535 68.06680498 3.73803711 68.07543945 C1.03498364 68.08751617 -1.66801831 68.09323068 -4.37109375 68.09765625 C-5.21900986 68.10281754 -6.06692596 68.10797882 -6.9405365 68.11329651 C-8.96071068 68.11349195 -10.98077934 68.06206211 -13 68 C-15.30946583 65.69053417 -14.17172176 59.99927967 -14.18554688 56.93164062 C-14.18546631 56.25335205 -14.18538574 55.57506348 -14.18530273 54.8762207 C-14.18744303 52.86600662 -14.20580464 50.85583039 -14.22460938 48.84570312 C-14.24306189 36.40255502 -13.51898485 25.02750639 -8.0234375 13.71875 C-6.80341325 10.99039152 -6.80341325 10.99039152 -7.0703125 7.8359375 C-7 5 -7 5 -5.46875 3.3203125 C-4.49421875 2.72863281 -4.49421875 2.72863281 -3.5 2.125 C-2.52546875 1.51011719 -2.52546875 1.51011719 -1.53125 0.8828125 C-1.0259375 0.59148438 -0.520625 0.30015625 0 0 Z " fill="#F5F2E4" transform="translate(98,52)"/>
<path d="M0 0 C6.075984 3.22679376 8.79533783 7.80133138 10.88671875 14.2265625 C12.21749943 19.83668982 13.05298801 25.52564689 13.88671875 31.2265625 C14.06090332 32.16943115 14.23508789 33.1122998 14.41455078 34.08374023 C14.89180711 37.26043143 15.01608732 40.25436561 15.01953125 43.46484375 C15.02082031 44.61404297 15.02210938 45.76324219 15.0234375 46.94726562 C15.01957031 48.13255859 15.01570313 49.31785156 15.01171875 50.5390625 C15.01751953 52.34600586 15.01751953 52.34600586 15.0234375 54.18945312 C15.02214844 55.33220703 15.02085937 56.47496094 15.01953125 57.65234375 C15.01840332 58.69817627 15.01727539 59.74400879 15.01611328 60.8215332 C14.88671875 63.2265625 14.88671875 63.2265625 13.88671875 64.2265625 C11.00238055 64.31521458 8.14209717 64.34177546 5.2578125 64.32421875 C3.96146629 64.32209633 3.96146629 64.32209633 2.63893127 64.31993103 C-0.13267417 64.31431489 -2.90420005 64.30175969 -5.67578125 64.2890625 C-7.55012905 64.28404958 -9.4244781 64.27948631 -11.29882812 64.27539062 C-15.90367669 64.26434022 -20.50846546 64.2470648 -25.11328125 64.2265625 C-25.71222816 15.91458356 -25.71222816 15.91458356 -18.30078125 4.4140625 C-13.14036275 -0.746356 -6.91287932 -2.53003716 0 0 Z " fill="#F5F2E4" transform="translate(157.11328125,55.7734375)"/>
<path d="M0 0 C3.32948007 0.70094317 4.76069986 1.79070608 6.9296875 4.40625 C11.98645326 20.37454189 12.84107624 38.80845899 11.9296875 55.40625 C9.34013593 57.99580157 1.97791147 56.59183792 -1.5078125 56.59375 C-2.67892578 56.60599609 -3.85003906 56.61824219 -5.05664062 56.63085938 C-6.17361328 56.63279297 -7.29058594 56.63472656 -8.44140625 56.63671875 C-9.47193115 56.64082764 -10.50245605 56.64493652 -11.56420898 56.64916992 C-14.0703125 56.40625 -14.0703125 56.40625 -16.0703125 54.40625 C-16.98414884 44.02949498 -15.78260658 33.62653507 -14.20874023 23.37475586 C-13.87759522 21.18423778 -13.58198382 18.99058372 -13.28710938 16.79492188 C-13.07763435 15.37989384 -12.86612323 13.96516537 -12.65234375 12.55078125 C-12.46905518 11.29628174 -12.2857666 10.04178223 -12.09692383 8.74926758 C-10.14216398 2.38386291 -6.44684794 -0.48655456 0 0 Z " fill="#F3F0E3" transform="translate(64.0703125,57.59375)"/>
<path d="M0 0 C1.12535156 -0.04640625 1.12535156 -0.04640625 2.2734375 -0.09375 C5.83609728 0.805792 7.28067489 2.71822937 9.625 5.5 C10.65161133 8.84301758 10.65161133 8.84301758 11.20703125 12.64453125 C11.31093674 13.33197922 11.41484222 14.01942719 11.52189636 14.72770691 C11.73730895 16.18284383 11.94263288 17.63950593 12.13842773 19.09741211 C12.43199402 21.27171982 12.75887238 23.4388334 13.09179688 25.60742188 C14.48418661 35.05279489 15.76459229 44.97631814 14.625 54.5 C11.24311483 56.75459011 10.07601171 56.7470098 6.1171875 56.73046875 C4.51423828 56.72756836 4.51423828 56.72756836 2.87890625 56.72460938 C1.76386719 56.71236328 0.64882812 56.70011719 -0.5 56.6875 C-2.18416016 56.6865332 -2.18416016 56.6865332 -3.90234375 56.68554688 C-12.23479293 56.64020707 -12.23479293 56.64020707 -13.375 55.5 C-14.39245787 40.30485054 -15.36548472 14.40031442 -6.0234375 1.65625 C-3.9155342 0.17772067 -2.56386275 0.03500154 0 0 Z " fill="#F3F0E2" transform="translate(193.375,57.5)"/>
<path d="M0 0 C3.02136324 1.39482483 4.64199109 2.21264958 6.0390625 5.28515625 C6.23242188 6.20167969 6.42578125 7.11820312 6.625 8.0625 C6.85058594 9.12984375 7.07617188 10.1971875 7.30859375 11.296875 C7.65083984 13.12992188 7.65083984 13.12992188 8 15 C8.20520264 16.02963867 8.20520264 16.02963867 8.41455078 17.08007812 C13.51448644 42.81549188 13.51448644 42.81549188 9.86328125 50.34375 C8.36937544 52.19446796 6.88977802 53.56325096 5 55 C4.01 55.825 3.02 56.65 2 57.5 C-1.70054832 59.35027416 -3.04593657 59.01549768 -7 58 C-11.35768978 55.74750401 -14.28277398 53.08887755 -17 49 C-19.31220939 38.55633653 -16.61365368 27.47074988 -14.75 17.125 C-14.54624756 15.9894165 -14.34249512 14.85383301 -14.13256836 13.68383789 C-13.91866455 12.61512451 -13.70476074 11.54641113 -13.484375 10.4453125 C-13.20158691 9.01469482 -13.20158691 9.01469482 -12.91308594 7.55517578 C-10.6509486 1.22482034 -6.31486992 -0.49528392 0 0 Z " fill="#F3F0E2" transform="translate(29,58)"/>
<path d="M0 0 C3.28387696 2.59253444 3.82814328 5.32024704 4.63671875 9.24609375 C4.79688477 9.95886475 4.95705078 10.67163574 5.12207031 11.40600586 C11.48763908 40.60529762 11.48763908 40.60529762 7.31640625 49.29296875 C5.81834278 51.12829258 4.33193441 52.50221403 2.44921875 53.93359375 C1.45921875 54.75859375 0.46921875 55.58359375 -0.55078125 56.43359375 C-3.55078125 57.93359375 -3.55078125 57.93359375 -6.36328125 58.18359375 C-11.4847876 56.17515989 -17.04288229 51.94939167 -19.55078125 46.93359375 C-20.64943117 33.11595821 -19.26580908 14.69630164 -13.55078125 1.93359375 C-9.51952982 -1.8797522 -5.04798541 -2.1104135 0 0 Z " fill="#F3F0E2" transform="translate(235.55078125,59.06640625)"/>
<path d="M0 0 C0.93199219 -0.00128906 1.86398438 -0.00257813 2.82421875 -0.00390625 C4.28794922 0.00189453 4.28794922 0.00189453 5.78125 0.0078125 C6.75707031 0.00394531 7.73289062 0.00007812 8.73828125 -0.00390625 C10.13626953 -0.00197266 10.13626953 -0.00197266 11.5625 0 C12.41908203 0.00112793 13.27566406 0.00225586 14.15820312 0.00341797 C16.28125 0.1328125 16.28125 0.1328125 18.28125 1.1328125 C18.00375262 13.05132481 16.99890433 24.80802159 15.46875 36.6328125 C15.31567383 37.90278076 15.16259766 39.17274902 15.00488281 40.48120117 C14.84213867 41.67592041 14.67939453 42.87063965 14.51171875 44.1015625 C14.37145264 45.16826172 14.23118652 46.23496094 14.08666992 47.33398438 C13.13876547 50.62794515 11.92585068 51.99930814 9.28125 54.1328125 C6.37340119 54.84163553 4.338711 54.47253039 1.28125 54.1328125 C-0.6968411 52.63874976 -1.56363689 51.63062642 -2.30297852 49.2578125 C-2.40022217 48.5565625 -2.49746582 47.8553125 -2.59765625 47.1328125 C-2.77107544 45.93966431 -2.77107544 45.93966431 -2.94799805 44.72241211 C-3.05797119 43.86784424 -3.16794434 43.01327637 -3.28125 42.1328125 C-3.40346924 41.24795166 -3.52568848 40.36309082 -3.65161133 39.45141602 C-4.0259548 36.68058614 -4.37683383 33.90781979 -4.71875 31.1328125 C-4.82606445 30.26769043 -4.93337891 29.40256836 -5.04394531 28.51123047 C-6.15054611 19.37913909 -7.09148709 10.34770175 -6.71875 1.1328125 C-4.28983818 -0.08164341 -2.71155557 0.00357052 0 0 Z " fill="#EBE6D1" transform="translate(104.71875,160.8671875)"/>
<path d="M0 0 C1.40282227 -0.00193359 1.40282227 -0.00193359 2.83398438 -0.00390625 C4.3102832 0.00189453 4.3102832 0.00189453 5.81640625 0.0078125 C6.79673828 0.00394531 7.77707031 0.00007812 8.78710938 -0.00390625 C9.72361328 -0.00261719 10.66011719 -0.00132812 11.625 0 C12.91942017 0.00169189 12.91942017 0.00169189 14.23999023 0.00341797 C16.37890625 0.1328125 16.37890625 0.1328125 18.37890625 1.1328125 C18.61343645 11.49036116 18.14166007 21.52108478 16.77978516 31.79199219 C16.49868993 33.92234575 16.23676675 36.0545035 15.9765625 38.1875 C14.48983421 49.86949516 14.48983421 49.86949516 12.37890625 53.1328125 C9.26340753 54.69056186 5.77446745 54.69761872 2.37890625 54.1328125 C-0.48866251 52.3743977 -0.68486933 50.87430883 -1.5 47.5703125 C-1.74223619 46.09343135 -1.96912523 44.61398081 -2.18359375 43.1328125 C-2.30581299 42.34044189 -2.42803223 41.54807129 -2.55395508 40.73168945 C-6.56549713 13.91520248 -6.56549713 13.91520248 -5.62109375 1.1328125 C-4.00423301 -0.48404824 -2.23033225 0.00291901 0 0 Z " fill="#EDE8D3" transform="translate(135.62109375,160.8671875)"/>
<path d="M0 0 C0.55945313 0.31324219 1.11890625 0.62648437 1.6953125 0.94921875 C4.14763905 2.0673134 6.21479606 2.43543059 8.875 2.8125 C15.07035364 3.98952595 18.08991678 6.27130969 21.75 11.5 C23.66716965 16.86807502 24.30977222 22.3589566 25 28 C25.18175781 29.29164062 25.36351563 30.58328125 25.55078125 31.9140625 C26.31962432 38.93235292 26.10515065 46.01226663 26.0625 53.0625 C26.05747414 54.51497241 26.05291316 55.96744651 26.04882812 57.41992188 C26.03876889 60.94669117 26.01917885 64.47322191 26 68 C20.72 68 15.44 68 10 68 C9.96261719 66.185 9.92523438 64.37 9.88671875 62.5 C9.58339129 50.23107074 9.15214447 38.01320597 7.75 25.8125 C7.65291748 24.86568359 7.55583496 23.91886719 7.45581055 22.94335938 C6.55030653 15.79121773 4.61634206 7.97650888 -1.16503906 3.21801758 C-1.77057617 2.81607178 -2.37611328 2.41412598 -3 2 C-2.01 1.34 -1.02 0.68 0 0 Z " fill="#EDE8D2" transform="translate(98,52)"/>
<path d="M0 0 C6.0591832 3.25910612 8.78106384 7.80129358 10.875 14.234375 C12.20578068 19.84450232 13.04126926 25.53345939 13.875 31.234375 C14.04918457 32.17724365 14.22336914 33.1201123 14.40283203 34.09155273 C14.88008836 37.26824393 15.00436857 40.26217811 15.0078125 43.47265625 C15.00910156 44.62185547 15.01039063 45.77105469 15.01171875 46.95507812 C15.00785156 48.14037109 15.00398438 49.32566406 15 50.546875 C15.00580078 52.35381836 15.00580078 52.35381836 15.01171875 54.19726562 C15.01042969 55.34001953 15.00914062 56.48277344 15.0078125 57.66015625 C15.00668457 58.70598877 15.00555664 59.75182129 15.00439453 60.8293457 C14.875 63.234375 14.875 63.234375 13.875 64.234375 C11.01232433 64.30762668 8.174281 64.32675705 5.3125 64.296875 C4.50619141 64.29236328 3.69988281 64.28785156 2.86914062 64.28320312 C0.87106244 64.27138018 -1.12697783 64.25344414 -3.125 64.234375 C-2.135 63.739375 -2.135 63.739375 -1.125 63.234375 C-1.34095847 58.82680605 -1.57170108 54.4203016 -1.81469727 50.01416016 C-1.89501191 48.52314994 -1.97166043 47.03193656 -2.04418945 45.54052734 C-2.82634153 29.56304841 -4.2489077 13.99231807 -13.125 0.234375 C-8.58505302 -1.27894066 -4.51000338 -1.62492769 0 0 Z " fill="#EBE6D0" transform="translate(157.125,55.765625)"/>
<path d="M0 0 C1.40282227 -0.00193359 1.40282227 -0.00193359 2.83398438 -0.00390625 C4.3102832 0.00189453 4.3102832 0.00189453 5.81640625 0.0078125 C6.79673828 0.00394531 7.77707031 0.00007812 8.78710938 -0.00390625 C9.72361328 -0.00261719 10.66011719 -0.00132812 11.625 0 C12.91942017 0.00169189 12.91942017 0.00169189 14.23999023 0.00341797 C16.37890625 0.1328125 16.37890625 0.1328125 18.37890625 1.1328125 C18.97289821 10.3561876 17.9677389 19.03924668 16.50390625 28.1328125 C16.33020508 29.21876709 16.15650391 30.30472168 15.97753906 31.42358398 C13.73573682 44.77598193 13.73573682 44.77598193 10.37890625 48.1328125 C3.11090275 48.70963817 3.11090275 48.70963817 0.82641602 46.90942383 C-0.96379134 44.71220019 -1.27657239 43.12793322 -1.75390625 40.34375 C-1.92019531 39.40144531 -2.08648437 38.45914063 -2.2578125 37.48828125 C-2.41894531 36.50472656 -2.58007812 35.52117187 -2.74609375 34.5078125 C-2.91496094 33.54746094 -3.08382812 32.58710938 -3.2578125 31.59765625 C-4.66253176 23.44586021 -5.76563549 15.4185112 -5.74609375 7.1328125 C-5.74867188 6.0190625 -5.75125 4.9053125 -5.75390625 3.7578125 C-5.53193546 -0.62937479 -3.94547078 0.00516375 0 0 Z " fill="#EDE8D2" transform="translate(167.62109375,160.8671875)"/>
<path d="M0 0 C1.40282227 -0.00193359 1.40282227 -0.00193359 2.83398438 -0.00390625 C4.3102832 0.00189453 4.3102832 0.00189453 5.81640625 0.0078125 C6.79673828 0.00394531 7.77707031 0.00007812 8.78710938 -0.00390625 C9.72361328 -0.00261719 10.66011719 -0.00132812 11.625 0 C12.91942017 0.00169189 12.91942017 0.00169189 14.23999023 0.00341797 C16.37890625 0.1328125 16.37890625 0.1328125 18.37890625 1.1328125 C18.71688693 9.94534589 17.87662762 18.38976143 16.46240234 27.06298828 C16.12526698 29.15539939 15.81612674 31.25082721 15.5078125 33.34765625 C15.29464248 34.69297461 15.0798583 36.03803842 14.86328125 37.3828125 C14.58049316 39.18492187 14.58049316 39.18492187 14.29199219 41.0234375 C13.27478524 44.48738074 12.18299307 45.91188691 9.37890625 48.1328125 C6.41974243 48.90526217 4.51159247 48.53061392 1.37890625 48.1328125 C-1.72808732 45.08521134 -2.20904169 42.11046868 -2.7890625 37.890625 C-2.95986328 36.65828125 -3.13066406 35.4259375 -3.30664062 34.15625 C-3.47228516 32.86976563 -3.63792969 31.58328125 -3.80859375 30.2578125 C-3.98583984 29.01 -4.16308594 27.7621875 -4.34570312 26.4765625 C-5.47892761 18.02332043 -6.14486906 9.66377318 -5.62109375 1.1328125 C-4.00423301 -0.48404824 -2.23033225 0.00291901 0 0 Z " fill="#ECE7D1" transform="translate(72.62109375,160.8671875)"/>
<path d="M0 0 C4.76803893 1.99390719 8.35684977 4.22105449 11.4375 8.4375 C12.46018192 11.88577366 11.96458865 14.91479084 11.4375 18.4375 C11.29828125 19.44345215 11.29828125 19.44345215 11.15625 20.46972656 C8.4198114 39.9583002 8.4198114 39.9583002 5.4375 47.4375 C3.13540368 48.58854816 1.56344464 48.70305901 -1 48.8125 C-1.78246094 48.86148438 -2.56492187 48.91046875 -3.37109375 48.9609375 C-5.5625 48.4375 -5.5625 48.4375 -7.24609375 46.359375 C-10.83720978 38.38858927 -11.88319399 28.60137951 -12.41015625 19.92578125 C-12.52354826 17.44499084 -12.52354826 17.44499084 -12.93359375 15.04296875 C-13.3614192 11.17937588 -13.16427947 9.24743378 -10.80078125 6.06640625 C-7.32719643 2.66359056 -4.89042252 0.6005782 0 0 Z " fill="#ECE7D1" transform="translate(47.5625,153.5625)"/>
<path d="M0 0 C4.58502453 1.91737389 8.73286106 4.16627799 11.4375 8.4375 C12.52611936 15.42125416 10.7602244 22.75719734 9.5625 29.625 C9.30146484 31.20571289 9.30146484 31.20571289 9.03515625 32.81835938 C7.28378199 43.1125481 7.28378199 43.1125481 5.4375 47.4375 C3.08403604 48.61423198 1.5568967 48.60373866 -1.0625 48.625 C-1.8565625 48.63917969 -2.650625 48.65335938 -3.46875 48.66796875 C-5.5625 48.4375 -5.5625 48.4375 -7.5625 46.4375 C-8.14086914 44.50146484 -8.14086914 44.50146484 -8.59765625 42.1484375 C-8.85192383 40.85873047 -8.85192383 40.85873047 -9.11132812 39.54296875 C-9.28083984 38.64191406 -9.45035156 37.74085938 -9.625 36.8125 C-9.79837891 35.93464844 -9.97175781 35.05679688 -10.15039062 34.15234375 C-11.16381617 28.9260189 -11.95919042 23.72632602 -12.5625 18.4375 C-12.69914063 17.550625 -12.83578125 16.66375 -12.9765625 15.75 C-13.34527919 11.70777258 -13.21833525 9.34927096 -10.80078125 5.98828125 C-7.32325457 2.60522049 -4.87563679 0.59876241 0 0 Z " fill="#ECE7D1" transform="translate(206.5625,153.5625)"/>
<path d="M0 0 C0.33 0 0.66 0 1 0 C1.11719175 3.83307169 1.18758077 7.66567608 1.25 11.5 C1.28351563 12.57765625 1.31703125 13.6553125 1.3515625 14.765625 C1.44764099 22.64406118 0.25922869 27.80495317 -4.578125 34.03125 C-14.60782777 42.84239075 -27.24041474 47.54159906 -39.96801758 50.92211914 C-42.56537512 51.61043308 -42.56537512 51.61043308 -46 53 C-46.78546408 55.02727121 -46.78546408 55.02727121 -47 57 C-51.26616316 58.13764351 -54.56486311 59 -59 59 C-59.33 58.34 -59.66 57.68 -60 57 C-62.01669827 55.86649466 -62.01669827 55.86649466 -64 55 C-63.46745605 54.8548999 -62.93491211 54.7097998 -62.38623047 54.56030273 C-37.39495191 47.78122258 -37.39495191 47.78122258 -18.53515625 30.84765625 C-15.51096648 24.89613689 -15.22271233 18.58114938 -15 12 C-14.39671875 11.75765625 -13.7934375 11.5153125 -13.171875 11.265625 C-7.00108878 8.67787594 -2.73833231 6.38944206 0 0 Z " fill="#F58EA0" transform="translate(247,188)"/>
<path d="M0 0 C3.31248187 -0.02888146 6.62493167 -0.04675799 9.9375 -0.0625 C10.88302734 -0.07087891 11.82855469 -0.07925781 12.80273438 -0.08789062 C14.15141602 -0.09272461 14.15141602 -0.09272461 15.52734375 -0.09765625 C16.77632446 -0.10551147 16.77632446 -0.10551147 18.05053711 -0.11352539 C20 0 20 0 21 1 C22.22722878 27.39968896 22.22722878 27.39968896 16 37 C12.76645861 38.6167707 10.57239465 38.47631929 7 38 C4.05982915 36.16553443 2.41095116 34.16117683 1 31 C0.83021596 28.05558729 1.14832484 25.39649438 1.55859375 22.4765625 C2.07094095 18.44126157 2.17554994 14.5000598 2.1875 10.4375 C2.19990723 9.74664307 2.21231445 9.05578613 2.22509766 8.34399414 C2.23512772 4.6597706 2.1008029 3.15120435 0 0 Z " fill="#EAE6D0" transform="translate(222,154)"/>
<path d="M0 0 C1.18613892 0.00785522 1.18613892 0.00785522 2.39624023 0.01586914 C3.67724609 0.02070313 3.67724609 0.02070313 4.98413086 0.02563477 C5.88196289 0.03401367 6.77979492 0.04239258 7.70483398 0.05102539 C8.6065332 0.05553711 9.50823242 0.06004883 10.43725586 0.06469727 C12.67234712 0.07652315 14.90730835 0.09300319 17.14233398 0.11352539 C16.8170874 0.72091553 16.49184082 1.32830566 16.15673828 1.95410156 C13.37510375 7.87553536 15.23588368 15.88167957 16.14233398 22.11352539 C17.0815619 31.56639986 17.0815619 31.56639986 14.14233398 35.73852539 C11.20747183 38.06195793 10.52113994 38.53165862 7.01733398 38.73852539 C3.14233398 38.11352539 3.14233398 38.11352539 1.50561523 36.34790039 C-4.62396716 26.30170804 -3.79310778 12.48339489 -2.85766602 1.11352539 C-1.85766602 0.11352539 -1.85766602 0.11352539 0 0 Z " fill="#F1EEE0" transform="translate(12.857666015625,153.886474609375)"/>
<path d="M0 0 C2.5625 1.05859375 2.5625 1.05859375 5 3 C5.99635447 5.54356352 6.64424794 7.6748683 7.1875 10.3125 C7.34766602 11.025271 7.50783203 11.73804199 7.67285156 12.47241211 C14.03842033 41.67170387 14.03842033 41.67170387 9.8671875 50.359375 C8.36912403 52.19469883 6.88271566 53.56862028 5 55 C4.01 55.825 3.02 56.65 2 57.5 C-1.57538009 59.28769004 -3.23676947 59.22523785 -7 58 C-7.33 57.34 -7.66 56.68 -8 56 C-6.47005208 54.76302083 -4.94010417 53.52604167 -3.41015625 52.2890625 C-1.42556551 50.47489367 -1.02954887 49.29500425 -0.76171875 46.62109375 C-0.56782082 38.30389306 -1.51621683 30.39288223 -2.8125 22.1875 C-2.9777417 21.126521 -3.1429834 20.06554199 -3.31323242 18.97241211 C-4.35364513 12.72161258 -5.82861849 6.95418942 -8 1 C-5.17998673 -0.41000664 -3.12992745 -0.24548451 0 0 Z " fill="#EAE5D0" transform="translate(233,58)"/>
<path d="M0 0 C3.02136324 1.39482483 4.64199109 2.21264958 6.0390625 5.28515625 C6.23242188 6.20167969 6.42578125 7.11820312 6.625 8.0625 C6.85058594 9.12984375 7.07617188 10.1971875 7.30859375 11.296875 C7.53675781 12.51890625 7.76492187 13.7409375 8 15 C8.20520264 16.02963867 8.20520264 16.02963867 8.41455078 17.08007812 C13.51448644 42.81549188 13.51448644 42.81549188 9.86328125 50.34375 C8.36937544 52.19446796 6.88977802 53.56325096 5 55 C4.01 55.825 3.02 56.65 2 57.5 C-1.57538009 59.28769004 -3.23676947 59.22523785 -7 58 C-7.33 57.34 -7.66 56.68 -8 56 C-6.47005208 54.76302083 -4.94010417 53.52604167 -3.41015625 52.2890625 C-1.42556551 50.47489367 -1.02954887 49.29500425 -0.76171875 46.62109375 C-0.49363698 35.12179672 -2.5711815 24.06514335 -4.55029297 12.77441406 C-4.95381379 10.28494034 -5.24996139 7.81288136 -5.50390625 5.3046875 C-5.66761719 4.21414062 -5.83132812 3.12359375 -6 2 C-6.66 1.67 -7.32 1.34 -8 1 C-5.17998673 -0.41000664 -3.12992745 -0.24548451 0 0 Z " fill="#EAE5D0" transform="translate(29,58)"/>
<path d="M0 0 C2.875 1.4375 2.875 1.4375 5 4 C10.05676576 19.96829189 10.91138874 38.40220899 10 55 C9 56 9 56 6.71484375 56.09765625 C5.34005859 56.08025391 5.34005859 56.08025391 3.9375 56.0625 C3.01839844 56.05347656 2.09929687 56.04445312 1.15234375 56.03515625 C0.44207031 56.02355469 -0.26820312 56.01195312 -1 56 C-1.02578125 54.95328125 -1.0515625 53.9065625 -1.078125 52.828125 C-1.55149819 39.03178799 -3.4735836 25.53113736 -5.55859375 11.89648438 C-6.06088498 8.600476 -6.53660811 5.30166719 -7 2 C-9.475 3.485 -9.475 3.485 -12 5 C-9.457419 -0.63000079 -5.90190811 -0.77030663 0 0 Z " fill="#ECE7D1" transform="translate(66,58)"/>
<path d="M0 0 C1.39303605 -0.13657216 2.79006121 -0.23271149 4.1875 -0.3125 C4.96480469 -0.37050781 5.74210938 -0.42851563 6.54296875 -0.48828125 C10.2436079 0.24713989 11.60524007 2.14426792 14 5 C15.02661133 8.34301758 15.02661133 8.34301758 15.58203125 12.14453125 C15.68593674 12.83197922 15.78984222 13.51942719 15.89689636 14.22770691 C16.11230895 15.68284383 16.31763288 17.13950593 16.51342773 18.59741211 C16.80699402 20.77171982 17.13387238 22.9388334 17.46679688 25.10742188 C18.85918661 34.55279489 20.13959229 44.47631814 19 54 C15.31749647 56.45500235 13.27842202 56.18198325 9.00463867 56.05810547 C8.34310791 56.03893066 7.68157715 56.01975586 7 56 C7.02175293 55.16629883 7.04350586 54.33259766 7.06591797 53.47363281 C7.19813239 44.39490905 6.41363645 35.74303738 5.125 26.75 C4.86396484 24.82414062 4.86396484 24.82414062 4.59765625 22.859375 C3.46785812 11.12124086 3.46785812 11.12124086 0 0 Z " fill="#ECE7D1" transform="translate(189,58)"/>
<path d="M0 0 C3.09244792 0.03255208 6.18489583 0.06510417 9.27734375 0.09765625 C9.52526065 10.62123989 8.98665971 20.80231377 7.62329102 31.23901367 C7.33423986 33.45308079 7.05961772 35.66860664 6.78710938 37.88476562 C5.44357094 48.59897468 5.44357094 48.59897468 4.27734375 52.09765625 C3.28734375 51.76765625 2.29734375 51.43765625 1.27734375 51.09765625 C-4.87882337 16.74624374 -4.87882337 16.74624374 -3.72265625 1.09765625 C-2.72265625 0.09765625 -2.72265625 0.09765625 0 0 Z " fill="#F1EEE0" transform="translate(133.72265625,160.90234375)"/>
<path d="M0 0 C1.50433594 0.01353516 1.50433594 0.01353516 3.0390625 0.02734375 C3.80992188 0.03894531 4.58078125 0.05054688 5.375 0.0625 C5.92572818 12.07143398 5.0082196 23.72880615 3.4375 35.625 C3.34609741 36.32424591 3.25469482 37.02349182 3.16052246 37.743927 C1.59051144 49.63147712 1.59051144 49.63147712 0.375 52.0625 C-0.615 51.7325 -1.605 51.4025 -2.625 51.0625 C-8.21654022 15.68668885 -8.21654022 15.68668885 -7.625 1.0625 C-4.98041621 -0.25979189 -2.94738699 -0.03427194 0 0 Z " fill="#F1EEE0" transform="translate(105.625,160.9375)"/>
<path d="M0 0 C3.09244792 0.03255208 6.18489583 0.06510417 9.27734375 0.09765625 C9.55059094 9.46053493 8.77044335 18.35073566 7.33984375 27.59765625 C7.15744141 28.83257812 6.97503906 30.0675 6.78710938 31.33984375 C6.04983611 36.28359612 5.29374309 41.20266798 4.27734375 46.09765625 C3.28734375 45.76765625 2.29734375 45.43765625 1.27734375 45.09765625 C0.62622778 41.6194572 -0.01756374 38.13993923 -0.66015625 34.66015625 C-0.93375977 33.19932617 -0.93375977 33.19932617 -1.21289062 31.70898438 C-2.72482651 23.48955112 -3.86740549 15.47133576 -3.84765625 7.09765625 C-3.85023438 5.98390625 -3.8528125 4.87015625 -3.85546875 3.72265625 C-3.67382799 0.13258001 -3.60495043 0.12930238 0 0 Z " fill="#F3F0E2" transform="translate(165.72265625,160.90234375)"/>
<path d="M0 0 C1.50046875 0.00386719 1.50046875 0.00386719 3.03125 0.0078125 C4.0315625 0.00523437 5.031875 0.00265625 6.0625 0 C8.53125 0.1328125 8.53125 0.1328125 9.53125 1.1328125 C9.54700896 3.4462283 9.47794815 5.70083156 9.34375 8.0078125 C9.30258057 8.73218506 9.26141113 9.45655762 9.21899414 10.20288086 C8.41215533 21.92422272 6.37530481 33.53923092 4.53125 45.1328125 C3.04625 45.6278125 3.04625 45.6278125 1.53125 46.1328125 C-1.86499466 31.6470907 -4.73881396 16.05606406 -3.46875 1.1328125 C-2.46875 0.1328125 -2.46875 0.1328125 0 0 Z " fill="#F4F1E3" transform="translate(70.46875,160.8671875)"/>
<path d="M0 0 C3.16115776 1.36983503 3.9927092 1.9890638 6 5 C6.63020764 13.32399263 4.93786682 21.39560945 3.5 29.5625 C3.25843119 30.96667948 3.01754036 32.37097577 2.77734375 33.77539062 C2.19270402 37.1849756 1.59891236 40.5928895 1 44 C0.01 44 -0.98 44 -2 44 C-6.55412332 24.74559023 -6.55412332 24.74559023 -7 15 C-7.09796875 14.19046875 -7.1959375 13.3809375 -7.296875 12.546875 C-7.60211898 9.0013488 -7.77014034 6.93186982 -5.4375 4.109375 C-3.68855941 2.60020852 -1.93510738 1.25880709 0 0 Z " fill="#F3F0E2" transform="translate(42,156)"/>
<path d="M0 0 C3.65316671 1.24976756 4.78065836 1.67098753 7 5 C7.63020764 13.32399263 5.93786682 21.39560945 4.5 29.5625 C4.25843119 30.96667948 4.01754036 32.37097577 3.77734375 33.77539062 C3.19270402 37.1849756 2.59891236 40.5928895 2 44 C1.01 44 0.02 44 -1 44 C-1.65077173 40.83432793 -2.2946984 37.66729923 -2.9375 34.5 C-3.11990234 33.613125 -3.30230469 32.72625 -3.49023438 31.8125 C-4.55456246 26.54891386 -5.41941449 21.33910989 -6 16 C-6.10183594 15.08992187 -6.20367187 14.17984375 -6.30859375 13.2421875 C-6.65088868 6.95640786 -6.65088868 6.95640786 -4.66015625 4.03125 C-3 2.375 -3 2.375 0 0 Z " fill="#F5F2E4" transform="translate(200,156)"/>
<path d="M0 0 C2.31 0 4.62 0 7 0 C6.67386719 0.55042969 6.34773438 1.10085937 6.01171875 1.66796875 C3.34815327 7.80753859 5.0679395 15.59208404 6 22 C6.93922791 31.45287447 6.93922791 31.45287447 4 35.625 C-0.03221264 38.81716834 -1.98344228 38.51015841 -7 38 C-7 34.7670864 -6.32014044 33.07447857 -5.109375 30.10546875 C-2.79132232 23.9025315 -1.93280971 17.87148974 -1.25 11.3125 C-1.12496094 10.21744141 -0.99992187 9.12238281 -0.87109375 7.99414062 C-0.56867436 5.33052371 -0.27852495 2.66620257 0 0 Z " fill="#EBE7D1" transform="translate(23,154)"/>
<path d="M0 0 C2.97 0 5.94 0 9 0 C10.49303166 2.98606331 10.19129396 6.03907105 10.1875 9.3125 C10.18669434 10.02438477 10.18588867 10.73626953 10.18505859 11.46972656 C10.09550605 19.34683837 9.9614548 28.00919741 6 35 C3 34 3 34 1 31 C1.0234375 28.64453125 1.0234375 28.64453125 1.375 25.8125 C1.89659948 20.67191713 2.15114069 15.59993535 2.1875 10.4375 C2.20022949 9.74696533 2.21295898 9.05643066 2.22607422 8.3449707 C2.23427688 4.66061055 2.10101448 3.15152172 0 0 Z " fill="#EEEBDD" transform="translate(222,154)"/>
</svg>
