<?xml version="1.0" encoding="UTF-8"?>
<svg version="1.1" xmlns="http://www.w3.org/2000/svg" width="512" height="512">
<path d="M0 0 C8.32818297 2.6745528 13.85060353 3.34769106 22.125 -0.1875 C33.99643923 -4.83816692 48.56066618 -5.25788776 60.484375 -0.51171875 C72.7003768 5.61435316 80.92924243 14.39342505 85.3125 27.3125 C88.40032582 40.61390352 87.48787632 54.45545782 86.11328125 67.92578125 C86.01873657 68.88311157 85.92419189 69.84044189 85.82678223 70.82678223 C85.59628793 73.15571989 85.36231395 75.48424911 85.125 77.8125 C86.1434198 77.80139694 87.1618396 77.79029388 88.21112061 77.77885437 C97.80470153 77.67753411 107.39817404 77.60256149 116.99216843 77.55343914 C121.92469313 77.5273357 126.85678622 77.49192403 131.7890625 77.43530273 C136.54827368 77.38100956 141.30706952 77.3510851 146.06656647 77.33811378 C147.88311554 77.32886904 149.69964166 77.31081605 151.5160141 77.28384972 C154.05902879 77.2475941 156.60032349 77.24255302 159.14355469 77.24487305 C159.89593414 77.22689667 160.6483136 77.20892029 161.42349243 77.19039917 C165.27240905 77.22843855 166.80691301 77.50566116 169.62384033 80.22297668 C171.125 82.8125 171.125 82.8125 171.125 84.8125 C174.23079494 84.78970599 177.33290484 84.71242181 180.4375 84.625 C181.31857422 84.61919922 182.19964844 84.61339844 183.10742188 84.60742188 C185.54675397 84.52394663 187.75500423 84.40056985 190.125 83.8125 C192.26118264 81.47940785 192.26118264 81.47940785 193.125 78.8125 C194.82168207 77.11581793 196.93632018 77.69281007 199.19940186 77.68807983 C200.28804535 77.69347275 200.28804535 77.69347275 201.39868164 77.69897461 C202.54006844 77.69875557 202.54006844 77.69875557 203.70451355 77.6985321 C206.23142298 77.69923138 208.75825962 77.70702445 211.28515625 77.71484375 C213.0325059 77.71670788 214.77985607 77.7181318 216.52720642 77.71913147 C221.13531934 77.72295707 225.74340095 77.73278771 230.35150146 77.74383545 C235.05008521 77.75404866 239.74867399 77.7586289 244.44726562 77.76367188 C253.67319087 77.77440995 262.89909284 77.79148687 272.125 77.8125 C271.92003906 76.54535156 271.71507812 75.27820313 271.50390625 73.97265625 C271.23165861 72.27345548 270.95952954 70.5742357 270.6875 68.875 C270.48543945 67.62879883 270.48543945 67.62879883 270.27929688 66.35742188 C267.64749313 49.8605057 265.33709986 31.84960501 274.55859375 16.875 C280.69537192 8.79465368 288.21437418 4.00095157 298.19140625 2.28515625 C307.35911988 1.30329522 316.13918179 2.25954023 324.9375 5 C331.11918482 6.57572358 336.91849586 4.6336575 343 3.25 C354.7224982 0.733587 365.05491306 1.16316633 375.7421875 7.3203125 C384.36678844 13.56371049 388.87721978 21.52794839 391.125 31.8125 C391.52283613 35.55385973 391.55246128 39.24027474 391.5 43 C391.49129883 44.53430664 391.49129883 44.53430664 391.48242188 46.09960938 C391.30051017 57.11537395 389.85438001 67.9456157 388.125 78.8125 C389.0516748 79.41976929 389.0516748 79.41976929 389.99707031 80.03930664 C390.80756836 80.57418701 391.61806641 81.10906738 392.453125 81.66015625 C393.2565332 82.18875244 394.05994141 82.71734863 394.88769531 83.26196289 C403.43478517 89.18542074 407.89870752 96.86618256 410.125 106.8125 C411.1367367 112.98156006 411.73317746 119.2109661 412.38671875 125.42578125 C412.58370681 127.24453633 412.78121128 129.06323554 412.97920227 130.88188171 C413.3912735 134.68794483 413.7963353 138.4946727 414.1965332 142.30200195 C414.70355599 147.11932423 415.22899203 151.93442084 415.76007366 156.74914265 C416.17224338 160.50729842 416.57365588 164.26654928 416.97217751 168.02617455 C417.16136433 169.79827041 417.35380925 171.5700223 417.54993248 173.34136391 C418.60902576 182.95970158 419.29785436 192.49144742 419.34301758 202.17260742 C419.34962497 203.04381635 419.35623236 203.91502527 419.36303997 204.81263447 C419.29949041 216.26867824 415.22664388 224.63490205 407.2421875 232.71875 C398.76163296 240.56742009 389.52932265 243.62513357 378.1015625 244.8828125 C377.35595062 244.96876678 376.61033875 245.05472107 375.84213257 245.14328003 C374.27431376 245.32252433 372.70615802 245.49884361 371.13769531 245.67236328 C368.76265447 245.93609481 366.38917619 246.21149804 364.015625 246.48828125 C359.72274623 246.98109168 355.42750037 247.41194099 351.125 247.8125 C350.15788086 247.90885742 349.19076172 248.00521484 348.19433594 248.10449219 C345.8359375 248.2421875 345.8359375 248.2421875 342.125 247.8125 C340.91263672 246.56919922 340.91263672 246.56919922 339.67578125 245.30078125 C337.45219657 242.6453255 337.45219657 242.6453255 334.96630859 242.49365234 C332.39123958 242.54473896 329.87422624 242.73446686 327.3125 243 C326.42884766 243.07025391 325.54519531 243.14050781 324.63476562 243.21289062 C322.46278602 243.38899708 320.29348166 243.59756708 318.125 243.8125 C318.0425 244.575625 317.96 245.33875 317.875 246.125 C316.92728916 249.52096386 316.16026351 250.06586034 313.125 251.8125 C310.45367935 252.35477883 307.93312329 252.74104999 305.234375 253.0234375 C304.43881699 253.11663773 303.64325897 253.20983795 302.82359314 253.30586243 C300.17534043 253.61246208 297.52543688 253.90043982 294.875 254.1875 C292.99837082 254.3987598 291.121826 254.61077026 289.24536133 254.82348633 C284.23472016 255.38736606 279.22225669 255.93325837 274.20928955 256.47601318 C271.15168793 256.80958843 268.09503146 257.15073678 265.03857422 257.49462891 C203.90477342 264.36448895 143.48581032 265.98897071 82.2265625 259.640625 C80.67153487 259.48062106 80.67153487 259.48062106 79.08509254 259.31738472 C53.69460776 256.70354024 28.32088992 253.93681876 2.9543457 251.10083008 C-2.20569318 250.52460393 -7.36650582 249.95613893 -12.52807617 249.39379883 C-18.90122497 248.69939715 -25.27282497 247.99214789 -31.64352989 247.27568245 C-34.03065657 247.00932721 -36.41827801 246.74736352 -38.80640602 246.49014091 C-58.07916046 244.40891353 -72.90339905 242.55144943 -86.11328125 227.1875 C-91.86485715 219.43371253 -93.06759199 211.68964669 -93.05175781 202.31274414 C-93.05020313 201.37963189 -93.04864845 200.44651964 -93.04704666 199.48513126 C-92.96412423 189.85687141 -92.09262302 180.37258878 -91.046875 170.80859375 C-90.85410257 168.98411499 -90.66191615 167.15957423 -90.47027588 165.3349762 C-90.07066899 161.55541816 -89.66302729 157.77683998 -89.24951172 153.9987793 C-88.72398115 149.18979082 -88.22087913 144.37875215 -87.7238884 139.56674099 C-87.3336582 135.81563473 -86.9307223 132.06597314 -86.52414703 128.31660652 C-86.33353079 126.5434592 -86.14692931 124.76987489 -85.96468353 122.9958477 C-83.16866151 95.96380783 -83.16866151 95.96380783 -73.875 86.8125 C-66.23980687 80.8125 -66.23980687 80.8125 -62.875 80.8125 C-63.019375 79.83796875 -63.16375 78.8634375 -63.3125 77.859375 C-64.64213704 68.0566998 -65.11926916 58.32834739 -65.1875 48.4375 C-65.20490234 47.27444336 -65.22230469 46.11138672 -65.24023438 44.91308594 C-65.23279085 31.81620548 -62.43124696 19.30198257 -53.49609375 9.28125 C-37.95686555 -4.79766519 -19.09618304 -6.13952184 0 0 Z " fill="#020101" transform="translate(92.875,244.1875)"/>
<path d="M0 0 C7.92 0 15.84 0 24 0 C29.24605927 9.7426815 34.30706233 19.46986391 38.81616211 29.57739258 C41.98868791 36.50527422 45.1392804 41.27444602 52.17871094 44.67260742 C53.08103455 45.11174973 53.98335815 45.55089203 54.9130249 46.00334167 C55.60172668 46.33223892 56.29042847 46.66113617 57 47 C57.00586624 47.69411484 57.01173248 48.38822968 57.01777649 49.1033783 C57.07593667 55.67890593 57.14814449 62.25411661 57.23571491 68.82932186 C57.28024029 72.20886234 57.31953406 75.58828722 57.34643555 78.96801758 C57.38013115 82.86308611 57.43245705 86.75753703 57.48828125 90.65234375 C57.49786613 92.45287453 57.49786613 92.45287453 57.50764465 94.28977966 C57.67448437 103.90277754 59.07144539 112.83930309 66 120 C74.72316462 126.79469641 83.33456602 127.34724245 94.05737305 127.31567383 C96.29591015 127.31252335 98.53311112 127.33597319 100.77148438 127.36132812 C110.83094669 127.40654849 119.99881144 126.75730341 128.00509644 120.0368042 C135.73138154 112.14823744 136.88264724 102.45446831 136.8046875 91.921875 C136.81839386 90.62928772 136.83210022 89.33670044 136.84622192 88.00494385 C136.88187738 84.61166343 136.88268321 81.21929078 136.87554932 77.8258667 C136.87462847 74.34599119 136.9076064 70.86644182 136.9375 67.38671875 C136.99100045 60.59109407 137.00758827 53.79582435 137 47 C137.68503098 46.67273422 138.37006195 46.34546844 139.07585144 46.00828552 C139.97531998 45.57041214 140.87478851 45.13253876 141.80151367 44.68139648 C142.69279465 44.25100571 143.58407562 43.82061493 144.50236511 43.37718201 C153.00424301 38.68929375 156.28209116 28.83293484 160.1875 20.4375 C160.8082289 19.12256683 161.42996699 17.80810957 162.05273438 16.49414062 C163.19802049 14.07633132 164.33616567 11.65566872 165.46948242 9.23217773 C166.93654641 6.13400256 168.46696601 3.06606799 170 0 C177.59 0 185.18 0 193 0 C193.185625 1.7325 193.37125 3.465 193.5625 5.25 C197.40828478 29.87370531 210.5554256 52.47338936 224 73 C224.47147461 73.72751465 224.94294922 74.4550293 225.42871094 75.20458984 C231.88956983 85.69838683 231.88956983 85.69838683 242 92 C247.99035517 92.94121586 253.81641844 92.6760976 259.12109375 89.546875 C263.32142291 86.08880775 266.07640633 81.52547938 269 77 C269.43828125 76.34080566 269.8765625 75.68161133 270.328125 75.00244141 C285.28285183 52.50358899 297.02749768 29.41953966 303 3 C304.13199353 3.9080162 305.25532363 4.82683826 306.375 5.75 C307.00148438 6.26046875 307.62796875 6.7709375 308.2734375 7.296875 C311.7347905 10.71124131 312.33701409 14.22907059 312.89453125 18.95703125 C313.11725708 20.81038086 313.11725708 20.81038086 313.34448242 22.70117188 C313.50080299 24.07157872 313.6567985 25.44202268 313.8125 26.8125 C313.98052164 28.24418222 314.14890724 29.67582176 314.31762695 31.10742188 C316.43816653 49.27348798 318.32835561 67.46712959 320.22653198 85.65751648 C320.72835829 90.45874623 321.24756265 95.25733473 321.79492188 100.05360413 C322.72388056 108.87034825 322.8844958 117.30560608 318 125 C310.60111552 133.67149261 301.97347213 136.15916955 290.94921875 137.09765625 C290.12799026 137.17745224 289.30676178 137.25724823 288.46064758 137.33946228 C285.87042489 137.59041539 283.27924301 137.82780985 280.6875 138.0625 C278.07802975 138.30169542 275.46904401 138.54407891 272.86079407 138.79624939 C271.2466084 138.95212178 269.63168189 139.10055406 268.01603699 139.24049377 C262.62347135 139.59944579 262.62347135 139.59944579 258 142 C256.515 145.465 256.515 145.465 255 149 C248.73 149.66 242.46 150.32 236 151 C235.01 149.35 234.02 147.7 233 146 C226.06788539 142.5339427 214.70499782 145.40913362 207.2734375 146.2421875 C206.08634186 146.37062042 204.89924622 146.49905334 203.67617798 146.63137817 C199.90849576 147.04042562 196.14177078 147.45765205 192.375 147.875 C189.8711506 148.14765795 187.3672447 148.41979763 184.86328125 148.69140625 C171.0779752 150.18440066 171.0779752 150.18440066 157.31007385 151.8276062 C134.94862475 154.59872343 112.70154305 155.3274572 90.19946289 155.26074219 C86.36158531 155.24943917 82.52398779 155.25610327 78.68612003 155.26758862 C45.65416455 155.3521131 13.07228257 153.21055427 -19.73511887 149.45289612 C-22.91991162 149.08972757 -26.1055006 148.73382174 -29.29111195 148.37791634 C-50.95971512 145.9570124 -72.61925572 143.45584365 -94.26158142 140.80992126 C-99.72172246 140.14582336 -105.18586454 139.52355674 -110.65234375 138.9140625 C-112.98760234 138.65073219 -115.32280154 138.38688066 -117.6579895 138.1229248 C-119.09783404 137.96190925 -120.53798808 137.80362925 -121.97848511 137.64855957 C-148.05753987 134.83991889 -148.05753987 134.83991889 -156 125 C-163.46428912 113.14614248 -159.67131973 97.57743187 -158.03433228 84.46786499 C-157.44079311 79.70978554 -156.87233224 74.94872808 -156.3046875 70.1875 C-156.19101334 69.23683151 -156.07733917 68.28616302 -155.96022034 67.3066864 C-154.78386331 57.36304447 -153.84702367 47.40209408 -152.98901367 37.42651367 C-150.77606147 12.19747865 -150.77606147 12.19747865 -146 7 C-144.68012913 5.98229737 -143.34874708 4.97911138 -142 4 C-141.71205989 5.62511652 -141.4242553 7.25025713 -141.13696289 8.87548828 C-140.87389508 10.36227781 -140.61003126 11.84892667 -140.34545898 13.33544922 C-139.55482859 17.79386411 -138.78822945 22.25511841 -138.05078125 26.72265625 C-136.22923137 37.6737923 -134.23673835 48.36500256 -131 59 C-130.78617676 59.72558105 -130.57235352 60.45116211 -130.35205078 61.19873047 C-125.70400923 77.94082089 -125.70400923 77.94082089 -114.625 90.6875 C-108.72707299 92.82295633 -103.6933908 93.02092754 -97.875 90.5 C-82.65477915 81.68671006 -77.26620796 59.87013217 -73 44 C-72.64008852 42.33887008 -72.29136533 40.6745134 -72 39 C-71.34 39.33 -70.68 39.66 -70 40 C-69.359375 42.125 -69.359375 42.125 -68.75 45 C-65.22557 59.82022815 -59.68212289 80.80157946 -46.4375 89.8125 C-41.43779196 92.73597919 -36.64106928 93.1430155 -31 92 C-21.99970127 87.80494551 -17.81139078 78.57807207 -14.5625 69.6875 C-14.12309082 68.48891357 -14.12309082 68.48891357 -13.67480469 67.26611328 C-6.16937773 45.79022869 -2.84053366 22.50576672 0 0 Z " fill="#FC7F86" transform="translate(175,337)"/>
<path d="M0 0 C5.60106759 1.7398768 9.14492751 0.90187947 14.47045898 -0.97290039 C28.65186397 -5.70854508 44.03643665 -7.03786921 57.82202148 -0.21899414 C69.06161217 6.45354523 76.2053141 15.43461837 79.65405273 28.07397461 C82.19522266 40.76229895 81.15901138 54.0357311 80.09545898 66.83959961 C80.02552734 67.73469238 79.9555957 68.62978516 79.88354492 69.55200195 C79.10302523 77.93092747 77.78032605 86.62458272 71.73339844 92.88305664 C63.79682057 99.21576007 54.45560328 98.83909242 44.78295898 98.58959961 C43.43142322 98.56948554 42.07985825 98.55124351 40.72827148 98.53491211 C37.45407208 98.48813783 34.1814065 98.42260101 30.90795898 98.33959961 C30.92366943 99.18143799 30.93937988 100.02327637 30.95556641 100.890625 C31.0069815 104.04213143 31.04444779 107.1934226 31.07275391 110.34521484 C31.08775308 111.70401078 31.10815936 113.06275902 31.13427734 114.42138672 C31.42891115 130.15252135 31.42891115 130.15252135 25.59545898 137.08959961 C18.99756116 142.61342104 13.33672161 142.83272774 5.03295898 142.77709961 C3.98237305 142.79708008 2.93178711 142.81706055 1.84936523 142.83764648 C-5.34122931 142.83314674 -11.28551941 141.97209171 -16.64599609 136.85668945 C-20.86020161 132.04534136 -21.21507513 128.48295717 -21.18969727 122.26538086 C-21.18828232 121.58154831 -21.18686737 120.89771576 -21.18540955 120.19316101 C-21.17981978 118.01276239 -21.16726923 115.8324671 -21.15454102 113.65209961 C-21.14952469 112.17228339 -21.14496201 110.69246555 -21.14086914 109.21264648 C-21.12985373 105.58826404 -21.11259614 101.96394191 -21.09204102 98.33959961 C-22.33908813 98.36316528 -22.33908813 98.36316528 -23.61132812 98.38720703 C-26.73679238 98.43875794 -29.86203776 98.47615316 -32.98779297 98.50439453 C-34.98948677 98.52665419 -36.99098376 98.56480107 -38.99243164 98.60327148 C-47.22612335 98.66549082 -54.40290331 98.47893756 -61.39672852 93.79663086 C-72.18009208 82.50360583 -71.48622868 65.6619805 -71.46704102 50.90209961 C-71.46682953 50.22427429 -71.46661804 49.54644897 -71.46640015 48.8480835 C-71.42401772 35.22665127 -70.07418819 22.83295522 -62.09204102 11.33959961 C-61.6627832 10.71698242 -61.23352539 10.09436523 -60.79125977 9.45288086 C-46.41521545 -9.2157288 -19.94946922 -6.29750429 0 0 Z " fill="#020202" transform="translate(269.092041015625,8.660400390625)"/>
<path d="M0 0 C-1.31336784 2.97739215 -2.64357919 4.73266178 -5.125 6.8125 C-7.75046677 9.33550953 -7.97657578 9.82724634 -8.5 13.6875 C-8.22002006 17.12962965 -8.22002006 17.12962965 -6 20 C-2.72269314 20.6107224 -1.12959987 20.82541911 2 20 C5.16067735 17.7889432 7.68006528 15.05496407 10.3125 12.25 C16.47595367 6.06912977 21.28649491 1.85833047 30 0 C31.66775892 -0.58020318 33.33443346 -1.16353291 35 -1.75 C44.77176583 -4.53973126 53.84670138 -3.32771023 63 1 C68.75706221 4.70968935 72.91810273 9.41320637 75 16 C79.35822549 39.80717736 74.27586071 65.33938075 71 89 C70.89625061 89.75265137 70.79250122 90.50530273 70.68560791 91.28076172 C63.75605785 141.1295876 63.75605785 141.1295876 53 155 C50.82421875 155.78515625 50.82421875 155.78515625 49 156 C36.8155936 144.39237024 32.46853027 125.21195515 28.87109375 109.234375 C27.45750349 105.60848429 25.06091717 103.57346874 21.6875 101.75 C15.89577336 100.13370419 11.7314793 100.7215744 6.578125 103.5390625 C2.56059009 107.25826561 1.42875683 112.67176965 0.1875 117.8125 C-7.7781684 149.08934704 -7.7781684 149.08934704 -17 156 C-19.02734375 155.9140625 -19.02734375 155.9140625 -21 155 C-22.37890625 153.3984375 -22.37890625 153.3984375 -23.5625 151.375 C-23.95566406 150.72273437 -24.34882812 150.07046875 -24.75390625 149.3984375 C-37.63133804 124.61240891 -39.59245783 92.86905922 -42.8125 65.5 C-42.92377228 64.58045532 -43.03504456 63.66091064 -43.14968872 62.71350098 C-48.07654152 21.56492647 -48.07654152 21.56492647 -40.5234375 9.67578125 C-29.86272038 -3.49190816 -15.34296774 -5.48429485 0 0 Z " fill="#FDF7E0" transform="translate(88,259)"/>
<path d="M0 0 C6.73200801 2.06864352 11.60599971 1.11450518 18.19921875 -1.09375 C25.84033585 -3.60798174 34.21287282 -4.81993873 41.94921875 -1.90625 C48.34650653 1.95877803 52.13631966 6.67404293 53.94921875 13.90625 C55.49134715 28.2682943 52.62277773 42.60342385 50.41894531 56.75634766 C49.92074438 60.09719404 49.51760529 63.43721868 49.1574707 66.79516602 C46.58060628 90.59717634 36.05511746 111.33016257 23.52294922 131.37939453 C22.03544898 133.7677947 20.58595624 136.17578352 19.140625 138.58984375 C18.28769222 139.96771888 17.43238885 141.34413068 16.57421875 142.71875 C16.20627197 143.34120605 15.8383252 143.96366211 15.45922852 144.60498047 C13.25506637 148.01556418 12.19019868 148.84985573 8.16015625 149.79296875 C6.57074219 149.84904297 6.57074219 149.84904297 4.94921875 149.90625 C-18.73392668 119.35427689 -31.215599 88.57339406 -35.59277344 50.56933594 C-36.03023166 47.07060289 -36.56749845 43.60374486 -37.140625 40.125 C-38.03651949 34.44040355 -38.41708175 28.90662271 -38.42578125 23.15625 C-38.45027344 22.28871094 -38.47476562 21.42117188 -38.5 20.52734375 C-38.53019978 13.81292571 -37.25419821 7.43000866 -32.60302734 2.3137207 C-22.81119877 -6.17057996 -11.47229321 -3.87483969 0 0 Z " fill="#FEF8E1" transform="translate(415.05078125,265.09375)"/>
<path d="M0 0 C4.85336659 4.01024277 7.60569965 8.18770894 8.75390625 14.44921875 C9.07120231 18.32186853 9.12554268 22.18603344 9.16796875 26.0703125 C9.1873349 27.17021011 9.20670105 28.27010773 9.22665405 29.40333557 C9.28617533 32.89771908 9.33272552 36.39213601 9.37890625 39.88671875 C9.41711126 42.26368581 9.45616445 44.6406394 9.49609375 47.01757812 C9.59185424 52.82800494 9.67698133 58.63851367 9.75390625 64.44921875 C10.49141113 64.49312744 11.22891602 64.53703613 11.98876953 64.58227539 C13.45419189 64.6885022 13.45419189 64.6885022 14.94921875 64.796875 C15.91359863 64.86140869 16.87797852 64.92594238 17.87158203 64.99243164 C23.72745103 65.92046238 27.91537648 68.98636389 31.421875 73.68359375 C34.8043269 79.6336772 36.1048529 85.68516863 34.75390625 92.44921875 C32.29581358 98.77660126 28.58699183 103.19655872 23.79296875 107.90625 C23.12478119 108.57589279 22.45659363 109.24553558 21.76815796 109.93547058 C20.36263063 111.33934768 18.95219247 112.73832382 17.53710938 114.13256836 C15.37977405 116.26086264 13.24181076 118.40729608 11.10546875 120.55664062 C9.73157956 121.92429387 8.35661538 123.29086825 6.98046875 124.65625 C6.34589752 125.29375687 5.71132629 125.93126373 5.05752563 126.58808899 C-0.56421371 132.09240772 -5.74233104 134.97456918 -13.671875 135.49609375 C-27.19074776 135.24992308 -36.29243872 122.60669544 -45.18017578 113.75537109 C-46.633971 112.31142877 -48.09812784 110.87851744 -49.5625 109.4453125 C-56.87924669 102.16893407 -61.75920514 96.76742054 -62.33984375 86.15625 C-62.11001777 79.52002472 -59.30106661 74.7145197 -54.8359375 69.921875 C-49.82161661 65.27716007 -43.86226754 64.49681712 -37.24609375 64.44921875 C-36.58609375 64.77921875 -35.92609375 65.10921875 -35.24609375 65.44921875 C-35.2549762 64.79046753 -35.26385864 64.13171631 -35.27301025 63.45300293 C-35.36175013 56.57455147 -35.42193871 49.6962636 -35.46582031 42.81738281 C-35.48589103 40.25286245 -35.51315376 37.6883876 -35.54785156 35.12402344 C-35.5965673 31.43022404 -35.61910888 27.73703166 -35.63671875 24.04296875 C-35.65736389 22.90307495 -35.67800903 21.76318115 -35.69927979 20.58874512 C-35.70143041 12.8972648 -34.8034334 7.24860419 -29.3515625 1.42578125 C-19.91577069 -5.22347326 -9.8254085 -6.92740922 0 0 Z " fill="#000101" transform="translate(287.24609375,172.55078125)"/>
<path d="M0 0 C0.71478516 -0.00064453 1.42957031 -0.00128906 2.16601562 -0.00195312 C7.48556684 0.0510977 12.2413815 0.72075186 17.375 2.1875 C12.375 7.1875 12.375 7.1875 10 9.0625 C7.99241566 11.2221218 7.99241566 11.2221218 8.5 14.8125 C9.08240714 18.23292055 9.08240714 18.23292055 11.375 20.1875 C15.72822848 20.80710062 18.41399271 20.50179585 21.91015625 17.921875 C23.10011149 16.94408232 24.27579054 15.94868897 25.4375 14.9375 C26.61419041 13.95109946 27.79255937 12.9666976 28.97265625 11.984375 C29.83177612 11.26846191 29.83177612 11.26846191 30.70825195 10.53808594 C42.30545222 1.14073544 56.76890916 -1.34925274 71.32519531 -0.09472656 C78.877819 0.9451535 83.93737558 5.13499726 88.90234375 10.63671875 C93.4644186 18.53866803 93.83339937 26.75713237 93.6875 35.6875 C93.67058105 37.38640381 93.67058105 37.38640381 93.65332031 39.11962891 C93.54309669 45.95252645 93.27836568 52.75892816 92.625 59.5625 C92.56352783 60.28630859 92.50205566 61.01011719 92.4387207 61.75585938 C92.09779021 64.67549624 91.56891692 66.88547622 89.97401428 69.36952209 C85.88022609 72.23307561 81.84252433 71.73638106 76.96264648 71.68920898 C75.90374207 71.69461197 74.84483765 71.70001495 73.75384521 71.70558167 C70.25097778 71.71809705 66.74892765 71.70155956 63.24609375 71.68359375 C60.81519019 71.68374866 58.38428639 71.68523631 55.9533844 71.68800354 C50.8582162 71.68938876 45.76332908 71.67680752 40.66821289 71.65405273 C34.12854829 71.62565305 27.58935035 71.62840806 21.04965115 71.64114285 C16.03029882 71.64808835 11.01105488 71.64032385 5.99171638 71.62788582 C3.57991005 71.62336142 1.16809212 71.6230431 -1.24371529 71.62695122 C-4.61006774 71.62985269 -7.97577053 71.61340726 -11.34204102 71.59155273 C-12.84528175 71.59830521 -12.84528175 71.59830521 -14.37889099 71.60519409 C-15.75212021 71.59033714 -15.75212021 71.59033714 -17.15309143 71.57518005 C-18.34685567 71.57153521 -18.34685567 71.57153521 -19.56473637 71.56781673 C-22.17878022 71.0852743 -23.03358353 70.28849191 -24.625 68.1875 C-25.35406118 65.55927944 -25.88974019 63.11710664 -26.3125 60.4375 C-26.4369751 59.65544189 -26.5614502 58.87338379 -26.68969727 58.06762695 C-29.08981709 41.26022598 -30.09159003 22.49168349 -20.1171875 7.83984375 C-14.57191853 1.69940193 -7.99892316 -0.0073452 0 0 Z " fill="#FDF7E1" transform="translate(240.625,19.8125)"/>
<path d="M0 0 C1.13199353 0.9080162 2.25532363 1.82683826 3.375 2.75 C4.00148438 3.26046875 4.62796875 3.7709375 5.2734375 4.296875 C8.7347905 7.71124131 9.33701409 11.22907059 9.89453125 15.95703125 C10.04301514 17.19259766 10.19149902 18.42816406 10.34448242 19.70117188 C10.50080299 21.07157872 10.6567985 22.44202268 10.8125 23.8125 C10.98052164 25.24418222 11.14890724 26.67582176 11.31762695 28.10742188 C13.43816653 46.27348798 15.32835561 64.46712959 17.22653198 82.65751648 C17.72835829 87.45874623 18.24756265 92.25733473 18.79492188 97.05360413 C19.72388056 105.87034825 19.8844958 114.30560608 15 122 C7.60111552 130.67149261 -1.02652787 133.15916955 -12.05078125 134.09765625 C-13.28262398 134.21735023 -13.28262398 134.21735023 -14.53935242 134.33946228 C-17.12957511 134.59041539 -19.72075699 134.82780985 -22.3125 135.0625 C-24.92197025 135.30169542 -27.53095599 135.54407891 -30.13920593 135.79624939 C-31.7533916 135.95212178 -33.36831811 136.10055406 -34.98396301 136.24049377 C-40.37652865 136.59944579 -40.37652865 136.59944579 -45 139 C-45.99 141.31 -46.98 143.62 -48 146 C-54.27 146.66 -60.54 147.32 -67 148 C-67.99 146.35 -68.98 144.7 -70 143 C-76.93211461 139.5339427 -88.29500218 142.40913362 -95.7265625 143.2421875 C-96.91365814 143.37062042 -98.10075378 143.49905334 -99.32382202 143.63137817 C-103.09150424 144.04042562 -106.85822922 144.45765205 -110.625 144.875 C-113.1288494 145.14765795 -115.6327553 145.41979763 -118.13671875 145.69140625 C-131.24971384 147.11327638 -131.24971384 147.11327638 -144.35058594 148.64160156 C-145.13307709 148.73635773 -145.91556824 148.83111389 -146.72177124 148.92874146 C-148.71263893 149.1725582 -150.70279553 149.42216333 -152.69287109 149.67236328 C-155.82191179 149.98235683 -158.85830466 150.06181368 -162 150 C-161.505 149.01 -161.505 149.01 -161 148 C-158.76773071 147.50720215 -158.76773071 147.50720215 -155.77197266 147.16210938 C-154.09223862 146.96180115 -154.09223862 146.96180115 -152.37857056 146.75744629 C-151.1527829 146.62092651 -149.92699524 146.48440674 -148.6640625 146.34375 C-147.4009726 146.19595093 -146.13788269 146.04815186 -144.83651733 145.89587402 C-141.45459367 145.50200487 -138.07193259 145.11630121 -134.68865967 144.73431396 C-131.32285887 144.35215108 -127.95839286 143.95860777 -124.59375 143.56640625 C-104.57696584 141.24526614 -104.57696584 141.24526614 -96.02905273 140.39746094 C-95.150466 140.3097644 -94.27187927 140.22206787 -93.3666687 140.13171387 C-91.79579692 139.9775442 -90.22439069 139.82866946 -88.65237427 139.68664551 C-83.14170309 139.14978136 -78.65946142 137.99466442 -74 135 C-73.29746094 134.566875 -72.59492188 134.13375 -71.87109375 133.6875 C-65.41386067 129.3113273 -61.43106463 123.75941367 -59.37939453 116.1965332 C-58.54545881 111.36839957 -58.79966306 106.44491345 -58.875 101.5625 C-58.88402344 100.44939453 -58.89304687 99.33628906 -58.90234375 98.18945312 C-58.9257776 95.45940977 -58.958586 92.7298199 -59 90 C-58.39744385 89.94376465 -57.7948877 89.8875293 -57.17407227 89.82958984 C-56.37541748 89.74918457 -55.5767627 89.6687793 -54.75390625 89.5859375 C-53.9657251 89.50907715 -53.17754395 89.4322168 -52.36547852 89.35302734 C-45.92485468 88.39181958 -42.12926126 85.59651755 -38.25 80.4375 C-36.80735659 78.30452918 -35.3968779 76.16225059 -34 74 C-33.56171875 73.34080566 -33.1234375 72.68161133 -32.671875 72.00244141 C-17.71714817 49.50358899 -5.97250232 26.41953966 0 0 Z " fill="#FC636E" transform="translate(478,340)"/>
<path d="M0 0 C10.07299184 -0.71383407 19.4618867 0.73301389 27.5 7.25 C35.00342583 14.55063053 36.06760972 22.89845738 36.34301758 33.01220703 C36.56928645 52.82368766 33.71159989 72.41487771 31 92 C30.89625061 92.75265137 30.79250122 93.50530273 30.68560791 94.28076172 C23.75605785 144.1295876 23.75605785 144.1295876 13 158 C10.82421875 158.78515625 10.82421875 158.78515625 9 159 C3.0916313 153.21082029 -0.90911713 147.06910976 -3 139 C-2.8793591 134.87862713 -1.82265701 131.24140303 -0.625 127.3125 C-0.01624814 125.02897074 0.58087028 122.74231702 1.16796875 120.453125 C1.47782715 119.24849609 1.78768555 118.04386719 2.10693359 116.80273438 C3.67707397 110.11697535 4.69817341 103.354984 5.6875 96.5625 C5.78950714 95.86236786 5.89151428 95.16223572 5.99661255 94.44088745 C6.69083166 89.63072836 7.34835826 84.81609534 8 80 C8.16661133 78.81229004 8.33322266 77.62458008 8.50488281 76.40087891 C10.24001538 63.84721271 11.3022345 51.32498539 11.47177124 38.65216064 C11.4989827 36.69805439 11.54562374 34.7442483 11.59301758 32.79052734 C11.59543624 20.60853692 8.44786994 10.84079413 0 2 C0 1.34 0 0.68 0 0 Z " fill="#FDF3C4" transform="translate(128,256)"/>
<path d="M0 0 C4.80985272 3.80313936 7.52119995 8.10061583 9 14 C10.5421284 28.3620443 7.67355898 42.69717385 5.46972656 56.85009766 C4.97152563 60.19094404 4.56838654 63.53096868 4.20825195 66.88891602 C1.63138753 90.69092634 -8.89410129 111.42391257 -21.42626953 131.47314453 C-22.91376977 133.8615447 -24.36326251 136.26953352 -25.80859375 138.68359375 C-26.66152653 140.06146888 -27.5168299 141.43788068 -28.375 142.8125 C-28.74294678 143.43495605 -29.11089355 144.05741211 -29.48999023 144.69873047 C-31.69415238 148.10931418 -32.75902007 148.94360573 -36.7890625 149.88671875 C-38.37847656 149.94279297 -38.37847656 149.94279297 -40 150 C-41.3172344 148.23268551 -42.62863588 146.46102239 -43.9375 144.6875 C-44.66839844 143.70136719 -45.39929688 142.71523438 -46.15234375 141.69921875 C-48 139 -48 139 -49 136 C-48.34 136 -47.68 136 -47 136 C-46.63261719 134.98679687 -46.63261719 134.98679687 -46.2578125 133.953125 C-44.73713224 130.38283221 -42.82203015 127.09764101 -40.875 123.75 C-30.10146718 104.8284907 -23.15789727 86.73366537 -20.40332031 65.10302734 C-19.93885137 61.5295405 -19.4341714 57.96258419 -18.9296875 54.39453125 C-14.36577737 27.80427792 -14.36577737 27.80427792 -20 2 C-22.02019581 -0.31416307 -22.02019581 -0.31416307 -24 -2 C-16.21511619 -4.34872407 -7.00807113 -4.23404297 0 0 Z " fill="#FCF2C4" transform="translate(460,265)"/>
<path d="M0 0 C6.93 0 13.86 0 21 0 C21.99 2.475 21.99 2.475 23 5 C26.08643773 8.08643773 29.79759417 7.35865008 33.9453125 7.4140625 C34.8303244 7.43342865 35.7153363 7.4527948 36.62716675 7.4727478 C39.45967916 7.53262723 42.29223203 7.57896213 45.125 7.625 C47.04298668 7.66317211 48.96095607 7.70222338 50.87890625 7.7421875 C55.58579748 7.83833555 60.29276896 7.92233542 65 8 C63.04354609 14.12890858 60.42885193 19.81464451 57.6875 25.625 C57.21376953 26.66140625 56.74003906 27.6978125 56.25195312 28.765625 C51.78387602 38.22743534 51.78387602 38.22743534 47 41 C43.55993086 42.14668971 40.86643235 42.14810839 37.23706055 42.17700195 C36.55375671 42.18357315 35.87045288 42.19014435 35.16644287 42.19691467 C32.90653366 42.21661494 30.6466908 42.22830282 28.38671875 42.23828125 C27.22711104 42.24439454 27.22711104 42.24439454 26.04407692 42.25063133 C21.95232029 42.27147801 17.86059705 42.28578583 13.76879883 42.29516602 C9.54866229 42.30622837 5.32905332 42.34062976 1.1091032 42.38033772 C-2.14148419 42.40651632 -5.39194609 42.41485891 -8.64262962 42.41844749 C-10.19792431 42.42331017 -11.75321351 42.43491519 -13.30840492 42.45348549 C-15.48898456 42.47790529 -17.66820167 42.47690771 -19.84887695 42.4699707 C-21.08781204 42.47583694 -22.32674713 42.48170319 -23.60322571 42.48774719 C-28.15294229 41.83444753 -31.5091268 39.95621971 -34.3203125 36.26757812 C-34.58585938 35.69458984 -34.85140625 35.12160156 -35.125 34.53125 C-35.43630859 33.8830127 -35.74761719 33.23477539 -36.06835938 32.56689453 C-36.37580078 31.88481934 -36.68324219 31.20274414 -37 30.5 C-37.67678728 29.07017233 -38.35387378 27.64048626 -39.03125 26.2109375 C-39.35996094 25.50291992 -39.68867188 24.79490234 -40.02734375 24.06542969 C-41.44825574 21.04813163 -42.97697882 18.09201767 -44.5 15.125 C-47 10.24468085 -47 10.24468085 -47 8 C-45.71311279 7.98541748 -44.42622559 7.97083496 -43.1003418 7.95581055 C-38.3310145 7.89788852 -33.56216238 7.82065537 -28.79321289 7.73754883 C-26.7281871 7.70427076 -24.66306973 7.67624786 -22.59790039 7.65356445 C-19.63127568 7.62007145 -16.66549252 7.56775855 -13.69921875 7.51171875 C-12.31158577 7.50213387 -12.31158577 7.50213387 -10.8959198 7.49235535 C-10.03525406 7.47256119 -9.17458832 7.45276703 -8.2878418 7.43237305 C-7.53061325 7.42126999 -6.7733847 7.41016693 -5.99320984 7.39872742 C-3.42235979 6.88444719 -2.56453346 6.08237473 -1 4 C-0.67 2.68 -0.34 1.36 0 0 Z " fill="#FB4654" transform="translate(263,329)"/>
<path d="M0 0 C3.375 0.875 3.375 0.875 5.375 2.875 C5.63328552 5.63217163 5.63328552 5.63217163 5.64624023 9.18896484 C5.65146698 9.83632095 5.65669373 10.48367706 5.66207886 11.15065002 C5.67232822 12.55785061 5.6781009 13.96508921 5.67996025 15.3723259 C5.68361698 17.60009277 5.70032432 19.82741166 5.72071838 22.05508423 C5.77619453 28.38917714 5.80680669 34.72333682 5.83129883 41.05761719 C5.84717963 44.9309628 5.87740616 48.80399196 5.91606331 52.67717361 C5.92771154 54.15310937 5.93364364 55.62910175 5.93374443 57.10508347 C5.93393663 59.17113992 5.95221273 61.23632506 5.97436523 63.30224609 C5.97943588 64.47757904 5.98450653 65.65291199 5.98973083 66.86386108 C6.41250787 70.16814935 6.99241197 71.57404994 9.375 73.875 C12.74683542 74.62602535 12.74683542 74.62602535 16.375 73.875 C18.3917658 72.22866057 20.39239574 70.56232277 22.375 68.875 C26.14555737 68.19629967 27.62483951 68.37489301 30.8125 70.5 C32.375 72.875 32.375 72.875 32.36206055 75.59033203 C31.00013441 80.12245031 28.46120862 82.52596177 25.14453125 85.8046875 C24.51649094 86.43988312 23.88845062 87.07507874 23.24137878 87.72952271 C21.91349594 89.06517131 20.57920993 90.39448056 19.23901367 91.71777344 C17.19236559 93.74518015 15.1767607 95.8002268 13.16210938 97.859375 C11.86635509 99.15541962 10.56888449 100.44975105 9.26953125 101.7421875 C8.66929642 102.35770477 8.06906158 102.97322205 7.45063782 103.60739136 C4.63281136 106.34860701 3.1244841 107.74389174 -0.82519531 108.43481445 C-3.89537314 107.82093952 -5.08280747 107.19850855 -7.31640625 105.05078125 C-7.9933252 104.41092285 -8.67024414 103.77106445 -9.36767578 103.11181641 C-10.11259277 102.37366699 -10.85750977 101.63551758 -11.625 100.875 C-12.4794873 100.04532715 -13.33397461 99.2156543 -14.21435547 98.36083984 C-17.01848878 95.61544748 -19.7933574 92.8431567 -22.5625 90.0625 C-23.52912902 89.09944087 -24.4959249 88.13654919 -25.46289062 87.17382812 C-26.37103516 86.26439453 -27.27917969 85.35496094 -28.21484375 84.41796875 C-29.03847412 83.59321045 -29.86210449 82.76845215 -30.71069336 81.91870117 C-33.0924901 79.37591064 -33.57778792 78.42974198 -33.875 74.9375 C-33.625 71.875 -33.625 71.875 -32.5 70 C-29.63713009 68.28227805 -27.91331781 68.35918544 -24.625 68.875 C-23.655625 69.7 -22.68625 70.525 -21.6875 71.375 C-18.79746489 74.17867362 -18.79746489 74.17867362 -14.9375 74.375 C-11.75452164 74.13558015 -11.75452164 74.13558015 -9.94102478 72.74546814 C-7.99941733 69.98585834 -8.25335268 67.79830294 -8.25610352 64.44750977 C-8.25233704 63.80000763 -8.24857056 63.15250549 -8.24468994 62.48538208 C-8.2382594 61.08091746 -8.23858575 59.67640931 -8.24487495 58.27194405 C-8.25398087 56.04818245 -8.24376831 53.82526485 -8.22825623 51.60154724 C-8.18814086 45.28019534 -8.18695454 38.95890916 -8.18920898 32.63745117 C-8.18926008 28.76940347 -8.17009313 24.90181086 -8.13987541 21.03388786 C-8.12904494 18.84444236 -8.141183 16.65586366 -8.15370178 14.46644592 C-8.14479699 13.12158348 -8.13472247 11.7767281 -8.12329102 10.43188477 C-8.12345718 9.25956802 -8.12362335 8.08725128 -8.12379456 6.87940979 C-7.26816028 1.72563264 -5.18885947 -0.17892619 0 0 Z " fill="#5ED5F4" transform="translate(274.625,184.125)"/>
<path d="M0 0 C2.33837891 -0.34057617 2.33837891 -0.34057617 5.2265625 -0.29296875 C6.7734375 -0.2784668 6.7734375 -0.2784668 8.3515625 -0.26367188 C9.43179687 -0.23853516 10.51203125 -0.21339844 11.625 -0.1875 C12.71296875 -0.17396484 13.8009375 -0.16042969 14.921875 -0.14648438 C17.61507409 -0.11104754 20.30729374 -0.06164331 23 0 C23.08121094 0.79196777 23.16242188 1.58393555 23.24609375 2.39990234 C26.00636517 27.26364352 39.39150127 50.09896055 52.59619141 70.75976562 C54.4945277 73.7891802 56.2578774 76.87852125 58 80 C53.13941803 84.22659302 49.95146321 85.55994387 43.52734375 85.6640625 C36.18402508 83.73459701 32.47242292 76.70435215 28.6875 70.6875 C28.12208496 69.80175293 27.55666992 68.91600586 26.97412109 68.00341797 C22.01324278 60.16430086 17.3545697 52.19022345 13 44 C12.67805664 43.39994141 12.35611328 42.79988281 12.02441406 42.18164062 C5.63355779 30.18488484 -0.5261735 16.66822654 -2 3 C-1.34 2.01 -0.68 1.02 0 0 Z " fill="#FB636E" transform="translate(345,337)"/>
<path d="M0 0 C22.02190536 -1.01743916 22.02190536 -1.01743916 31.04296875 6.76171875 C38.06949362 13.90414506 39.35724069 22.4722048 39.36621094 32.21240234 C39.33962402 33.83976318 39.33962402 33.83976318 39.3125 35.5 C39.3012207 36.63260254 39.28994141 37.76520508 39.27832031 38.93212891 C39.16809669 45.76502645 38.90336568 52.57142816 38.25 59.375 C38.18852783 60.09880859 38.12705566 60.82261719 38.0637207 61.56835938 C37.70142244 64.67098406 37.23165216 66.70158142 35.30078125 69.18896484 C32.4269506 71.45106966 30.97937723 71.46764632 27.359375 71.390625 C26.28945313 71.37773438 25.21953125 71.36484375 24.1171875 71.3515625 C23.00601562 71.31804687 21.89484375 71.28453125 20.75 71.25 C19.62335938 71.23195313 18.49671875 71.21390625 17.3359375 71.1953125 C14.55643104 71.14820222 11.7786466 71.08243361 9 71 C9.144375 69.89269531 9.28875 68.78539063 9.4375 67.64453125 C10.71098818 57.05590155 11.24188495 46.53990934 11.3125 35.875 C11.32990234 34.65530518 11.34730469 33.43561035 11.36523438 32.17895508 C11.36021963 23.0339361 10.45868348 14.64530186 4.9375 7.0625 C4.43089844 6.35222656 3.92429687 5.64195313 3.40234375 4.91015625 C2.93957031 4.27980469 2.47679687 3.64945313 2 3 C1.34 2.01 0.68 1.02 0 0 Z " fill="#FDF3C4" transform="translate(295,20)"/>
<path d="M0 0 C0.28794011 1.62511652 0.5757447 3.25025713 0.86303711 4.87548828 C1.12610492 6.36227781 1.38996874 7.84892667 1.65454102 9.33544922 C2.44517141 13.79386411 3.21177055 18.25511841 3.94921875 22.72265625 C6.88052491 40.34416957 11.51433331 57.01271881 17 74 C13.3381645 77.91127933 9.99445389 81.46964649 4.4375 81.9375 C0.80499432 81.58798055 -1.12354755 80.5127474 -3.6875 77.9375 C-13.45376447 64.73241002 -13.5703276 53.90039898 -11.41748047 38.22070312 C-10.97441149 34.80259435 -10.63619559 31.38487311 -10.31640625 27.953125 C-10.0868131 25.61449721 -9.85636235 23.27595343 -9.625 20.9375 C-9.52388916 19.83752686 -9.42277832 18.73755371 -9.31860352 17.60424805 C-8.80976107 12.93386615 -6.90089777 0 0 0 Z " fill="#FA626D" transform="translate(33,341)"/>
<path d="M0 0 C-0.763125 0.53625 -1.52625 1.0725 -2.3125 1.625 C-7.00677357 5.7734278 -8.37527411 10.86015349 -9.8125 16.8125 C-17.7781684 48.08934704 -17.7781684 48.08934704 -27 55 C-29.02734375 54.9140625 -29.02734375 54.9140625 -31 54 C-35.71058167 48.52878616 -39.70005779 40.19861294 -40 33 C-39.27493292 31.30062403 -38.54637494 29.60251431 -37.78857422 27.91748047 C-36.54278014 24.88823382 -35.87356906 21.74557463 -35.125 18.5625 C-33.06232209 10.37520893 -30.3437002 3.70750013 -23 -1 C-15.49911938 -3.40927643 -7.37561352 -2.22660031 0 0 Z " fill="#FCF2C4" transform="translate(98,360)"/>
<path d="M0 0 C12.54 0 25.08 0 38 0 C35.9537521 6.13874371 33.44253616 11.78564049 30.6875 17.625 C30.21376953 18.66140625 29.74003906 19.6978125 29.25195312 20.765625 C24.78387602 30.22743534 24.78387602 30.22743534 20 33 C16.51893486 34.16035505 13.8152767 34.12002704 10.1418457 34.11352539 C9.44890411 34.11367142 8.75596252 34.11381744 8.04202271 34.1139679 C5.75324363 34.11327163 3.4645461 34.1054926 1.17578125 34.09765625 C-0.41176814 34.09579106 -1.99931811 34.09436763 -3.58686829 34.09336853 C-7.7642272 34.08955134 -11.94155131 34.07972786 -16.11889648 34.06866455 C-20.38199391 34.05843328 -24.64509696 34.05386723 -28.90820312 34.04882812 C-37.27215138 34.03810489 -45.63607136 34.02103803 -54 34 C-54 33.67 -54 33.34 -54 33 C-37.5 32.67 -21 32.34 -4 32 C-1.36 26.72 1.28 21.44 4 16 C6.33333333 11.33333333 8.66666667 6.66666667 11 2 C5.555 1.505 5.555 1.505 0 1 C0 0.67 0 0.34 0 0 Z " fill="#E83247" transform="translate(290,337)"/>
<path d="M0 0 C3.4375 0.75 3.4375 0.75 5.4375 2.75 C5.67800903 5.4581604 5.67800903 5.4581604 5.66455078 8.94384766 C5.66432419 10.89564438 5.66432419 10.89564438 5.66409302 12.88687134 C5.65387893 14.31260327 5.64344692 15.73833365 5.6328125 17.1640625 C5.62908295 18.61851813 5.6262357 20.07297627 5.62423706 21.5274353 C5.616596 25.35798056 5.59694357 29.18837446 5.5748291 33.01885986 C5.55438078 36.92661491 5.54523752 40.83439439 5.53515625 44.7421875 C5.51369802 52.41152738 5.47955651 60.08074249 5.4375 67.75 C-0.84544013 68.23330309 -0.84544013 68.23330309 -3.96290588 66.1321106 C-5.98815811 63.11611127 -6.09623437 61.25800364 -6.15600586 57.63623047 C-6.18540756 56.40170135 -6.21480927 55.16717224 -6.24510193 53.89523315 C-6.25671855 52.55255851 -6.26744465 51.20987591 -6.27734375 49.8671875 C-6.29995222 48.48761878 -6.32386117 47.10807081 -6.34901428 45.72854614 C-6.39729555 42.84199259 -6.4318339 39.95569887 -6.45629883 37.06884766 C-6.48851216 33.36472236 -6.55183784 29.66191985 -6.62499142 25.95840263 C-6.6783365 23.11214361 -6.71686332 20.26583677 -6.75070381 17.41928482 C-6.76843751 16.05324298 -6.79044222 14.6872498 -6.81675529 13.32134628 C-6.85092365 11.41609929 -6.86337358 9.51049983 -6.87475586 7.60498047 C-6.88711777 6.52006317 -6.89947968 5.43514587 -6.91221619 4.31735229 C-6.79680984 3.47012604 -6.6814035 2.62289978 -6.5625 1.75 C-3.5625 -0.25 -3.5625 -0.25 0 0 Z " fill="#01CFFA" transform="translate(274.5625,184.25)"/>
<path d="M0 0 C6.93 0 13.86 0 21 0 C21.02291487 3.9693655 21.04284015 7.9385632 21.05493164 11.90795898 C21.05997057 13.25920386 21.06680177 14.61044326 21.07543945 15.96166992 C21.08752419 17.90020434 21.09269828 19.838778 21.09765625 21.77734375 C21.10551147 23.52905884 21.10551147 23.52905884 21.11352539 25.31616211 C21 28 21 28 20 29 C18.59651265 29.09860131 17.18819523 29.13078937 15.78125 29.1328125 C14.50701172 29.13474609 14.50701172 29.13474609 13.20703125 29.13671875 C11.86705078 29.13091797 11.86705078 29.13091797 10.5 29.125 C9.60667969 29.12886719 8.71335937 29.13273437 7.79296875 29.13671875 C6.94347656 29.13542969 6.09398437 29.13414062 5.21875 29.1328125 C4.43435547 29.13168457 3.64996094 29.13055664 2.84179688 29.12939453 C1 29 1 29 0 28 C-0.08767112 25.92737924 -0.10695873 23.85179706 -0.09765625 21.77734375 C-0.09443359 20.51728516 -0.09121094 19.25722656 -0.08789062 17.95898438 C-0.07953403 16.61848891 -0.07106907 15.27799412 -0.0625 13.9375 C-0.0574866 12.59310058 -0.05292342 11.2486994 -0.04882812 9.90429688 C-0.03699497 6.60284567 -0.01905886 3.3014174 0 0 Z " fill="#8A98A4" transform="translate(263,106)"/>
<path d="M0 0 C0.66 0.33 1.32 0.66 2 1 C2.640625 3.125 2.640625 3.125 3.25 6 C5.92508075 17.3656984 10.01238446 28.44927481 15 39 C10.25 44.875 10.25 44.875 8 46 C2.96986386 46.50301361 0.96514216 46.6076821 -3.375 43.875 C-6.07847799 40.91404791 -7.10064077 38.8672447 -8 35 C-9.32 35.66 -10.64 36.32 -12 37 C-10.74784581 33.13024729 -9.36967435 29.33244181 -7.89306641 25.54296875 C-4.63875762 17.15169319 -2.13558881 8.74335183 0 0 Z " fill="#F7626C" transform="translate(103,376)"/>
<path d="M0 0 C16.5 0 33 0 50 0 C48.96001413 6.23991521 48.55897645 7.18318251 44 11 C38.97258423 14.22277449 32.97293872 13.37196679 27.21044922 13.37060547 C25.13815711 13.37497227 23.0680085 13.41129685 20.99609375 13.44921875 C19.02189453 13.45501953 19.02189453 13.45501953 17.0078125 13.4609375 C15.80785645 13.46915527 14.60790039 13.47737305 13.37158203 13.48583984 C7.94754534 12.7042444 4.92554208 10.19346215 1.625 5.9375 C0 3 0 3 0 0 Z " fill="#BFE3F2" transform="translate(247,437)"/>
<path d="M0 0 C16.5 0 33 0 50 0 C50 3.63 50 7.26 50 11 C33.5 11 17 11 0 11 C0 7.37 0 3.74 0 0 Z " fill="#BEE0EE" transform="translate(247,411)"/>
<path d="M0 0 C16.5 0 33 0 50 0 C50 3.3 50 6.6 50 10 C33.5 10 17 10 0 10 C0 6.7 0 3.4 0 0 Z " fill="#C8EFFE" transform="translate(247,386)"/>
<path d="M0 0 C3.125 0.375 3.125 0.375 5.5625 2 C7.125 4.375 7.125 4.375 7.11206055 7.09033203 C5.75013441 11.62245031 3.21120862 14.02596177 -0.10546875 17.3046875 C-0.73350906 17.93988312 -1.36154938 18.57507874 -2.00862122 19.22952271 C-3.33650406 20.56517131 -4.67079007 21.89448056 -6.01098633 23.21777344 C-8.05763441 25.24518015 -10.0732393 27.3002268 -12.08789062 29.359375 C-13.38364491 30.65541962 -14.68111551 31.94975105 -15.98046875 33.2421875 C-16.58070358 33.85770477 -17.18093842 34.47322205 -17.79936218 35.10739136 C-20.69081485 37.92023148 -22.10101294 39.26357506 -26.1887207 39.85205078 C-29.13280637 39.3292167 -30.10496828 38.73504229 -31.875 36.375 C-31.14434326 36.13112549 -30.41368652 35.88725098 -29.66088867 35.63598633 C-26.53490443 34.22106138 -24.72699776 32.61459125 -22.30078125 30.19921875 C-21.05264648 28.95688477 -21.05264648 28.95688477 -19.77929688 27.68945312 C-18.92400391 26.82255859 -18.06871094 25.95566406 -17.1875 25.0625 C-15.8871582 23.77956055 -15.8871582 23.77956055 -14.56054688 22.47070312 C-13.73232422 21.63861328 -12.90410156 20.80652344 -12.05078125 19.94921875 C-11.29708252 19.19213623 -10.54338379 18.43505371 -9.7668457 17.6550293 C-6.8409548 14.12878138 -5.72428967 10.70206892 -5.375 6.1875 C-4.78889528 1.71845153 -4.52165917 0.58978163 0 0 Z " fill="#02CCF6" transform="translate(299.875,252.625)"/>
<path d="M0 0 C8.25 0 16.5 0 25 0 C25 5.65031797 24.64694025 7.36785457 22 12 C8.03621113 12.86078151 8.03621113 12.86078151 4.25 9.75 C1.40931248 6.27804859 0 4.50655483 0 0 Z " fill="#E7F4FC" transform="translate(247,437)"/>
<path d="M0 0 C8.25 0 16.5 0 25 0 C25 3.3 25 6.6 25 10 C16.75 10 8.5 10 0 10 C0 6.7 0 3.4 0 0 Z " fill="#E7F3FC" transform="translate(247,386)"/>
<path d="M0 0 C7.92 0 15.84 0 24 0 C24 3.3 24 6.6 24 10 C16.08 10 8.16 10 0 10 C0 6.7 0 3.4 0 0 Z " fill="#EAF6FF" transform="translate(248,412)"/>
<path d="M0 0 C0.99 0.33 1.98 0.66 3 1 C2.67 1.66 2.34 2.32 2 3 C-9.60667084 5.97771142 -22.3592428 6.27094754 -34.25 7.5 C-38.33870337 7.92554447 -42.42719244 8.3531125 -46.515625 8.78125 C-47.9935553 8.93509155 -47.9935553 8.93509155 -49.50134277 9.09204102 C-56.85514383 9.86302137 -64.19427531 10.72585388 -71.53027344 11.65039062 C-74.71771072 11.97155655 -77.79962844 12.06649483 -81 12 C-80.67 11.34 -80.34 10.68 -80 10 C-77.76773071 9.50720215 -77.76773071 9.50720215 -74.77197266 9.16210938 C-73.65214996 9.02857056 -72.53232727 8.89503174 -71.37857056 8.75744629 C-69.53988907 8.55266663 -69.53988907 8.55266663 -67.6640625 8.34375 C-66.4009726 8.19595093 -65.13788269 8.04815186 -63.83651733 7.89587402 C-60.45459367 7.50200487 -57.07193259 7.11630121 -53.68865967 6.73431396 C-50.32285891 6.35215109 -46.95839171 5.9586174 -43.59375 5.56640625 C-31.52890943 4.16708794 -19.46357926 2.77377291 -7.3722229 1.62072754 C-3.562377 1.28487815 -3.562377 1.28487815 0 0 Z " fill="#F1616B" transform="translate(397,478)"/>
<path d="M0 0 C1.65 0 3.3 0 5 0 C5 9.24 5 18.48 5 28 C3.35 28 1.7 28 0 28 C0 18.76 0 9.52 0 0 Z " fill="#9EABB9" transform="translate(264,107)"/>
<path d="M0 0 C0 0.33 0 0.66 0 1 C-3.87422208 1.50615271 -7.74948817 2.00382721 -11.625 2.5 C-12.71941406 2.64308594 -13.81382812 2.78617187 -14.94140625 2.93359375 C-16.53662109 3.13662109 -16.53662109 3.13662109 -18.1640625 3.34375 C-19.13811035 3.46943359 -20.1121582 3.59511719 -21.11572266 3.72460938 C-24.09489105 4.00906019 -27.00915797 4.04655007 -30 4 C-29.67 3.34 -29.34 2.68 -29 2 C-26.76269531 1.48168945 -26.76269531 1.48168945 -23.828125 1.11328125 C-22.77109375 0.97986328 -21.7140625 0.84644531 -20.625 0.70898438 C-18.954375 0.51272461 -18.954375 0.51272461 -17.25 0.3125 C-16.15171875 0.17005859 -15.0534375 0.02761719 -13.921875 -0.11914062 C-8.98280977 -0.72153875 -4.87783917 -1.20723742 0 0 Z " fill="#E65D66" transform="translate(346,486)"/>
</svg>
