<?xml version="1.0" encoding="UTF-8"?>
<svg version="1.1" xmlns="http://www.w3.org/2000/svg" width="256" height="256">
<path d="M0 0 C3.24864337 -0.19889653 5.74099031 -0.90409739 8.78515625 -2.03125 C15.88165217 -4.16968376 24.29895743 -4.08780024 31.14453125 -1.06640625 C34.67498545 0.96267585 37.85892669 3.41863922 41 6 C41.4125 5.60167969 41.825 5.20335937 42.25 4.79296875 C49.65264638 -1.99829835 55.85338924 -3.50562703 65.87890625 -3.30859375 C68.72485486 -3.02720459 70.8182766 -2.52842414 73.4375 -1.4375 C78.28958744 0.52035985 81.00860948 -0.26544782 85.78515625 -2.02734375 C93.56073454 -4.37985772 101.75725979 -3.95177822 108.98828125 -0.22265625 C112.13662487 1.69080308 115.07429264 3.75903266 118 6 C118.61875 5.40251953 118.61875 5.40251953 119.25 4.79296875 C126.65264638 -1.99829835 132.85338924 -3.50562703 142.87890625 -3.30859375 C145.72485486 -3.02720459 147.8182766 -2.52842414 150.4375 -1.4375 C154.36666937 0.14795431 155.99467044 0.15709521 160 -1 C161.12148438 -1.50466797 161.12148438 -1.50466797 162.265625 -2.01953125 C169.87128804 -4.74670471 178.2386244 -3.83510498 185.5 -0.5625 C192.36416364 3.31804051 195.46163007 8.22400108 198.375 15.375 C200.66679491 28.66741051 197.51069951 40.36823645 191 52 C191.98742187 51.97679687 192.97484375 51.95359375 193.9921875 51.9296875 C195.27351562 51.91164062 196.55484375 51.89359375 197.875 51.875 C199.15117187 51.85179687 200.42734375 51.82859375 201.7421875 51.8046875 C205 52 205 52 207 54 C207.3125 57 207.3125 57 207 60 C206.01 60.66 205.02 61.32 204 62 C203.5254169 64.01076785 203.5254169 64.01076785 203.56762695 66.35791016 C203.53793571 67.70908432 203.53793571 67.70908432 203.50764465 69.08755493 C203.50125473 70.06155243 203.49486481 71.03554993 203.48828125 72.0390625 C203.47033005 73.03505463 203.45237885 74.03104675 203.43388367 75.05722046 C203.37959002 78.24643689 203.34582383 81.43550209 203.3125 84.625 C203.27934376 86.78387531 203.24485571 88.9427306 203.20898438 91.1015625 C203.123853 96.40090603 203.05558425 101.70026869 203 107 C200.12448285 108.63065293 198.06899145 109.2502059 194.77081299 109.25168228 C193.50854448 109.25950552 193.50854448 109.25950552 192.2207756 109.26748681 C191.30132786 109.26302537 190.38188011 109.25856392 189.43457031 109.25396729 C188.45392231 109.25708727 187.47327431 109.26020725 186.4629097 109.26342177 C183.16792082 109.27141652 179.87311534 109.26507231 176.578125 109.25878906 C174.21952201 109.26149827 171.86091987 109.2650588 169.50231934 109.26940918 C163.08924799 109.27854383 156.67624084 109.27498447 150.26316833 109.26865101 C146.25963217 109.26509934 142.25610042 109.26576452 138.25256348 109.26763153 C137.58817363 109.267938 136.92378378 109.26824446 136.23926091 109.26856022 C134.88960997 109.26919966 133.53995903 109.26984809 132.19030809 109.2705054 C119.53151009 109.27620992 106.87274103 109.26964889 94.21394777 109.25890467 C83.3496486 109.24996904 72.48539216 109.25152105 61.62109375 109.26074219 C49.00791597 109.27144267 36.39476357 109.27566058 23.78158188 109.26951766 C22.43686676 109.26888055 21.09215165 109.26825181 19.74743652 109.26763153 C18.75497103 109.2671687 18.75497103 109.2671687 17.74245572 109.26669653 C13.07752133 109.26496892 8.41261188 109.26798362 3.74768066 109.27259064 C-2.52970824 109.27835676 -8.80701622 109.2743806 -15.08439636 109.26280212 C-17.39190028 109.26015162 -19.69941098 109.26092725 -22.00691223 109.26532745 C-25.1495577 109.27076887 -28.29194164 109.26396572 -31.43457031 109.25396729 C-32.81374193 109.26065945 -32.81374193 109.26065945 -34.2207756 109.26748681 C-35.06228794 109.26227132 -35.90380028 109.25705582 -36.77081299 109.25168228 C-37.49618885 109.25135758 -38.22156471 109.25103287 -38.96892166 109.25069833 C-41.31930425 108.96058791 -42.9520605 108.16134886 -45 107 C-45.00586624 106.4406778 -45.01173248 105.88135559 -45.01777649 105.30508423 C-45.08157787 99.49764784 -45.16596184 93.69077247 -45.26245117 87.88378906 C-45.29576091 85.71491886 -45.32377379 83.54596071 -45.34643555 81.37695312 C-45.37987055 78.26394062 -45.43218013 75.1517386 -45.48828125 72.0390625 C-45.49467117 71.065065 -45.5010611 70.0910675 -45.50764465 69.08755493 C-45.52743881 68.18677216 -45.54723297 67.28598938 -45.56762695 66.35791016 C-45.57873001 65.56293121 -45.58983307 64.76795227 -45.60127258 63.94888306 C-45.8445901 61.5951766 -45.8445901 61.5951766 -49 60 C-49.3125 57 -49.3125 57 -49 54 C-47 52 -47 52 -43.7421875 51.8046875 C-41.82792969 51.83949219 -41.82792969 51.83949219 -39.875 51.875 C-37.95300781 51.90207031 -37.95300781 51.90207031 -35.9921875 51.9296875 C-35.00476562 51.95289063 -34.01734375 51.97609375 -33 52 C-33.40992188 51.16597656 -33.81984375 50.33195312 -34.2421875 49.47265625 C-39.97238129 37.50505055 -43.71871502 26.21446447 -39.25 13.125 C-36.32047075 5.33617223 -31.8017701 1.67108237 -24.43359375 -1.828125 C-15.87032463 -4.75074245 -7.97782601 -3.8227083 0 0 Z M40 45 C38.515 48.465 38.515 48.465 37 52 C39.31 52 41.62 52 44 52 C43.39816251 49.97954558 42.72693904 47.97888961 42 46 C41.34 45.67 40.68 45.34 40 45 Z M117 45 C114.71307976 48.23764755 114.71307976 48.23764755 114 52 C116.31 52 118.62 52 121 52 C120.01 49.69 119.02 47.38 118 45 C117.67 45 117.34 45 117 45 Z " fill="#050303" transform="translate(49,133)"/>
<path d="M0 0 C5.58821994 2.16172025 10.8702753 1.51419411 16.78669739 1.18861389 C18.07266721 1.13054597 19.35863703 1.07247805 20.68357563 1.01265049 C23.36358452 0.8889947 26.04244188 0.75978167 28.72151566 0.61899185 C32.36581105 0.42801173 36.0104527 0.25096189 39.65568542 0.07896423 C45.40342347 -0.19757173 51.14975319 -0.4964091 56.89591026 -0.80392647 C60.63519899 -1.00397504 64.37465636 -1.20058543 68.11416626 -1.39645386 C76.02298519 -1.81126547 83.9315913 -2.23004873 91.84016418 -2.64952087 C101.08663832 -3.13993276 110.33319962 -3.62855986 119.57999611 -4.11286736 C123.24595165 -4.30574784 126.91173207 -4.5017398 130.57751465 -4.69787598 C132.82806097 -4.81610742 135.07861498 -4.93419288 137.32917786 -5.05210876 C138.33235046 -5.10664215 139.33552307 -5.16117554 140.36909485 -5.21736145 C161.36432948 -6.30357762 161.36432948 -6.30357762 168.46516418 -0.14952087 C172.81655831 4.94782653 173.08948578 8.90015557 172.96907043 15.49891663 C172.41592363 20.59333036 169.90949861 23.08221326 166.52766418 26.66297913 C159.35574303 31.02849635 149.94761371 30.83264363 141.76472473 31.28260803 C140.6203746 31.35117508 139.47602448 31.41974213 138.29699707 31.49038696 C134.54482078 31.71350235 130.79215197 31.92664924 127.03938293 32.13954163 C124.42003076 32.29305387 121.80071252 32.447146 119.181427 32.60179138 C113.70717628 32.92402495 108.23264907 33.24112865 102.75788879 33.55458069 C95.04422266 33.99623463 87.33115501 34.44773435 79.61815965 34.90092969 C73.61285454 35.25336414 67.60736979 35.60272 61.60188293 35.95204163 C60.32375921 36.02652149 59.04563549 36.10100136 57.72878075 36.17773819 C54.11715677 36.38751902 50.50541908 36.5952055 46.89363098 36.80213928 C45.82393066 36.86445236 44.75423035 36.92676544 43.65211487 36.9909668 C42.66682297 37.04697556 41.68153107 37.10298431 40.66638184 37.16069031 C39.81380641 37.20971308 38.96123098 37.25873585 38.08281994 37.30924416 C35.60299557 37.41509931 33.1344299 37.43087533 30.65266418 37.41297913 C31.14766418 41.37297913 31.14766418 41.37297913 31.65266418 45.41297913 C33.58807068 45.47122864 33.58807068 45.47122864 35.56257629 45.53065491 C57.53376967 46.25749953 79.47410915 47.5824035 101.41706848 48.88710022 C105.97919432 49.15775152 110.54165839 49.42103 115.10456848 49.67811584 C120.6854408 49.9925612 126.26548682 50.31902754 131.8451519 50.65419388 C133.95032233 50.77871213 136.05574051 50.89911763 138.16139412 51.01517868 C141.09362748 51.17772751 144.02454263 51.35578274 146.9556427 51.53749084 C147.80816116 51.5812384 148.66067963 51.62498596 149.53903198 51.6700592 C155.92715286 52.09048121 162.68016728 53.04359753 167.80891418 57.13172913 C168.25235168 57.71954163 168.69578918 58.30735413 169.15266418 58.91297913 C169.61672668 59.50079163 170.08078918 60.08860413 170.55891418 60.69422913 C173.43136574 65.20808157 173.08711197 70.26396829 172.65266418 75.41297913 C170.98405798 80.32609739 168.20424187 83.87174719 163.65266418 86.41297913 C156.35191792 88.74555479 149.1990234 88.51418793 141.64460754 88.01332092 C140.48717545 87.94694427 139.32974335 87.88056763 138.13723755 87.81217957 C134.33814959 87.59118448 130.54045684 87.35191215 126.74250793 87.11219788 C124.08798783 86.95373366 121.43342716 86.79624211 118.77877808 86.63998413 C113.22635448 86.31116328 107.67456971 85.97297559 102.12312317 85.62806702 C94.31800898 85.14316057 86.51191963 84.67572442 78.70554912 84.21154916 C72.6134903 83.8486212 66.52173865 83.48058509 60.43000793 83.11219788 C59.14039595 83.03432226 57.85078396 82.95644665 56.52209282 82.87621117 C52.85833481 82.65373858 49.19480151 82.42789761 45.53132629 82.20082092 C44.4573056 82.13581894 43.38328491 82.07081696 42.27671814 82.00384521 C36.37562498 81.63392656 30.52349886 81.1172447 24.65266418 80.41297913 C24.41418762 81.13098694 24.17571106 81.84899475 23.93000793 82.58876038 C22.45621442 85.84733135 20.63455573 87.97450571 18.21516418 90.60047913 C17.43270325 91.46028381 16.65024231 92.3200885 15.84407043 93.20594788 C13.65266418 95.41297913 13.65266418 95.41297913 10.65266418 97.41297913 C7.09016418 97.22547913 7.09016418 97.22547913 3.65266418 96.41297913 C1.27196776 92.84193449 1.15044647 89.86718951 0.77766418 85.72547913 C-0.11546542 77.63583811 -1.51193795 71.79348769 -7.65983582 66.10047913 C-15.74887844 59.87683417 -23.2388535 59.29333532 -33.34733582 60.41297913 C-39.96750336 62.41701432 -44.55803987 65.67162164 -48.34733582 71.41297913 C-51.09222177 76.8047194 -52.18682983 81.72134145 -52.44889832 87.74891663 C-52.82761903 93.90811139 -52.82761903 93.90811139 -55.53483582 96.53797913 C-59.22546498 97.68617487 -60.68160116 97.77864498 -64.34733582 96.41297913 C-74.86670376 88.51271912 -81.4977308 75.26606355 -83.34733582 62.41297913 C-84.94615629 45.59212828 -82.50834217 30.35131126 -72.34733582 16.41297913 C-56.15162752 -2.84816292 -23.24129649 -15.71331312 0 0 Z " fill="#000102" transform="translate(83.34733581542969,20.587020874023438)"/>
<path d="M0 0 C5.94 0 11.88 0 18 0 C20.23772215 6.71316644 20.23772215 6.71316644 20.67578125 10.2421875 C22.19096332 22.69199863 22.19096332 22.69199863 29 33 C33.9053836 33.54012908 33.9053836 33.54012908 38.1015625 31.34375 C44.34929554 23.63049933 45.24728778 10.60008285 47 1 C47.99 1.33 48.98 1.66 50 2 C50.10546143 2.56396484 50.21092285 3.12792969 50.31958008 3.70898438 C50.80984998 6.30744147 51.31110166 8.90366824 51.8125 11.5 C51.97814453 12.386875 52.14378906 13.27375 52.31445312 14.1875 C54.07387354 24.65323434 54.07387354 24.65323434 60 33 C63.45769191 33.58342353 63.45769191 33.58342353 67 33 C75.8601139 25.79289243 76.30163359 10.52987172 78 0 C83.61 0 89.22 0 95 0 C96.41350939 4.94728287 97.3206529 8.88587611 97.875 13.875 C98.58095678 19.21522145 99.7327857 23.54686858 102.1953125 28.328125 C103 30 103 30 103 32 C106.55353929 33.1845131 109.27013478 33.26641894 113 33 C120.41947913 27.14443069 121.02256342 15.25011926 122.38671875 6.5625 C123 3 123 3 124 1 C124.66 1 125.32 1 126 1 C127.47079187 6.70667246 128.92233567 12.3800284 129.9375 18.1875 C130.8806406 23.08549069 132.47988921 27.67840376 135 32 C137.98997825 33.49498913 140.70042775 33.11577446 144 33 C144.99 32.67 145.98 32.34 147 32 C147.95731034 30.14187698 147.95731034 30.14187698 148.5625 27.875 C148.93375 26.64136719 148.93375 26.64136719 149.3125 25.3828125 C149.6528125 24.20332031 149.6528125 24.20332031 150 23 C150.350625 21.9275 150.70125 20.855 151.0625 19.75 C152.20881012 15.16475951 152.87702983 10.56821773 153.53515625 5.890625 C154 3 154 3 155 0 C160.61 0 166.22 0 172 0 C172.24234375 1.31613281 172.4846875 2.63226563 172.734375 3.98828125 C175.01293567 17.92010552 175.01293567 17.92010552 180 31 C183.73255448 33.48836965 185.58440935 33.54226552 190 33 C198.09020262 26.03343663 198.3985105 11.89288905 200 2 C200.99 2 201.98 2 203 2 C203.27263672 3.32451172 203.27263672 3.32451172 203.55078125 4.67578125 C205.83582091 19.90771143 205.83582091 19.90771143 213 33 C216.45678447 33.9168022 216.45678447 33.9168022 220 33 C226.03601837 28.88453293 227.10997614 22.69989317 228.3984375 15.89599609 C228.95634574 12.80973717 229.49820588 9.72213183 229.99853516 6.62597656 C230.90145764 1.09854236 230.90145764 1.09854236 232 0 C237.94 0 243.88 0 250 0 C249.67 15.18 249.34 30.36 249 46 C245.41972268 47.79013866 244.44809506 48.2500362 240.77081299 48.25168228 C239.50854448 48.25950552 239.50854448 48.25950552 238.2207756 48.26748681 C237.30132786 48.26302537 236.38188011 48.25856392 235.43457031 48.25396729 C233.96359831 48.25864726 233.96359831 48.25864726 232.4629097 48.26342177 C229.16792082 48.27141652 225.87311534 48.26507231 222.578125 48.25878906 C220.21952201 48.26149827 217.86091987 48.2650588 215.50231934 48.26940918 C209.08924799 48.27854383 202.67624084 48.27498447 196.26316833 48.26865101 C192.25963217 48.26509934 188.25610042 48.26576452 184.25256348 48.26763153 C183.58817363 48.267938 182.92378378 48.26824446 182.23926091 48.26856022 C180.88960997 48.26919966 179.53995903 48.26984809 178.19030809 48.2705054 C165.53151009 48.27620992 152.87274103 48.26964889 140.21394777 48.25890467 C129.3496486 48.24996904 118.48539216 48.25152105 107.62109375 48.26074219 C95.00791597 48.27144267 82.39476357 48.27566058 69.78158188 48.26951766 C68.43686676 48.26888055 67.09215165 48.26825181 65.74743652 48.26763153 C64.75497103 48.2671687 64.75497103 48.2671687 63.74245572 48.26669653 C59.07752133 48.26496892 54.41261188 48.26798362 49.74768066 48.27259064 C43.47029176 48.27835676 37.19298378 48.2743806 30.91560364 48.26280212 C28.60809972 48.26015162 26.30058902 48.26092725 23.99308777 48.26532745 C20.8504423 48.27076887 17.70805836 48.26396572 14.56542969 48.25396729 C13.64598194 48.25842873 12.72653419 48.26289017 11.7792244 48.26748681 C10.93771206 48.26227132 10.09619972 48.25705582 9.22918701 48.25168228 C8.50381115 48.25135758 7.77843529 48.25103287 7.03107834 48.25069833 C5 48 5 48 1 46 C0.67 30.82 0.34 15.64 0 0 Z " fill="#EB304A" transform="translate(3,194)"/>
<path d="M0 0 C8.80132949 7.19006248 15.95114218 17.98343946 17.28320312 29.43457031 C17.40036939 31.94371571 17.41648739 34.42606567 17.375 36.9375 C17.36194824 38.25572754 17.36194824 38.25572754 17.34863281 39.60058594 C17.20811585 45.80406447 16.56505485 51.28891634 14 57 C13.69835937 57.72316406 13.39671875 58.44632812 13.0859375 59.19140625 C11.05289869 63.67896752 8.6755665 66.73282978 5 70 C4.85304688 69.24976562 4.70609375 68.49953125 4.5546875 67.7265625 C2.18515967 56.91388953 -1.85636451 48.52188219 -11 42 C-11.804375 41.4225 -12.60875 40.845 -13.4375 40.25 C-22.54870215 35.80551114 -35.18236563 35.28022576 -44.9375 38.0625 C-54.44708969 41.96433546 -60.89488583 49.2379918 -65.12109375 58.44140625 C-66.04279801 61.12458976 -66.39917334 63.4896667 -66.625 66.3125 C-66.69976562 67.19550781 -66.77453125 68.07851562 -66.8515625 68.98828125 C-66.90054688 69.65214844 -66.94953125 70.31601563 -67 71 C-67.66 71 -68.32 71 -69 71 C-78.15747535 55.90430429 -83.23452042 41.80204261 -79.30859375 23.8359375 C-78.38309521 21.39633883 -77.31507135 19.25149986 -76 17 C-75.55269531 16.15308594 -75.10539062 15.30617188 -74.64453125 14.43359375 C-68.37245293 3.15057887 -58.82690399 -5.12790543 -46.3984375 -9.171875 C-29.58434891 -13.05486714 -13.84824055 -10.79887633 0 0 Z " fill="#01A5EF" transform="translate(89,35)"/>
<path d="M0 0 C8.08241708 4.6399061 13.31572648 10.52680827 17.375 18.9375 C17.375 19.5975 17.375 20.2575 17.375 20.9375 C19.04111905 20.980221 20.70882885 20.97813832 22.375 20.9375 C22.87 20.4425 22.87 20.4425 23.375 19.9375 C23.375 12.14826259 19.76493497 7.17281233 15.375 0.9375 C20.87876416 -1.4722041 25.7137923 -2.09733151 31.55859375 -0.4453125 C36.1173818 1.50229827 39.13806558 4.11916705 41.52734375 8.4765625 C44.63050395 17.48573726 42.30939148 26.62005836 38.375 34.9375 C37.55902344 36.38189453 37.55902344 36.38189453 36.7265625 37.85546875 C30.79111589 48.49521037 28.92691147 59.36626169 26.94995117 71.29711914 C26.36025073 74.00523393 25.47477677 76.39816169 24.375 78.9375 C22.09019449 75.51029173 21.34921906 72.25574147 20.4375 68.3125 C18.39141802 57.0486259 18.39141802 57.0486259 12.375 47.9375 C9.34704735 47.09998118 7.3136662 46.6002226 4.3203125 47.67578125 C0.69916237 50.02443886 -0.37397614 53.94642877 -1.625 57.9375 C-1.96065671 60.39371736 -2.12565169 62.82312749 -2.27734375 65.296875 C-2.90833324 70.08955925 -4.80512084 74.48514447 -6.625 78.9375 C-9.78810253 76.4004338 -10.17502493 74.24214544 -10.73046875 70.30078125 C-10.9927124 68.60961182 -10.9927124 68.60961182 -11.26025391 66.88427734 C-11.53361572 65.08531006 -11.53361572 65.08531006 -11.8125 63.25 C-13.72252488 51.76406007 -16.90385534 42.95569488 -22.625 32.9375 C-26.14883167 25.45810895 -27.57414782 16.41243965 -24.74609375 8.46875 C-19.24357608 -1.26507663 -10.30160091 -3.01943475 0 0 Z " fill="#F2F2F2" transform="translate(119.625,140.0625)"/>
<path d="M0 0 C7.10379629 4.02101677 11.03122228 8.43367474 14.953125 15.60546875 C16.23734527 17.74952616 17.36923107 19.31002075 19.3125 20.875 C21.47549211 20.64742269 21.47549211 20.64742269 23.3125 19.875 C23.15087003 12.60165157 19.36031684 7.71949794 15.3125 1.875 C17.10442192 -0.4245312 18.03177847 -1.07509395 20.94921875 -1.59375 C27.01422038 -1.6558755 31.72288846 -1.43577197 36.6875 2.27734375 C41.22358164 6.73709709 42.55477143 11.34359342 42.875 17.625 C42.50974866 27.65051967 37.28225628 36.22701201 32.64453125 44.890625 C29.36204136 52.24494253 28.57544133 60.24527904 27.54492188 68.16015625 C26.45882045 75.68485893 26.45882045 75.68485893 23.3125 78.875 C20.42547456 71.00529105 18.52514944 63.37594382 17.21875 55.125 C16.21715224 51.53306319 15.22977641 50.13793404 12.3125 47.875 C8.83827087 46.76620347 7.05340313 46.59931511 3.625 47.875 C-1.17555168 52.02682848 -2.16327373 58.36385124 -3.25 64.375 C-4.15456373 69.3219926 -5.24343689 74.06558808 -6.6875 78.875 C-8.6875 77.875 -8.6875 77.875 -9.43359375 75.75 C-9.66175781 74.80125 -9.88992187 73.8525 -10.125 72.875 C-10.39054688 71.781875 -10.65609375 70.68875 -10.9296875 69.5625 C-11.58650765 66.36642672 -12.03952365 63.19869664 -12.4597168 59.96557617 C-13.96197495 49.14653782 -18.42558575 40.37480802 -23.70361328 30.89526367 C-26.78222989 24.57378663 -26.62487649 16.41094897 -25.2265625 9.64453125 C-23.49674843 5.03508553 -20.5811651 2.63301278 -16.6875 -0.125 C-11.12094868 -1.98051711 -5.57693707 -1.70143843 0 0 Z " fill="#F2F2F2" transform="translate(196.6875,140.125)"/>
<path d="M0 0 C8.19251847 5.10284854 13.7208276 12.68542954 18.4765625 20.92578125 C19.7965625 20.59578125 21.1165625 20.26578125 22.4765625 19.92578125 C22.89770435 14.83447715 21.89009295 12.38312517 18.9765625 8.23828125 C15.4765625 3.21744792 15.4765625 3.21744792 15.4765625 -0.07421875 C21.25369229 -1.99992868 27.2864919 -1.97609494 32.8515625 0.61328125 C36.67015408 2.79643563 39.65178443 5.3957188 41.0546875 9.69921875 C43.29343292 21.51481959 40.04318429 29.8971538 34.79199219 40.20117188 C30.93119487 47.79447419 28.83010386 54.01552201 27.7878418 62.47070312 C27.047704 68.47315526 26.34798033 73.57450257 23.4765625 78.92578125 C20.24501918 72.69351913 18.78443784 66.70676865 17.70898438 59.80859375 C16.86351303 54.85721463 15.79210047 50.68239626 11.6640625 47.55078125 C8.56342246 46.6648841 6.56039721 47.02632946 3.4765625 47.92578125 C-1.69496389 51.43003948 -2.01822496 57.13414464 -3.1484375 62.86328125 C-3.55361899 64.83148881 -3.96235908 66.79896781 -4.375 68.765625 C-4.54854004 69.63566162 -4.72208008 70.50569824 -4.90087891 71.40209961 C-5.55033885 74.03483196 -6.46122364 76.433965 -7.5234375 78.92578125 C-11.24990999 75.13720089 -11.37928381 70.83198615 -12.0234375 65.80078125 C-13.65288711 54.626964 -16.41847979 45.64239201 -21.6550293 35.63208008 C-26.04997782 27.20625543 -28.37149717 19.0489986 -25.90625 9.546875 C-23.98041245 5.05609451 -21.21259713 2.12023892 -16.92578125 -0.21875 C-11.30857584 -2.21902315 -5.51830925 -2.34912545 0 0 Z " fill="#F0F0F0" transform="translate(43.5234375,140.07421875)"/>
<path d="M0 0 C0.67160156 -0.03738281 1.34320313 -0.07476563 2.03515625 -0.11328125 C5.89751526 -0.18157443 7.48811198 0.26760116 10.5625 2.6796875 C12.625 5.375 12.625 5.375 13.25 8.875 C12.44553714 13.379992 11.21035254 14.56891556 7.625 17.375 C4.71064587 18.23731532 1.83229415 18.41756092 -1.19287109 18.59326172 C-2.50579919 18.69626241 -2.50579919 18.69626241 -3.84525108 18.80134392 C-6.68734726 19.0169287 -9.53026132 19.19798447 -12.375 19.375 C-14.26138456 19.50495903 -16.14771692 19.63567802 -18.03399658 19.76715088 C-24.11683715 20.17802787 -30.20249636 20.53225399 -36.2890625 20.8828125 C-38.52340278 21.01420135 -40.75772661 21.14587 -42.99203491 21.27780151 C-47.63240062 21.55091512 -52.27291788 21.82122669 -56.91357422 22.08935547 C-62.8401703 22.43193564 -68.76637383 22.78083984 -74.6924839 23.13171577 C-79.28900367 23.40331334 -83.88568975 23.67200428 -88.48243332 23.939785 C-90.66800953 24.06737001 -92.85353973 24.19574602 -95.03902054 24.32495499 C-98.09047013 24.50484064 -101.1421176 24.68090218 -104.19384766 24.85595703 C-105.52345016 24.93540054 -105.52345016 24.93540054 -106.87991333 25.01644897 C-109.37790615 25.15746759 -111.87506033 25.27454001 -114.375 25.375 C-115.28688457 25.41426479 -116.19876915 25.45352959 -117.13828659 25.49398422 C-118.03305332 25.51666492 -118.92782005 25.53934563 -119.84970093 25.56271362 C-120.65595602 25.5868527 -121.46221111 25.61099178 -122.29289818 25.63586235 C-124.375 25.375 -124.375 25.375 -126.9609375 22.890625 C-127.55132812 21.81296875 -128.14171875 20.7353125 -128.75 19.625 C-131.01756235 15.63023058 -133.09755624 12.58025336 -136.375 9.375 C-136.375 8.715 -136.375 8.055 -136.375 7.375 C-135.78215304 7.3449994 -135.18930609 7.3149988 -134.57849407 7.28408909 C-120.11227298 6.55188389 -105.64617761 5.81723284 -91.18021679 5.0799036 C-84.18441327 4.7233862 -77.18857039 4.36767809 -70.19262695 4.01391602 C-63.43629664 3.67226806 -56.68008699 3.32831082 -49.92394447 2.98296928 C-47.35132008 2.85184282 -44.77865667 2.72147937 -42.2059536 2.59190559 C-38.59186617 2.40974967 -34.97792924 2.22483694 -31.36401367 2.03930664 C-30.3095253 1.98679749 -29.25503693 1.93428833 -28.16859436 1.88018799 C-22.36007447 1.57883316 -16.57861583 1.1590546 -10.78929615 0.59709835 C-7.18667535 0.26568245 -3.61798351 0.09240429 0 0 Z " fill="#3D4FB1" transform="translate(234.375,23.625)"/>
<path d="M0 0 C23.29578719 1.13039058 46.57824799 2.41434887 69.85449219 3.89599609 C79.61028206 4.51304589 89.36208573 5.08473908 99.12890625 5.49609375 C100.85271065 5.57271843 102.57650648 5.64953593 104.30029297 5.7265625 C107.46953169 5.86769858 110.63844595 5.98549435 113.80908203 6.08984375 C115.22041838 6.15141606 116.63171701 6.21386177 118.04296875 6.27734375 C119.24977295 6.32109131 120.45657715 6.36483887 121.69995117 6.40991211 C125.6641902 7.11876509 127.90645198 8.4494516 131 11 C132.24340706 15.02278753 132.44425045 17.02687998 130.6875 20.875 C129 23 129 23 127 24 C124.5356984 24.13118402 122.11415872 24.18395695 119.6484375 24.1796875 C118.83152435 24.17846893 118.01461121 24.17725037 117.17294312 24.17599487 C102.79785905 24.04698791 88.43161606 23.07007796 74.08215332 22.2623291 C70.83479411 22.08083578 67.58715499 21.90468703 64.33949661 21.72864151 C48.77008928 20.8837354 33.20500354 19.98680869 17.6484375 18.9296875 C16.47721344 18.85090363 15.30598938 18.77211975 14.09927368 18.69094849 C8.36877522 18.29032227 2.69115742 17.78358397 -3 17 C-2.86722656 16.443125 -2.73445313 15.88625 -2.59765625 15.3125 C-2.42105469 14.549375 -2.24445313 13.78625 -2.0625 13 C-1.88847656 12.2575 -1.71445313 11.515 -1.53515625 10.75 C-1.08492166 8.43638575 -0.75142526 6.16554057 -0.46655273 3.828125 C-0.31259033 2.56484375 -0.15862793 1.3015625 0 0 Z " fill="#3E4FB2" transform="translate(115,75)"/>
<path d="M0 0 C4.64901102 2.65791943 7.40697168 6.05785351 10 10.75 C11.66177293 17.09495119 11.1036193 21.89137024 7.95703125 27.55078125 C4.94629047 31.87698415 0.83608169 35.08785458 -4.3125 36.375 C-10.75523361 37.20127779 -15.28493746 36.6139739 -20.62109375 32.80859375 C-24.81244008 29.25611314 -27.02691104 26.01760162 -27.62109375 20.51953125 C-27.88336366 13.74025135 -27.74768034 9.11763473 -23.07421875 3.96484375 C-16.26720891 -2.17806757 -8.64935269 -3.88404894 0 0 Z " fill="#020405" transform="translate(66.3125,29.625)"/>
<path d="M0 0 C5.02667941 0.47873137 8.13510466 1.72324091 12 5 C15.99072053 10.11157105 16.68079739 15.50294062 16.44921875 21.859375 C15.20828067 30.53515077 10.41790932 38.3829029 6.33203125 46.015625 C3.04954136 53.36994253 2.26294133 61.37027904 1.23242188 69.28515625 C0.14632045 76.80985893 0.14632045 76.80985893 -3 80 C-5.56235522 72.95650263 -7.5003731 66.49440349 -8 59 C-7.34 59 -6.68 59 -6 59 C-5.92652344 57.85660156 -5.85304687 56.71320313 -5.77734375 55.53515625 C-5.1496805 50.52377817 -3.06255969 46.76076441 -0.5625 42.4375 C3.82001918 34.74559036 6.39446183 28.08738391 6.375 19.0625 C6.37483887 18.3610083 6.37467773 17.6595166 6.37451172 16.93676758 C6.24787427 11.20142415 5.14927972 7.72391959 2 3 C1.34 2.01 0.68 1.02 0 0 Z " fill="#CAD1D5" transform="translate(223,139)"/>
<path d="M0 0 C5.02346252 0.478425 8.10192881 1.77985423 12 5 C16.293917 10.31089734 16.61744935 14.92732012 16.37890625 21.67578125 C15.65665108 28.01226737 13.47693562 33.38561396 10.3515625 38.91796875 C4.41611589 49.55771037 2.55191147 60.42876169 0.57495117 72.35961914 C-0.01474927 75.06773393 -0.90022323 77.46066169 -2 80 C-4.35415336 76.46876996 -5.15489733 73.00115229 -6.125 68.9375 C-6.30675781 68.20466797 -6.48851562 67.47183594 -6.67578125 66.71679688 C-8 61.29546523 -8 61.29546523 -8 59 C-7.34 59 -6.68 59 -6 59 C-5.91492188 58.00742188 -5.82984375 57.01484375 -5.7421875 55.9921875 C-5.10470285 51.54321567 -3.23802895 48.04360535 -1.125 44.125 C4.12865911 33.92911302 7.70650119 24.78390657 7 13 C5.40547727 8.13449981 2.81981789 4.22972684 0 0 Z " fill="#CBD2D6" transform="translate(146,139)"/>
<path d="M0 0 C6.26842154 1.91239979 9.31856411 3.5336255 13 9 C15.65147703 16.86944785 14.73199431 25.89619171 11.34765625 33.33203125 C10.00883612 35.98250704 8.66372886 38.62972489 7.31542969 41.27539062 C3.45463237 48.86869294 1.35354136 55.08974076 0.3112793 63.54492188 C-0.4288585 69.54737401 -1.12858217 74.64872132 -4 80 C-4.68620031 78.67661368 -5.34786461 77.34050052 -6 76 C-6.5259375 74.948125 -6.5259375 74.948125 -7.0625 73.875 C-10.29885651 63.95017337 -8.75161758 55.3677 -4.12109375 46.16796875 C-3.06128598 44.10504464 -1.99204196 42.04719497 -0.92211914 39.98950195 C3.61361984 31.1009764 7.07837821 20.71398065 4.390625 10.73828125 C3.30644983 7.65723242 2.32741205 5.32741205 0 3 C0 2.01 0 1.02 0 0 Z " fill="#CCD4D8" transform="translate(71,139)"/>
<path d="M0 0 C9.02969123 1.27132837 17.36943614 8.04300523 23 15 C29.98582578 24.57640284 33.57139735 33.04860921 33.375 44.9375 C33.36629883 45.81631836 33.35759766 46.69513672 33.34863281 47.60058594 C33.20811585 53.80406447 32.56505485 59.28891634 30 65 C29.69835937 65.72316406 29.39671875 66.44632812 29.0859375 67.19140625 C27.05289869 71.67896752 24.6755665 74.73282978 21 78 C20.34 74.7 19.68 71.4 19 68 C19.66 68 20.32 68 21 68 C21.13277344 67.30132812 21.26554687 66.60265625 21.40234375 65.8828125 C21.66724609 64.51769531 21.66724609 64.51769531 21.9375 63.125 C22.11152344 62.22007813 22.28554687 61.31515625 22.46484375 60.3828125 C23 58 23 58 24 56 C25.52169714 38.01630651 22.27786316 24.36370199 10.98046875 10.1484375 C8.18745058 7.11853613 5.05767951 4.71772546 1.72265625 2.3125 C1.15417969 1.879375 0.58570312 1.44625 0 1 C0 0.67 0 0.34 0 0 Z " fill="#0275B9" transform="translate(73,27)"/>
<path d="M0 0 C3.23857278 1.30921027 4.60256422 2.52033613 6.8125 5.1875 C8.36311739 8.86001486 8.68645283 12.11010061 8 16 C5.77863437 20.36045847 3.56432971 23.13277421 -1 25 C-7.497296 25.94315587 -7.497296 25.94315587 -11.03515625 23.72265625 C-16.79659536 18.88399384 -16.79659536 18.88399384 -17.23828125 14.79296875 C-17.43954579 7.72752407 -17.43954579 7.72752407 -15.1875 4 C-10.22383179 -0.53821094 -6.47079807 -0.66260972 0 0 Z " fill="#050606" transform="translate(43,152)"/>
<path d="M0 0 C3.3 0 6.6 0 10 0 C9.67 15.18 9.34 30.36 9 46 C5.25631258 47.87184371 4.1599209 48.23999767 0.25 48.125 C-0.54921875 48.10695312 -1.3484375 48.08890625 -2.171875 48.0703125 C-2.77515625 48.04710937 -3.3784375 48.02390625 -4 48 C-3.51391769 47.59722336 -3.02783539 47.19444672 -2.52702332 46.77946472 C-0.6118984 44.54773899 -0.60837686 43.43810786 -0.56762695 40.52856445 C-0.53793571 39.17750359 -0.53793571 39.17750359 -0.50764465 37.79914856 C-0.50125473 36.83031235 -0.49486481 35.86147614 -0.48828125 34.86328125 C-0.47033005 33.86870407 -0.45237885 32.87412689 -0.43388367 31.84941101 C-0.37966984 28.6704839 -0.34584917 25.49170787 -0.3125 22.3125 C-0.27933674 20.15818205 -0.24484801 18.00388406 -0.20898438 15.84960938 C-0.12393685 10.56651508 -0.05717832 5.28346646 0 0 Z " fill="#BB193B" transform="translate(243,194)"/>
<path d="M0 0 C2.56428515 -0.13559675 5.12135216 -0.23433188 7.6875 -0.3125 C8.40873047 -0.35439453 9.12996094 -0.39628906 9.87304688 -0.43945312 C14.03987692 -0.53458623 15.55554419 -0.34309891 18.98046875 2.30078125 C21 5 21 5 21.625 8.5 C20.83397068 12.9297642 19.63525215 14.39210172 16 17 C12.6875 17.3125 12.6875 17.3125 10 17 C10.33 16.13375 10.66 15.2675 11 14.375 C12.45727453 9.45669848 12.23875004 5.95500016 11 1 C7.37 1 3.74 1 0 1 C0 0.67 0 0.34 0 0 Z " fill="#253289" transform="translate(226,24)"/>
<path d="M0 0 C3.40364149 0.2917407 5.06382675 1.04578875 7.875 3.0625 C10.07927638 6.10958794 10.34080748 6.61055906 10.0625 10.125 C9.51926195 12.79089042 9.09898036 13.88268995 7.3125 16 C4.41445453 17.25320885 2.12461161 17.2130417 -1 17 C-0.67 16.360625 -0.34 15.72125 0 15.0625 C1.63421165 10.05772683 1.66550691 4.99652074 0 0 Z " fill="#27338E" transform="translate(237,82)"/>
<path d="M0 0 C0.49029622 7.23186925 0.49029622 7.23186925 -1.875 10.9375 C-4.01260116 13.01223054 -4.98327003 13.94895934 -7.9453125 14.09765625 C-9.96354167 14.06510417 -11.98177083 14.03255208 -14 14 C-2.28571429 0 -2.28571429 0 0 0 Z " fill="#C2CBCE" transform="translate(68,43)"/>
<path d="M0 0 C-3.80014774 4.554787 -7.65665546 8.95279259 -12 13 C-12.66 13 -13.32 13 -14 13 C-14.32470459 8.86001651 -14.4304413 6.66000999 -12.125 3.125 C-8.23343341 -0.76656659 -5.28274966 -0.08520564 0 0 Z " fill="#C3CCCF" transform="translate(61,37)"/>
<path d="M0 0 C3.25696479 0.41755959 4.63443291 0.63443291 7 3 C6.46428571 6.53571429 6.46428571 6.53571429 5 8 C2.5625 8.1875 2.5625 8.1875 0 8 C-0.66 7.34 -1.32 6.68 -2 6 C-1.44444444 1.44444444 -1.44444444 1.44444444 0 0 Z " fill="#58727F" transform="translate(36,160)"/>
</svg>
