<?xml version="1.0" encoding="UTF-8"?>
<svg version="1.1" xmlns="http://www.w3.org/2000/svg" width="256" height="256">
<path d="M0 0 C32.06552529 -0.42784751 63.96023766 0.80707379 95.875 4 C96.71507599 4.08358765 97.55515198 4.16717529 98.42068481 4.2532959 C125.12304457 6.94754295 125.12304457 6.94754295 132 12 C136.24454912 17.47323439 137.1255268 21.24593294 137.09765625 28.07421875 C137.09553383 29.09996758 137.09553383 29.09996758 137.09336853 30.1464386 C137.08777876 32.32683722 137.07522822 34.50713251 137.0625 36.6875 C137.05748367 38.16731622 137.052921 39.64713406 137.04882812 41.12695312 C137.03781271 44.75133557 137.02055512 48.3756577 137 52 C137.76957031 52.28230469 138.53914062 52.56460938 139.33203125 52.85546875 C143.05984801 54.45466393 145.14095209 56.46576607 147 60 C150.70443909 72.154565 149.73738818 86.43609774 150 99 C150.01673767 99.72914612 150.03347534 100.45829224 150.05072021 101.20953369 C150.15880817 105.97183587 150.23787221 110.73349227 150.28509521 115.49679565 C150.3031345 117.0622565 150.32774084 118.6276577 150.35943604 120.19290161 C150.6723755 136.56412526 146.98626142 148.57185385 135.6875 160.75 C124.03652379 171.80148526 110.45803267 174.17790503 95.03515625 174.09765625 C94.00184677 174.0962413 92.96853729 174.09482635 91.90391541 174.09336853 C88.6234134 174.08779839 85.34298117 174.07525141 82.0625 174.0625 C79.83007911 174.05748114 77.59765715 174.05291891 75.36523438 174.04882812 C69.91013269 174.03783875 64.45507133 174.0211305 59 174 C58.34 172.68 57.68 171.36 57 170 C55.56138706 170.08746284 54.12402492 170.19565348 52.6875 170.3125 C51.48673828 170.39951172 51.48673828 170.39951172 50.26171875 170.48828125 C47.92874597 170.78497897 47.92874597 170.78497897 46.66255474 172.50817299 C44.42689344 174.51425425 43.11291529 174.37709034 40.1374054 174.38095093 C39.1351442 174.3894104 38.132883 174.39786987 37.10025024 174.40658569 C35.45214859 174.39747665 35.45214859 174.39747665 33.77075195 174.38818359 C32.03372765 174.39606903 32.03372765 174.39606903 30.26161194 174.40411377 C26.42036581 174.41735331 22.57953186 174.40855848 18.73828125 174.3984375 C16.07129906 174.40045778 13.40432949 174.40336429 10.73735046 174.40713501 C5.13938926 174.41259606 -0.4584533 174.40539585 -6.05639648 174.39111328 C-12.51441244 174.37482582 -18.97214368 174.38004519 -25.4301526 174.3965925 C-30.98190919 174.41024519 -36.53358045 174.41210743 -42.08534843 174.40427649 C-45.39773568 174.39961552 -48.70996113 174.40011995 -52.02234459 174.40888596 C-55.72301658 174.41652647 -59.42314746 174.40485692 -63.1237793 174.38818359 C-64.75669922 174.39729263 -64.75669922 174.39729263 -66.42260742 174.40658569 C-75.22922554 174.33328556 -81.9053064 172.69228137 -88.52734375 166.61328125 C-92.44619746 162.32021339 -93.7518188 157.48181199 -94.3125 151.875 C-93.76225989 145.05202264 -91.73257697 139.10241716 -86.5 134.5 C-79.40810159 128.95542488 -71.83728392 128.85238209 -63.14648438 128.8581543 C-61.8597155 128.85294266 -61.8597155 128.85294266 -60.54695129 128.84762573 C-58.69511046 128.84030776 -56.84326108 128.83494144 -54.9914093 128.83133507 C-52.05682381 128.82412806 -49.12240152 128.80843201 -46.18786621 128.78999329 C-37.84808522 128.73770846 -29.50839861 128.68953062 -21.16845703 128.67407227 C-16.05736629 128.66398019 -10.94669465 128.63463299 -5.83576965 128.59275246 C-3.89340893 128.58046404 -1.95098901 128.57531724 -0.0085907 128.57755089 C2.71022207 128.5799092 5.42783419 128.55770044 8.14648438 128.5300293 C8.94253586 128.53663071 9.73858734 128.54323212 10.5587616 128.55003357 C16.13706744 128.45709996 19.4927735 127.36784616 24 124 C28.00775411 118.67313186 27.77498301 112.05118213 28.1875 105.625 C28.3102832 103.94857422 28.3102832 103.94857422 28.43554688 102.23828125 C28.63500607 99.4927841 28.82278397 96.74700756 29 94 C28.12562522 94.00553076 28.12562522 94.00553076 27.23358631 94.01117325 C13.04504873 94.09953937 -1.14344757 94.16571685 -15.33220196 94.20724869 C-22.19381789 94.22786745 -29.05525007 94.25597459 -35.91674805 94.30175781 C-42.53678286 94.34590879 -49.15667676 94.36912899 -55.77686501 94.37950897 C-58.30427877 94.38690749 -60.83168192 94.40135479 -63.35901451 94.42292023 C-66.89541706 94.45189951 -70.43102737 94.45595814 -73.9675293 94.45410156 C-75.01553711 94.46848267 -76.06354492 94.48286377 -77.14331055 94.49768066 C-84.24881159 94.45723843 -84.24881159 94.45723843 -88.12702942 92.09661865 C-91.15048369 88.71213911 -91.02316893 86.81379226 -91.0625 82.375 C-91.41754736 77.48582325 -92.12284481 75.19592257 -95.75 71.875 C-96.46800781 71.26011719 -97.18601562 70.64523438 -97.92578125 70.01171875 C-102.67595229 65.40467904 -105.85471094 58.11821133 -106.16113281 51.54174805 C-106.18125537 50.11514486 -106.19483348 48.68843975 -106.203125 47.26171875 C-106.20882507 46.50333206 -106.21452515 45.74494537 -106.22039795 44.96357727 C-106.22983856 43.35895173 -106.23637821 41.75430688 -106.24023438 40.1496582 C-106.24992327 37.70684545 -106.2809474 35.26488039 -106.3125 32.82226562 C-106.31903227 31.26042164 -106.32428186 29.69857166 -106.328125 28.13671875 C-106.3404718 27.41151535 -106.3528186 26.68631195 -106.36553955 25.93913269 C-106.34496211 21.20400777 -105.49729274 18.01813665 -103 14 C-97.16629402 8.29593193 -91.68663728 6.91271022 -83.7421875 6 C-82.70310745 5.87899933 -82.70310745 5.87899933 -81.64303589 5.7555542 C-79.38782254 5.49597528 -77.13160873 5.2471348 -74.875 5 C-74.10144165 4.91351196 -73.3278833 4.82702393 -72.53088379 4.73791504 C-52.78961075 2.53630498 -32.8875419 0.3911977 -13 1 C-12.505 2.485 -12.505 2.485 -12 4 C-8.7 4 -5.4 4 -2 4 C-1.34 2.68 -0.68 1.36 0 0 Z M67 94 C67.23954993 106.9833049 67.23954993 106.9833049 73.6796875 117.7421875 C79.62338881 123.07366207 83.94163508 124.46870748 91.95703125 124.3125 C97.95217727 123.6968239 101.56185243 121.40618873 105.8125 117.25 C109.78151683 111.353175 111.16706571 106.89043883 111.07421875 99.7265625 C111.06350342 98.65229004 111.05278809 97.57801758 111.04174805 96.47119141 C111.02108276 95.24795166 111.02108276 95.24795166 111 94 C106.98424307 93.82922384 102.96820009 93.66909455 98.95166016 93.51782227 C96.9324047 93.43972033 94.91345783 93.3537639 92.89453125 93.26757812 C84.15744483 92.94477937 75.70194799 93.18647221 67 94 Z " fill="#030302" transform="translate(106,41)"/>
<path d="M0 0 C3.3 0 6.6 0 10 0 C10.495 1.98 10.495 1.98 11 4 C11.98468262 3.99476318 12.96936523 3.98952637 13.98388672 3.98413086 C50.54928932 3.80781629 87.14710822 4.55176186 123.4375 9.5 C124.24614502 9.60618652 125.05479004 9.71237305 125.88793945 9.82177734 C131.18231528 10.61474716 135.81637542 11.76977763 139.64746094 15.68261719 C141.4803708 18.82304686 141.34062135 21.11277772 141.29296875 24.734375 C141.28330078 26.02988281 141.27363281 27.32539062 141.26367188 28.66015625 C141.23860783 30.02344354 141.21321302 31.38672479 141.1875 32.75 C141.17244518 34.12889184 141.15875817 35.50779935 141.14648438 36.88671875 C141.11111909 40.25820915 141.06175904 43.62890654 141 47 C139.3962669 47.64690922 137.79199694 48.29248764 136.1875 48.9375 C135.29417969 49.29714844 134.40085938 49.65679687 133.48046875 50.02734375 C131.6729091 50.73613486 129.84192591 51.3860247 128 52 C127.319375 51.236875 126.63875 50.47375 125.9375 49.6875 C120.92752548 45.10390629 115.97070294 43.4193276 109.27734375 43.63671875 C104.22616588 44.44248126 100.1854752 47.2096832 96 50 C95.6596875 49.52949219 95.319375 49.05898437 94.96875 48.57421875 C90.54700388 42.89415657 86.64413693 40.6581659 79.546875 39.65234375 C72.96666673 39.25874233 69.18235034 41.12593908 64 45 C63.01 45.495 63.01 45.495 62 46 C61.54109375 45.44570312 61.0821875 44.89140625 60.609375 44.3203125 C59.99578125 43.59585938 59.3821875 42.87140625 58.75 42.125 C58.14671875 41.40570313 57.5434375 40.68640625 56.921875 39.9453125 C52.97583379 35.95114883 49.66791599 35.68460125 44.125 35.625 C38.31353283 35.70345179 35.21955696 36.0085272 31 40 C30.38125 40.5775 29.7625 41.155 29.125 41.75 C28.568125 42.36875 28.568125 42.36875 28 43 C26.515 42.505 26.515 42.505 25 42 C25 41.34 25 40.68 25 40 C17.8471849 36.29113291 12.08530135 35.14100384 4 36 C-1.43240339 37.72893851 -4.68447336 41.57929782 -8 46 C-8.58265625 45.566875 -9.1653125 45.13375 -9.765625 44.6875 C-15.54615462 40.76110252 -20.06804939 39.04436548 -27.09765625 39.40625 C-33.59442403 40.73533305 -38.67958238 45.11604965 -43 50 C-43.721875 49.38125 -44.44375 48.7625 -45.1875 48.125 C-50.07856209 44.42953086 -54.21935872 43.42223898 -60.30078125 43.55859375 C-65.88922737 44.47247857 -70.8595967 47.42473904 -74.48046875 51.78125 C-76.44118557 55.00900043 -77.54703721 58.26305696 -78 62 C-83.09913597 57.62931202 -85.67620645 52.95191134 -86.40185547 46.33642578 C-86.5878836 42.74757264 -86.60737279 39.1649663 -86.57641602 35.57202148 C-86.56246187 33.3063094 -86.59679306 31.04466688 -86.63476562 28.77929688 C-86.63571626 27.328124 -86.63386101 25.87694598 -86.62890625 24.42578125 C-86.62963135 23.12036377 -86.63035645 21.81494629 -86.63110352 20.4699707 C-85.84201012 16.1313307 -84.43215081 14.68720712 -81 12 C-72.67301222 9.36312053 -63.66450977 8.9228092 -55 8 C-53.79843765 7.86827393 -53.79843765 7.86827393 -52.57260132 7.73388672 C-43.49120453 6.74168692 -34.42564764 5.90013154 -25.30078125 5.4375 C-24.53595428 5.39786133 -23.77112732 5.35822266 -22.98312378 5.31738281 C-19.33359904 5.13370709 -15.68542202 4.97772025 -12.03320312 4.859375 C-10.73962891 4.80265625 -9.44605469 4.7459375 -8.11328125 4.6875 C-6.97673096 4.65011719 -5.84018066 4.61273438 -4.66918945 4.57421875 C-3.34794067 4.28998047 -3.34794067 4.28998047 -2 4 C-1.34 2.68 -0.68 1.36 0 0 Z " fill="#FC8D6F" transform="translate(94,45)"/>
<path d="M0 0 C3.49406769 1.66762322 4.82670681 2.74006022 7 6 C7.31402588 8.02635193 7.31402588 8.02635193 7.40722656 10.37280273 C7.44777161 11.25479843 7.48831665 12.13679413 7.53009033 13.04551697 C7.56656677 13.99858231 7.60304321 14.95164764 7.640625 15.93359375 C7.74245404 17.96554695 7.84535408 19.99744671 7.94921875 22.02929688 C8.10306793 25.22130107 8.24902928 28.41298848 8.37548828 31.60620117 C8.79641506 51.02042424 8.79641506 51.02042424 18.875 67 C19.90625 67.66 20.9375 68.32 22 69 C22.53753906 69.38800781 23.07507813 69.77601563 23.62890625 70.17578125 C30.77447036 74.66683774 39.96662889 74.12816939 47.9453125 72.33984375 C55.89193163 69.53301039 61.00086962 64.68317304 64.63671875 57.1171875 C68.71546085 47.02415895 67.88732665 35.88665766 68.04296875 25.16503906 C68.09249267 22.29931863 68.17049909 19.43533292 68.25 16.5703125 C68.25225586 15.69835236 68.25451172 14.82639221 68.25683594 13.92800903 C68.42897531 7.91543705 69.62728457 5.1797528 74 1 C76.82001327 -0.41000664 78.87007255 -0.24548451 82 0 C85.14896493 1.31817137 86.6521025 2.50021554 88.6015625 5.30078125 C90.69246618 10.83174712 90.58264371 16.19131333 90.6875 22.0625 C90.73221436 24.00552002 90.73221436 24.00552002 90.77783203 25.98779297 C90.83908143 28.8093149 90.88751476 31.63074651 90.92822266 34.45263672 C90.97393152 37.57982092 91.0377601 40.7059501 91.11474609 43.83251953 C91.21528746 47.95537832 91.2867401 52.07788499 91.33901978 56.20162964 C91.36272964 57.79855653 91.39457726 59.39538642 91.43515015 60.99197388 C91.74917421 74.02663373 89.63007122 84.70194113 81 94.96875 C69.66998983 106.47579158 57.36106879 108.36515441 41.93113708 108.54090881 C38.57898927 108.56082017 35.22720273 108.56418767 31.875 108.5625 C28.48084356 108.56610467 25.08719485 108.57552324 21.69314575 108.60325623 C19.59203597 108.62009291 17.49075715 108.62288279 15.38961792 108.61024475 C14.44748444 108.61712814 13.50535095 108.62401154 12.53466797 108.63110352 C11.70482391 108.63014175 10.87497986 108.62917999 10.01998901 108.62818909 C9.35339264 108.75088669 8.68679626 108.87358429 8 109 C7.34 109.99 6.68 110.98 6 112 C3.6171875 112.29296875 3.6171875 112.29296875 0.875 112.1875 C-0.03507812 112.16042969 -0.94515625 112.13335937 -1.8828125 112.10546875 C-2.58148438 112.07066406 -3.28015625 112.03585938 -4 112 C-4.33 111.01 -4.66 110.02 -5 109 C-19.85 108.67 -34.7 108.34 -50 108 C-50 98.43 -50 88.86 -50 79 C-47.36 78.896875 -44.72 78.79375 -42 78.6875 C-32.42841928 78.15644797 -26.25297814 77.03238678 -19.54296875 69.62109375 C-13.91842045 60.06648133 -14.48980494 49.41644643 -14.375 38.6875 C-13.90080144 7.40599365 -13.90080144 7.40599365 -10.5625 3.25 C-6.85294745 -0.00716809 -4.91504743 -0.38549392 0 0 Z " fill="#58D2FA" transform="translate(157,99)"/>
<path d="M0 0 C3.14896493 1.31817137 4.6521025 2.50021554 6.6015625 5.30078125 C8.69246618 10.83174712 8.58264371 16.19131333 8.6875 22.0625 C8.71730957 23.35784668 8.74711914 24.65319336 8.77783203 25.98779297 C8.83908143 28.8093149 8.88751476 31.63074651 8.92822266 34.45263672 C8.97393152 37.57982092 9.0377601 40.7059501 9.11474609 43.83251953 C9.21528746 47.95537832 9.2867401 52.07788499 9.33901978 56.20162964 C9.36272964 57.79855653 9.39457726 59.39538642 9.43515015 60.99197388 C9.74933765 74.03341795 7.61825706 84.6780702 -0.98828125 94.96484375 C-11.8867658 105.99030093 -23.35445605 107.63580689 -38.1574707 107.77563477 C-40.69505184 107.81261004 -43.2242787 107.91879578 -45.75976562 108.02539062 C-57.56060723 108.2899018 -57.56060723 108.2899018 -61.43066406 104.82177734 C-62.99533488 102.24105604 -64.06287245 99.86152995 -65 97 C-65.45375 96.01 -65.9075 95.02 -66.375 94 C-68.34648818 84.53685673 -66.24491577 77.48983154 -62 69 C-57 71 -57 71 -54.7734375 72.046875 C-46.84803392 74.77053482 -36.6466563 73.90413959 -29.14453125 70.30859375 C-22.01615304 65.95885477 -17.98963295 60.01260792 -15.48233032 52.05651855 C-13.45670448 43.41982927 -14.08506954 33.98513115 -13.95703125 25.16503906 C-13.90750733 22.29931863 -13.82950091 19.43533292 -13.75 16.5703125 C-13.74774414 15.69835236 -13.74548828 14.82639221 -13.74316406 13.92800903 C-13.57102469 7.91543705 -12.37271543 5.1797528 -8 1 C-5.17998673 -0.41000664 -3.12992745 -0.24548451 0 0 Z " fill="#A0E2FA" transform="translate(239,99)"/>
<path d="M0 0 C2.97 0 5.94 0 9 0 C8.6390625 0.73863281 8.278125 1.47726563 7.90625 2.23828125 C4.31580435 10.08739438 1.97178759 17.16780121 4.91015625 25.6171875 C5.60360936 27.17310739 6.3381596 28.7118134 7.125 30.22265625 C8 32 8 32 8 34 C9.65 34 11.3 34 13 34 C13 34.33 13 34.66 13 35 C12.2265625 35.06316406 11.453125 35.12632813 10.65625 35.19140625 C2.71032984 36.12564191 -1.59941186 38.12859136 -7 44 C-7.99 44.99 -7.99 44.99 -9 46 C-9.7425 45.38125 -10.485 44.7625 -11.25 44.125 C-16.474192 40.08812436 -20.31565673 39.4505957 -26.88671875 39.546875 C-33.52298604 40.51275581 -38.65323293 45.08626331 -43 50 C-43.721875 49.38125 -44.44375 48.7625 -45.1875 48.125 C-50.07856209 44.42953086 -54.21935872 43.42223898 -60.30078125 43.55859375 C-65.88922737 44.47247857 -70.8595967 47.42473904 -74.48046875 51.78125 C-76.44118557 55.00900043 -77.54703721 58.26305696 -78 62 C-83.09913597 57.62931202 -85.67620645 52.95191134 -86.40185547 46.33642578 C-86.5878836 42.74757264 -86.60737279 39.1649663 -86.57641602 35.57202148 C-86.56246187 33.3063094 -86.59679306 31.04466688 -86.63476562 28.77929688 C-86.63571626 27.328124 -86.63386101 25.87694598 -86.62890625 24.42578125 C-86.62963135 23.12036377 -86.63035645 21.81494629 -86.63110352 20.4699707 C-85.84201012 16.1313307 -84.43215081 14.68720712 -81 12 C-72.67301222 9.36312053 -63.66450977 8.9228092 -55 8 C-53.79843765 7.86827393 -53.79843765 7.86827393 -52.57260132 7.73388672 C-43.49120453 6.74168692 -34.42564764 5.90013154 -25.30078125 5.4375 C-24.53595428 5.39786133 -23.77112732 5.35822266 -22.98312378 5.31738281 C-19.33359904 5.13370709 -15.68542202 4.97772025 -12.03320312 4.859375 C-10.73962891 4.80265625 -9.44605469 4.7459375 -8.11328125 4.6875 C-6.97673096 4.65011719 -5.84018066 4.61273438 -4.66918945 4.57421875 C-3.34794067 4.28998047 -3.34794067 4.28998047 -2 4 C-1.34 2.68 -0.68 1.36 0 0 Z " fill="#FC6C41" transform="translate(94,45)"/>
<path d="M0 0 C1.17256348 0.00249756 2.34512695 0.00499512 3.55322266 0.00756836 C5.7969165 0.02122437 5.7969165 0.02122437 8.0859375 0.03515625 C15.2015625 0.06609375 15.2015625 0.06609375 22.4609375 0.09765625 C22.4609375 9.66765625 22.4609375 19.23765625 22.4609375 29.09765625 C17.8203125 29.18015625 13.1796875 29.26265625 8.3984375 29.34765625 C6.22302368 29.40228027 6.22302368 29.40228027 4.00366211 29.45800781 C-8.00116832 29.56138992 -8.00116832 29.56138992 -13.5390625 25.09765625 C-16.45643534 21.96093207 -17.44931357 18.73711741 -18.0390625 14.53515625 C-17.26415507 9.20766766 -14.89334385 6.29071363 -10.9140625 2.78515625 C-7.00130551 0.00503944 -4.80268559 -0.02088124 0 0 Z " fill="#56CDF5" transform="translate(37.5390625,177.90234375)"/>
<path d="M0 0 C3.15711858 2.03458753 4.76995668 3.65831893 6.8125 6.8125 C7.26660156 10.31762695 7.26660156 10.31762695 7.203125 14.30078125 C7.19746521 15.00397995 7.19180542 15.70717865 7.18597412 16.4316864 C7.16369769 18.66350248 7.11352373 20.89367461 7.0625 23.125 C7.04242343 24.64385691 7.02417468 26.16273916 7.0078125 27.68164062 C6.96727269 31.39305991 6.88898291 35.10095439 6.8125 38.8125 C-1.7675 38.8125 -10.3475 38.8125 -19.1875 38.8125 C-19.27966383 34.50640106 -19.3591866 30.20376281 -19.40722656 25.89746094 C-19.42726332 24.43477748 -19.45450104 22.97217334 -19.48925781 21.50976562 C-19.53813225 19.3995399 -19.56054659 17.29037864 -19.578125 15.1796875 C-19.59907227 13.91237793 -19.62001953 12.64506836 -19.64160156 11.33935547 C-18.98767878 6.26055522 -16.81643983 3.13326202 -12.875 -0.0625 C-8.25878541 -1.9948689 -4.6470785 -1.73126454 0 0 Z " fill="#FCEECC" transform="translate(110.1875,88.1875)"/>
<path d="M0 0 C3.85544798 1.99657127 5.59805092 3.39707638 8 7 C8.22705078 9.91088867 8.22705078 9.91088867 8.1953125 13.41796875 C8.18886719 14.67158203 8.18242188 15.92519531 8.17578125 17.21679688 C8.15902344 18.52712891 8.14226562 19.83746094 8.125 21.1875 C8.11496639 22.52277987 8.1058412 23.85806689 8.09765625 25.19335938 C8.07405367 28.46231645 8.03818219 31.73118071 8 35 C-0.58 35 -9.16 35 -18 35 C-18.0825 30.83375 -18.165 26.6675 -18.25 22.375 C-18.28641602 21.07224121 -18.32283203 19.76948242 -18.36035156 18.42724609 C-18.46334708 7.69743871 -18.46334708 7.69743871 -14 3 C-9.80908295 -0.98052965 -5.5096044 -0.79950095 0 0 Z " fill="#FCF5E3" transform="translate(75,92)"/>
<path d="M0 0 C4.83576882 1.70147421 6.74690733 3.45522734 9 8 C9.34057617 10.67895508 9.34057617 10.67895508 9.29296875 13.51953125 C9.28172974 14.90168823 9.28172974 14.90168823 9.27026367 16.31176758 C9.24295166 17.46700928 9.21563965 18.62225098 9.1875 19.8125 C9.125625 23.504375 9.06375 27.19625 9 31 C0.42 31 -8.16 31 -17 31 C-17.0825 27.49375 -17.165 23.9875 -17.25 20.375 C-17.28641602 19.28106934 -17.32283203 18.18713867 -17.36035156 17.06005859 C-17.44408934 9.69788706 -16.21285059 6.56983399 -11.3125 1.125 C-7.60288141 -0.67967931 -4.04197198 -0.51226381 0 0 Z " fill="#FBEDCB" transform="translate(40,96)"/>
<path d="M0 0 C2.625 1.6875 2.625 1.6875 3.625 4.6875 C2.5525 5.326875 1.48 5.96625 0.375 6.625 C-4.06347369 9.8265952 -5.75166371 13.54022844 -7.375 18.6875 C-7.92876669 22.21396296 -8.06744748 25.68435988 -8.125 29.25 C-8.15464844 30.16330078 -8.18429688 31.07660156 -8.21484375 32.01757812 C-8.28467155 34.24042976 -8.33219853 36.46396377 -8.375 38.6875 C-12.005 38.6875 -15.635 38.6875 -19.375 38.6875 C-19.47435088 34.38254985 -19.54669268 30.07821817 -19.59472656 25.77246094 C-19.61476332 24.30977748 -19.64200104 22.84717334 -19.67675781 21.38476562 C-19.72563225 19.2745399 -19.74804659 17.16537864 -19.765625 15.0546875 C-19.78657227 13.78737793 -19.80751953 12.52006836 -19.82910156 11.21435547 C-19.17517878 6.13555522 -17.00393983 3.00826202 -13.0625 -0.1875 C-8.33796328 -2.16521305 -4.723729 -1.83700572 0 0 Z " fill="#FAF3E1" transform="translate(144.375,88.3125)"/>
<path d="M0 0 C4.29 0 8.58 0 13 0 C13 9.57 13 19.14 13 29 C8.71 29 4.42 29 0 29 C0 19.43 0 9.86 0 0 Z " fill="#54C8EE" transform="translate(87,178)"/>
<path d="M0 0 C4.29 0 8.58 0 13 0 C13 9.57 13 19.14 13 29 C8.71 29 4.42 29 0 29 C0 19.43 0 9.86 0 0 Z " fill="#54C8EE" transform="translate(67,178)"/>
<path d="M0 0 C1.2065625 0.0309375 1.2065625 0.0309375 2.4375 0.0625 C3.4275 2.0425 4.4175 4.0225 5.4375 6.0625 C7.35216367 5.94072312 7.35216367 5.94072312 9.4375 5.0625 C11.20898372 2.58316803 11.20898372 2.58316803 12.4375 0.0625 C14.75 0.25 14.75 0.25 17.4375 1.0625 C19.25 3.625 19.25 3.625 20.4375 6.0625 C22.39644361 5.94943303 22.39644361 5.94943303 24.4375 5.0625 C25.73410434 2.57215614 25.73410434 2.57215614 26.4375 0.0625 C28.10361905 0.019779 29.77132885 0.02186168 31.4375 0.0625 C31.9325 0.5575 31.9325 0.5575 32.4375 1.0625 C32.35317989 6.12170675 32.20954226 8.15864564 28.875 12.0625 C23.54747648 15.16215005 19.33111523 14.59047432 13.4375 13.0625 C12.4475 13.3925 11.4575 13.7225 10.4375 14.0625 C3.65808942 14.95160303 3.65808942 14.95160303 0.58203125 12.7109375 C-2.20352512 9.70703586 -3.46591225 7.80760548 -4 3.6875 C-3.39923469 0.08290816 -3.39923469 0.08290816 0 0 Z " fill="#040506" transform="translate(180.5625,182.9375)"/>
<path d="M0 0 C4.41116385 2.20558192 6.96872431 4.48605402 9 9 C9 10.32 9 11.64 9 13 C0.42 13 -8.16 13 -17 13 C-15.81717309 4.72021163 -15.81717309 4.72021163 -11.09765625 1.10546875 C-7.39264994 -0.84707647 -4.04535843 -0.86212557 0 0 Z " fill="#F9F2E0" transform="translate(210,96)"/>
<path d="M0 0 C8.25 0 16.5 0 25 0 C25 3.3 25 6.6 25 10 C16.75 10 8.5 10 0 10 C0 6.7 0 3.4 0 0 Z " fill="#FBF4E2" transform="translate(193,117)"/>
<path d="M0 0 C5.28891955 0.0694996 7.8575981 1.31500146 11.5703125 4.9921875 C14.72618488 8.82290052 13.88072451 12.72428403 13.8125 17.5 C9.1925 17.5 4.5725 17.5 -0.1875 17.5 C-0.414375 16.324375 -0.64125 15.14875 -0.875 13.9375 C-2.01757609 9.25877601 -4.21790737 6.25106438 -7.1875 2.5 C-4.65027946 -0.03722054 -3.52838191 0.11680161 0 0 Z " fill="#F7E9C8" transform="translate(171.1875,91.5)"/>
<path d="M0 0 C4.29 0 8.58 0 13 0 C13 3.63 13 7.26 13 11 C8.71 11 4.42 11 0 11 C0 7.37 0 3.74 0 0 Z " fill="#ECDFBF" transform="translate(172,116)"/>
<path d="M0 0 C4.55555556 0.55555556 4.55555556 0.55555556 6 2 C6.16796875 3.99609375 6.16796875 3.99609375 6.1875 6.4375 C6.20167969 7.24058594 6.21585938 8.04367188 6.23046875 8.87109375 C6 11 6 11 4 13 C1.375 13.125 1.375 13.125 -1 13 C-2.17673198 10.64653604 -2.16623866 9.1193967 -2.1875 6.5 C-2.20167969 5.7059375 -2.21585938 4.911875 -2.23046875 4.09375 C-2 2 -2 2 0 0 Z " fill="#060F12" transform="translate(162,173)"/>
<path d="M0 0 C4.70588235 0.70588235 4.70588235 0.70588235 6 2 C6.09823996 3.47648876 6.12973519 4.95775417 6.125 6.4375 C6.12757813 7.24058594 6.13015625 8.04367188 6.1328125 8.87109375 C6 11 6 11 5 13 C3.33388095 13.042721 1.66617115 13.04063832 0 13 C-1 12 -1 12 -1.1328125 9.53125 C-1.13023437 8.5309375 -1.12765625 7.530625 -1.125 6.5 C-1.12757813 5.4996875 -1.13015625 4.499375 -1.1328125 3.46875 C-1 1 -1 1 0 0 Z " fill="#030505" transform="translate(224,173)"/>
</svg>
